<svg width="607" height="43" viewBox="0 0 607 43" fill="none" xmlns="http://www.w3.org/2000/svg">
<path d="M601.734 -6.66223L604.706 3.1568V12.7501C604.111 16.926 583.308 29.3714 573.5 30.5C565.655 30.2726 554.519 30.1899 546.5 30L544 17L544.735 16.9965C546.613 16.9878 549.282 16.9931 551.941 16.9983L559 17C568.401 16.0261 584.931 1.38792 585.501 -2.50763C584.992 -3.96155 584.512 -5.41541 584.061 -6.8692L601.734 -6.66223Z" fill="url(#paint0_radial_381_222)"/>
<path d="M12.7553 10.9086C13.9441 15.6488 33.2623 28.6279 44.2589 30.7723C53.7098 30.7147 63.2359 30.6685 72.8208 30.6342L60 16.5C49.4589 14.444 31 2 29.5 -4C27.8501 -7.9812 26.4113 -13.5935 25.5 -19H8C8.13955 -17.7988 8.29366 -16.3737 8.46348 -14.8033L8.46348 -14.8032C9.37863 -6.34048 10.7498 6.33906 12.7553 10.9086Z" fill="url(#paint1_radial_381_222)"/>
<path fill-rule="evenodd" clip-rule="evenodd" d="M491.349 29.8079L491.374 29.808L491.398 29.8082L491.42 29.8084L491.443 29.8086C513.822 29.931 536.237 30.0536 558.5 30.2147C571.3 26.0429 583.833 19.6448 588.5 16.9672C502.921 17.1324 415.275 16.7301 336.998 14.2649C301.856 14.366 266.464 16.924 231.289 19.4664C228.824 19.6446 226.359 19.8228 223.895 20C156.306 18.0419 87.5644 16.8615 17.5 16.4913C23.1 24.4983 32.8333 30.6527 37 32.7291C104.981 33.1498 172.767 34.2013 234.859 35.9998C238.783 35.6121 242.659 35.223 246.501 34.8374L246.656 34.8218L246.733 34.8141L246.775 34.8099H246.776C278.619 31.6132 308.122 28.6513 343.041 28.5508C390.863 29.2578 441.008 29.5323 491.337 29.8079H491.349Z" fill="url(#paint2_radial_381_222)"/>
<g opacity="0.7">
<path fill-rule="evenodd" clip-rule="evenodd" d="M-136.435 -144.429C-140.257 -146.019 -143.533 -147.382 -145.859 -148.192V-147.74C-140.092 -144.763 -134.25 -141.899 -128.299 -139.118C-128.279 -139.766 -128.258 -140.415 -128.237 -141.066C-131.132 -142.224 -133.903 -143.376 -136.435 -144.429ZM396.144 15.7291L387.622 21.8922H387.919C389.979 20.813 393.653 18.586 398.128 15.766C397.466 15.7538 396.805 15.7415 396.144 15.7291ZM-139.024 -411.5C-134.465 -411.252 -129.022 -410.962 -123.154 -410.651C-123.198 -410.922 -123.241 -411.193 -123.284 -411.465C-128.529 -411.449 -133.776 -411.451 -139.024 -411.5ZM314.722 -525.638C317.227 -525.591 319.736 -525.545 322.248 -525.5C321.451 -525.722 320.655 -525.945 319.859 -526.168C299.847 -531.811 280.43 -537.68 261.607 -543.774L255.069 -544C252.493 -543.85 250.016 -543.737 247.639 -543.661C259.627 -539.845 274.753 -535.989 289.48 -532.235C298.289 -529.99 306.955 -527.781 314.722 -525.638Z" fill="url(#paint3_radial_381_222)"/>
<path d="M220.474 19.9016C220.618 22.4969 220.849 24.7682 221.187 26.6324C221.623 24.8896 222.051 22.6235 222.471 19.9589L220.474 19.9016Z" fill="url(#paint4_radial_381_222)"/>
</g>
<path fill-rule="evenodd" clip-rule="evenodd" d="M165.665 18.3673C131.459 18.1898 95.2793 16.3249 60.422 16.5373C49.8809 14.4813 31.3628 2.03727 30.2233 -2.50754C25.3801 -14.1942 23.6707 -34.1048 25.3801 -50.0117C25.665 -61.1573 22.2463 -71.9783 17.9729 -82.691C18.0648 -98.5078 18.394 -118.121 19.0467 -139.118C13.0951 -141.899 7.25377 -144.763 1.48602 -147.74C0.594408 -122.685 0 -99.0963 0 -80.474C4.45806 -69.3006 8.0245 -58.0144 7.7273 -46.3895C5.94407 -29.7987 7.72729 -9.03201 12.7798 3.15714C13.9686 7.89736 33.2868 20.8765 44.2834 23.0209C86.4863 22.7952 129.951 24.7131 171.361 25.0141C170.139 23.5643 168.839 22.0548 167.501 20.5011L167.5 20.5C167.099 20.0345 166.695 19.5649 166.288 19.0918C166.081 18.8512 165.873 18.6097 165.665 18.3673Z" fill="url(#paint5_radial_381_222)"/>
<path fill-rule="evenodd" clip-rule="evenodd" d="M220.367 19.8985C157.617 18.1068 93.8742 16.9852 29 16.5594C34.246 21.1059 44.5354 23.8832 48.5 23.3426C106.815 23.8961 164.377 24.9926 221.187 26.6319C220.76 24.7672 220.487 22.4948 220.367 19.8985Z" fill="url(#paint6_radial_381_222)"/>
<path fill-rule="evenodd" clip-rule="evenodd" d="M396.04 15.7271C375.909 15.3488 356.172 14.8688 336.998 14.2649C301.856 14.366 266.464 16.924 231.289 19.4664L231.157 19.476L228.088 19.6978C226.69 19.7987 225.292 19.8995 223.895 20L222.473 19.9589C222.044 22.629 221.616 24.924 221.187 26.6325C223.758 26.4476 226.331 26.2617 228.904 26.0757C265.598 23.4241 302.517 20.7563 339.177 20.6508C355.028 21.1775 371.176 21.5913 387.622 21.8923L396.04 15.7271Z" fill="url(#paint7_radial_381_222)"/>
<path fill-rule="evenodd" clip-rule="evenodd" d="M572.5 23.4794L588.5 16.9672C524.59 17.0906 459.527 16.8974 398.074 15.765C393.673 18.6123 389.944 20.8671 387.919 21.8926C447.114 23.1484 509.989 23.4959 572.5 23.4794Z" fill="url(#paint8_radial_381_222)"/>
<path d="M573.924 23.0208C574.519 22.9455 575.311 22.7949 576.302 22.5692C586.704 19.7477 604.239 6.88144 604.833 3.15698C599.781 -11.2894 597.403 -25.7359 598.295 -40.0694C597.998 -83.86 600.078 -122.685 606.914 -166.362C600.673 -201.011 596.809 -263.537 596.809 -308.795C590.489 -306.435 584.205 -304.074 577.973 -301.699C578.044 -258.323 581.616 -198.3 587.623 -165.039C581.071 -123.161 579.076 -85.9373 579.361 -43.952C578.507 -30.2093 580.786 -16.3584 585.629 -2.50757C585.077 1.26697 567.699 15.2834 558 17C565.37 19.9403 570.169 21.6433 573.924 23.0208Z" fill="url(#paint9_radial_381_222)"/>
<path style="mix-blend-mode:multiply" opacity="0.5" fill-rule="evenodd" clip-rule="evenodd" d="M23.5 23.1393C28.4967 27.8247 31.5044 29.7452 37 32.7294C104.981 33.15 172.766 34.2015 234.859 36L221.187 26.6324C156.274 24.7592 90.3782 23.5948 23.5 23.1393Z" fill="url(#paint10_radial_381_222)"/>
<path style="mix-blend-mode:multiply" d="M221.187 26.6321L234.859 35.9997C271.415 32.3881 303.81 28.6636 343.041 28.5508L339.177 20.6504C299.946 20.7633 260.418 23.8105 221.187 26.6321Z" fill="url(#paint11_radial_381_222)"/>
<path style="mix-blend-mode:multiply" opacity="0.5" fill-rule="evenodd" clip-rule="evenodd" d="M343.041 28.5508L339.177 20.6504C355.028 21.1771 371.176 21.5909 387.622 21.8918H387.919C452.8 23.2683 522.102 23.5536 590.5 23.4643C587.333 24.8095 579.5 28.0659 573.5 30.3296C546.293 30.1085 518.794 29.958 491.349 29.8078C441.016 29.5323 390.867 29.2578 343.041 28.5508Z" fill="url(#paint12_radial_381_222)"/>
<defs>
<radialGradient id="paint0_radial_381_222" cx="0" cy="0" r="1" gradientUnits="userSpaceOnUse" gradientTransform="translate(206.749 -247.285) scale(886.262 336.556)">
<stop stop-color="#9DA9AB"/>
<stop offset="1" stop-color="#555763"/>
</radialGradient>
<radialGradient id="paint1_radial_381_222" cx="0" cy="0" r="1" gradientUnits="userSpaceOnUse" gradientTransform="translate(499.575 -249.239) scale(886.262 336.556)">
<stop stop-color="#9DA9AB"/>
<stop offset="1" stop-color="#555763"/>
</radialGradient>
<radialGradient id="paint2_radial_381_222" cx="0" cy="0" r="1" gradientUnits="userSpaceOnUse" gradientTransform="translate(352.255 -247.285) scale(886.262 336.556)">
<stop stop-color="#9DA9AB"/>
<stop offset="1" stop-color="#555763"/>
</radialGradient>
<radialGradient id="paint3_radial_381_222" cx="0" cy="0" r="1" gradientUnits="userSpaceOnUse" gradientTransform="translate(298.163 -258.684) scale(616.995 234.302)">
<stop stop-color="#E2F1F7"/>
<stop offset="1" stop-color="#9A9DB5"/>
</radialGradient>
<radialGradient id="paint4_radial_381_222" cx="0" cy="0" r="1" gradientUnits="userSpaceOnUse" gradientTransform="translate(298.163 -258.684) scale(616.995 234.302)">
<stop stop-color="#E2F1F7"/>
<stop offset="1" stop-color="#9A9DB5"/>
</radialGradient>
<radialGradient id="paint5_radial_381_222" cx="0" cy="0" r="1" gradientUnits="userSpaceOnUse" gradientTransform="translate(-55.2799 -180.131) scale(814.636 309.356)">
<stop stop-color="#717485"/>
<stop offset="1" stop-color="#9DA9AB"/>
</radialGradient>
<radialGradient id="paint6_radial_381_222" cx="0" cy="0" r="1" gradientUnits="userSpaceOnUse" gradientTransform="translate(96.3617 -180.809) scale(619.373 235.205)">
<stop stop-color="#717485"/>
<stop offset="1" stop-color="#9DA9AB"/>
</radialGradient>
<radialGradient id="paint7_radial_381_222" cx="0" cy="0" r="1" gradientUnits="userSpaceOnUse" gradientTransform="translate(332.639 -115.461) scale(536.156 203.604)">
<stop stop-color="#717485"/>
<stop offset="1" stop-color="#9DA9AB"/>
</radialGradient>
<radialGradient id="paint8_radial_381_222" cx="0" cy="0" r="1" gradientUnits="userSpaceOnUse" gradientTransform="translate(553.462 -109.028) scale(692.485 262.969)">
<stop stop-color="#717485"/>
<stop offset="1" stop-color="#9DA9AB"/>
</radialGradient>
<radialGradient id="paint9_radial_381_222" cx="0" cy="0" r="1" gradientUnits="userSpaceOnUse" gradientTransform="translate(862.807 -2.03477) scale(1215.27 461.494)">
<stop stop-color="#717485"/>
<stop offset="1" stop-color="#9DA9AB"/>
</radialGradient>
<radialGradient id="paint10_radial_381_222" cx="0" cy="0" r="1" gradientUnits="userSpaceOnUse" gradientTransform="translate(92.4981 39.0473) scale(454.425 172.567)">
<stop stop-color="#E2F1F7"/>
<stop offset="1" stop-color="#9A9DB5"/>
</radialGradient>
<radialGradient id="paint11_radial_381_222" cx="0" cy="0" r="1" gradientUnits="userSpaceOnUse" gradientTransform="translate(310.349 -3.61499) scale(226.172 85.8881)">
<stop stop-color="#E2F1F7"/>
<stop offset="1" stop-color="#9A9DB5"/>
</radialGradient>
<radialGradient id="paint12_radial_381_222" cx="0" cy="0" r="1" gradientUnits="userSpaceOnUse" gradientTransform="translate(564.161 -52.0327) scale(429.162 162.973)">
<stop stop-color="#E2F1F7"/>
<stop offset="1" stop-color="#9A9DB5"/>
</radialGradient>
</defs>
</svg>
