<svg width="895" height="43" viewBox="0 0 895 43" fill="none" xmlns="http://www.w3.org/2000/svg">
<path fill-rule="evenodd" clip-rule="evenodd" d="M816.266 26.295C829.159 21.0434 842.402 15.9793 856.089 11.1734C843.82 13.8707 827.382 19.4833 810.429 26.0017C812.386 26.0975 814.333 26.1952 816.266 26.295ZM149.511 20.9235C151.231 20.9014 152.957 20.8798 154.69 20.8585C152.866 18.1852 152.038 15.2314 151.27 12.4938C151.22 12.3161 151.171 12.1392 151.121 11.9634C150.527 9.36758 150.229 6.65888 150.527 3.95018C148.941 3.95018 147.257 3.98781 145.474 4.06305C145.672 6.84699 146.168 9.63093 146.96 12.4149C147.579 15.2804 148.429 18.1166 149.511 20.9235ZM459.534 18.3619C462.039 18.4093 464.548 18.4554 467.06 18.5001C466.263 18.2778 465.467 18.0552 464.671 17.8323C444.659 12.1891 425.242 6.3203 406.419 0.225726L399.881 0C397.305 0.150483 394.828 0.263349 392.451 0.338591C404.439 4.15474 419.565 8.0106 434.292 11.7648C443.101 14.0103 451.767 16.2194 459.534 18.3619Z" fill="url(#paint0_radial_381_231)"/>
<path fill-rule="evenodd" clip-rule="evenodd" d="M0 43H19.5834C28.7066 35.7989 39.9201 29.0913 54.185 23.0597C80.409 22.0129 113.537 21.3846 149.479 20.9239C148.501 18.4901 147.662 16.03 146.96 13.5438V12.528C146.168 9.7441 145.672 6.92254 145.474 4.06335C104.757 4.62767 67.3095 5.30484 37.8863 6.43346C22.1345 13.0923 9.94922 20.5412 0.141452 28.5545C0.123729 30.4521 0.10389 32.3803 0.0837734 34.3353L0.0834418 34.3675C0.0543677 37.1927 0.024717 40.0738 0 43Z" fill="url(#paint1_radial_381_231)"/>
<path fill-rule="evenodd" clip-rule="evenodd" d="M154.826 20.8568C177.335 20.5804 200.853 20.3639 224.397 20.1472C290.306 19.5406 356.422 18.9321 401.185 17C420.347 17.5358 439.813 17.9887 459.466 18.3606C449.175 15.5642 437.159 12.5222 425.143 9.48029C413.552 6.54586 401.961 3.49858 392.451 0.451294C346.961 2.18703 283.459 2.77267 219.689 3.36079C196.382 3.57574 173.039 3.79102 150.527 4.06289C150.229 6.65873 150.527 9.48029 151.418 12.0761C151.418 12.5275 151.517 12.979 151.715 13.4304C152.242 15.9321 153.003 18.4338 154.826 20.8568Z" fill="url(#paint2_radial_381_231)"/>
<path fill-rule="evenodd" clip-rule="evenodd" d="M467.028 18.4996C466.242 18.2774 465.456 18.0549 464.671 17.832C454.566 14.9728 444.659 12.076 434.951 9.14165C425.242 6.28246 415.731 3.34804 406.419 0.338379C501.524 2.93421 603.465 3.38566 699.165 2.3699C727.787 5.20537 761.089 6.62742 793.535 8.01296C815.332 8.94371 836.742 9.85798 856.089 11.1731C843.82 13.8705 827.381 19.4831 810.428 26.0017C800.044 25.4933 789.339 25.0361 778.534 24.5746C747.432 23.2462 715.51 21.8828 688.073 19.1642C615.94 19.9944 540.285 19.8055 467.028 18.4996Z" fill="url(#paint3_radial_381_231)"/>
<path fill-rule="evenodd" clip-rule="evenodd" d="M838.497 27.6044C831.399 27.1219 824.012 26.6956 816.425 26.3032C829.268 21.0615 842.458 15.9949 856.089 11.1733C870.355 16.7035 884.62 23.8139 894.131 30.0213C894.213 34.2059 894.21 38.5459 894.13 43H870.658C861.822 37.7508 850.16 32.1266 838.497 27.6044Z" fill="url(#paint4_radial_381_231)"/>
<defs>
<radialGradient id="paint0_radial_381_231" cx="0" cy="0" r="1" gradientUnits="userSpaceOnUse" gradientTransform="translate(442.975 285.316) scale(616.995 234.302)">
<stop stop-color="#E2F1F7"/>
<stop offset="1" stop-color="#9A9DB5"/>
</radialGradient>
<radialGradient id="paint1_radial_381_231" cx="0" cy="0" r="1" gradientUnits="userSpaceOnUse" gradientTransform="translate(-91.1002 -1.8055) scale(429.162 162.973)">
<stop stop-color="#717485"/>
<stop offset="1" stop-color="#9DA9AB"/>
</radialGradient>
<radialGradient id="paint2_radial_381_231" cx="0" cy="0" r="1" gradientUnits="userSpaceOnUse" gradientTransform="translate(376.699 -95.3689) scale(485.334 184.304)">
<stop stop-color="#717485"/>
<stop offset="1" stop-color="#9DA9AB"/>
</radialGradient>
<radialGradient id="paint3_radial_381_231" cx="0" cy="0" r="1" gradientUnits="userSpaceOnUse" gradientTransform="translate(928.309 -68.7334) scale(669.601 254.279)">
<stop stop-color="#AAB4B8"/>
<stop offset="1" stop-color="#828599"/>
</radialGradient>
<radialGradient id="paint4_radial_381_231" cx="0" cy="0" r="1" gradientUnits="userSpaceOnUse" gradientTransform="translate(1121.79 196.493) scale(695.457 264.098)">
<stop stop-color="#9DA9AB"/>
<stop offset="1" stop-color="#717485"/>
</radialGradient>
</defs>
</svg>
