<svg width="607" height="43" viewBox="0 0 607 43" fill="none" xmlns="http://www.w3.org/2000/svg">
<g opacity="0.7">
<path fill-rule="evenodd" clip-rule="evenodd" d="M-136.435 399.571C-140.257 397.981 -143.533 396.618 -145.859 395.808V396.26C-140.092 399.237 -134.25 402.101 -128.299 404.882C-128.279 404.234 -128.258 403.585 -128.237 402.934C-131.132 401.776 -133.903 400.624 -136.435 399.571ZM396.144 559.729L387.622 565.892H387.919C389.979 564.813 393.653 562.586 398.128 559.766C397.466 559.754 396.805 559.741 396.144 559.729ZM-139.024 132.5C-134.465 132.748 -129.022 133.038 -123.154 133.349C-123.198 133.078 -123.241 132.807 -123.284 132.535C-128.529 132.551 -133.776 132.549 -139.024 132.5ZM314.722 18.3619C317.227 18.4093 319.736 18.4554 322.248 18.5001C321.451 18.2778 320.655 18.0552 319.859 17.8323C299.847 12.1891 280.43 6.3203 261.607 0.225726L255.069 0C252.493 0.150483 250.016 0.263349 247.639 0.338591C259.627 4.15474 274.753 8.0106 289.48 11.7648C298.289 14.0103 306.955 16.2194 314.722 18.3619Z" fill="url(#paint0_radial_381_222)"/>
<path d="M220.474 563.902C220.618 566.497 220.849 568.768 221.187 570.632C221.623 568.89 222.051 566.624 222.471 563.959L220.474 563.902Z" fill="url(#paint1_radial_381_222)"/>
</g>
<path fill-rule="evenodd" clip-rule="evenodd" d="M21.601 132.621C17.4277 106.197 17.7426 75.5922 18.0076 49.8423C18.027 47.9573 18.0461 46.0983 18.0632 44.2688C27.4647 36.586 39.1453 29.4441 54.2447 23.0597C80.4687 22.0129 113.059 19.9607 149 19.5C148.023 17.0662 147.721 16.03 147.02 13.5438V12.528C146.227 9.74407 145.732 6.92251 145.534 4.06332C104.817 4.62764 67.3692 5.30481 37.946 6.43343C22.1942 13.0923 10.0089 20.5412 0.20113 28.5545C0.183313 30.4625 0.163359 32.4014 0.143125 34.3675C-0.174139 65.1955 -0.560058 102.695 6.14521 132.614C11.2971 132.647 16.4491 132.641 21.601 132.621Z" fill="url(#paint2_radial_381_222)"/>
<path d="M280.331 9.48026C268.74 6.54583 257.149 3.49855 247.639 0.451263C202.149 2.187 138.647 2.77264 74.8765 3.36076C62.5517 3.47443 50.7168 6.37783 38.5 6.5L43 20.4937C53.6423 20.3871 64.3973 20.2871 75.1706 20.1878L79.5846 20.1472C145.494 19.5406 211.61 18.9321 256.373 17C275.535 17.5358 295.001 17.9887 314.654 18.3606C304.363 15.5642 292.347 12.5222 280.331 9.48026Z" fill="#8D93A5"/>
<path fill-rule="evenodd" clip-rule="evenodd" d="M319.859 17.832C320.644 18.0549 321.43 18.2774 322.216 18.4996C395.473 19.8055 471.128 19.9944 543.261 19.1642C553.019 20.1311 563.345 20.9266 574 21.6101L566.5 3.47032C562.371 3.12818 558.317 2.76258 554.353 2.36987C458.653 3.38563 356.712 2.93418 261.607 0.338348C270.919 3.34801 280.43 6.28243 290.139 9.14162C299.847 12.076 309.754 14.9728 319.859 17.832Z" fill="url(#paint3_radial_381_222)"/>
<path fill-rule="evenodd" clip-rule="evenodd" d="M527 18.1299C534.587 18.5223 541.974 18.9486 549.072 19.4312C562.747 24.7335 576.421 31.5507 585.538 37.5022C586.108 66.7188 582.404 103.835 576.706 133.592C577.454 138.252 579.538 142.942 581.802 148.037C583.849 152.645 586.044 157.584 587.532 163.134C586.478 170.439 584.937 177.42 583.444 184.185L583.444 184.186C581.708 192.05 580.036 199.621 579.27 207.067C578.914 214.394 578.74 223.02 578.736 232.48L597.573 225.452V225.449C597.573 215.518 597.573 206.49 598.167 198.703C598.966 190.938 600.71 183.041 602.521 174.839L602.521 174.837C604.079 167.782 605.687 160.501 606.786 152.881C605.234 147.093 602.944 141.941 600.809 137.136C598.447 131.821 596.273 126.93 595.493 122.07C601.437 91.0327 605.3 52.3209 604.706 21.848C595.195 15.6406 580.93 8.53026 566.664 3C553.033 7.82161 539.843 12.8882 527 18.1299Z" fill="url(#paint4_radial_381_222)"/>
<defs>
<radialGradient id="paint0_radial_381_222" cx="0" cy="0" r="1" gradientUnits="userSpaceOnUse" gradientTransform="translate(298.163 285.316) scale(616.995 234.302)">
<stop stop-color="#E2F1F7"/>
<stop offset="1" stop-color="#9A9DB5"/>
</radialGradient>
<radialGradient id="paint1_radial_381_222" cx="0" cy="0" r="1" gradientUnits="userSpaceOnUse" gradientTransform="translate(298.163 285.316) scale(616.995 234.302)">
<stop stop-color="#E2F1F7"/>
<stop offset="1" stop-color="#9A9DB5"/>
</radialGradient>
<radialGradient id="paint2_radial_381_222" cx="0" cy="0" r="1" gradientUnits="userSpaceOnUse" gradientTransform="translate(-91.0405 -1.80553) scale(429.162 162.973)">
<stop stop-color="#717485"/>
<stop offset="1" stop-color="#9DA9AB"/>
</radialGradient>
<radialGradient id="paint3_radial_381_222" cx="0" cy="0" r="1" gradientUnits="userSpaceOnUse" gradientTransform="translate(783.497 -68.7335) scale(669.601 254.279)">
<stop stop-color="#AAB4B8"/>
<stop offset="1" stop-color="#828599"/>
</radialGradient>
<radialGradient id="paint4_radial_381_222" cx="0" cy="0" r="1" gradientUnits="userSpaceOnUse" gradientTransform="translate(832.364 188.32) scale(695.457 264.098)">
<stop stop-color="#9DA9AB"/>
<stop offset="1" stop-color="#717485"/>
</radialGradient>
</defs>
</svg>
