<svg width="50" height="64" viewBox="0 0 50 64" fill="none" xmlns="http://www.w3.org/2000/svg">
    <path d="M5.29993 0L49.4 28.8V34.8L5.29993 63.6L0.699951 61.1V2.5L5.29993 0Z" fill="#CCCCCC"/>
    <path d="M7.5 12.2V51.3L9.79999 52.6L39.2 33.3V30.3L9.79999 11L7.5 12.2Z" fill="url(#paint0_radial_16_4568)"/>
    <path d="M7.49994 51.2998L0.699951 61.0998L5.29993 63.5998L9.79993 52.5998L7.49994 51.2998Z" fill="url(#paint1_radial_16_4568)"/>
    <path d="M39.2 33.2998L49.4 34.7998V28.7998L39.2 30.2998V33.2998Z" fill="url(#paint2_radial_16_4568)"/>
    <path d="M9.79993 11L5.29993 0L0.699951 2.5L7.49994 12.2L9.79993 11Z" fill="url(#paint3_radial_16_4568)"/>
    <path d="M9.7998 11L5.2998 0L49.3998 28.8L39.1998 30.3L9.7998 11Z" fill="url(#paint4_radial_16_4568)"/>
    <path d="M9.7998 52.5998L39.1998 33.2998L49.3998 34.7998L5.2998 63.5998L9.7998 52.5998Z" fill="url(#paint5_radial_16_4568)"/>
    <path d="M7.49994 12.2V51.3L0.699951 61.1V2.5L7.49994 12.2Z" fill="url(#paint6_radial_16_4568)"/>
    <path style="mix-blend-mode:multiply" d="M5.2998 0C9.7998 11 39.1998 30.3 49.3998 28.8L39.1998 30.3L9.7998 11L5.2998 0Z" fill="url(#paint7_radial_16_4568)"/>
    <path style="mix-blend-mode:multiply" d="M49.3998 34.7998C39.1998 33.2998 9.7998 52.5998 5.2998 63.5998L9.7998 52.5998L13.0999 50.3998L17.5999 47.4998L26.4998 41.5998L37.0999 34.5998L39.1998 33.2998L49.3998 34.7998Z" fill="url(#paint8_radial_16_4568)"/>
    <path style="mix-blend-mode:multiply" d="M0.699951 61.1C7.49995 51.3 7.49995 12.2 0.699951 2.5L7.49994 12.2V51.3L0.699951 61.1Z" fill="url(#paint9_radial_16_4568)"/>
    <g style="mix-blend-mode:screen">
        <path d="M7.49994 48.3002V12.2002L9.79993 11.0002L37.7999 29.4002L10.1 10.5002L7.29993 4.8002C8.09993 7.5002 8.49994 9.00019 8.49994 10.0002C8.59994 11.3002 7.99998 11.4002 7.09998 10.6002C5.09998 9.0002 1.69995 3.9002 1.19995 3.2002L6.99994 12.5002L7.49994 48.3002Z" fill="#F7E984"/>
    </g>
    <path style="mix-blend-mode:screen" d="M7.5 38.6L25.1 21L14.4 14L7.5 20.9V38.6Z" fill="url(#paint10_radial_16_4568)"/>
    <path style="mix-blend-mode:screen" d="M33.8998 26.7998L8.7998 51.9998L9.7998 52.5998L26.6998 41.4998L38.3998 29.7998L33.8998 26.7998Z" fill="url(#paint11_radial_16_4568)"/>
    <defs>
        <radialGradient id="paint0_radial_16_4568" cx="0" cy="0" r="1" gradientUnits="userSpaceOnUse" gradientTransform="translate(6.1 10.8) scale(50.8 50.8)">
            <stop stop-color="#FFEEB8"/>
            <stop offset="1" stop-color="#FFBF00"/>
        </radialGradient>
        <radialGradient id="paint1_radial_16_4568" cx="0" cy="0" r="1" gradientUnits="userSpaceOnUse" gradientTransform="translate(-1.00004 70.0998) scale(34.6999 34.7)">
            <stop stop-color="#E08A00"/>
            <stop offset="1" stop-color="#FFD97A"/>
        </radialGradient>
        <radialGradient id="paint2_radial_16_4568" cx="0" cy="0" r="1" gradientUnits="userSpaceOnUse" gradientTransform="translate(55.9 42.2998) scale(40.8 40.8)">
            <stop stop-color="#E08A00"/>
            <stop offset="1" stop-color="#FFD97A"/>
        </radialGradient>
        <radialGradient id="paint3_radial_16_4568" cx="0" cy="0" r="1" gradientUnits="userSpaceOnUse" gradientTransform="translate(-2.10004 -2.7) scale(27.1999 27.2)">
            <stop stop-color="#FFF8C9"/>
            <stop offset="1" stop-color="#FFE89C"/>
        </radialGradient>
        <radialGradient id="paint4_radial_16_4568" cx="0" cy="0" r="1" gradientUnits="userSpaceOnUse" gradientTransform="translate(52.1998 35) scale(75.6001 75.6)">
            <stop stop-color="#CF8100"/>
            <stop offset="1" stop-color="#EBA82C"/>
        </radialGradient>
        <radialGradient id="paint5_radial_16_4568" cx="0" cy="0" r="1" gradientUnits="userSpaceOnUse" gradientTransform="translate(26.7998 46.6998) scale(66.7001 66.7)">
            <stop stop-color="#CF8100"/>
            <stop offset="1" stop-color="#EBA82C"/>
        </radialGradient>
        <radialGradient id="paint6_radial_16_4568" cx="0" cy="0" r="1" gradientUnits="userSpaceOnUse" gradientTransform="translate(-10.2 5.7) scale(71.4999 71.5)">
            <stop stop-color="#FFF8C9"/>
            <stop offset="1" stop-color="#FFD23B"/>
        </radialGradient>
        <radialGradient id="paint7_radial_16_4568" cx="0" cy="0" r="1" gradientUnits="userSpaceOnUse" gradientTransform="translate(43.2998 17.4) scale(44.8 44.8)">
            <stop stop-color="#DEBA83"/>
            <stop offset="1" stop-color="white"/>
        </radialGradient>
        <radialGradient id="paint8_radial_16_4568" cx="0" cy="0" r="1" gradientUnits="userSpaceOnUse" gradientTransform="translate(21.0998 62.8998) scale(49.5 49.5)">
            <stop stop-color="#DEBA83"/>
            <stop offset="1" stop-color="white"/>
        </radialGradient>
        <radialGradient id="paint9_radial_16_4568" cx="0" cy="0" r="1" gradientUnits="userSpaceOnUse" gradientTransform="translate(46.4999 37.1) scale(63.2999 63.3)">
            <stop stop-color="#F39200"/>
            <stop offset="1" stop-color="white"/>
        </radialGradient>
        <radialGradient id="paint10_radial_16_4568" cx="0" cy="0" r="1" gradientUnits="userSpaceOnUse" gradientTransform="translate(10.4 3.7) scale(33.8001 33.8)">
            <stop stop-color="#FFFD9E"/>
            <stop offset="1"/>
        </radialGradient>
        <radialGradient id="paint11_radial_16_4568" cx="0" cy="0" r="1" gradientUnits="userSpaceOnUse" gradientTransform="translate(12.8998 15.2998) scale(37 37)">
            <stop stop-color="#FFFD9E"/>
            <stop offset="1"/>
        </radialGradient>
    </defs>
</svg>
