<svg width="49" height="64" viewBox="0 0 49 64" fill="none" xmlns="http://www.w3.org/2000/svg">
    <path d="M44.1 0L0 28.8V34.8L44.1 63.6L48.7 61.1V2.5L44.1 0Z" fill="#CCCCCC"/>
    <path d="M41.9 12.2V51.3L39.6 52.6L10.2 33.3V30.3L39.6 11L41.9 12.2Z" fill="url(#paint0_radial_16_4553)"/>
    <path d="M41.9001 51.2998L48.7001 61.0998L44.1001 63.5998L39.6001 52.5998L41.9001 51.2998Z" fill="url(#paint1_radial_16_4553)"/>
    <path d="M10.2 33.2998L0 34.7998V28.7998L10.2 30.2998V33.2998Z" fill="url(#paint2_radial_16_4553)"/>
    <path d="M39.6001 11L44.1001 0L48.7001 2.5L41.9001 12.2L39.6001 11Z" fill="url(#paint3_radial_16_4553)"/>
    <path style="mix-blend-mode:screen" d="M29 17.9L12.3 34.6L22.9 41.6L41.9 22.7V12.2L39.6 11L29 17.9Z" fill="url(#paint4_radial_16_4553)"/>
    <path style="mix-blend-mode:screen" d="M41.9 37.3999L31.8 47.4999L36.3 50.3999L41.9 44.7999V37.3999Z" fill="url(#paint5_radial_16_4553)"/>
    <path d="M39.6 11L44.1 0L0 28.8L10.2 30.3L39.6 11Z" fill="url(#paint6_radial_16_4553)"/>
    <path d="M39.6 52.5998L10.2 33.2998L0 34.7998L44.1 63.5998L39.6 52.5998Z" fill="url(#paint7_radial_16_4553)"/>
    <path style="mix-blend-mode:multiply" d="M41.9 12.2V51.3L48.7 61.1V2.5L41.9 12.2Z" fill="url(#paint8_radial_16_4553)"/>
    <path style="mix-blend-mode:multiply" d="M44.1 0C39.6 11 10.2 30.3 0 28.8L10.2 30.3L39.6 11L44.1 0Z" fill="url(#paint9_radial_16_4553)"/>
    <path style="mix-blend-mode:multiply" d="M0 34.7998C10.2 33.2998 39.6 52.5998 44.1 63.5998L39.6 52.5998L36.3 50.3998L31.8 47.4998L22.9 41.5998L12.3 34.5998L10.2 33.2998L0 34.7998Z" fill="url(#paint10_radial_16_4553)"/>
    <path style="mix-blend-mode:multiply" d="M48.7 61.1C41.9 51.3 41.9 12.2 48.7 2.5L41.9 12.2V51.3L48.7 61.1Z" fill="url(#paint11_radial_16_4553)"/>
    <g style="mix-blend-mode:screen">
        <path d="M41.9 48.3002V12.2002L39.6 11.0002L11.7 29.3002L39.4 10.5002L42.1 4.8002C41.3 7.5002 40.9 9.00019 40.9 10.0002C40.8 11.3002 41.4 11.4002 42.3 10.6002C44.3 9.0002 47.7 3.9002 48.2 3.2002L42.4 12.5002L41.9 48.3002Z" fill="#F7E984"/>
    </g>
    <defs>
        <radialGradient id="paint0_radial_16_4553" cx="0" cy="0" r="1" gradientUnits="userSpaceOnUse" gradientTransform="translate(14.7 -0.199997) scale(62.1 62.1)">
            <stop stop-color="#FFEEB8"/>
            <stop offset="1" stop-color="#FFBF00"/>
        </radialGradient>
        <radialGradient id="paint1_radial_16_4553" cx="0" cy="0" r="1" gradientUnits="userSpaceOnUse" gradientTransform="translate(55.9001 69.7998) scale(47.9999 48)">
            <stop stop-color="#E08A00"/>
            <stop offset="1" stop-color="#FFD97A"/>
        </radialGradient>
        <radialGradient id="paint2_radial_16_4553" cx="0" cy="0" r="1" gradientUnits="userSpaceOnUse" gradientTransform="translate(-2.6 25.6998) scale(35.1 35.1)">
            <stop stop-color="#FFF8C9"/>
            <stop offset="1" stop-color="#FFD23B"/>
        </radialGradient>
        <radialGradient id="paint3_radial_16_4553" cx="0" cy="0" r="1" gradientUnits="userSpaceOnUse" gradientTransform="translate(64.2 16.6) scale(33.7999 33.8)">
            <stop stop-color="#FFF8C9"/>
            <stop offset="1" stop-color="#FFD23B"/>
        </radialGradient>
        <radialGradient id="paint4_radial_16_4553" cx="0" cy="0" r="1" gradientUnits="userSpaceOnUse" gradientTransform="translate(24.7 -8.4) scale(62.2999 62.3)">
            <stop stop-color="#FFFD9E"/>
            <stop offset="1"/>
        </radialGradient>
        <radialGradient id="paint5_radial_16_4553" cx="0" cy="0" r="1" gradientUnits="userSpaceOnUse" gradientTransform="translate(38.7 28.7999) scale(26.0999 26.1)">
            <stop stop-color="#FFFD9E"/>
            <stop offset="1"/>
        </radialGradient>
        <radialGradient id="paint6_radial_16_4553" cx="0" cy="0" r="1" gradientUnits="userSpaceOnUse" gradientTransform="translate(15.9 -41.6) scale(74.6001 74.6)">
            <stop stop-color="#FFF8C9"/>
            <stop offset="1" stop-color="#FFE89C"/>
        </radialGradient>
        <radialGradient id="paint7_radial_16_4553" cx="0" cy="0" r="1" gradientUnits="userSpaceOnUse" gradientTransform="translate(42.9 62.3998) scale(69.9001 69.9)">
            <stop stop-color="#CF8100"/>
            <stop offset="1" stop-color="#EBA82C"/>
        </radialGradient>
        <radialGradient id="paint8_radial_16_4553" cx="0" cy="0" r="1" gradientUnits="userSpaceOnUse" gradientTransform="translate(59.6 70) scale(70.9999 71)">
            <stop stop-color="#CF8100"/>
            <stop offset="1" stop-color="#EBA82C"/>
        </radialGradient>
        <radialGradient id="paint9_radial_16_4553" cx="0" cy="0" r="1" gradientUnits="userSpaceOnUse" gradientTransform="translate(-0.199997 -12.2) scale(51.8 51.8)">
            <stop stop-color="#F39200"/>
            <stop offset="1" stop-color="white"/>
        </radialGradient>
        <radialGradient id="paint10_radial_16_4553" cx="0" cy="0" r="1" gradientUnits="userSpaceOnUse" gradientTransform="translate(7.40001 30.0998) scale(54.4 54.4)">
            <stop stop-color="#DEBA83"/>
            <stop offset="1" stop-color="white"/>
        </radialGradient>
        <radialGradient id="paint11_radial_16_4553" cx="0" cy="0" r="1" gradientUnits="userSpaceOnUse" gradientTransform="translate(31.9 53.6) scale(74.6999 74.7)">
            <stop stop-color="#DEBA83"/>
            <stop offset="1" stop-color="white"/>
        </radialGradient>
    </defs>
</svg>
