<svg width="900" height="580" viewBox="0 0 900 580" fill="none" xmlns="http://www.w3.org/2000/svg">
<path fill-rule="evenodd" clip-rule="evenodd" d="M819.266 26.295C832.159 21.0434 845.402 15.9793 859.089 11.1734C846.82 13.8707 830.382 19.4833 813.429 26.0017C815.386 26.0975 817.333 26.1952 819.266 26.295ZM152.511 20.9235C154.231 20.9014 155.957 20.8798 157.69 20.8585C155.866 18.1852 155.038 15.2314 154.27 12.4938C154.22 12.3161 154.171 12.1392 154.121 11.9634C153.527 9.36758 153.229 6.65888 153.527 3.95018C151.941 3.95018 150.257 3.98781 148.474 4.06305C148.672 6.84699 149.168 9.63093 149.96 12.4149C150.579 15.2804 151.429 18.1166 152.511 20.9235ZM462.534 18.3619C465.039 18.4093 467.548 18.4554 470.06 18.5001C469.263 18.2778 468.467 18.0552 467.671 17.8323C447.659 12.1891 428.242 6.3203 409.419 0.225726L402.881 0C400.305 0.150483 397.828 0.263349 395.451 0.338591C407.439 4.15474 422.565 8.0106 437.292 11.7648C446.101 14.0103 454.767 16.2194 462.534 18.3619Z" fill="url(#paint0_radial_458_24)"/>
<path fill-rule="evenodd" clip-rule="evenodd" d="M3 43H22.5834C31.7066 35.7989 42.9201 29.0913 57.185 23.0597C83.409 22.0129 116.537 21.3846 152.479 20.9239C151.501 18.4901 150.662 16.03 149.96 13.5438V12.528C149.168 9.7441 148.672 6.92254 148.474 4.06335C107.757 4.62767 70.3095 5.30484 40.8863 6.43346C25.1345 13.0923 12.9492 20.5412 3.14145 28.5545C3.12373 30.4521 3.10389 32.3803 3.08377 34.3353L3.08344 34.3675C3.05437 37.1926 3.02472 40.0738 3 43Z" fill="url(#paint1_radial_458_24)"/>
<path fill-rule="evenodd" clip-rule="evenodd" d="M157.826 20.8568C180.335 20.5804 203.853 20.3639 227.397 20.1472C293.306 19.5406 359.422 18.9321 404.185 17C423.347 17.5358 442.813 17.9887 462.466 18.3606C452.175 15.5642 440.159 12.5222 428.143 9.48029C416.552 6.54586 404.961 3.49858 395.451 0.451294C349.961 2.18703 286.459 2.77267 222.689 3.36079C199.382 3.57574 176.039 3.79102 153.527 4.06289C153.229 6.65873 153.527 9.48029 154.418 12.0761C154.418 12.5275 154.517 12.979 154.715 13.4304C155.242 15.9321 156.003 18.4338 157.826 20.8568Z" fill="url(#paint2_radial_458_24)"/>
<path fill-rule="evenodd" clip-rule="evenodd" d="M470.028 18.4996C469.242 18.2774 468.456 18.0549 467.671 17.832C457.566 14.9728 447.659 12.076 437.951 9.14165C428.242 6.28246 418.731 3.34804 409.419 0.338379C504.524 2.93421 606.465 3.38566 702.165 2.3699C730.787 5.20537 764.089 6.62742 796.535 8.01296C818.332 8.94371 839.742 9.85798 859.089 11.1731C846.82 13.8705 830.381 19.4831 813.428 26.0017C803.044 25.4933 792.339 25.0361 781.534 24.5746C750.432 23.2462 718.51 21.8828 691.073 19.1642C618.94 19.9944 543.285 19.8055 470.028 18.4996Z" fill="url(#paint3_radial_458_24)"/>
<path fill-rule="evenodd" clip-rule="evenodd" d="M841.497 27.6044C834.399 27.1219 827.012 26.6956 819.425 26.3032C832.268 21.0615 845.458 15.9949 859.089 11.1733C873.355 16.7035 887.62 23.8139 897.131 30.0213C897.213 34.2059 897.21 38.5459 897.13 43H873.658C864.822 37.7508 853.16 32.1266 841.497 27.6044Z" fill="url(#paint4_radial_458_24)"/>
<path fill-rule="evenodd" clip-rule="evenodd" d="M639.68 573.808L639.683 573.808C717.902 574.236 796.564 574.666 867.632 576.727C877.44 575.598 897.947 560.926 898.542 556.75V547.157L897.586 544H877.767C872.84 549.518 857.631 559.716 849.708 560.537L838.571 560.589L837.836 560.592L837.834 560.592C722.891 561.124 594.927 561.716 485.329 558.265C450.187 558.366 414.795 560.924 379.62 563.466C377.155 563.645 374.69 563.823 372.226 564C271.374 561.078 167.958 559.888 61.4072 560.537C52.4425 558.789 37.7081 549.527 32.8008 544H11C11.7493 549.374 12.6611 554.347 13.7651 556.863C14.9539 561.603 34.2721 574.582 45.2687 576.727C156.423 576.049 277.98 576.952 383.19 580C387.167 579.607 391.095 579.212 394.987 578.822L395.064 578.814L395.106 578.81H395.107L395.11 578.81C426.951 575.613 456.454 572.651 491.372 572.551C539.183 573.258 589.317 573.532 639.635 573.808L639.668 573.808H639.68Z" fill="url(#paint5_radial_458_24)"/>
<path fill-rule="evenodd" clip-rule="evenodd" d="M165.098 560.487C167.069 562.798 168.947 565.028 170.689 567.134C169.267 564.96 167.788 562.743 166.257 560.494L165.098 560.487ZM544.475 559.729L535.953 565.892H536.25C538.31 564.813 541.984 562.586 546.459 559.766C545.797 559.754 545.136 559.742 544.475 559.729ZM854.555 563.183C852.474 562.352 850.252 561.471 847.906 560.546L849.708 560.537C850 560.507 850.302 560.464 850.613 560.409C857.984 563.349 863.877 565.643 867.632 567.021C865.552 566.908 858.716 564.763 854.555 563.183Z" fill="url(#paint6_radial_458_24)"/>
<path d="M368.805 563.902C368.949 566.497 369.18 568.768 369.518 570.632C369.954 568.89 370.382 566.624 370.802 563.959L368.805 563.902Z" fill="url(#paint7_radial_458_24)"/>
<path fill-rule="evenodd" clip-rule="evenodd" d="M61.4072 560.537C96.2645 560.325 130.787 560.309 164.993 560.487C165.201 560.729 165.409 560.971 165.616 561.211C166.022 561.685 166.427 562.154 166.828 562.62L166.829 562.621L166.865 562.663C168.19 564.202 169.478 565.697 170.689 567.134C129.279 566.833 87.4715 566.795 45.2686 567.021C34.272 564.877 14.9538 551.897 13.765 547.157C13.3516 546.16 12.9601 545.105 12.5907 544H32.8007C37.7078 549.527 52.4423 558.789 61.4072 560.537Z" fill="url(#paint8_radial_458_24)"/>
<path fill-rule="evenodd" clip-rule="evenodd" d="M170.986 567.133C169.52 564.962 167.999 562.749 166.424 560.495C235.065 560.862 302.435 562.007 368.698 563.899C368.818 566.495 369.091 568.767 369.518 570.632C304.332 568.751 238.154 567.585 170.986 567.133Z" fill="url(#paint9_radial_458_24)"/>
<path fill-rule="evenodd" clip-rule="evenodd" d="M544.371 559.727C524.24 559.349 504.503 558.869 485.329 558.265C450.187 558.366 414.795 560.924 379.62 563.466L379.488 563.476L376.419 563.698C375.021 563.799 373.623 563.899 372.226 564L370.804 563.959C370.375 566.629 369.947 568.924 369.518 570.632C372.089 570.448 374.662 570.262 377.235 570.076C413.929 567.424 450.848 564.756 487.508 564.651C503.359 565.177 519.507 565.591 535.953 565.892L544.371 559.727Z" fill="url(#paint10_radial_458_24)"/>
<path fill-rule="evenodd" clip-rule="evenodd" d="M847.905 560.546L837.836 560.592H837.834H837.831C743.676 561.028 640.783 561.504 546.405 559.765C542.004 562.612 538.275 564.867 536.25 565.893C636.539 568.02 747.39 567.541 849.14 567.101H849.149C855.345 567.074 861.508 567.047 867.632 567.021C865.552 566.908 858.716 564.764 854.555 563.184C852.474 562.352 850.252 561.471 847.905 560.546Z" fill="url(#paint11_radial_458_24)"/>
<path fill-rule="evenodd" clip-rule="evenodd" d="M870.01 566.569C869.019 566.795 868.227 566.945 867.632 567.021C863.877 565.643 857.983 563.349 850.613 560.409C858.739 558.971 873.022 549.315 877.767 544H897.479C897.819 545.052 898.173 546.105 898.541 547.157C897.947 550.881 880.412 563.748 870.01 566.569Z" fill="url(#paint12_radial_458_24)"/>
<path style="mix-blend-mode:multiply" opacity="0.5" d="M170.689 567.134C129.279 566.833 87.4714 566.795 45.2685 567.021V576.727C156.423 576.05 277.98 576.953 383.19 580L369.518 570.632C304.332 568.751 238.154 567.585 170.986 567.134C170.689 567.134 170.689 567.134 170.689 567.134Z" fill="url(#paint13_radial_458_24)"/>
<path style="mix-blend-mode:multiply" d="M369.518 570.632L383.19 580C419.746 576.388 452.141 572.664 491.372 572.551L487.508 564.65C448.277 564.763 408.749 567.81 369.518 570.632Z" fill="url(#paint14_radial_458_24)"/>
<path style="mix-blend-mode:multiply" opacity="0.5" d="M487.508 564.65L491.372 572.551C613.523 574.357 750.831 573.341 867.632 576.727V567.02C760.936 567.472 642.649 568.149 536.25 565.892C536.052 565.892 535.953 565.892 535.953 565.892C519.507 565.591 503.359 565.177 487.508 564.65Z" fill="url(#paint15_radial_458_24)"/>
<path fill-rule="evenodd" clip-rule="evenodd" d="M10.6694 544H32.4705C31.6075 543.028 31.0483 542.172 30.8779 541.492C29.2281 537.511 27.9419 532.576 27.0306 527.169L8.6792 526.954C8.81839 528.153 8.97206 529.574 9.14135 531.139L9.14268 531.151C9.55404 534.955 10.0576 539.611 10.6694 544Z" fill="url(#paint16_radial_458_24)"/>
<path fill-rule="evenodd" clip-rule="evenodd" d="M11.5654 399.571C7.74319 397.981 4.46745 396.618 2.14056 395.808V396.26C7.90835 399.237 13.7497 402.101 19.7013 404.882C19.7215 404.234 19.7419 403.585 19.7627 402.934C16.8685 401.776 14.097 400.624 11.5654 399.571ZM8.97624 132.5C13.5346 132.748 18.9776 133.038 24.8456 133.349C24.8019 133.078 24.7586 132.807 24.7159 132.535C19.4713 132.551 14.2238 132.549 8.97624 132.5Z" fill="url(#paint17_radial_458_24)"/>
<path fill-rule="evenodd" clip-rule="evenodd" d="M12.2601 544H32.4704C31.6074 543.028 31.0483 542.172 30.8779 541.492C26.0347 529.806 24.3253 509.895 26.0347 493.988C26.3196 482.843 22.9009 472.022 18.6275 461.309C18.7194 445.492 19.0486 425.879 19.7013 404.882C13.7497 402.101 7.90837 399.237 2.14062 396.26C1.24901 421.315 0.654602 444.904 0.654602 463.526C5.11266 474.699 8.6791 485.986 8.3819 497.61C6.74457 512.844 8.11397 531.598 12.2601 544Z" fill="url(#paint18_radial_458_24)"/>
<path fill-rule="evenodd" clip-rule="evenodd" d="M19.7626 402.935C21.154 359.336 23.9403 310.139 28.8837 276.703C27.1743 258.524 24.3253 240.345 18.3426 222.057C17.5754 189.129 17.9703 187.393 20.8313 174.818C22.2199 168.714 24.1896 160.056 26.8894 144.038C26.1169 140.591 25.4426 137.038 24.8546 133.404C19.1066 133.108 13.7718 132.836 9.27351 132.614C6.4607 149.299 4.40759 158.327 2.95922 164.696C-0.0304527 177.843 -0.443452 179.659 0.35739 214.1C6.59867 233.061 9.57073 252.022 11.354 270.983C6.30148 304.051 3.62665 352.131 2.14063 395.809C4.46756 396.619 7.74335 397.981 11.5656 399.571C14.0972 400.624 16.8685 401.777 19.7626 402.935Z" fill="url(#paint19_radial_458_24)"/>
<path fill-rule="evenodd" clip-rule="evenodd" d="M21.1359 49.8423C20.8709 75.5923 20.556 106.197 24.7293 132.621C19.5774 132.641 14.4254 132.647 9.27351 132.614C3.18272 105.436 2.94298 72.0048 3.18798 43H12.9797H22.7714C22.2377 43.4213 21.7111 43.8443 21.1915 44.2689C21.1744 46.0983 21.1553 47.9573 21.1359 49.8423Z" fill="url(#paint20_radial_458_24)"/>
<g opacity="0.7">
<path fill-rule="evenodd" clip-rule="evenodd" d="M889.867 235.205C883.546 237.565 877.263 239.926 871.03 242.301C871.03 241.749 871.029 241.2 871.03 240.653L889.867 233.625V235.205Z" fill="url(#paint21_radial_458_24)"/>
</g>
<path fill-rule="evenodd" clip-rule="evenodd" d="M877.117 544H896.83C892.51 530.607 890.526 517.22 891.353 503.931C891.055 460.14 893.136 421.315 899.971 377.638C893.73 342.989 889.867 280.463 889.867 235.205C883.546 237.565 877.263 239.926 871.03 242.301C871.102 285.677 874.673 345.7 880.681 378.961C874.128 420.839 872.134 458.063 872.419 500.048C871.564 513.791 873.843 527.642 878.686 541.492C878.597 542.104 878.036 542.971 877.117 544Z" fill="url(#paint22_radial_458_24)"/>
<path fill-rule="evenodd" clip-rule="evenodd" d="M896.998 43H873.526C875.05 43.9055 876.49 44.7999 877.832 45.6755C878.402 74.8921 874.698 112.008 869 141.766C869.748 146.424 871.83 151.112 874.094 156.206L874.096 156.211C876.143 160.818 878.338 165.758 879.826 171.307C878.772 178.612 877.231 185.594 875.738 192.358L875.737 192.359C874.001 200.223 872.33 207.794 871.564 215.24C871.208 222.567 871.033 231.193 871.029 240.653L889.867 233.625V233.622C889.867 223.691 889.867 214.664 890.461 206.877C891.26 199.113 893.003 191.22 894.813 183.019L894.815 183.012L894.815 183.01C896.373 175.955 897.981 168.674 899.08 161.055C897.528 155.267 895.238 150.115 893.102 145.309C890.74 139.994 888.567 135.103 887.786 130.243C892.914 103.468 896.494 70.9814 896.998 43Z" fill="url(#paint23_radial_458_24)"/>
<defs>
<radialGradient id="paint0_radial_458_24" cx="0" cy="0" r="1" gradientUnits="userSpaceOnUse" gradientTransform="translate(445.975 285.316) scale(616.995 234.302)">
<stop stop-color="#E2F1F7"/>
<stop offset="1" stop-color="#9A9DB5"/>
</radialGradient>
<radialGradient id="paint1_radial_458_24" cx="0" cy="0" r="1" gradientUnits="userSpaceOnUse" gradientTransform="translate(-88.1002 -1.8055) scale(429.162 162.973)">
<stop stop-color="#717485"/>
<stop offset="1" stop-color="#9DA9AB"/>
</radialGradient>
<radialGradient id="paint2_radial_458_24" cx="0" cy="0" r="1" gradientUnits="userSpaceOnUse" gradientTransform="translate(379.699 -95.3689) scale(485.334 184.304)">
<stop stop-color="#717485"/>
<stop offset="1" stop-color="#9DA9AB"/>
</radialGradient>
<radialGradient id="paint3_radial_458_24" cx="0" cy="0" r="1" gradientUnits="userSpaceOnUse" gradientTransform="translate(931.309 -68.7334) scale(669.601 254.279)">
<stop stop-color="#AAB4B8"/>
<stop offset="1" stop-color="#828599"/>
</radialGradient>
<radialGradient id="paint4_radial_458_24" cx="0" cy="0" r="1" gradientUnits="userSpaceOnUse" gradientTransform="translate(1124.79 196.493) scale(695.457 264.098)">
<stop stop-color="#9DA9AB"/>
<stop offset="1" stop-color="#717485"/>
</radialGradient>
<radialGradient id="paint5_radial_458_24" cx="0" cy="0" r="1" gradientUnits="userSpaceOnUse" gradientTransform="translate(500.586 296.715) scale(886.262 336.556)">
<stop stop-color="#9DA9AB"/>
<stop offset="1" stop-color="#555763"/>
</radialGradient>
<radialGradient id="paint6_radial_458_24" cx="0" cy="0" r="1" gradientUnits="userSpaceOnUse" gradientTransform="translate(446.494 285.316) scale(616.995 234.302)">
<stop stop-color="#E2F1F7"/>
<stop offset="1" stop-color="#9A9DB5"/>
</radialGradient>
<radialGradient id="paint7_radial_458_24" cx="0" cy="0" r="1" gradientUnits="userSpaceOnUse" gradientTransform="translate(446.494 285.316) scale(616.998 234.302)">
<stop stop-color="#E2F1F7"/>
<stop offset="1" stop-color="#9A9DB5"/>
</radialGradient>
<radialGradient id="paint8_radial_458_24" cx="0" cy="0" r="1" gradientUnits="userSpaceOnUse" gradientTransform="translate(-54.2948 363.869) scale(814.636 309.356)">
<stop stop-color="#717485"/>
<stop offset="1" stop-color="#9DA9AB"/>
</radialGradient>
<radialGradient id="paint9_radial_458_24" cx="0" cy="0" r="1" gradientUnits="userSpaceOnUse" gradientTransform="translate(244.693 363.191) scale(619.373 235.205)">
<stop stop-color="#717485"/>
<stop offset="1" stop-color="#9DA9AB"/>
</radialGradient>
<radialGradient id="paint10_radial_458_24" cx="0" cy="0" r="1" gradientUnits="userSpaceOnUse" gradientTransform="translate(480.97 428.539) scale(536.156 203.604)">
<stop stop-color="#717485"/>
<stop offset="1" stop-color="#9DA9AB"/>
</radialGradient>
<radialGradient id="paint11_radial_458_24" cx="0" cy="0" r="1" gradientUnits="userSpaceOnUse" gradientTransform="translate(701.793 434.972) scale(692.485 262.969)">
<stop stop-color="#717485"/>
<stop offset="1" stop-color="#9DA9AB"/>
</radialGradient>
<radialGradient id="paint12_radial_458_24" cx="0" cy="0" r="1" gradientUnits="userSpaceOnUse" gradientTransform="translate(1156.51 541.965) scale(1215.27 461.494)">
<stop stop-color="#717485"/>
<stop offset="1" stop-color="#9DA9AB"/>
</radialGradient>
<radialGradient id="paint13_radial_458_24" cx="0" cy="0" r="1" gradientUnits="userSpaceOnUse" gradientTransform="translate(240.829 583.047) scale(454.425 172.567)">
<stop stop-color="#E2F1F7"/>
<stop offset="1" stop-color="#9A9DB5"/>
</radialGradient>
<radialGradient id="paint14_radial_458_24" cx="0" cy="0" r="1" gradientUnits="userSpaceOnUse" gradientTransform="translate(458.68 540.385) scale(226.172 85.8881)">
<stop stop-color="#E2F1F7"/>
<stop offset="1" stop-color="#9A9DB5"/>
</radialGradient>
<radialGradient id="paint15_radial_458_24" cx="0" cy="0" r="1" gradientUnits="userSpaceOnUse" gradientTransform="translate(712.492 491.967) scale(429.162 162.973)">
<stop stop-color="#E2F1F7"/>
<stop offset="1" stop-color="#9A9DB5"/>
</radialGradient>
<radialGradient id="paint16_radial_458_24" cx="0" cy="0" r="1" gradientUnits="userSpaceOnUse" gradientTransform="translate(500.255 296.715) scale(886.262 336.556)">
<stop stop-color="#9DA9AB"/>
<stop offset="1" stop-color="#555763"/>
</radialGradient>
<radialGradient id="paint17_radial_458_24" cx="0" cy="0" r="1" gradientUnits="userSpaceOnUse" gradientTransform="translate(446.163 285.316) scale(616.995 234.302)">
<stop stop-color="#E2F1F7"/>
<stop offset="1" stop-color="#9A9DB5"/>
</radialGradient>
<radialGradient id="paint18_radial_458_24" cx="0" cy="0" r="1" gradientUnits="userSpaceOnUse" gradientTransform="translate(-54.6253 363.869) scale(814.636 309.356)">
<stop stop-color="#717485"/>
<stop offset="1" stop-color="#9DA9AB"/>
</radialGradient>
<radialGradient id="paint19_radial_458_24" cx="0" cy="0" r="1" gradientUnits="userSpaceOnUse" gradientTransform="translate(-325.973 174.598) scale(1183.17 449.305)">
<stop stop-color="#717485"/>
<stop offset="1" stop-color="#9DA9AB"/>
</radialGradient>
<radialGradient id="paint20_radial_458_24" cx="0" cy="0" r="1" gradientUnits="userSpaceOnUse" gradientTransform="translate(-87.9122 -1.80545) scale(429.162 162.973)">
<stop stop-color="#717485"/>
<stop offset="1" stop-color="#9DA9AB"/>
</radialGradient>
<radialGradient id="paint21_radial_458_24" cx="0" cy="0" r="1" gradientUnits="userSpaceOnUse" gradientTransform="translate(445.844 285.316) scale(616.995 234.302)">
<stop stop-color="#E2F1F7"/>
<stop offset="1" stop-color="#9A9DB5"/>
</radialGradient>
<radialGradient id="paint22_radial_458_24" cx="0" cy="0" r="1" gradientUnits="userSpaceOnUse" gradientTransform="translate(1155.86 541.965) scale(1215.27 461.494)">
<stop stop-color="#717485"/>
<stop offset="1" stop-color="#9DA9AB"/>
</radialGradient>
<radialGradient id="paint23_radial_458_24" cx="0" cy="0" r="1" gradientUnits="userSpaceOnUse" gradientTransform="translate(1124.66 196.493) scale(695.457 264.098)">
<stop stop-color="#9DA9AB"/>
<stop offset="1" stop-color="#717485"/>
</radialGradient>
</defs>
</svg>
