<svg width="15" height="181" viewBox="0 0 15 181" fill="none" xmlns="http://www.w3.org/2000/svg">
<path d="M2.99999 181H13C12.6895 177.3 13.1796 170.099 13.6454 164.399L2.31161 164.199C1.84584 170.499 1.75793 176.3 2.99999 181Z" fill="url(#paint0_radial_366_77)"/>
<path d="M3 -0.000488281L13 0C12.6895 3.7 13.0856 10.799 13.5513 16.499L2.05134 16.999C1.58556 10.699 1.75795 4.69951 3 -0.000488281Z" fill="url(#paint1_radial_366_77)"/>
<path d="M2.31171 164.199L13.6455 164.399C12.7139 162.499 10.0746 155.799 9.29829 150.699L0.293335 150.999C1.38014 155.299 2.31171 159.699 2.31171 164.199Z" fill="url(#paint2_radial_366_77)"/>
<path d="M0.293335 150.999L9.29829 150.699C9.45354 131.599 12.8692 112.299 14.7323 93.2992L3.08799 93.1992C1.06965 113.399 0.293335 131.299 0.293335 150.999Z" fill="url(#paint3_radial_366_77)"/>
<path d="M3.08794 93.1992L14.7322 93.2992C13.4902 87.6992 10.385 76.8992 7.74566 68.6992L0.138062 71.2992C1.84589 78.5992 2.62217 85.8992 3.08794 93.1992Z" fill="url(#paint4_radial_366_77)"/>
<path d="M0.138101 71.2991L7.7457 68.6991C9.60879 50.6991 10.9119 34.6995 13.5513 16.4995L2.05127 16.9995C-0.122335 36.6995 -0.172413 51.5991 0.138101 71.2991Z" fill="url(#paint5_radial_366_77)"/>
<defs>
<radialGradient id="paint0_radial_366_77" cx="0" cy="0" r="1" gradientUnits="userSpaceOnUse" gradientTransform="translate(-0.638198 188.299) scale(56.2031 36.2)">
<stop stop-color="#9DA9AB"/>
<stop offset="1" stop-color="#555763"/>
</radialGradient>
<radialGradient id="paint1_radial_366_77" cx="0" cy="0" r="1" gradientUnits="userSpaceOnUse" gradientTransform="translate(-0.721452 -7.00134) scale(56.2031 36.2)">
<stop stop-color="#9DA9AB"/>
<stop offset="1" stop-color="#555763"/>
</radialGradient>
<radialGradient id="paint2_radial_366_77" cx="0" cy="0" r="1" gradientUnits="userSpaceOnUse" gradientTransform="translate(-10.8852 150.999) scale(30.8962 19.8999)">
<stop stop-color="#9DA9AB"/>
<stop offset="1" stop-color="#555763"/>
</radialGradient>
<radialGradient id="paint3_radial_366_77" cx="0" cy="0" r="1" gradientUnits="userSpaceOnUse" gradientTransform="translate(-6.69325 148.399) scale(187.396 120.7)">
<stop stop-color="#9DA9AB"/>
<stop offset="1" stop-color="#555763"/>
</radialGradient>
<radialGradient id="paint4_radial_366_77" cx="0" cy="0" r="1" gradientUnits="userSpaceOnUse" gradientTransform="translate(-19.7349 80.9992) scale(48.1297 31)">
<stop stop-color="#9DA9AB"/>
<stop offset="1" stop-color="#555763"/>
</radialGradient>
<radialGradient id="paint5_radial_366_77" cx="0" cy="0" r="1" gradientUnits="userSpaceOnUse" gradientTransform="translate(-1.88028 72.8995) scale(131.037 84.4)">
<stop stop-color="#9DA9AB"/>
<stop offset="1" stop-color="#555763"/>
</radialGradient>
</defs>
</svg>
