<svg width="14" height="181" viewBox="0 0 14 181" fill="none" xmlns="http://www.w3.org/2000/svg">
<path d="M13.051 63.5005L4.05103 57.5005C2.65371 74.5005 0.630673 107.1 3.89108 123.9L13.0513 117.9C11.0329 101.5 12.43 79.9005 13.051 63.5005Z" fill="url(#paint0_radial_366_76)"/>
<path d="M13.0514 117.9L3.89114 123.9C2.02805 142.9 -1.53665 162.1 2.50004 181H12C10.6027 175.5 10.5672 172.1 10.8777 166.6C10.7225 149.7 11.3435 134.8 13.0514 117.9Z" fill="url(#paint1_radial_366_76)"/>
<path d="M13.0513 63.5L4.05088 57.5C2.1878 38.5 -0.536741 18.9 3.49995 0H12C10.6027 5.5 10.4841 9.19943 10.7946 14.6994C10.6393 31.5994 11.3435 46.6 13.0513 63.5Z" fill="url(#paint2_radial_366_76)"/>
<defs>
<radialGradient id="paint0_radial_366_76" cx="0" cy="0" r="1" gradientUnits="userSpaceOnUse" gradientTransform="translate(33.3898 149.6) scale(135.85 87.5)">
<stop stop-color="#9DA9AB"/>
<stop offset="1" stop-color="#5B5E6B"/>
</radialGradient>
<radialGradient id="paint1_radial_366_76" cx="0" cy="0" r="1" gradientUnits="userSpaceOnUse" gradientTransform="translate(-93.921 119.2) scale(134.142 86.4)">
<stop stop-color="#9DA9AB"/>
<stop offset="1" stop-color="#5B5E6B"/>
</radialGradient>
<radialGradient id="paint2_radial_366_76" cx="0" cy="0" r="1" gradientUnits="userSpaceOnUse" gradientTransform="translate(-94.0037 62.0994) scale(134.142 86.4)">
<stop stop-color="#9DA9AB"/>
<stop offset="1" stop-color="#5B5E6B"/>
</radialGradient>
</defs>
</svg>
