<svg width="201" height="150" viewBox="0 0 201 150" fill="none" xmlns="http://www.w3.org/2000/svg">
    <path opacity="0.5" d="M6.4739 15.4846C7.25169 14.6033 8.11921 13.7641 9.07648 12.9668L6.6534 9.31592C4.32006 10.9525 2.43542 12.7779 0.999512 14.7293L6.4739 15.4846Z" fill="url(#paint0_radial_11_4)"/>
    <path d="M9.07664 12.9671C26.6665 11.4564 47.4871 10.3234 63.9103 6.86138L58.9744 1.88867C41.7435 4.72123 24.2434 7.1761 6.65356 9.31626L9.07664 12.9671Z" fill="url(#paint1_radial_11_4)"/>
    <path d="M63.9098 6.86108C77.5509 6.42046 86.7945 6.10573 98.8202 4.97271L101.064 0C87.1236 0.797312 73.0936 1.42677 58.9739 1.88837L63.9098 6.86108Z" fill="url(#paint2_radial_11_4)"/>
    <path d="M98.8201 4.97271C107.705 5.22449 114.166 5.79099 121.974 7.04991L125.384 3.02139C117.128 2.20309 108.961 1.19597 101.064 0L98.8201 4.97271Z" fill="url(#paint3_radial_11_4)"/>
    <path d="M125.384 3.02148L121.974 7.05001C136.602 6.54644 155.987 6.98706 170.526 7.93124L170.077 4.53218C155.269 3.52505 140.372 3.08443 125.384 3.02148Z" fill="url(#paint4_radial_11_4)"/>
    <path d="M170.526 7.93129C178.334 9.56788 185.244 11.5821 191.705 13.9741L194.846 10.0715C186.59 8.35094 178.334 6.50453 170.077 4.53223L170.526 7.93129Z" fill="url(#paint5_radial_11_4)"/>
    <path d="M194.847 10.0718L191.706 13.9744C192.603 14.6039 193.59 15.3592 194.398 16.1145L200.59 14.6668C199.154 13.1561 197 11.4566 194.847 10.0718Z" fill="url(#paint6_radial_11_4)"/>
    <path d="M200.59 14.6665L194.398 16.1142C194.398 23.1012 193.41 28.2628 192.513 35.2498L198.975 37.264C199.962 29.7105 200.68 22.0312 200.59 14.6665Z" fill="url(#paint7_radial_11_4)"/>
    <path d="M198.975 37.2638L192.513 35.2495C193.769 43.2436 194.936 53.252 196.013 61.2461L200.68 60.9943C199.603 52.6855 198.975 45.5726 198.975 37.2638Z" fill="url(#paint8_radial_11_4)"/>
    <path d="M200.68 60.9941L196.013 61.2459C195.923 64.7709 195.744 66.0298 194.936 69.6177L199.423 72.1355C200.231 68.6106 200.68 65.1486 200.68 60.9941Z" fill="url(#paint9_radial_11_4)"/>
    <path d="M199.423 72.1355L194.936 69.6177C194.128 80.3184 193.68 96.3696 195.564 106.944L200.859 103.168C199.693 92.8447 199.064 82.4586 199.423 72.1355Z" fill="url(#paint10_radial_11_4)"/>
    <path d="M200.859 103.168L195.564 106.945C194.487 118.904 192.423 131.242 194.757 143.138L200.59 144.272C199.782 140.81 199.423 137.285 199.603 133.823C199.513 123.185 199.872 113.806 200.859 103.168Z" fill="url(#paint11_radial_11_4)"/>
    <path d="M200.59 144.272L194.757 143.139C194.487 143.453 194.128 143.831 193.859 144.146L195.834 149.119C197.359 148.867 200.41 145.279 200.59 144.272Z" fill="url(#paint12_radial_11_4)"/>
    <path d="M195.834 149.118L193.859 144.145C184.436 144.334 175.821 143.956 166.128 143.075L168.641 148.426C177.885 148.992 189.552 149.37 195.834 149.118Z" fill="url(#paint13_radial_11_4)"/>
    <path d="M168.641 148.426L166.128 143.075C153.295 143.893 137.769 145.278 124.756 146.097L129.602 149.81C142.436 148.929 155.269 148.3 168.013 148.363C168.252 148.363 168.462 148.384 168.641 148.426Z" fill="url(#paint14_radial_11_4)"/>
    <path d="M129.603 149.811L124.757 146.097C106.628 146.223 94.7822 145.216 77.7308 143.705L74.7693 148.552C92.7181 149.433 110.936 149.937 129.603 149.811Z" fill="url(#paint15_radial_11_4)"/>
    <path d="M74.7689 148.552L77.7304 143.705C71.4484 143.768 58.6149 144.649 52.4226 145.342L56.8201 150C62.8329 149.307 68.756 148.552 74.7689 148.552Z" fill="url(#paint16_radial_11_4)"/>
    <path d="M56.8201 150L52.4226 145.342C36.9866 144.65 25.1405 145.405 9.61473 145.531L7.64038 149.119C24.5123 148.993 40.9354 149.245 56.8201 150Z" fill="url(#paint17_radial_11_4)"/>
    <path d="M7.64024 149.118L9.61459 145.53C9.16587 145.09 8.71716 144.523 8.44793 144.208L2.88379 144.334C3.06328 145.467 6.02485 148.615 7.64024 149.118Z" fill="url(#paint18_radial_11_4)"/>
    <path d="M2.88383 144.335L8.44797 144.209C8.26848 141.88 8.44796 136.026 8.71719 132.438L2.16589 132.312C1.89666 136.278 2.16588 141.376 2.88383 144.335Z" fill="url(#paint19_radial_11_4)"/>
    <path d="M2.1662 132.312L8.71751 132.438C8.17904 131.242 6.6534 127.025 6.20468 123.814L0.999512 124.003C1.62772 126.71 2.1662 129.48 2.1662 132.312Z" fill="url(#paint20_radial_11_4)"/>
    <path d="M0.999512 124.003L6.20468 123.814C6.29443 111.792 8.2688 99.6432 9.34573 87.6836L2.61492 87.6206C1.44825 100.336 0.999512 111.603 0.999512 124.003Z" fill="url(#paint21_radial_11_4)"/>
    <path d="M2.6148 87.6204L9.3456 87.6834C8.62765 84.1584 6.83277 77.3603 5.30712 72.1987L0.909668 73.8353C1.89685 78.4304 2.34557 83.0254 2.6148 87.6204Z" fill="url(#paint22_radial_11_4)"/>
    <path d="M0.909543 73.835L5.307 72.1984C6.38392 60.8682 7.46086 49.2232 8.98651 37.7671L2.2557 37.83C0.999287 50.2303 0.730055 61.4347 0.909543 73.835Z" fill="url(#paint23_radial_11_4)"/>
    <path d="M2.25563 37.8306L8.98643 37.7676C7.90951 31.4101 6.74282 22.8495 6.47359 15.4848L0.999193 14.7295C0.909449 22.4089 1.1787 30.1512 2.25563 37.8306Z" fill="url(#paint24_radial_11_4)"/>
    <path d="M172.5 9.63099C176.359 13.4077 180.398 17.1215 185.064 20.5835C186.141 21.0871 192.334 23.542 193.411 23.2902C193.77 23.2273 194.039 22.9755 194.129 22.2831C194.308 20.3318 194.398 18.3175 194.398 16.1144C193.59 15.359 192.603 14.6037 191.705 13.9742C186.052 11.897 180.039 10.0716 173.398 8.5609C171.244 8.05734 171.154 8.37207 172.5 9.63099Z" fill="url(#paint25_radial_11_4)"/>
    <defs>
        <radialGradient id="paint0_radial_11_4" cx="0" cy="0" r="1" gradientUnits="userSpaceOnUse" gradientTransform="translate(3.06362 4.53205) scale(24.2309 16.9953)">
            <stop stop-color="#E4ECF0"/>
            <stop offset="1" stop-color="#A6B4BD"/>
        </radialGradient>
        <radialGradient id="paint1_radial_11_4" cx="0" cy="0" r="1" gradientUnits="userSpaceOnUse" gradientTransform="translate(52.3333 -34.1162) scale(82.4748 57.847)">
            <stop stop-color="#E4ECF0"/>
            <stop offset="1" stop-color="#A6B4BD"/>
        </radialGradient>
        <radialGradient id="paint2_radial_11_4" cx="0" cy="0" r="1" gradientUnits="userSpaceOnUse" gradientTransform="translate(91.7304 -36.5085) scale(65.0644 45.6356)">
            <stop stop-color="#E4ECF0"/>
            <stop offset="1" stop-color="#A6B4BD"/>
        </radialGradient>
        <radialGradient id="paint3_radial_11_4" cx="0" cy="0" r="1" gradientUnits="userSpaceOnUse" gradientTransform="translate(109.679 -11.9597) scale(35.0002 24.5488)">
            <stop stop-color="#BDCACF"/>
            <stop offset="1" stop-color="#828599"/>
        </radialGradient>
        <radialGradient id="paint4_radial_11_4" cx="0" cy="0" r="1" gradientUnits="userSpaceOnUse" gradientTransform="translate(145.936 -18.9465) scale(45.6798 32.0393)">
            <stop stop-color="#BDCACF"/>
            <stop offset="1" stop-color="#828599"/>
        </radialGradient>
        <radialGradient id="paint5_radial_11_4" cx="0" cy="0" r="1" gradientUnits="userSpaceOnUse" gradientTransform="translate(195.026 -13.1555) scale(38.2309 26.8149)">
            <stop stop-color="#BDCACF"/>
            <stop offset="1" stop-color="#6E7082"/>
        </radialGradient>
        <radialGradient id="paint6_radial_11_4" cx="0" cy="0" r="1" gradientUnits="userSpaceOnUse" gradientTransform="translate(198.616 3.08482) scale(21.0002 14.7293)">
            <stop stop-color="#BDCACF"/>
            <stop offset="1" stop-color="#828599"/>
        </radialGradient>
        <radialGradient id="paint7_radial_11_4" cx="0" cy="0" r="1" gradientUnits="userSpaceOnUse" gradientTransform="translate(198.885 9.44201) scale(84.3594 59.169)">
            <stop stop-color="#9DA9AB"/>
            <stop offset="1" stop-color="#5B5E6B"/>
        </radialGradient>
        <radialGradient id="paint8_radial_11_4" cx="0" cy="0" r="1" gradientUnits="userSpaceOnUse" gradientTransform="translate(214.949 69.6179) scale(68.0258 47.7128)">
            <stop stop-color="#9DA9AB"/>
            <stop offset="1" stop-color="#5B5E6B"/>
        </radialGradient>
        <radialGradient id="paint9_radial_11_4" cx="0" cy="0" r="1" gradientUnits="userSpaceOnUse" gradientTransform="translate(200.141 55.329) scale(25.3974 17.8136)">
            <stop stop-color="#9DA9AB"/>
            <stop offset="1" stop-color="#5B5E6B"/>
        </radialGradient>
        <radialGradient id="paint10_radial_11_4" cx="0" cy="0" r="1" gradientUnits="userSpaceOnUse" gradientTransform="translate(212.616 123.122) scale(78.526 55.0775)">
            <stop stop-color="#9DA9AB"/>
            <stop offset="1" stop-color="#5B5E6B"/>
        </radialGradient>
        <radialGradient id="paint11_radial_11_4" cx="0" cy="0" r="1" gradientUnits="userSpaceOnUse" gradientTransform="translate(139.026 103.986) scale(77.5388 54.3851)">
            <stop stop-color="#9DA9AB"/>
            <stop offset="1" stop-color="#5B5E6B"/>
        </radialGradient>
        <radialGradient id="paint12_radial_11_4" cx="0" cy="0" r="1" gradientUnits="userSpaceOnUse" gradientTransform="translate(203.103 149.811) scale(23.5129 16.4918)">
            <stop stop-color="#9DA9AB"/>
            <stop offset="1" stop-color="#555763"/>
        </radialGradient>
        <radialGradient id="paint13_radial_11_4" cx="0" cy="0" r="1" gradientUnits="userSpaceOnUse" gradientTransform="translate(173.757 116.764) scale(50.7054 35.5642)">
            <stop stop-color="#9DA9AB"/>
            <stop offset="1" stop-color="#555763"/>
        </radialGradient>
        <radialGradient id="paint14_radial_11_4" cx="0" cy="0" r="1" gradientUnits="userSpaceOnUse" gradientTransform="translate(154.282 173.037) scale(55.372 38.8375)">
            <stop stop-color="#9DA9AB"/>
            <stop offset="1" stop-color="#555763"/>
        </radialGradient>
        <radialGradient id="paint15_radial_11_4" cx="0" cy="0" r="1" gradientUnits="userSpaceOnUse" gradientTransform="translate(114.436 120.478) scale(63.808 44.7545)">
            <stop stop-color="#9DA9AB"/>
            <stop offset="1" stop-color="#555763"/>
        </radialGradient>
        <radialGradient id="paint16_radial_11_4" cx="0" cy="0" r="1" gradientUnits="userSpaceOnUse" gradientTransform="translate(72.5253 183.235) scale(65.5132 45.9504)">
            <stop stop-color="#9DA9AB"/>
            <stop offset="1" stop-color="#555763"/>
        </radialGradient>
        <radialGradient id="paint17_radial_11_4" cx="0" cy="0" r="1" gradientUnits="userSpaceOnUse" gradientTransform="translate(33.7559 170.08) scale(56.0003 39.2782)">
            <stop stop-color="#9DA9AB"/>
            <stop offset="1" stop-color="#555763"/>
        </radialGradient>
        <radialGradient id="paint18_radial_11_4" cx="0" cy="0" r="1" gradientUnits="userSpaceOnUse" gradientTransform="translate(0.370956 140.809) scale(19.3847 13.5962)">
            <stop stop-color="#9DA9AB"/>
            <stop offset="1" stop-color="#555763"/>
        </radialGradient>
        <radialGradient id="paint19_radial_11_4" cx="0" cy="0" r="1" gradientUnits="userSpaceOnUse" gradientTransform="translate(0.460751 147.482) scale(32.4873 22.7863)">
            <stop stop-color="#9DA9AB"/>
            <stop offset="1" stop-color="#555763"/>
        </radialGradient>
        <radialGradient id="paint20_radial_11_4" cx="0" cy="0" r="1" gradientUnits="userSpaceOnUse" gradientTransform="translate(-5.46206 124.003) scale(17.8591 12.5261)">
            <stop stop-color="#9DA9AB"/>
            <stop offset="1" stop-color="#555763"/>
        </radialGradient>
        <radialGradient id="paint21_radial_11_4" cx="0" cy="0" r="1" gradientUnits="userSpaceOnUse" gradientTransform="translate(-3.03897 122.367) scale(108.321 75.9755)">
            <stop stop-color="#9DA9AB"/>
            <stop offset="1" stop-color="#555763"/>
        </radialGradient>
        <radialGradient id="paint22_radial_11_4" cx="0" cy="0" r="1" gradientUnits="userSpaceOnUse" gradientTransform="translate(-10.5776 79.9411) scale(27.8206 19.5132)">
            <stop stop-color="#9DA9AB"/>
            <stop offset="1" stop-color="#555763"/>
        </radialGradient>
        <radialGradient id="paint23_radial_11_4" cx="0" cy="0" r="1" gradientUnits="userSpaceOnUse" gradientTransform="translate(-0.257126 74.8421) scale(75.744 53.1262)">
            <stop stop-color="#9DA9AB"/>
            <stop offset="1" stop-color="#555763"/>
        </radialGradient>
        <radialGradient id="paint24_radial_11_4" cx="0" cy="0" r="1" gradientUnits="userSpaceOnUse" gradientTransform="translate(-1.87262 12.0858) scale(96.9238 67.9813)">
            <stop stop-color="#9DA9AB"/>
            <stop offset="1" stop-color="#555763"/>
        </radialGradient>
        <radialGradient id="paint25_radial_11_4" cx="0" cy="0" r="1" gradientUnits="userSpaceOnUse" gradientTransform="translate(206.872 13.7854) scale(59.7694 41.9219)">
            <stop stop-color="#717485"/>
            <stop offset="1" stop-color="#9DA9AB"/>
        </radialGradient>
    </defs>
</svg>
