<svg width="576" height="877" viewBox="0 0 576 877" fill="none" xmlns="http://www.w3.org/2000/svg">
<path d="M497.117 818.683C438.615 814.217 369.841 815.557 308.659 813.175C289.009 813.324 272.783 818.236 254.473 823C201.776 818.98 140.892 817.789 85.2173 818.683C79.7094 815.854 70.0334 798.735 69.4379 792.483C68.247 785.338 67.5027 763.157 67.0562 753.035L511.11 766.73L512.599 779.681V792.334C512.301 797.842 502.03 817.194 497.117 818.683Z" fill="url(#paint0_radial_324_440)"/>
<g opacity="0.7" filter="url(#filter0_d_324_440)">
<path d="M497.117 805.881C435.489 806.625 365.97 807.667 306.723 802.755C287.074 802.904 267.275 806.923 247.625 810.645C194.928 806.625 140.891 804.988 85.2172 805.881C79.7094 803.053 70.0334 785.934 69.4379 779.681C66.9073 763.604 66.0141 736.214 66.9073 714.331C67.0561 698.998 65.2698 684.112 63.0369 669.375C63.1857 601.94 64.5255 484.34 68.3959 415.417C67.5027 390.408 66.0141 365.399 62.888 340.242C62.2925 272.956 63.0369 300.347 67.3538 232.913C63.7812 190.934 64.2277 137.641 64.3766 95.6621C69.289 85.0929 75.3924 75.268 83.282 66.4852C130.025 61.5727 218.746 63.3591 264.596 58.1489C313.124 61.7216 365.375 62.6148 414.499 61.1262C438.466 67.3783 468.983 68.4204 493.098 72.7374C500.244 80.0316 507.389 89.4099 512.152 97.5973C512.45 137.79 510.515 188.849 507.538 229.786C508.282 241.993 511.557 254.349 513.195 270.426C512.004 292.159 509.622 311.809 508.877 330.863C507.835 387.282 509.771 499.673 513.641 556.091C510.217 613.701 509.175 664.909 509.324 722.667C508.878 741.573 510.068 760.627 512.599 779.681C512.301 785.04 502.03 804.541 497.117 805.881Z" fill="#959595"/>
</g>
<path opacity="0.7" fill-rule="evenodd" clip-rule="evenodd" d="M63.7812 580.058C67.3539 583.333 75.3925 593.455 82.0912 598.07C86.2593 600.898 87.3014 600.452 91.9161 600.452C108.142 600.452 126.303 598.07 142.231 596.581C146.697 596.284 148.632 595.837 153.098 594.348C162.03 596.135 170.366 596.73 179.447 597.623C187.188 598.368 195.077 598.219 200.883 597.475C204.902 597.028 207.879 596.284 208.624 595.539C210.708 593.455 212.494 592.264 213.685 587.352C222.17 551.328 226.338 489.401 227.529 438.788C227.678 431.792 226.487 428.963 224.254 422.264C215.769 397.702 193.291 353.639 183.764 337.264C166.347 312.553 146.697 283.674 138.659 272.956C146.251 279.804 176.618 319.996 187.039 333.394C200.585 357.807 213.238 387.431 223.51 416.459C227.082 426.284 228.571 424.2 231.399 417.054C244.053 385.198 255.068 352.151 263.702 317.615C265.34 310.172 265.638 279.06 266.977 263.131C267.126 271.616 266.829 298.263 267.126 308.385C267.275 311.66 266.68 313.744 270.55 314.191C273.676 314.489 298.536 306.152 303.448 304.813C318.632 293.946 355.103 272.658 373.86 269.235C349.447 278.762 322.056 293.35 305.384 308.534C298.238 310.618 280.375 313.447 271.741 316.722C266.233 318.806 265.489 320.443 263.851 326.546C254.92 361.231 243.457 394.725 229.762 427.475C229.167 483.744 224.701 542.545 216.364 597.772C225.743 632.606 236.461 659.997 248.221 687.089C248.221 686.99 248.221 686.891 248.221 686.792C272.039 705.548 285.287 709.865 307.914 724.751C325.331 736.214 339.175 744.103 352.871 754.821C355.997 757.352 362.844 752.142 365.226 749.76C378.624 736.809 390.979 721.774 401.995 704.655C421.148 629.43 442.833 556.637 467.047 486.275C467.345 464.045 467.643 441.865 467.941 419.734C468.089 408.123 463.772 400.977 460.498 395.767C454.394 381.179 425.366 304.366 421.645 269.979C432.66 303.622 447.547 360.785 463.177 393.981C464.517 396.66 465.261 398.595 466.005 400.084C468.834 405.294 471.811 402.168 474.639 399.489L508.58 366.144V368.228C499.648 377.01 490.865 385.793 482.38 395.023C469.727 408.569 470.322 412.142 470.025 425.093C469.429 445.487 469.876 466.625 471.96 487.168C449.631 545.82 429.385 612.212 412.266 677.264C407.354 696.17 408.098 701.975 413.904 712.545C418.965 721.923 484.018 793.228 497.117 805.881C496.075 805.732 492.652 802.904 490.568 800.82C470.471 779.681 424.175 734.13 410.331 715.224C404.526 707.186 402.739 709.716 396.934 717.606C383.834 734.874 370.436 749.313 356.741 760.627C353.913 765.986 335.454 798.438 331.137 804.392H330.988L351.233 765.837C353.019 762.562 353.317 759.734 351.531 757.799C332.328 737.851 259.534 698.552 255.068 699.296C254.175 699.445 253.282 700.04 252.389 701.38C251.198 715.522 249.561 790.25 247.625 810.644C246.137 789.06 248.816 726.091 248.37 695.872C235.419 669.375 224.85 641.389 215.769 612.212C213.089 603.876 211.75 602.982 204.009 601.792C198.203 600.898 188.825 600.452 179.298 599.708C171.706 599.112 163.965 598.368 157.713 597.772C153.991 597.475 150.568 599.112 148.186 602.536C142.38 610.574 136.723 617.72 131.216 623.525C126.005 631.266 116.776 645.557 112.757 657.764C111.417 661.485 111.417 665.058 112.31 668.928C117.669 689.173 121.688 709.567 124.666 730.408C133.746 752.588 141.934 781.468 148.037 806.03C139.85 779.979 125.708 739.489 122.582 731.45C119.902 706.541 114.593 682.127 106.653 658.21C96.0842 640.347 87.748 621.888 81.7935 602.834C75.5413 595.837 69.5869 588.543 63.7812 580.653V580.058ZM89.2366 610.128C93.7024 625.758 99.8058 639.751 106.802 653C108.291 653.893 109.184 654.191 109.928 654.042C111.417 653.447 127.494 625.163 129.578 621.59C136.128 616.827 141.04 610.426 146.251 601.643C148.632 597.772 147.441 598.07 143.869 598.368C140.594 598.666 125.708 600.303 112.459 601.345C105.016 601.792 97.8706 602.089 93.2558 602.238C89.832 602.238 87.4502 602.834 89.2366 610.128ZM373.86 269.235C383.238 264.62 401.846 257.177 413.011 253.009C414.499 252.562 415.392 251.074 415.392 249.436C415.839 225.767 412.713 213.56 407.056 190.785C407.155 190.487 407.304 190.189 407.503 189.891C416.286 176.643 422.835 161.012 427.748 144.786C428.195 143.447 428.79 141.66 428.195 140.469C427.748 139.427 426.259 138.981 425.366 138.534C395.892 124.541 365.226 114.567 333.37 109.208C330.839 108.762 328.606 109.357 326.373 110.846C320.121 115.014 311.338 121.564 304.491 126.625C297.494 131.687 288.413 137.492 282.757 142.107C281.07 143.595 280.077 145.531 279.779 147.912C274.272 186.17 271.294 220.706 266.977 262.983C267.722 229.935 270.252 191.082 275.611 151.187C275.909 148.954 276.653 145.977 275.611 144.191C270.699 135.557 176.618 104.445 148.93 96.4063C147.293 95.9597 144.315 94.9177 143.72 95.3643C142.827 95.9597 141.785 99.2347 141.189 100.872C125.857 144.191 114.394 188.998 106.951 235.145C120.051 248.394 127.345 259.261 138.659 272.807C127.047 261.196 115.734 249.585 104.272 237.825C97.2751 236.932 77.6254 234.252 67.2051 232.764C79.4117 233.061 91.6184 232.019 103.676 233.657C113.501 185.723 125.857 138.534 140.296 92.2382C139.204 86.383 138.411 80.4285 137.914 74.3748C137.517 70.7029 137.269 67.0309 137.17 63.359C138.063 63.2598 138.907 63.2102 139.701 63.2102C139.552 66.7828 139.701 70.3555 139.998 73.7793C140.445 77.9475 140.892 82.5622 142.082 86.5814C142.827 89.1121 144.613 90.8984 146.697 91.4939C190.314 104.594 233.335 120.82 275.314 139.427C277.398 140.32 279.631 140.172 281.566 138.981C289.207 134.614 296.601 129.801 303.746 124.541C311.388 118.984 318.831 113.029 326.075 106.678C317.441 99.3835 306.128 90.8984 296.154 83.4553C285.585 75.5657 270.997 66.9317 260.874 58.4466C262.065 58.3473 263.305 58.1985 264.596 58C265.687 58.0992 266.779 58.1985 267.871 58.2977C277.298 66.3363 287.024 74.0771 297.047 81.5201C307.269 89.0625 317.69 96.3567 328.308 103.403C329.35 104.147 330.392 104.594 331.583 104.743C364.482 112.483 396.785 122.755 428.343 135.706C429.088 136.004 429.981 136.45 430.725 136.301C431.618 136.152 432.363 135.11 432.958 134.366C443.23 121.713 476.128 82.5622 493.098 72.7373C471.364 92.8336 451.864 116.354 433.107 140.32C427.152 156.398 420.454 173.07 412.564 188.105C411.472 190.288 411.175 192.571 411.671 194.953C417.179 220.259 416.583 252.86 421.645 269.83C420.255 266.257 418.816 262.734 417.328 259.261C416.583 257.475 414.946 256.581 413.308 257.028C401.846 260.303 385.471 266.257 373.86 269.235Z" fill="url(#paint1_radial_324_440)"/>
<path d="M81.7937 602.834C75.5415 595.837 69.587 588.543 63.7814 580.653C63.3348 613.701 63.0371 644.813 63.0371 669.375C65.27 684.112 67.0564 698.998 66.9075 714.331C66.0143 736.214 66.9075 763.604 69.4382 779.681C70.0336 785.934 79.7096 803.053 85.2175 805.881C106.356 805.583 127.296 805.633 148.037 806.03C146.846 802.308 145.506 798.289 144.167 794.121C135.979 769.112 125.261 738.447 122.582 731.45C119.902 706.541 114.593 682.127 106.654 658.21C100.203 647.194 94.5958 635.98 89.8322 624.568C86.7557 617.422 84.0762 610.178 81.7937 602.834Z" fill="url(#paint2_radial_324_440)"/>
<path d="M131.215 623.525C126.005 631.266 116.776 645.556 112.757 657.763C111.417 661.484 111.417 665.057 112.31 668.928C117.669 689.173 121.688 709.567 124.665 730.407C132.406 749.015 139.403 772.535 145.06 794.12C146.151 798.189 147.193 802.159 148.186 806.029C181.828 806.625 214.975 808.163 247.625 810.644C247.327 807.22 247.179 802.754 247.179 797.544C246.881 769.856 248.667 721.327 248.37 695.872C235.419 669.374 224.849 641.388 215.769 612.211C213.089 603.875 211.75 602.982 204.009 601.791C198.203 600.898 188.825 600.451 179.298 599.707C171.706 599.111 163.965 598.367 157.713 597.772C153.991 597.474 150.567 599.111 148.186 602.535C142.38 610.574 136.723 617.719 131.215 623.525Z" fill="url(#paint3_radial_324_440)"/>
<path d="M109.928 654.042C111.417 653.595 127.494 625.312 129.727 621.739C136.128 616.975 141.04 610.425 146.25 601.791C148.632 597.921 147.441 598.219 143.869 598.517C140.594 598.665 125.707 600.452 112.459 601.345C105.016 601.94 97.8703 602.238 93.2556 602.238C91.9159 602.238 90.725 602.387 89.9807 602.982C88.6409 603.876 88.1943 605.811 89.2364 610.277C89.4349 610.971 89.6333 611.716 89.8318 612.51C94.2977 627.247 100.103 640.496 106.802 653.149C108.291 654.042 109.184 654.34 109.928 654.042Z" fill="url(#paint4_radial_324_440)"/>
<path d="M91.916 600.452C108.142 600.452 126.303 598.07 142.231 596.582C146.697 596.284 148.632 595.837 153.098 594.349C162.03 596.135 170.366 596.73 179.447 597.624C187.187 598.368 195.077 598.219 200.883 597.475C204.902 597.028 207.879 596.284 208.624 595.54C210.708 593.455 212.494 592.265 213.685 587.352C222.17 551.328 226.338 489.401 227.529 438.788C227.678 431.792 226.487 428.963 224.254 422.265C215.769 397.702 193.291 353.639 183.764 337.265C166.347 312.554 146.697 283.674 138.659 272.956C127.047 261.196 115.883 249.585 104.272 237.974C101.89 237.676 98.0193 237.081 93.5535 236.485C84.9195 235.294 74.2015 233.806 67.3538 232.913C63.0369 300.347 62.2925 272.956 62.888 340.391C66.0141 365.399 67.5027 390.408 68.3959 415.417C65.8652 459.033 64.5255 522.448 63.7812 580.058C67.3539 583.333 75.3924 593.455 82.0911 598.07C85.6638 600.452 86.8547 600.452 89.9808 600.452C90.5763 600.452 91.2213 600.452 91.916 600.452Z" fill="url(#paint5_radial_324_440)"/>
<path d="M93.2558 232.913C96.7292 233.012 100.203 233.26 103.676 233.657C113.501 185.724 125.856 138.534 140.296 92.2385C139.304 86.8795 138.51 81.4212 137.914 75.8637C137.914 75.3675 137.914 74.921 137.914 74.524C137.517 70.8521 137.269 67.1305 137.17 63.3594C116.776 64.1037 98.0194 64.9969 83.2821 66.4855C75.3924 75.2683 69.2891 85.0932 64.3766 95.6624C64.2278 137.641 63.7812 190.934 67.3539 232.913C75.9878 233.062 84.6218 232.615 93.2558 232.913Z" fill="url(#paint6_radial_324_440)"/>
<path d="M141.189 101.021C125.857 144.339 114.394 189.147 106.951 235.294C120.051 248.394 127.345 259.409 138.659 272.956C146.251 279.804 176.618 319.996 187.039 333.394C200.585 357.807 213.238 387.43 223.51 416.458C227.083 426.283 228.571 424.199 231.399 417.054C244.053 385.198 255.069 352.15 263.702 317.614C265.34 310.171 265.638 279.059 266.977 263.131C267.722 230.084 270.252 191.082 275.611 151.336C275.909 148.954 276.653 146.126 275.611 144.339C270.699 135.705 176.618 104.445 148.93 96.406C147.293 95.9594 144.315 95.0662 143.72 95.5128C142.827 96.1083 141.785 99.2344 141.189 101.021Z" fill="url(#paint7_radial_324_440)"/>
<path d="M146.697 91.6425C190.462 104.742 233.334 120.819 275.462 139.427C277.546 140.469 279.63 140.32 281.565 139.129C289.207 134.664 296.601 129.801 303.746 124.541C311.387 119.083 318.831 113.128 326.075 106.678C317.59 99.5322 306.128 90.8982 296.154 83.4551C290.646 79.4358 283.947 74.97 277.248 70.5041C271.443 66.6337 265.637 62.6145 260.874 58.5952C229.762 61.7213 181.828 62.019 139.7 63.3588C139.551 66.7826 139.7 70.5041 140.147 73.928C140.147 74.5234 140.197 75.1189 140.296 75.7143C140.594 79.4358 141.04 83.1574 142.231 86.7301C142.975 89.2607 144.613 91.047 146.697 91.6425Z" fill="url(#paint8_radial_324_440)"/>
<path d="M297.047 81.5198C307.269 89.1614 317.69 96.5052 328.308 103.551C329.35 104.147 330.393 104.593 331.583 104.891C364.482 112.632 396.785 122.903 428.343 135.705C429.088 136.003 429.981 136.599 430.725 136.45C431.618 136.152 432.363 135.259 432.958 134.366C443.23 121.712 476.128 82.5619 493.098 72.737C468.983 68.42 438.466 67.378 414.499 61.1258C366.566 62.4656 315.506 61.8701 267.871 58.4463C272.535 62.4159 277.299 66.2863 282.161 70.0575C287.024 73.9279 291.986 77.7487 297.047 81.5198Z" fill="url(#paint9_radial_324_440)"/>
<path d="M326.373 110.846C320.121 115.163 311.338 121.713 304.491 126.626C297.494 131.687 288.414 137.641 282.906 142.256C281.119 143.645 280.077 145.581 279.78 148.062C274.272 186.17 271.295 220.855 266.978 263.132C267.126 271.617 266.829 298.263 267.126 308.386C267.275 311.661 266.68 313.745 270.55 314.191C273.676 314.489 298.536 306.153 303.449 304.813C318.633 293.946 355.104 272.659 373.86 269.235C383.238 264.62 401.846 257.326 413.011 253.158C414.499 252.711 415.393 251.223 415.393 249.436C415.839 225.916 412.713 213.71 407.056 190.785C407.156 190.487 407.304 190.239 407.503 190.041C416.286 176.792 422.836 161.013 427.897 144.936C428.195 143.596 428.79 141.809 428.195 140.47C427.748 139.577 426.408 139.13 425.366 138.683C395.892 124.541 365.226 114.717 333.37 109.358C330.839 108.911 328.606 109.358 326.373 110.846Z" fill="url(#paint10_radial_324_440)"/>
<path d="M373.86 269.235C349.447 278.762 322.056 293.35 305.384 308.534C298.238 310.618 280.375 313.447 271.741 316.722C266.233 318.806 265.489 320.443 263.851 326.547C254.919 361.231 243.457 394.725 229.762 427.475C229.166 483.744 224.701 542.545 216.364 597.773C225.743 632.606 236.461 659.997 248.221 687.09C248.221 686.99 248.221 686.891 248.221 686.792C272.039 705.548 285.287 709.865 307.914 724.752C325.331 736.214 339.175 744.104 352.87 754.822C355.996 757.352 362.844 752.142 365.226 749.76C378.623 736.809 390.979 721.774 401.995 704.655C421.148 629.43 442.832 556.637 467.047 486.275C467.345 464.045 467.643 441.865 467.94 419.734C468.089 408.123 463.772 400.977 460.497 395.767C454.394 381.179 425.366 304.366 421.644 269.979C420.255 266.406 418.816 262.834 417.327 259.261C416.583 257.624 414.946 256.73 413.308 257.177C401.846 260.303 385.471 266.258 373.86 269.235Z" fill="url(#paint11_radial_324_440)"/>
<path d="M351.531 757.799C332.328 737.851 259.534 698.552 255.069 699.296C254.175 699.445 253.282 700.04 252.389 701.38C251.347 713.289 250.007 768.368 248.519 797.545C248.221 802.904 247.923 807.519 247.625 810.645C267.275 806.923 287.074 802.904 306.724 802.755C314.663 803.45 322.751 803.995 330.988 804.392L337.24 792.335L351.233 765.837C353.02 762.562 353.317 759.734 351.531 757.799Z" fill="url(#paint12_radial_324_440)"/>
<path d="M396.934 717.606C383.834 734.874 370.436 749.314 356.741 760.627C354.806 764.2 345.576 780.575 338.431 792.484C335.305 797.992 332.476 802.606 331.137 804.393C384.429 807.37 443.676 806.477 497.117 805.881C496.075 805.733 492.652 802.904 490.568 800.82C470.471 779.682 424.175 734.13 410.331 715.225C404.526 707.186 402.739 709.717 396.934 717.606Z" fill="url(#paint13_radial_324_440)"/>
<path d="M412.266 677.264C407.354 696.17 408.098 701.975 413.904 712.545C418.965 721.923 484.017 793.228 497.117 805.881C497.415 805.782 497.812 805.583 498.308 805.285C503.518 801.564 512.301 784.594 512.599 779.681C510.068 760.627 508.877 741.573 509.324 722.667C509.175 664.909 510.217 613.7 513.641 556.091C510.515 510.39 508.58 427.921 508.58 368.228C499.648 377.01 490.865 385.793 482.38 395.023C469.727 408.569 470.322 412.142 470.024 425.093C469.429 445.487 469.876 466.625 471.96 487.168C449.63 545.819 429.385 612.212 412.266 677.264Z" fill="url(#paint14_radial_324_440)"/>
<path d="M421.645 269.979C432.661 303.622 447.547 360.785 463.177 393.981C464.517 396.66 465.261 398.595 466.006 400.084C468.834 405.294 471.811 402.168 474.64 399.489L508.58 366.144C508.58 353.044 508.58 341.135 508.878 330.863C509.622 311.809 512.004 292.159 513.195 270.426C511.557 254.349 508.282 241.993 507.538 229.786C510.515 188.849 512.45 137.79 512.153 97.5972C507.389 89.4098 500.244 80.0315 493.098 72.7373C471.365 92.9825 451.864 116.503 433.107 140.32C427.153 156.546 420.603 173.219 412.564 188.254C411.473 190.338 411.175 192.571 411.671 194.953C417.179 220.259 416.584 253.009 421.645 269.979Z" fill="url(#paint15_radial_324_440)"/>
<path style="mix-blend-mode:multiply" opacity="0.5" d="M148.037 806.03C127.296 805.633 106.356 805.583 85.2173 805.881V818.683C140.892 817.79 201.776 818.981 254.473 823L247.625 810.644C214.975 808.163 181.828 806.625 148.186 806.03C148.037 806.03 148.037 806.03 148.037 806.03Z" fill="url(#paint16_radial_324_440)"/>
<path style="mix-blend-mode:multiply" d="M247.625 810.644L254.473 823C272.783 818.236 289.009 813.324 308.659 813.175L306.724 802.754C287.074 802.903 267.275 806.923 247.625 810.644Z" fill="url(#paint17_radial_324_440)"/>
<path style="mix-blend-mode:multiply" opacity="0.5" d="M306.724 802.754L308.659 813.175C369.841 815.556 438.615 814.217 497.118 818.683V805.88C443.676 806.476 384.429 807.369 331.137 804.392C331.038 804.392 330.988 804.392 330.988 804.392C322.751 803.995 314.663 803.449 306.724 802.754Z" fill="url(#paint18_radial_324_440)"/>
<path style="mix-blend-mode:multiply" d="M394.105 79.7342C370.734 71.9934 200.287 73.6309 105.165 80.3297C98.6148 80.9251 93.5535 86.2841 93.7024 92.6852C93.8512 99.2351 94.0001 104.892 94.149 113.377L128.238 117.396L94.4467 124.095C95.6376 186.617 95.7864 249.436 95.0421 312.554L113.054 319.253L94.8933 324.612C93.5535 414.375 89.9808 646.748 84.0264 736.065C89.0877 759.139 96.9773 777.002 110.375 794.27C113.054 797.843 117.074 799.48 121.539 799.034C162.774 794.717 369.841 796.801 465.559 804.542C467.345 804.69 468.983 804.244 470.322 803.053C471.513 801.862 472.258 800.225 472.258 798.438C471.563 771.742 471.116 745.047 470.918 718.351L457.967 709.866L464.219 702.274L463.326 696.319L470.918 691.407C470.918 598.07 474.193 362.571 480.445 269.979L470.62 264.62L475.979 255.838L461.986 248.394L482.231 243.929C485.209 205.522 488.483 170.689 492.354 132.431C472.704 118.438 406.163 83.7535 394.105 79.7342Z" fill="url(#paint19_radial_324_440)"/>
<path d="M402.739 90.4524C377.135 83.7536 188.527 81.223 88.7899 84.9445C89.1868 97.2504 89.5342 109.606 89.8319 122.011L125.41 125.881L90.1296 132.283C91.6182 192.125 91.916 252.414 91.3205 312.852L110.077 319.253L91.1716 324.463C89.9808 410.356 86.5569 639.008 80.4536 724.752C94.9428 745.592 109.382 766.433 123.772 787.274C130.025 790.102 384.131 792.633 486.102 791.888C485.208 764.101 484.663 736.363 484.464 708.675L470.918 700.487L477.319 693.193L476.426 687.536L484.315 682.922C484.166 593.307 487.144 361.678 493.545 273.106L483.273 267.895L488.781 259.41L474.193 252.265L495.331 248.097C498.209 211.278 501.633 174.559 505.602 137.939C471.364 122.061 437.076 106.232 402.739 90.4524Z" fill="url(#paint20_linear_324_440)"/>
<path style="mix-blend-mode:multiply" d="M80.4536 724.752C90.7251 729.813 139.998 747.974 141.933 752.44C143.571 755.864 125.41 780.575 123.772 787.274C109.382 766.433 94.9428 745.593 80.4536 724.752Z" fill="url(#paint21_radial_324_440)"/>
<path d="M80.4535 724.752C98.0192 732.939 115.734 741.127 132.555 750.654C128.834 762.712 126.303 774.918 123.772 787.274C119.455 787.274 80.3047 729.218 80.4535 724.752Z" fill="url(#paint22_linear_324_440)"/>
<path style="mix-blend-mode:screen" opacity="0.5" d="M427.896 150.146C438.317 160.269 446.951 171.88 446.653 182.151C445.76 213.114 484.017 195.846 471.215 239.165C463.921 264.174 481.933 268.193 479.551 287.694C477.914 301.687 465.707 305.26 463.326 329.078C460.795 353.64 461.539 388.027 469.429 399.489C487.441 425.689 460.497 469.008 466.601 494.463C471.066 512.624 474.192 679.349 474.341 696.468L470.917 700.487L474.341 702.572C474.192 707.931 473.597 712.099 472.555 714.778C463.921 736.214 458.264 720.882 448.142 749.314C441.443 767.624 419.263 770.75 396.636 767.475C360.016 762.265 335.453 739.192 304.341 739.192C276.951 739.043 265.042 761.818 236.312 764.945C219.639 766.731 202.52 761.967 185.103 767.177C145.357 778.789 165.453 727.729 117.52 718.946C82.9841 712.545 111.714 499.822 112.31 480.619C113.947 428.22 97.7214 427.475 102.038 363.167C102.932 350.514 111.863 343.666 103.229 321.188L110.077 319.253L101.443 316.276C91.0226 281.889 128.238 240.356 111.863 181.705C106.355 162.204 103.527 144.043 105.611 129.454L125.41 125.881L106.802 123.797C111.565 104.892 126.601 93.5785 158.457 95.9603C220.383 100.277 238.247 106.381 297.791 118.141C318.781 122.309 343.343 126.328 362.546 128.114C398.868 131.389 410.182 132.729 427.896 150.146Z" fill="url(#paint23_radial_324_440)"/>
<path style="mix-blend-mode:screen" opacity="0.5" d="M365.226 149.997C406.163 150.593 436.977 175.601 439.061 217.431C440.55 246.906 472.257 258.22 432.213 311.363C411.224 339.2 460.497 390.409 444.867 423.605C432.213 450.4 452.31 467.817 448.737 491.783C432.213 604.621 495.628 655.531 443.973 714.481C419.709 742.318 409.289 755.715 364.481 742.02C355.401 739.192 322.353 727.58 289.157 735.768C283.649 737.107 273.08 739.192 263.255 741.573C187.336 760.776 226.635 727.283 170.366 723.71C155.777 722.817 156.522 709.717 144.613 708.526C106.951 704.358 100.996 623.079 122.432 544.481C138.658 485.68 142.082 449.953 126.303 419.139C96.6793 361.232 124.814 326.696 150.121 296.179C166.198 276.976 149.227 222.79 143.422 205.969C129.727 166.521 148.781 161.906 163.518 131.538C173.045 112.186 218.597 115.015 235.418 127.966C268.614 153.719 352.572 149.699 365.226 149.997Z" fill="url(#paint24_radial_324_440)"/>
<path style="mix-blend-mode:screen" d="M125.41 754.524C120.497 742.764 97.8704 733.833 84.1752 730.111C83.6789 729.912 83.1827 729.764 82.6865 729.664C81.1979 727.134 80.4536 725.347 80.4536 724.752C80.8506 724.95 81.3468 725.149 81.9422 725.347C99.0613 733.386 116.18 741.276 132.555 750.654C128.834 762.712 126.303 774.918 123.772 787.274C123.574 787.274 123.177 787.075 122.581 786.678C122.681 786.48 122.78 786.232 122.879 785.934C126.005 777.747 128.685 762.712 125.41 754.524Z" fill="url(#paint25_radial_324_440)"/>
<path style="mix-blend-mode:multiply" opacity="0.4" d="M426.259 788.465C468.982 788.167 481.487 765.093 484.762 738.447C485.06 756.211 485.506 774.025 486.102 791.889C408.545 792.335 243.159 791.144 165.454 789.209C226.487 786.678 247.328 779.98 300.025 770.899C335.9 764.647 342.301 769.708 376.539 780.575C390.681 785.041 405.567 788.614 426.259 788.465Z" fill="url(#paint26_radial_324_440)"/>
<path style="mix-blend-mode:multiply" opacity="0.3" d="M395.743 89.2612C382.047 90.1543 364.333 94.4713 348.702 97.5974C328.457 101.617 314.315 100.128 299.28 97.2997C259.683 89.7077 227.678 86.1351 190.313 83.3067C274.569 83.009 365.821 85.2419 395.743 89.2612Z" fill="url(#paint27_radial_324_440)"/>
<defs>
<filter id="filter0_d_324_440" x="0.708984" y="0.148926" width="574.932" height="876.496" filterUnits="userSpaceOnUse" color-interpolation-filters="sRGB">
<feFlood flood-opacity="0" result="BackgroundImageFix"/>
<feColorMatrix in="SourceAlpha" type="matrix" values="0 0 0 0 0 0 0 0 0 0 0 0 0 0 0 0 0 0 127 0" result="hardAlpha"/>
<feOffset dy="4"/>
<feGaussianBlur stdDeviation="31"/>
<feComposite in2="hardAlpha" operator="out"/>
<feColorMatrix type="matrix" values="0 0 0 0 0.271719 0 0 0 0 0.341191 0 0 0 0 0.5875 0 0 0 0.25 0"/>
<feBlend mode="normal" in2="BackgroundImageFix" result="effect1_dropShadow_324_440"/>
<feBlend mode="normal" in="SourceGraphic" in2="effect1_dropShadow_324_440" result="shape"/>
</filter>
<radialGradient id="paint0_radial_324_440" cx="0" cy="0" r="1" gradientUnits="userSpaceOnUse" gradientTransform="translate(313.273 449.357) scale(443.905 443.905)">
<stop stop-color="#9DA9AB"/>
<stop offset="1" stop-color="#555763"/>
</radialGradient>
<radialGradient id="paint1_radial_324_440" cx="0" cy="0" r="1" gradientUnits="userSpaceOnUse" gradientTransform="translate(286.181 434.322) scale(309.037 309.037)">
<stop stop-color="#E2F1F7"/>
<stop offset="1" stop-color="#9A9DB5"/>
</radialGradient>
<radialGradient id="paint2_radial_324_440" cx="0" cy="0" r="1" gradientUnits="userSpaceOnUse" gradientTransform="translate(35.3488 537.93) scale(408.03 408.03)">
<stop stop-color="#717485"/>
<stop offset="1" stop-color="#9DA9AB"/>
</radialGradient>
<radialGradient id="paint3_radial_324_440" cx="0" cy="0" r="1" gradientUnits="userSpaceOnUse" gradientTransform="translate(185.103 537.036) scale(310.228 310.228)">
<stop stop-color="#717485"/>
<stop offset="1" stop-color="#9DA9AB"/>
</radialGradient>
<radialGradient id="paint4_radial_324_440" cx="0" cy="0" r="1" gradientUnits="userSpaceOnUse" gradientTransform="translate(119.753 558.622) scale(136.208 136.208)">
<stop stop-color="#717485"/>
<stop offset="1" stop-color="#9DA9AB"/>
</radialGradient>
<radialGradient id="paint5_radial_324_440" cx="0" cy="0" r="1" gradientUnits="userSpaceOnUse" gradientTransform="translate(-100.562 288.289) scale(592.618 592.618)">
<stop stop-color="#717485"/>
<stop offset="1" stop-color="#9DA9AB"/>
</radialGradient>
<radialGradient id="paint6_radial_324_440" cx="0" cy="0" r="1" gradientUnits="userSpaceOnUse" gradientTransform="translate(18.6761 55.6186) scale(214.956 214.956)">
<stop stop-color="#717485"/>
<stop offset="1" stop-color="#9DA9AB"/>
</radialGradient>
<radialGradient id="paint7_radial_324_440" cx="0" cy="0" r="1" gradientUnits="userSpaceOnUse" gradientTransform="translate(107.993 70.0575) scale(450.455 450.455)">
<stop stop-color="#717485"/>
<stop offset="1" stop-color="#9DA9AB"/>
</radialGradient>
<radialGradient id="paint8_radial_324_440" cx="0" cy="0" r="1" gradientUnits="userSpaceOnUse" gradientTransform="translate(252.984 -67.7883) scale(243.091 243.091)">
<stop stop-color="#717485"/>
<stop offset="1" stop-color="#9DA9AB"/>
</radialGradient>
<radialGradient id="paint9_radial_324_440" cx="0" cy="0" r="1" gradientUnits="userSpaceOnUse" gradientTransform="translate(529.272 -32.657) scale(335.385 335.385)">
<stop stop-color="#AAB4B8"/>
<stop offset="1" stop-color="#828599"/>
</radialGradient>
<radialGradient id="paint10_radial_324_440" cx="0" cy="0" r="1" gradientUnits="userSpaceOnUse" gradientTransform="translate(334.412 52.939) scale(353.844 353.844)">
<stop stop-color="#717485"/>
<stop offset="1" stop-color="#9DA9AB"/>
</radialGradient>
<radialGradient id="paint11_radial_324_440" cx="0" cy="0" r="1" gradientUnits="userSpaceOnUse" gradientTransform="translate(286.925 222.641) scale(744.457 744.457)">
<stop stop-color="#717485"/>
<stop offset="1" stop-color="#9DA9AB"/>
</radialGradient>
<radialGradient id="paint12_radial_324_440" cx="0" cy="0" r="1" gradientUnits="userSpaceOnUse" gradientTransform="translate(303.449 623.228) scale(268.546 268.546)">
<stop stop-color="#717485"/>
<stop offset="1" stop-color="#9DA9AB"/>
</radialGradient>
<radialGradient id="paint13_radial_324_440" cx="0" cy="0" r="1" gradientUnits="userSpaceOnUse" gradientTransform="translate(414.053 631.713) scale(346.848 346.848)">
<stop stop-color="#717485"/>
<stop offset="1" stop-color="#9DA9AB"/>
</radialGradient>
<radialGradient id="paint14_radial_324_440" cx="0" cy="0" r="1" gradientUnits="userSpaceOnUse" gradientTransform="translate(641.811 772.833) scale(608.695 608.695)">
<stop stop-color="#717485"/>
<stop offset="1" stop-color="#9DA9AB"/>
</radialGradient>
<radialGradient id="paint15_radial_324_440" cx="0" cy="0" r="1" gradientUnits="userSpaceOnUse" gradientTransform="translate(626.181 317.168) scale(348.336 348.336)">
<stop stop-color="#9DA9AB"/>
<stop offset="1" stop-color="#717485"/>
</radialGradient>
<radialGradient id="paint16_radial_324_440" cx="0" cy="0" r="1" gradientUnits="userSpaceOnUse" gradientTransform="translate(183.168 827.019) scale(227.609 227.61)">
<stop stop-color="#E2F1F7"/>
<stop offset="1" stop-color="#9A9DB5"/>
</radialGradient>
<radialGradient id="paint17_radial_324_440" cx="0" cy="0" r="1" gradientUnits="userSpaceOnUse" gradientTransform="translate(292.284 770.749) scale(113.284 113.284)">
<stop stop-color="#E2F1F7"/>
<stop offset="1" stop-color="#9A9DB5"/>
</radialGradient>
<radialGradient id="paint18_radial_324_440" cx="0" cy="0" r="1" gradientUnits="userSpaceOnUse" gradientTransform="translate(419.412 706.888) scale(214.956 214.955)">
<stop stop-color="#E2F1F7"/>
<stop offset="1" stop-color="#9A9DB5"/>
</radialGradient>
<radialGradient id="paint19_radial_324_440" cx="0" cy="0" r="1" gradientUnits="userSpaceOnUse" gradientTransform="translate(282.31 583.482) scale(712.601 712.601)">
<stop stop-color="#A48A7B"/>
<stop offset="1" stop-color="white"/>
</radialGradient>
<linearGradient id="paint20_linear_324_440" x1="-156" y1="83" x2="-158" y2="792" gradientUnits="userSpaceOnUse">
<stop stop-color="#FFF1DE"/>
<stop offset="1" stop-color="#FBDAB7"/>
</linearGradient>
<radialGradient id="paint21_radial_324_440" cx="0" cy="0" r="1" gradientUnits="userSpaceOnUse" gradientTransform="translate(105.314 778.789) scale(71.4536 71.4536)">
<stop stop-color="#A48A7B"/>
<stop offset="1" stop-color="white"/>
</radialGradient>
<linearGradient id="paint22_linear_324_440" x1="172.748" y1="766.582" x2="110.226" y2="811.985" gradientUnits="userSpaceOnUse">
<stop stop-color="#EDD6B9"/>
<stop offset="1" stop-color="#BF9F7E"/>
</linearGradient>
<radialGradient id="paint23_radial_324_440" cx="0" cy="0" r="1" gradientUnits="userSpaceOnUse" gradientTransform="translate(289.604 432.239) scale(514.168 514.168)">
<stop stop-color="#CA9E67"/>
<stop offset="1"/>
</radialGradient>
<radialGradient id="paint24_radial_324_440" cx="0" cy="0" r="1" gradientUnits="userSpaceOnUse" gradientTransform="translate(287.371 432.537) scale(449.562 449.562)">
<stop stop-color="#CA9E67"/>
<stop offset="1"/>
</radialGradient>
<radialGradient id="paint25_radial_324_440" cx="0" cy="0" r="1" gradientUnits="userSpaceOnUse" gradientTransform="translate(89.5342 758.99) scale(64.3082 64.3082)">
<stop/>
<stop offset="1" stop-color="#A3805F"/>
</radialGradient>
<radialGradient id="paint26_radial_324_440" cx="0" cy="0" r="1" gradientUnits="userSpaceOnUse" gradientTransform="translate(359.718 640.348) scale(380.193 380.192)">
<stop stop-color="white"/>
<stop offset="1" stop-color="#A48A7B"/>
</radialGradient>
<radialGradient id="paint27_radial_324_440" cx="0" cy="0" r="1" gradientUnits="userSpaceOnUse" gradientTransform="translate(305.086 -88.0331) scale(332.408 332.408)">
<stop stop-color="#A48A7B"/>
<stop offset="1" stop-color="white"/>
</radialGradient>
</defs>
</svg>
