<svg width="452" height="765" viewBox="0 0 452 765" fill="none" xmlns="http://www.w3.org/2000/svg">
<path d="M435.117 760.683C376.615 756.217 307.841 757.557 246.659 755.175C227.009 755.324 210.783 760.236 192.473 765C139.776 760.98 78.8915 759.789 23.2173 760.683C17.7094 757.854 8.03338 740.735 7.43794 734.483C6.24704 727.338 5.50274 705.157 5.05615 695.035L449.11 708.73L450.599 721.681V734.334C450.301 739.842 440.03 759.194 435.117 760.683Z" fill="url(#paint0_radial_324_440)"/>
<path opacity="0.7" d="M435.117 747.881C373.489 748.625 303.97 749.667 244.723 744.755C225.074 744.904 205.275 748.923 185.625 752.645C132.928 748.625 78.8915 746.988 23.2172 747.881C17.7094 745.053 8.03335 727.934 7.43791 721.681C4.90726 705.604 4.01409 678.214 4.90726 656.331C5.05612 640.998 3.26979 626.112 1.03686 611.375C1.18572 543.94 2.52548 426.34 6.39588 357.417C5.50271 332.408 4.01409 307.399 0.887992 282.242C0.292545 214.956 1.03685 242.347 5.35384 174.913C1.78116 132.934 2.22775 79.641 2.37661 37.6621C7.28904 27.0929 13.3924 17.268 21.282 8.48518C68.0246 3.57274 156.746 5.35908 202.596 0.148926C251.124 3.72161 303.375 4.61478 352.499 3.12616C376.466 9.37835 406.983 10.4204 431.098 14.7374C438.244 22.0316 445.389 31.4099 450.152 39.5973C450.45 79.7899 448.515 130.849 445.538 171.786C446.282 183.993 449.557 196.349 451.195 212.426C450.004 234.159 447.622 253.809 446.877 272.863C445.835 329.282 447.771 441.673 451.641 498.091C448.217 555.701 447.175 606.909 447.324 664.667C446.878 683.573 448.068 702.627 450.599 721.681C450.301 727.04 440.03 746.541 435.117 747.881Z" fill="#959595"/>
<path opacity="0.7" fill-rule="evenodd" clip-rule="evenodd" d="M1.78125 522.058C5.35393 525.333 13.3925 535.455 20.0912 540.07C24.2593 542.898 25.3014 542.452 29.9161 542.452C46.142 542.452 64.3031 540.07 80.2313 538.581C84.6972 538.284 86.6324 537.837 91.0982 536.348C100.03 538.135 108.366 538.73 117.447 539.623C125.188 540.368 133.077 540.219 138.883 539.475C142.902 539.028 145.879 538.284 146.624 537.539C148.708 535.455 150.494 534.264 151.685 529.352C160.17 493.328 164.338 431.401 165.529 380.788C165.678 373.792 164.487 370.963 162.254 364.264C153.769 339.702 131.291 295.639 121.764 279.264C104.347 254.553 84.6972 225.674 76.6587 214.956C84.2506 221.804 114.618 261.996 125.039 275.394C138.585 299.807 151.238 329.431 161.51 358.459C165.082 368.284 166.571 366.2 169.399 359.054C182.053 327.198 193.068 294.151 201.702 259.615C203.34 252.172 203.638 221.06 204.977 205.131C205.126 213.616 204.829 240.263 205.126 250.385C205.275 253.66 204.68 255.744 208.55 256.191C211.676 256.489 236.536 248.152 241.448 246.813C256.632 235.946 293.103 214.658 311.86 211.235C287.447 220.762 260.056 235.35 243.384 250.534C236.238 252.618 218.375 255.447 209.741 258.722C204.233 260.806 203.489 262.443 201.851 268.546C192.92 303.231 181.457 336.725 167.762 369.475C167.167 425.744 162.701 484.545 154.364 539.772C163.743 574.606 174.461 601.997 186.221 629.089C186.221 628.99 186.221 628.891 186.221 628.792C210.039 647.548 223.287 651.865 245.914 666.751C263.331 678.214 277.175 686.103 290.871 696.821C293.997 699.352 300.844 694.142 303.226 691.76C316.624 678.809 328.979 663.774 339.995 646.655C359.148 571.43 380.833 498.637 405.047 428.275C405.345 406.045 405.643 383.865 405.941 361.734C406.089 350.123 401.772 342.977 398.498 337.767C392.394 323.179 363.366 246.366 359.645 211.979C370.66 245.622 385.547 302.785 401.177 335.981C402.517 338.66 403.261 340.595 404.005 342.084C406.834 347.294 409.811 344.168 412.639 341.489L446.58 308.144V310.228C437.648 319.01 428.865 327.793 420.38 337.023C407.727 350.569 408.322 354.142 408.025 367.093C407.429 387.487 407.876 408.625 409.96 429.168C387.631 487.82 367.385 554.212 350.266 619.264C345.354 638.17 346.098 643.975 351.904 654.545C356.965 663.923 422.018 735.228 435.117 747.881C434.075 747.732 430.652 744.904 428.568 742.82C408.471 721.681 362.175 676.13 348.331 657.224C342.526 649.186 340.739 651.716 334.934 659.606C321.834 676.874 308.436 691.313 294.741 702.627C291.913 707.986 273.454 740.438 269.137 746.392H268.988L289.233 707.837C291.019 704.562 291.317 701.734 289.531 699.799C270.328 679.851 197.534 640.552 193.068 641.296C192.175 641.445 191.282 642.04 190.389 643.38C189.198 657.522 187.561 732.25 185.625 752.644C184.137 731.06 186.816 668.091 186.37 637.872C173.419 611.375 162.85 583.389 153.769 554.212C151.089 545.876 149.75 544.982 142.009 543.792C136.203 542.898 126.825 542.452 117.298 541.708C109.706 541.112 101.965 540.368 95.7129 539.772C91.9914 539.475 88.5676 541.112 86.1858 544.536C80.3802 552.574 74.7235 559.72 69.2156 565.525C64.0054 573.266 54.776 587.557 50.7567 599.764C49.417 603.485 49.417 607.058 50.3101 610.928C55.6692 631.173 59.6884 651.567 62.6656 672.408C71.7462 694.588 79.9336 723.468 86.0369 748.03C77.8495 721.979 63.7077 681.489 60.5816 673.45C57.9021 648.541 52.5927 624.127 44.6534 600.21C34.0842 582.347 25.748 563.888 19.7935 544.834C13.5413 537.837 7.58685 530.543 1.78125 522.653V522.058ZM27.2366 552.128C31.7024 567.758 37.8058 581.751 44.8023 595C46.2909 595.893 47.184 596.191 47.9284 596.042C49.417 595.447 65.494 567.163 67.5781 563.59C74.128 558.827 79.0404 552.426 84.2506 543.643C86.6324 539.772 85.4415 540.07 81.8688 540.368C78.5939 540.666 63.7077 542.303 50.459 543.345C43.0159 543.792 35.8706 544.089 31.2558 544.238C27.832 544.238 25.4502 544.834 27.2366 552.128ZM311.86 211.235C321.238 206.62 339.846 199.177 351.011 195.009C352.499 194.562 353.392 193.074 353.392 191.436C353.839 167.767 350.713 155.56 345.056 132.785C345.155 132.487 345.304 132.189 345.503 131.891C354.286 118.643 360.835 103.012 365.748 86.7863C366.195 85.4466 366.79 83.6602 366.195 82.4694C365.748 81.4273 364.259 80.9807 363.366 80.5341C333.892 66.5412 303.226 56.5674 271.37 51.2084C268.839 50.7618 266.606 51.3573 264.373 52.8459C258.121 57.014 249.338 63.5639 242.491 68.6252C235.494 73.6865 226.413 79.4921 220.757 84.1068C219.07 85.5954 218.077 87.5307 217.779 89.9124C212.272 128.17 209.294 162.706 204.977 204.983C205.722 171.935 208.252 133.082 213.611 93.1874C213.909 90.9545 214.653 87.9772 213.611 86.1909C208.699 77.5569 114.618 46.4448 86.9301 38.4063C85.2926 37.9597 82.3154 36.9177 81.7199 37.3643C80.8268 37.9597 79.7847 41.2347 79.1893 42.8722C63.8566 86.1909 52.3942 130.998 44.9511 177.145C58.0509 190.394 65.3452 201.261 76.6587 214.807C65.0474 203.196 53.734 191.585 42.2716 179.825C35.2751 178.932 15.6254 176.252 5.20506 174.764C17.4117 175.061 29.6184 174.019 41.6762 175.657C51.501 127.723 63.8565 80.5342 78.2961 34.2382C77.2045 28.383 76.4106 22.4285 75.9143 16.3748C75.5174 12.7029 75.2693 9.03094 75.17 5.35902C76.0632 5.25978 76.9068 5.21016 77.7007 5.21016C77.5518 8.78284 77.7007 12.3555 77.9984 15.7793C78.445 19.9475 78.8916 24.5622 80.0825 28.5814C80.8268 31.1121 82.6131 32.8984 84.6972 33.4939C128.314 46.5937 171.335 62.8196 213.314 81.4273C215.398 82.3205 217.631 82.1716 219.566 80.9807C227.207 76.6141 234.601 71.8009 241.746 66.5412C249.388 60.9837 256.831 55.0292 264.075 48.6778C255.441 41.3835 244.128 32.8984 234.154 25.4553C223.585 17.5657 208.997 8.9317 198.874 0.446589C200.065 0.347348 201.305 0.198482 202.596 0C203.687 0.0992411 204.779 0.198483 205.871 0.297724C215.298 8.33625 225.024 16.0771 235.047 23.5201C245.269 31.0625 255.69 38.3567 266.308 45.4028C267.35 46.1471 268.392 46.5937 269.583 46.7426C302.482 54.4834 334.785 64.7548 366.343 77.7058C367.088 78.0035 367.981 78.4501 368.725 78.3012C369.618 78.1524 370.363 77.1103 370.958 76.366C381.23 63.7128 414.128 24.5622 431.098 14.7373C409.364 34.8336 389.864 58.3538 371.107 82.3205C365.152 98.3976 358.454 115.07 350.564 130.105C349.472 132.288 349.175 134.571 349.671 136.953C355.179 162.259 354.583 194.86 359.645 211.83C358.255 208.257 356.816 204.734 355.328 201.261C354.583 199.475 352.946 198.581 351.308 199.028C339.846 202.303 323.471 208.257 311.86 211.235Z" fill="url(#paint1_radial_324_440)"/>
<path d="M19.7937 544.834C13.5415 537.837 7.58702 530.543 1.78142 522.653C1.33483 555.701 1.03711 586.813 1.03711 611.375C3.27003 626.112 5.05637 640.998 4.90751 656.331C4.01434 678.214 4.90751 705.604 7.43815 721.681C8.0336 727.934 17.7096 745.053 23.2175 747.881C44.3558 747.583 65.2957 747.633 86.0371 748.03C84.8462 744.308 83.5065 740.289 82.1667 736.121C73.9793 711.112 63.2613 680.447 60.5818 673.45C57.9023 648.541 52.5929 624.127 44.6536 600.21C38.2029 589.194 32.5958 577.98 27.8322 566.568C24.7557 559.422 22.0762 552.178 19.7937 544.834Z" fill="url(#paint2_radial_324_440)"/>
<path d="M69.2154 565.525C64.0053 573.266 54.7758 587.556 50.7566 599.763C49.4168 603.484 49.4168 607.057 50.31 610.928C55.669 631.173 59.6883 651.567 62.6655 672.407C70.4063 691.015 77.4028 714.535 83.0595 736.12C84.1512 740.189 85.1932 744.159 86.1856 748.029C119.828 748.625 152.975 750.163 185.625 752.644C185.327 749.22 185.179 744.754 185.179 739.544C184.881 711.856 186.667 663.327 186.37 637.872C173.419 611.374 162.849 583.388 153.769 554.211C151.089 545.875 149.75 544.982 142.009 543.791C136.203 542.898 126.825 542.451 117.298 541.707C109.706 541.111 101.965 540.367 95.7128 539.772C91.9912 539.474 88.5674 541.111 86.1856 544.535C80.38 552.574 74.7233 559.719 69.2154 565.525Z" fill="url(#paint3_radial_324_440)"/>
<path d="M47.9281 596.042C49.4168 595.595 65.4938 567.312 67.7267 563.739C74.1278 558.975 79.0402 552.425 84.2504 543.791C86.6322 539.921 85.4413 540.219 81.8686 540.517C78.5936 540.665 63.7075 542.452 50.4588 543.345C43.0157 543.94 35.8703 544.238 31.2556 544.238C29.9159 544.238 28.725 544.387 27.9807 544.982C26.6409 545.876 26.1943 547.811 27.2364 552.277C27.4349 552.971 27.6333 553.716 27.8318 554.51C32.2977 569.247 38.1033 582.496 44.802 595.149C46.2907 596.042 47.1838 596.34 47.9281 596.042Z" fill="url(#paint4_radial_324_440)"/>
<path d="M29.916 542.452C46.1419 542.452 64.3031 540.07 80.2312 538.582C84.6971 538.284 86.6323 537.837 91.0982 536.349C100.03 538.135 108.366 538.73 117.447 539.624C125.187 540.368 133.077 540.219 138.883 539.475C142.902 539.028 145.879 538.284 146.624 537.54C148.708 535.455 150.494 534.265 151.685 529.352C160.17 493.328 164.338 431.401 165.529 380.788C165.678 373.792 164.487 370.963 162.254 364.265C153.769 339.702 131.291 295.639 121.764 279.265C104.347 254.554 84.6971 225.674 76.6586 214.956C65.0474 203.196 53.8827 191.585 42.2715 179.974C39.8897 179.676 36.0193 179.081 31.5535 178.485C22.9195 177.294 12.2015 175.806 5.35384 174.913C1.03685 242.347 0.292545 214.956 0.887992 282.391C4.01409 307.399 5.50271 332.408 6.39588 357.417C3.86523 401.033 2.52548 464.448 1.78117 522.058C5.35385 525.333 13.3924 535.455 20.0911 540.07C23.6638 542.452 24.8547 542.452 27.9808 542.452C28.5763 542.452 29.2213 542.452 29.916 542.452Z" fill="url(#paint5_radial_324_440)"/>
<path d="M31.2558 174.913C34.7292 175.012 38.2027 175.26 41.6761 175.657C51.501 127.724 63.8565 80.5345 78.2961 34.2385C77.3036 28.8795 76.5097 23.4212 75.9143 17.8637C75.9143 17.3675 75.9143 16.921 75.9143 16.524C75.5173 12.8521 75.2692 9.13054 75.17 5.35938C54.7759 6.10368 36.0194 6.99685 21.2821 8.48547C13.3924 17.2683 7.28905 27.0932 2.37662 37.6624C2.22776 79.6413 1.78117 132.934 5.35385 174.913C13.9878 175.062 22.6218 174.615 31.2558 174.913Z" fill="url(#paint6_radial_324_440)"/>
<path d="M79.1893 43.0207C63.8566 86.3394 52.3943 131.147 44.9512 177.294C58.051 190.394 65.3452 201.409 76.6587 214.956C84.2506 221.804 114.618 261.996 125.039 275.394C138.585 299.807 151.238 329.43 161.51 358.458C165.083 368.283 166.571 366.199 169.399 359.054C182.053 327.198 193.069 294.15 201.702 259.614C203.34 252.171 203.638 221.059 204.977 205.131C205.722 172.084 208.252 133.082 213.611 93.3359C213.909 90.9542 214.653 88.1258 213.611 86.3394C208.699 77.7055 114.618 46.4445 86.9301 38.406C85.2927 37.9594 82.3154 37.0662 81.72 37.5128C80.8268 38.1083 79.7848 41.2344 79.1893 43.0207Z" fill="url(#paint7_radial_324_440)"/>
<path d="M84.6968 33.6425C128.462 46.7423 171.334 62.8194 213.462 81.4271C215.546 82.4691 217.63 82.3203 219.565 81.1294C227.207 76.6635 234.601 71.8007 241.746 66.5409C249.387 61.0827 256.831 55.1282 264.075 48.6775C255.59 41.5322 244.128 32.8982 234.154 25.4551C228.646 21.4358 221.947 16.97 215.248 12.5041C209.443 8.63374 203.637 4.61448 198.874 0.595215C167.762 3.72131 119.828 4.01903 77.7004 5.35879C77.5515 8.78261 77.7004 12.5041 78.1469 15.928C78.1469 16.5234 78.1966 17.1189 78.2958 17.7143C78.5935 21.4358 79.0401 25.1574 80.231 28.7301C80.9753 31.2607 82.6128 33.047 84.6968 33.6425Z" fill="url(#paint8_radial_324_440)"/>
<path d="M235.047 23.5198C245.269 31.1614 255.69 38.5052 266.308 45.5514C267.35 46.1468 268.393 46.5934 269.583 46.8911C302.482 54.6319 334.785 64.9034 366.343 77.7055C367.088 78.0032 367.981 78.5987 368.725 78.4498C369.618 78.1521 370.363 77.2589 370.958 76.3657C381.23 63.7125 414.128 24.5619 431.098 14.737C406.983 10.42 376.466 9.37799 352.499 3.1258C304.566 4.46555 253.506 3.87011 205.871 0.446289C210.535 4.41593 215.299 8.28633 220.161 12.0575C225.024 15.9279 229.986 19.7487 235.047 23.5198Z" fill="url(#paint9_radial_324_440)"/>
<path d="M264.373 52.8462C258.121 57.1632 249.338 63.7131 242.491 68.6255C235.494 73.6868 226.414 79.6413 220.906 84.256C219.119 85.6454 218.077 87.5806 217.78 90.0616C212.272 128.17 209.295 162.855 204.978 205.132C205.126 213.617 204.829 240.263 205.126 250.386C205.275 253.661 204.68 255.745 208.55 256.191C211.676 256.489 236.536 248.153 241.449 246.813C256.633 235.946 293.104 214.659 311.86 211.235C321.238 206.62 339.846 199.326 351.011 195.158C352.499 194.711 353.393 193.223 353.393 191.436C353.839 167.916 350.713 155.71 345.056 132.785C345.156 132.487 345.304 132.239 345.503 132.041C354.286 118.792 360.836 103.013 365.897 86.9355C366.195 85.5958 366.79 83.8094 366.195 82.4697C365.748 81.5765 364.408 81.1299 363.366 80.6833C333.892 66.5415 303.226 56.7166 271.37 51.3576C268.839 50.911 266.606 51.3576 264.373 52.8462Z" fill="url(#paint10_radial_324_440)"/>
<path d="M311.86 211.235C287.447 220.762 260.056 235.35 243.384 250.534C236.238 252.618 218.375 255.447 209.741 258.722C204.233 260.806 203.489 262.443 201.851 268.547C192.919 303.231 181.457 336.725 167.762 369.475C167.166 425.744 162.701 484.545 154.364 539.773C163.743 574.606 174.461 601.997 186.221 629.09C186.221 628.99 186.221 628.891 186.221 628.792C210.039 647.548 223.287 651.865 245.914 666.752C263.331 678.214 277.175 686.104 290.87 696.822C293.996 699.352 300.844 694.142 303.226 691.76C316.623 678.809 328.979 663.774 339.995 646.655C359.148 571.43 380.832 498.637 405.047 428.275C405.345 406.045 405.643 383.865 405.94 361.734C406.089 350.123 401.772 342.977 398.497 337.767C392.394 323.179 363.366 246.366 359.644 211.979C358.255 208.406 356.816 204.834 355.327 201.261C354.583 199.624 352.946 198.73 351.308 199.177C339.846 202.303 323.471 208.258 311.86 211.235Z" fill="url(#paint11_radial_324_440)"/>
<path d="M289.531 699.799C270.328 679.851 197.534 640.552 193.069 641.296C192.175 641.445 191.282 642.04 190.389 643.38C189.347 655.289 188.007 710.368 186.519 739.545C186.221 744.904 185.923 749.519 185.625 752.645C205.275 748.923 225.074 744.904 244.724 744.755C252.663 745.45 260.751 745.995 268.988 746.392L275.24 734.335L289.233 707.837C291.02 704.562 291.317 701.734 289.531 699.799Z" fill="url(#paint12_radial_324_440)"/>
<path d="M334.934 659.606C321.834 676.874 308.436 691.314 294.741 702.627C292.806 706.2 283.576 722.575 276.431 734.484C273.305 739.992 270.476 744.606 269.137 746.393C322.429 749.37 381.676 748.477 435.117 747.881C434.075 747.733 430.652 744.904 428.568 742.82C408.471 721.682 362.175 676.13 348.331 657.225C342.526 649.186 340.739 651.717 334.934 659.606Z" fill="url(#paint13_radial_324_440)"/>
<path d="M350.266 619.264C345.354 638.17 346.098 643.975 351.904 654.545C356.965 663.923 422.017 735.228 435.117 747.881C435.415 747.782 435.812 747.583 436.308 747.285C441.518 743.564 450.301 726.594 450.599 721.681C448.068 702.627 446.877 683.573 447.324 664.667C447.175 606.909 448.217 555.7 451.641 498.091C448.515 452.39 446.58 369.921 446.58 310.228C437.648 319.01 428.865 327.793 420.38 337.023C407.727 350.569 408.322 354.142 408.024 367.093C407.429 387.487 407.876 408.625 409.96 429.168C387.63 487.819 367.385 554.212 350.266 619.264Z" fill="url(#paint14_radial_324_440)"/>
<path d="M359.645 211.979C370.661 245.622 385.547 302.785 401.177 335.981C402.517 338.66 403.261 340.595 404.006 342.084C406.834 347.294 409.811 344.168 412.64 341.489L446.58 308.144C446.58 295.044 446.58 283.135 446.878 272.863C447.622 253.809 450.004 234.159 451.195 212.426C449.557 196.349 446.282 183.993 445.538 171.786C448.515 130.849 450.45 79.7898 450.153 39.5972C445.389 31.4098 438.244 22.0315 431.098 14.7373C409.365 34.9825 389.864 58.5026 371.107 82.3205C365.153 98.5464 358.603 115.219 350.564 130.254C349.473 132.338 349.175 134.571 349.671 136.953C355.179 162.259 354.584 195.009 359.645 211.979Z" fill="url(#paint15_radial_324_440)"/>
<path style="mix-blend-mode:multiply" opacity="0.5" d="M86.0369 748.03C65.2955 747.633 44.3556 747.583 23.2173 747.881V760.683C78.8915 759.79 139.776 760.981 192.473 765L185.625 752.644C152.975 750.163 119.828 748.625 86.1858 748.03C86.0369 748.03 86.0369 748.03 86.0369 748.03Z" fill="url(#paint16_radial_324_440)"/>
<path style="mix-blend-mode:multiply" d="M185.625 752.644L192.473 765C210.783 760.236 227.009 755.324 246.659 755.175L244.724 744.754C225.074 744.903 205.275 748.923 185.625 752.644Z" fill="url(#paint17_radial_324_440)"/>
<path style="mix-blend-mode:multiply" opacity="0.5" d="M244.724 744.754L246.659 755.175C307.841 757.556 376.615 756.217 435.118 760.683V747.88C381.676 748.476 322.429 749.369 269.137 746.392C269.038 746.392 268.988 746.392 268.988 746.392C260.751 745.995 252.663 745.449 244.724 744.754Z" fill="url(#paint18_radial_324_440)"/>
<path style="mix-blend-mode:multiply" d="M332.105 21.7342C308.734 13.9934 138.287 15.6309 43.1647 22.3297C36.6148 22.9251 31.5535 28.2841 31.7024 34.6852C31.8512 41.2351 32.0001 46.8918 32.149 55.3769L66.2383 59.3962L32.4467 66.095C33.6376 128.617 33.7864 191.436 33.0421 254.554L51.0544 261.253L32.8933 266.612C31.5535 356.375 27.9808 588.748 22.0264 678.065C27.0877 701.139 34.9773 719.002 48.3749 736.27C51.0544 739.843 55.0736 741.48 59.5395 741.034C100.774 736.717 307.841 738.801 403.559 746.542C405.345 746.69 406.983 746.244 408.322 745.053C409.513 743.862 410.258 742.225 410.258 740.438C409.563 713.742 409.116 687.047 408.918 660.351L395.967 651.866L402.219 644.274L401.326 638.319L408.918 633.407C408.918 540.07 412.193 304.571 418.445 211.979L408.62 206.62L413.979 197.838L399.986 190.394L420.231 185.929C423.209 147.522 426.483 112.689 430.354 74.4312C410.704 60.4382 344.163 25.7535 332.105 21.7342Z" fill="url(#paint19_radial_324_440)"/>
<path d="M340.739 32.4524C315.135 25.7536 126.527 23.223 26.7899 26.9445C27.1868 39.2504 27.5342 51.6059 27.8319 64.0111L63.4098 67.8815L28.1296 74.2825C29.6182 134.125 29.916 194.414 29.3205 254.852L48.0771 261.253L29.1716 266.463C27.9808 352.356 24.5569 581.008 18.4536 666.752C32.9428 687.592 47.3824 708.433 61.7724 729.274C68.0245 732.102 322.131 734.633 424.102 733.888C423.208 706.101 422.663 678.363 422.464 650.675L408.918 642.487L415.319 635.193L414.426 629.536L422.315 624.922C422.166 535.307 425.144 303.678 431.545 215.106L421.273 209.895L426.781 201.41L412.193 194.265L433.331 190.097C436.209 153.278 439.633 116.559 443.602 79.9393C409.364 64.0607 375.076 48.2317 340.739 32.4524Z" fill="url(#paint20_linear_324_440)"/>
<path style="mix-blend-mode:multiply" d="M18.4536 666.752C28.7251 671.813 77.9983 689.974 79.9335 694.44C81.571 697.864 63.4098 722.575 61.7723 729.274C47.3824 708.433 32.9428 687.593 18.4536 666.752Z" fill="url(#paint21_radial_324_440)"/>
<path d="M18.4535 666.752C36.0192 674.939 53.7338 683.127 70.5551 692.654C66.8336 704.712 64.3029 716.918 61.7723 729.274C57.4553 729.274 18.3047 671.218 18.4535 666.752Z" fill="url(#paint22_linear_324_440)"/>
<path style="mix-blend-mode:screen" opacity="0.5" d="M365.896 92.1459C376.317 102.269 384.951 113.88 384.653 124.151C383.76 155.114 422.017 137.846 409.215 181.165C401.921 206.174 419.933 210.193 417.551 229.694C415.914 243.687 403.707 247.26 401.326 271.078C398.795 295.64 399.539 330.027 407.429 341.489C425.441 367.689 398.497 411.008 404.601 436.463C409.066 454.624 412.192 621.349 412.341 638.468L408.917 642.487L412.341 644.572C412.192 649.931 411.597 654.099 410.555 656.778C401.921 678.214 396.264 662.882 386.142 691.314C379.443 709.624 357.263 712.75 334.636 709.475C298.016 704.265 273.453 681.192 242.341 681.192C214.951 681.043 203.042 703.818 174.312 706.945C157.639 708.731 140.52 703.967 123.103 709.177C83.3571 720.789 103.453 669.729 55.52 660.946C20.9841 654.545 49.7144 441.822 50.3098 422.619C51.9473 370.22 35.7214 369.475 40.0383 305.167C40.9315 292.514 49.8632 285.666 41.2292 263.188L48.0769 261.253L39.4429 258.276C29.0226 223.889 66.238 182.356 49.8632 123.705C44.3553 104.204 41.527 86.0426 43.611 71.4542L63.4096 67.8815L44.8019 65.7974C49.5655 46.892 64.6005 35.5785 96.4569 37.9603C158.383 42.2773 176.247 48.3806 235.791 60.1407C256.781 64.3088 281.343 68.3281 300.546 70.1144C336.868 73.3894 348.182 74.7291 365.896 92.1459Z" fill="url(#paint23_radial_324_440)"/>
<path style="mix-blend-mode:screen" opacity="0.5" d="M303.226 91.9971C344.163 92.5926 374.977 117.601 377.061 159.431C378.55 188.906 410.257 200.22 370.213 253.363C349.224 281.2 398.497 332.409 382.867 365.605C370.213 392.4 390.31 409.817 386.737 433.783C370.213 546.621 433.628 597.531 381.973 656.481C357.709 684.318 347.289 697.715 302.481 684.02C293.401 681.192 260.353 669.58 227.157 677.768C221.649 679.107 211.08 681.192 201.255 683.573C125.336 702.776 164.635 669.283 108.366 665.71C93.7773 664.817 94.5216 651.717 82.6127 650.526C44.9507 646.358 38.9962 565.079 60.4323 486.481C76.6582 427.68 80.0821 391.953 64.3027 361.139C34.6793 303.232 62.8141 268.696 88.1206 238.179C104.198 218.976 87.2274 164.79 81.4218 147.969C67.7265 108.521 86.7808 103.906 101.518 73.5383C111.045 54.1863 156.597 57.0146 173.418 69.9656C206.614 95.7187 290.572 91.6994 303.226 91.9971Z" fill="url(#paint24_radial_324_440)"/>
<path style="mix-blend-mode:screen" d="M63.4098 696.524C58.4974 684.764 35.8704 675.833 22.1752 672.111C21.6789 671.912 21.1827 671.764 20.6865 671.664C19.1979 669.134 18.4536 667.347 18.4536 666.752C18.8506 666.95 19.3468 667.149 19.9422 667.347C37.0613 675.386 54.1804 683.276 70.5552 692.654C66.8336 704.712 64.303 716.918 61.7723 729.274C61.5739 729.274 61.1769 729.075 60.5815 728.678C60.6807 728.48 60.7799 728.232 60.8792 727.934C64.0053 719.747 66.6848 704.712 63.4098 696.524Z" fill="url(#paint25_radial_324_440)"/>
<path style="mix-blend-mode:multiply" opacity="0.4" d="M364.259 730.465C406.982 730.167 419.487 707.093 422.762 680.447C423.06 698.211 423.506 716.025 424.102 733.889C346.545 734.335 181.159 733.144 103.454 731.209C164.487 728.678 185.328 721.98 238.025 712.899C273.9 706.647 280.301 711.708 314.539 722.575C328.681 727.041 343.567 730.614 364.259 730.465Z" fill="url(#paint26_radial_324_440)"/>
<path style="mix-blend-mode:multiply" opacity="0.3" d="M333.743 31.2612C320.047 32.1543 302.333 36.4713 286.702 39.5974C266.457 43.6167 252.315 42.1281 237.28 39.2997C197.683 31.7077 165.678 28.1351 128.313 25.3067C212.569 25.009 303.821 27.2419 333.743 31.2612Z" fill="url(#paint27_radial_324_440)"/>
<defs>
<radialGradient id="paint0_radial_324_440" cx="0" cy="0" r="1" gradientUnits="userSpaceOnUse" gradientTransform="translate(251.273 391.357) scale(443.905 443.905)">
<stop stop-color="#9DA9AB"/>
<stop offset="1" stop-color="#555763"/>
</radialGradient>
<radialGradient id="paint1_radial_324_440" cx="0" cy="0" r="1" gradientUnits="userSpaceOnUse" gradientTransform="translate(224.181 376.322) scale(309.037 309.037)">
<stop stop-color="#E2F1F7"/>
<stop offset="1" stop-color="#9A9DB5"/>
</radialGradient>
<radialGradient id="paint2_radial_324_440" cx="0" cy="0" r="1" gradientUnits="userSpaceOnUse" gradientTransform="translate(-26.6512 479.93) scale(408.03 408.03)">
<stop stop-color="#717485"/>
<stop offset="1" stop-color="#9DA9AB"/>
</radialGradient>
<radialGradient id="paint3_radial_324_440" cx="0" cy="0" r="1" gradientUnits="userSpaceOnUse" gradientTransform="translate(123.103 479.036) scale(310.228 310.228)">
<stop stop-color="#717485"/>
<stop offset="1" stop-color="#9DA9AB"/>
</radialGradient>
<radialGradient id="paint4_radial_324_440" cx="0" cy="0" r="1" gradientUnits="userSpaceOnUse" gradientTransform="translate(57.753 500.622) scale(136.208 136.208)">
<stop stop-color="#717485"/>
<stop offset="1" stop-color="#9DA9AB"/>
</radialGradient>
<radialGradient id="paint5_radial_324_440" cx="0" cy="0" r="1" gradientUnits="userSpaceOnUse" gradientTransform="translate(-162.562 230.289) scale(592.618 592.618)">
<stop stop-color="#717485"/>
<stop offset="1" stop-color="#9DA9AB"/>
</radialGradient>
<radialGradient id="paint6_radial_324_440" cx="0" cy="0" r="1" gradientUnits="userSpaceOnUse" gradientTransform="translate(-43.3239 -2.38143) scale(214.956 214.956)">
<stop stop-color="#717485"/>
<stop offset="1" stop-color="#9DA9AB"/>
</radialGradient>
<radialGradient id="paint7_radial_324_440" cx="0" cy="0" r="1" gradientUnits="userSpaceOnUse" gradientTransform="translate(45.9932 12.0575) scale(450.455 450.455)">
<stop stop-color="#717485"/>
<stop offset="1" stop-color="#9DA9AB"/>
</radialGradient>
<radialGradient id="paint8_radial_324_440" cx="0" cy="0" r="1" gradientUnits="userSpaceOnUse" gradientTransform="translate(190.984 -125.788) scale(243.091 243.091)">
<stop stop-color="#717485"/>
<stop offset="1" stop-color="#9DA9AB"/>
</radialGradient>
<radialGradient id="paint9_radial_324_440" cx="0" cy="0" r="1" gradientUnits="userSpaceOnUse" gradientTransform="translate(467.272 -90.657) scale(335.385 335.385)">
<stop stop-color="#AAB4B8"/>
<stop offset="1" stop-color="#828599"/>
</radialGradient>
<radialGradient id="paint10_radial_324_440" cx="0" cy="0" r="1" gradientUnits="userSpaceOnUse" gradientTransform="translate(272.412 -5.06096) scale(353.844 353.844)">
<stop stop-color="#717485"/>
<stop offset="1" stop-color="#9DA9AB"/>
</radialGradient>
<radialGradient id="paint11_radial_324_440" cx="0" cy="0" r="1" gradientUnits="userSpaceOnUse" gradientTransform="translate(224.925 164.641) scale(744.457 744.457)">
<stop stop-color="#717485"/>
<stop offset="1" stop-color="#9DA9AB"/>
</radialGradient>
<radialGradient id="paint12_radial_324_440" cx="0" cy="0" r="1" gradientUnits="userSpaceOnUse" gradientTransform="translate(241.449 565.228) scale(268.546 268.546)">
<stop stop-color="#717485"/>
<stop offset="1" stop-color="#9DA9AB"/>
</radialGradient>
<radialGradient id="paint13_radial_324_440" cx="0" cy="0" r="1" gradientUnits="userSpaceOnUse" gradientTransform="translate(352.053 573.713) scale(346.848 346.848)">
<stop stop-color="#717485"/>
<stop offset="1" stop-color="#9DA9AB"/>
</radialGradient>
<radialGradient id="paint14_radial_324_440" cx="0" cy="0" r="1" gradientUnits="userSpaceOnUse" gradientTransform="translate(579.811 714.833) scale(608.695 608.695)">
<stop stop-color="#717485"/>
<stop offset="1" stop-color="#9DA9AB"/>
</radialGradient>
<radialGradient id="paint15_radial_324_440" cx="0" cy="0" r="1" gradientUnits="userSpaceOnUse" gradientTransform="translate(564.181 259.168) scale(348.336 348.336)">
<stop stop-color="#9DA9AB"/>
<stop offset="1" stop-color="#717485"/>
</radialGradient>
<radialGradient id="paint16_radial_324_440" cx="0" cy="0" r="1" gradientUnits="userSpaceOnUse" gradientTransform="translate(121.168 769.019) scale(227.609 227.61)">
<stop stop-color="#E2F1F7"/>
<stop offset="1" stop-color="#9A9DB5"/>
</radialGradient>
<radialGradient id="paint17_radial_324_440" cx="0" cy="0" r="1" gradientUnits="userSpaceOnUse" gradientTransform="translate(230.284 712.749) scale(113.284 113.284)">
<stop stop-color="#E2F1F7"/>
<stop offset="1" stop-color="#9A9DB5"/>
</radialGradient>
<radialGradient id="paint18_radial_324_440" cx="0" cy="0" r="1" gradientUnits="userSpaceOnUse" gradientTransform="translate(357.412 648.888) scale(214.956 214.955)">
<stop stop-color="#E2F1F7"/>
<stop offset="1" stop-color="#9A9DB5"/>
</radialGradient>
<radialGradient id="paint19_radial_324_440" cx="0" cy="0" r="1" gradientUnits="userSpaceOnUse" gradientTransform="translate(220.31 525.482) scale(712.601 712.601)">
<stop stop-color="#A48A7B"/>
<stop offset="1" stop-color="white"/>
</radialGradient>
<linearGradient id="paint20_linear_324_440" x1="-218" y1="25" x2="-220" y2="734" gradientUnits="userSpaceOnUse">
<stop stop-color="#FFF1DE"/>
<stop offset="1" stop-color="#FBDAB7"/>
</linearGradient>
<radialGradient id="paint21_radial_324_440" cx="0" cy="0" r="1" gradientUnits="userSpaceOnUse" gradientTransform="translate(43.3135 720.789) scale(71.4536 71.4536)">
<stop stop-color="#A48A7B"/>
<stop offset="1" stop-color="white"/>
</radialGradient>
<linearGradient id="paint22_linear_324_440" x1="110.748" y1="708.582" x2="48.2259" y2="753.985" gradientUnits="userSpaceOnUse">
<stop stop-color="#EDD6B9"/>
<stop offset="1" stop-color="#BF9F7E"/>
</linearGradient>
<radialGradient id="paint23_radial_324_440" cx="0" cy="0" r="1" gradientUnits="userSpaceOnUse" gradientTransform="translate(227.604 374.239) scale(514.168 514.168)">
<stop stop-color="#CA9E67"/>
<stop offset="1"/>
</radialGradient>
<radialGradient id="paint24_radial_324_440" cx="0" cy="0" r="1" gradientUnits="userSpaceOnUse" gradientTransform="translate(225.371 374.537) scale(449.562 449.562)">
<stop stop-color="#CA9E67"/>
<stop offset="1"/>
</radialGradient>
<radialGradient id="paint25_radial_324_440" cx="0" cy="0" r="1" gradientUnits="userSpaceOnUse" gradientTransform="translate(27.5342 700.99) scale(64.3082 64.3082)">
<stop/>
<stop offset="1" stop-color="#A3805F"/>
</radialGradient>
<radialGradient id="paint26_radial_324_440" cx="0" cy="0" r="1" gradientUnits="userSpaceOnUse" gradientTransform="translate(297.718 582.348) scale(380.193 380.192)">
<stop stop-color="white"/>
<stop offset="1" stop-color="#A48A7B"/>
</radialGradient>
<radialGradient id="paint27_radial_324_440" cx="0" cy="0" r="1" gradientUnits="userSpaceOnUse" gradientTransform="translate(243.086 -146.033) scale(332.408 332.408)">
<stop stop-color="#A48A7B"/>
<stop offset="1" stop-color="white"/>
</radialGradient>
</defs>
</svg>
