<svg width="347" height="204" viewBox="0 0 347 204" fill="none" xmlns="http://www.w3.org/2000/svg">
<path d="M347 74.5L338 68.5C336.603 85.5 334.58 118.1 337.84 134.9L347 128.9C344.982 112.5 346.379 90.9 347 74.5Z" fill="url(#paint0_radial_334_52)"/>
<path d="M347 128.9L337.84 134.9C335.977 153.9 332.406 173.5 336.443 192.4L346.534 194.2C345.137 188.7 344.516 183.1 344.826 177.6C344.671 160.7 345.292 145.8 347 128.9Z" fill="url(#paint1_radial_334_52)"/>
<path d="M347 74.5L338 68.5C336.137 49.5 332.323 29.7994 336.359 10.8994L346.451 9.0994C345.054 14.5994 344.433 20.1994 344.743 25.6994C344.588 42.5994 345.292 57.6 347 74.5Z" fill="url(#paint2_radial_334_52)"/>
<path d="M346.534 194.2L336.443 192.4C335.977 192.9 335.356 193.5 334.89 194L338.306 201.9C340.945 201.5 346.224 195.8 346.534 194.2Z" fill="url(#paint3_radial_334_52)"/>
<path d="M346.451 9.09937L336.36 10.8994C335.894 10.3994 335.273 9.79938 334.807 9.29938L338.223 1.39941C340.862 1.79941 346.141 7.49937 346.451 9.09937Z" fill="url(#paint4_radial_334_52)"/>
<path d="M338.306 201.9L334.89 194C318.588 194.3 303.683 193.7 286.916 192.3L291.263 200.8C307.254 201.7 327.438 202.3 338.306 201.9Z" fill="url(#paint5_radial_334_52)"/>
<path d="M338.223 1.40002L334.807 9.29999C318.505 8.99999 303.6 9.6 286.833 11L291.18 2.5C307.171 1.6 327.355 1.00002 338.223 1.40002Z" fill="url(#paint6_radial_334_52)"/>
<path d="M291.263 200.8L286.915 192.3C264.714 193.6 237.854 195.8 215.342 197.1L223.726 203C245.927 201.6 268.129 200.6 290.176 200.7C290.59 200.7 290.952 200.733 291.263 200.8Z" fill="url(#paint7_radial_334_52)"/>
<path d="M291.18 2.5L286.832 11C264.631 9.7 237.771 7.50001 215.259 6.20001L223.643 0.299988C245.844 1.69999 268.046 2.69998 290.093 2.59998C290.507 2.59998 290.869 2.56667 291.18 2.5Z" fill="url(#paint8_radial_334_52)"/>
<path d="M223.726 203L215.342 197.1C183.98 197.3 163.486 195.7 133.987 193.3L128.864 201C159.915 202.4 191.432 203.2 223.726 203Z" fill="url(#paint9_radial_334_52)"/>
<path d="M223.643 0.299988L215.259 6.20001C183.897 6.00001 163.403 7.6 133.904 10L128.781 2.29999C159.832 0.899988 191.349 0.0999878 223.643 0.299988Z" fill="url(#paint10_radial_334_52)"/>
<path d="M128.863 201L133.987 193.3C123.119 193.4 100.917 194.8 90.2041 195.9L97.8117 203.3C108.214 202.2 118.461 201 128.863 201Z" fill="url(#paint11_radial_334_52)"/>
<path d="M128.78 2.29999L133.904 10C123.036 9.9 100.834 8.50002 90.1211 7.40002L97.7287 0C108.131 1.1 118.378 2.29999 128.78 2.29999Z" fill="url(#paint12_radial_334_52)"/>
<path d="M97.8119 203.3L90.2043 195.9C63.5 194.8 43.0061 196 16.1466 196.2L12.731 201.9C41.9193 201.7 70.3314 202.1 97.8119 203.3Z" fill="url(#paint13_radial_334_52)"/>
<path d="M97.7289 0.000118732L90.1213 7.40014C63.417 8.50014 42.9231 7.30009 16.0636 7.10009L12.6479 1.40014C41.8363 1.60014 70.2484 1.20012 97.7289 0.000118732Z" fill="url(#paint14_radial_334_52)"/>
<path d="M12.7311 201.9L16.1467 196.2C15.3705 195.5 14.5942 194.6 14.1284 194.1L4.50244 194.3C4.81296 196.1 9.93647 201.1 12.7311 201.9Z" fill="url(#paint15_radial_334_52)"/>
<path d="M12.6481 1.40021L16.0637 7.10016C15.2874 7.80016 14.5112 8.7002 14.0454 9.2002L4.41943 9.00018C4.72995 7.20018 9.85347 2.20021 12.6481 1.40021Z" fill="url(#paint16_radial_334_52)"/>
<path d="M4.50222 194.3L14.1282 194.1C13.8177 190.4 14.1282 181.1 14.5939 175.4L3.26018 175.2C2.79441 181.5 3.26016 189.6 4.50222 194.3Z" fill="url(#paint17_radial_334_52)"/>
<path d="M4.41922 8.99963L14.0452 9.19965C13.7347 12.8996 14.0342 21.8 14.5 27.5L3 28C2.53423 21.7 3.17716 13.6996 4.41922 8.99963Z" fill="url(#paint18_radial_334_52)"/>
<path d="M3.26056 175.2L14.5943 175.4C13.6628 173.5 11.0234 166.8 10.2471 161.7L1.24219 162C2.32899 166.3 3.26056 170.7 3.26056 175.2Z" fill="url(#paint19_radial_334_52)"/>
<path d="M1.24219 162L10.2471 161.7C10.4024 142.6 13.8181 123.3 15.6811 104.3L4.03685 104.2C2.0185 124.4 1.24219 142.3 1.24219 162Z" fill="url(#paint20_radial_334_52)"/>
<path d="M4.03679 104.2L15.6811 104.3C14.439 98.7002 11.3339 87.9002 8.69451 79.7002L1.08691 82.3002C2.79474 89.6002 3.57102 96.9002 4.03679 104.2Z" fill="url(#paint21_radial_334_52)"/>
<path d="M1.08683 82.2996L8.69443 79.6996C10.5575 61.6996 11.8607 45.7 14.5 27.5L3 28C0.826396 47.7 0.776317 62.5996 1.08683 82.2996Z" fill="url(#paint22_radial_334_52)"/>
<defs>
<radialGradient id="paint0_radial_334_52" cx="0" cy="0" r="1" gradientUnits="userSpaceOnUse" gradientTransform="translate(367.339 160.6) scale(135.85 87.5)">
<stop stop-color="#9DA9AB"/>
<stop offset="1" stop-color="#5B5E6B"/>
</radialGradient>
<radialGradient id="paint1_radial_334_52" cx="0" cy="0" r="1" gradientUnits="userSpaceOnUse" gradientTransform="translate(240.028 130.2) scale(134.142 86.4)">
<stop stop-color="#9DA9AB"/>
<stop offset="1" stop-color="#5B5E6B"/>
</radialGradient>
<radialGradient id="paint2_radial_334_52" cx="0" cy="0" r="1" gradientUnits="userSpaceOnUse" gradientTransform="translate(239.945 73.0994) scale(134.142 86.4)">
<stop stop-color="#9DA9AB"/>
<stop offset="1" stop-color="#5B5E6B"/>
</radialGradient>
<radialGradient id="paint3_radial_334_52" cx="0" cy="0" r="1" gradientUnits="userSpaceOnUse" gradientTransform="translate(350.882 203) scale(40.6774 26.2)">
<stop stop-color="#9DA9AB"/>
<stop offset="1" stop-color="#555763"/>
</radialGradient>
<radialGradient id="paint4_radial_334_52" cx="0" cy="0" r="1" gradientUnits="userSpaceOnUse" gradientTransform="translate(350.799 0.299413) scale(40.6774 26.2)">
<stop stop-color="#9DA9AB"/>
<stop offset="1" stop-color="#555763"/>
</radialGradient>
<radialGradient id="paint5_radial_334_52" cx="0" cy="0" r="1" gradientUnits="userSpaceOnUse" gradientTransform="translate(300.112 150.5) scale(87.7205 56.4999)">
<stop stop-color="#9DA9AB"/>
<stop offset="1" stop-color="#555763"/>
</radialGradient>
<radialGradient id="paint6_radial_334_52" cx="0" cy="0" r="1" gradientUnits="userSpaceOnUse" gradientTransform="translate(300.029 52.7999) scale(87.7205 56.4999)">
<stop stop-color="#9DA9AB"/>
<stop offset="1" stop-color="#555763"/>
</radialGradient>
<radialGradient id="paint7_radial_334_52" cx="0" cy="0" r="1" gradientUnits="userSpaceOnUse" gradientTransform="translate(266.421 239.9) scale(95.7937 61.7001)">
<stop stop-color="#9DA9AB"/>
<stop offset="1" stop-color="#555763"/>
</radialGradient>
<radialGradient id="paint8_radial_334_52" cx="0" cy="0" r="1" gradientUnits="userSpaceOnUse" gradientTransform="translate(266.338 -36.6001) scale(95.7937 61.7001)">
<stop stop-color="#9DA9AB"/>
<stop offset="1" stop-color="#555763"/>
</radialGradient>
<radialGradient id="paint9_radial_334_52" cx="0" cy="0" r="1" gradientUnits="userSpaceOnUse" gradientTransform="translate(197.487 156.4) scale(110.388 71.1001)">
<stop stop-color="#9DA9AB"/>
<stop offset="1" stop-color="#555763"/>
</radialGradient>
<radialGradient id="paint10_radial_334_52" cx="0" cy="0" r="1" gradientUnits="userSpaceOnUse" gradientTransform="translate(197.404 46.9) scale(110.388 71.1001)">
<stop stop-color="#9DA9AB"/>
<stop offset="1" stop-color="#555763"/>
</radialGradient>
<radialGradient id="paint11_radial_334_52" cx="0" cy="0" r="1" gradientUnits="userSpaceOnUse" gradientTransform="translate(124.982 256.1) scale(113.338 73)">
<stop stop-color="#9DA9AB"/>
<stop offset="1" stop-color="#555763"/>
</radialGradient>
<radialGradient id="paint12_radial_334_52" cx="0" cy="0" r="1" gradientUnits="userSpaceOnUse" gradientTransform="translate(124.899 -52.8) scale(113.338 73)">
<stop stop-color="#9DA9AB"/>
<stop offset="1" stop-color="#555763"/>
</radialGradient>
<radialGradient id="paint13_radial_334_52" cx="0" cy="0" r="1" gradientUnits="userSpaceOnUse" gradientTransform="translate(57.9108 235.2) scale(96.8805 62.4001)">
<stop stop-color="#9DA9AB"/>
<stop offset="1" stop-color="#555763"/>
</radialGradient>
<radialGradient id="paint14_radial_334_52" cx="0" cy="0" r="1" gradientUnits="userSpaceOnUse" gradientTransform="translate(57.8278 -31.8999) scale(96.8805 62.4001)">
<stop stop-color="#9DA9AB"/>
<stop offset="1" stop-color="#555763"/>
</radialGradient>
<radialGradient id="paint15_radial_334_52" cx="0" cy="0" r="1" gradientUnits="userSpaceOnUse" gradientTransform="translate(0.155238 188.7) scale(33.5356 21.6)">
<stop stop-color="#9DA9AB"/>
<stop offset="1" stop-color="#555763"/>
</radialGradient>
<radialGradient id="paint16_radial_334_52" cx="0" cy="0" r="1" gradientUnits="userSpaceOnUse" gradientTransform="translate(0.0722299 14.6002) scale(33.5356 21.6)">
<stop stop-color="#9DA9AB"/>
<stop offset="1" stop-color="#555763"/>
</radialGradient>
<radialGradient id="paint17_radial_334_52" cx="0" cy="0" r="1" gradientUnits="userSpaceOnUse" gradientTransform="translate(0.31029 199.3) scale(56.2031 36.2)">
<stop stop-color="#9DA9AB"/>
<stop offset="1" stop-color="#555763"/>
</radialGradient>
<radialGradient id="paint18_radial_334_52" cx="0" cy="0" r="1" gradientUnits="userSpaceOnUse" gradientTransform="translate(0.227281 3.99964) scale(56.2031 36.2)">
<stop stop-color="#9DA9AB"/>
<stop offset="1" stop-color="#555763"/>
</radialGradient>
<radialGradient id="paint19_radial_334_52" cx="0" cy="0" r="1" gradientUnits="userSpaceOnUse" gradientTransform="translate(-9.93634 162) scale(30.8962 19.8999)">
<stop stop-color="#9DA9AB"/>
<stop offset="1" stop-color="#555763"/>
</radialGradient>
<radialGradient id="paint20_radial_334_52" cx="0" cy="0" r="1" gradientUnits="userSpaceOnUse" gradientTransform="translate(-5.7444 159.4) scale(187.396 120.7)">
<stop stop-color="#9DA9AB"/>
<stop offset="1" stop-color="#555763"/>
</radialGradient>
<radialGradient id="paint21_radial_334_52" cx="0" cy="0" r="1" gradientUnits="userSpaceOnUse" gradientTransform="translate(-18.786 92.0002) scale(48.1297 31)">
<stop stop-color="#9DA9AB"/>
<stop offset="1" stop-color="#555763"/>
</radialGradient>
<radialGradient id="paint22_radial_334_52" cx="0" cy="0" r="1" gradientUnits="userSpaceOnUse" gradientTransform="translate(-0.931551 83.9) scale(131.037 84.4)">
<stop stop-color="#9DA9AB"/>
<stop offset="1" stop-color="#555763"/>
</radialGradient>
</defs>
</svg>
