<svg width="346" height="239" viewBox="0 0 346 239" fill="none" xmlns="http://www.w3.org/2000/svg">
<path opacity="0.5" d="M9.71289 24.5998C11.0585 23.1998 12.5593 21.8665 14.2153 20.5998L10.0234 14.7998C5.98674 17.3998 2.7263 20.2998 0.242188 23.3998L9.71289 24.5998Z" fill="url(#paint0_radial_334_4)"/>
<path d="M14.2154 20.6C44.6458 18.2 80.6655 16.4 109.078 10.9L100.538 3C70.7291 7.5 40.4539 11.4 10.0234 14.8L14.2154 20.6Z" fill="url(#paint1_radial_334_4)"/>
<path d="M109.077 10.9C132.676 10.2 148.668 9.69999 169.472 7.89999L173.354 0C149.237 1.26667 124.965 2.26667 100.538 3L109.077 10.9Z" fill="url(#paint2_radial_334_4)"/>
<path d="M169.473 7.89999C184.843 8.29999 196.022 9.19998 209.529 11.2L215.429 4.79999C201.145 3.49999 187.017 1.9 173.354 0L169.473 7.89999Z" fill="url(#paint3_radial_334_4)"/>
<path d="M215.429 4.7998L209.529 11.1998C234.836 10.3998 268.371 11.0998 293.523 12.5998L292.747 7.1998C267.129 5.5998 241.357 4.8998 215.429 4.7998Z" fill="url(#paint4_radial_334_4)"/>
<path d="M293.523 12.6002C307.031 15.2002 318.986 18.4002 330.164 22.2002L335.598 16.0002C321.314 13.2669 307.031 10.3335 292.747 7.2002L293.523 12.6002Z" fill="url(#paint5_radial_334_4)"/>
<path d="M335.598 16L330.164 22.2C331.717 23.2 333.424 24.4 334.822 25.6L345.535 23.3C343.05 20.9 339.324 18.2 335.598 16Z" fill="url(#paint6_radial_334_4)"/>
<path d="M345.534 23.2998L334.821 25.5998C334.821 36.6998 333.114 44.8998 331.561 55.9998L342.74 59.1998C344.447 47.1998 345.689 34.9998 345.534 23.2998Z" fill="url(#paint7_radial_334_4)"/>
<path d="M342.74 59.2L331.561 56C333.735 68.7 335.753 84.6 337.616 97.3L345.689 96.9C343.826 83.7 342.74 72.4 342.74 59.2Z" fill="url(#paint8_radial_334_4)"/>
<path d="M345.689 96.9004L337.616 97.3004C337.461 102.9 337.15 104.9 335.753 110.6L343.516 114.6C344.913 109 345.689 103.5 345.689 96.9004Z" fill="url(#paint9_radial_334_4)"/>
<path d="M343.516 114.6L335.753 110.6C334.356 127.6 333.579 153.1 336.84 169.9L346 163.9C343.982 147.5 342.895 131 343.516 114.6Z" fill="url(#paint10_radial_334_4)"/>
<path d="M346 163.9L336.84 169.9C334.977 188.9 331.406 208.5 335.443 227.4L345.534 229.2C344.137 223.7 343.516 218.1 343.826 212.6C343.671 195.7 344.292 180.8 346 163.9Z" fill="url(#paint11_radial_334_4)"/>
<path d="M345.534 229.2L335.443 227.4C334.977 227.9 334.356 228.5 333.89 229L337.306 236.9C339.945 236.5 345.224 230.8 345.534 229.2Z" fill="url(#paint12_radial_334_4)"/>
<path d="M337.306 236.9L333.89 229C317.588 229.3 302.683 228.7 285.916 227.3L290.263 235.8C306.254 236.7 326.438 237.3 337.306 236.9Z" fill="url(#paint13_radial_334_4)"/>
<path d="M290.263 235.8L285.915 227.3C263.714 228.6 236.854 230.8 214.342 232.1L222.726 238C244.927 236.6 267.129 235.6 289.176 235.7C289.59 235.7 289.952 235.733 290.263 235.8Z" fill="url(#paint14_radial_334_4)"/>
<path d="M222.726 238L214.342 232.1C182.98 232.3 162.486 230.7 132.987 228.3L127.864 236C158.915 237.4 190.432 238.2 222.726 238Z" fill="url(#paint15_radial_334_4)"/>
<path d="M127.863 236L132.987 228.3C122.119 228.4 99.9169 229.8 89.2041 230.9L96.8117 238.3C107.214 237.2 117.461 236 127.863 236Z" fill="url(#paint16_radial_334_4)"/>
<path d="M96.8119 238.3L89.2043 230.9C62.5 229.8 42.0061 231 15.1466 231.2L11.731 236.9C40.9193 236.7 69.3314 237.1 96.8119 238.3Z" fill="url(#paint17_radial_334_4)"/>
<path d="M11.7311 236.9L15.1467 231.2C14.3705 230.5 13.5942 229.6 13.1284 229.1L3.50244 229.3C3.81296 231.1 8.93647 236.1 11.7311 236.9Z" fill="url(#paint18_radial_334_4)"/>
<path d="M3.50222 229.3L13.1282 229.1C12.8177 225.4 13.1282 216.1 13.5939 210.4L2.26018 210.2C1.79441 216.5 2.26016 224.6 3.50222 229.3Z" fill="url(#paint19_radial_334_4)"/>
<path d="M2.26056 210.2L13.5943 210.4C12.6628 208.5 10.0234 201.8 9.24714 196.7L0.242188 197C1.32899 201.3 2.26056 205.7 2.26056 210.2Z" fill="url(#paint20_radial_334_4)"/>
<path d="M0.242188 197L9.24714 196.7C9.4024 177.6 12.8181 158.3 14.6811 139.3L3.03685 139.2C1.0185 159.4 0.242188 177.3 0.242188 197Z" fill="url(#paint21_radial_334_4)"/>
<path d="M3.03679 139.2L14.6811 139.3C13.439 133.7 10.3339 122.9 7.69451 114.7L0.0869141 117.3C1.79474 124.6 2.57102 131.9 3.03679 139.2Z" fill="url(#paint22_radial_334_4)"/>
<path d="M0.0867907 117.3L7.69439 114.7C9.55748 96.7 11.4206 78.2 14.0599 60L2.41565 60.1C0.242048 79.8 -0.223724 97.6 0.0867907 117.3Z" fill="url(#paint23_radial_334_4)"/>
<path d="M2.41574 60.1004L14.06 60.0004C12.197 49.9004 10.1786 36.3004 9.71281 24.6004L0.242103 23.4004C0.0868455 35.6004 0.552655 47.9004 2.41574 60.1004Z" fill="url(#paint24_radial_334_4)"/>
<path opacity="0.5" d="M171.646 3.39999C175.527 4.99999 203.784 8.5 213.1 7.5C239.649 6.7 266.353 6.79999 292.902 8.39999C298.491 11.4 320.227 15.8 333.114 18.9C336.84 18.8 341.187 22.2 339.479 24.6C342.584 31.9 343.516 43.4 343.671 52.8C344.758 42.9 345.689 32.9 345.534 23.3C343.05 20.9 339.324 18.2 335.598 16C321.314 13.2667 307.03 10.3333 292.747 7.19998C267.129 5.59998 241.357 4.89999 215.429 4.79999C201.145 3.49999 187.016 1.9 173.354 0C149.237 1.26667 124.965 2.26667 100.538 3C70.7288 7.5 40.4536 11.4 10.0231 14.8C5.98646 17.4 2.72603 20.3 0.24191 23.4C0.0866523 34.3 0.552434 45.2 1.94975 56.2C1.94975 45.4 2.41551 34.7 4.12334 23.9C5.21014 21.3 8.00477 19.1 11.8862 17.4C42.3166 14.1 72.5919 10.1 102.091 4.39999C124.914 5.09999 147.892 4.89999 171.646 3.39999Z" fill="#EDF5F7"/>
<defs>
<radialGradient id="paint0_radial_334_4" cx="0" cy="0" r="1" gradientUnits="userSpaceOnUse" gradientTransform="translate(3.8131 7.19981) scale(41.9195 27)">
<stop stop-color="#E4ECF0"/>
<stop offset="1" stop-color="#A6B4BD"/>
</radialGradient>
<radialGradient id="paint1_radial_334_4" cx="0" cy="0" r="1" gradientUnits="userSpaceOnUse" gradientTransform="translate(89.0494 -54.1999) scale(142.681 91.8999)">
<stop stop-color="#E4ECF0"/>
<stop offset="1" stop-color="#A6B4BD"/>
</radialGradient>
<radialGradient id="paint2_radial_334_4" cx="0" cy="0" r="1" gradientUnits="userSpaceOnUse" gradientTransform="translate(157.207 -58) scale(112.561 72.5)">
<stop stop-color="#E4ECF0"/>
<stop offset="1" stop-color="#A6B4BD"/>
</radialGradient>
<radialGradient id="paint3_radial_334_4" cx="0" cy="0" r="1" gradientUnits="userSpaceOnUse" gradientTransform="translate(188.259 -19) scale(60.5504 38.9999)">
<stop stop-color="#BDCACF"/>
<stop offset="1" stop-color="#828599"/>
</radialGradient>
<radialGradient id="paint4_radial_334_4" cx="0" cy="0" r="1" gradientUnits="userSpaceOnUse" gradientTransform="translate(250.983 -30.1001) scale(79.026 50.8999)">
<stop stop-color="#BDCACF"/>
<stop offset="1" stop-color="#828599"/>
</radialGradient>
<radialGradient id="paint5_radial_334_4" cx="0" cy="0" r="1" gradientUnits="userSpaceOnUse" gradientTransform="translate(335.909 -20.8998) scale(66.1395 42.6)">
<stop stop-color="#BDCACF"/>
<stop offset="1" stop-color="#6E7082"/>
</radialGradient>
<radialGradient id="paint6_radial_334_4" cx="0" cy="0" r="1" gradientUnits="userSpaceOnUse" gradientTransform="translate(342.119 4.90003) scale(36.3303 23.3999)">
<stop stop-color="#BDCACF"/>
<stop offset="1" stop-color="#828599"/>
</radialGradient>
<radialGradient id="paint7_radial_334_4" cx="0" cy="0" r="1" gradientUnits="userSpaceOnUse" gradientTransform="translate(342.584 14.9998) scale(145.942 94)">
<stop stop-color="#9DA9AB"/>
<stop offset="1" stop-color="#5B5E6B"/>
</radialGradient>
<radialGradient id="paint8_radial_334_4" cx="0" cy="0" r="1" gradientUnits="userSpaceOnUse" gradientTransform="translate(370.375 110.6) scale(117.685 75.8)">
<stop stop-color="#9DA9AB"/>
<stop offset="1" stop-color="#5B5E6B"/>
</radialGradient>
<radialGradient id="paint9_radial_334_4" cx="0" cy="0" r="1" gradientUnits="userSpaceOnUse" gradientTransform="translate(344.758 87.9004) scale(43.9376 28.3)">
<stop stop-color="#9DA9AB"/>
<stop offset="1" stop-color="#5B5E6B"/>
</radialGradient>
<radialGradient id="paint10_radial_334_4" cx="0" cy="0" r="1" gradientUnits="userSpaceOnUse" gradientTransform="translate(366.339 195.6) scale(135.85 87.5)">
<stop stop-color="#9DA9AB"/>
<stop offset="1" stop-color="#5B5E6B"/>
</radialGradient>
<radialGradient id="paint11_radial_334_4" cx="0" cy="0" r="1" gradientUnits="userSpaceOnUse" gradientTransform="translate(239.028 165.2) scale(134.142 86.4)">
<stop stop-color="#9DA9AB"/>
<stop offset="1" stop-color="#5B5E6B"/>
</radialGradient>
<radialGradient id="paint12_radial_334_4" cx="0" cy="0" r="1" gradientUnits="userSpaceOnUse" gradientTransform="translate(349.882 238) scale(40.6774 26.2)">
<stop stop-color="#9DA9AB"/>
<stop offset="1" stop-color="#555763"/>
</radialGradient>
<radialGradient id="paint13_radial_334_4" cx="0" cy="0" r="1" gradientUnits="userSpaceOnUse" gradientTransform="translate(299.112 185.5) scale(87.7205 56.4999)">
<stop stop-color="#9DA9AB"/>
<stop offset="1" stop-color="#555763"/>
</radialGradient>
<radialGradient id="paint14_radial_334_4" cx="0" cy="0" r="1" gradientUnits="userSpaceOnUse" gradientTransform="translate(265.421 274.9) scale(95.7937 61.7001)">
<stop stop-color="#9DA9AB"/>
<stop offset="1" stop-color="#555763"/>
</radialGradient>
<radialGradient id="paint15_radial_334_4" cx="0" cy="0" r="1" gradientUnits="userSpaceOnUse" gradientTransform="translate(196.487 191.4) scale(110.388 71.1001)">
<stop stop-color="#9DA9AB"/>
<stop offset="1" stop-color="#555763"/>
</radialGradient>
<radialGradient id="paint16_radial_334_4" cx="0" cy="0" r="1" gradientUnits="userSpaceOnUse" gradientTransform="translate(123.982 291.1) scale(113.338 73)">
<stop stop-color="#9DA9AB"/>
<stop offset="1" stop-color="#555763"/>
</radialGradient>
<radialGradient id="paint17_radial_334_4" cx="0" cy="0" r="1" gradientUnits="userSpaceOnUse" gradientTransform="translate(56.9108 270.2) scale(96.8805 62.4001)">
<stop stop-color="#9DA9AB"/>
<stop offset="1" stop-color="#555763"/>
</radialGradient>
<radialGradient id="paint18_radial_334_4" cx="0" cy="0" r="1" gradientUnits="userSpaceOnUse" gradientTransform="translate(-0.844762 223.7) scale(33.5356 21.6)">
<stop stop-color="#9DA9AB"/>
<stop offset="1" stop-color="#555763"/>
</radialGradient>
<radialGradient id="paint19_radial_334_4" cx="0" cy="0" r="1" gradientUnits="userSpaceOnUse" gradientTransform="translate(-0.68971 234.3) scale(56.2031 36.2)">
<stop stop-color="#9DA9AB"/>
<stop offset="1" stop-color="#555763"/>
</radialGradient>
<radialGradient id="paint20_radial_334_4" cx="0" cy="0" r="1" gradientUnits="userSpaceOnUse" gradientTransform="translate(-10.9363 197) scale(30.8962 19.8999)">
<stop stop-color="#9DA9AB"/>
<stop offset="1" stop-color="#555763"/>
</radialGradient>
<radialGradient id="paint21_radial_334_4" cx="0" cy="0" r="1" gradientUnits="userSpaceOnUse" gradientTransform="translate(-6.7444 194.4) scale(187.396 120.7)">
<stop stop-color="#9DA9AB"/>
<stop offset="1" stop-color="#555763"/>
</radialGradient>
<radialGradient id="paint22_radial_334_4" cx="0" cy="0" r="1" gradientUnits="userSpaceOnUse" gradientTransform="translate(-19.786 127) scale(48.1297 31)">
<stop stop-color="#9DA9AB"/>
<stop offset="1" stop-color="#555763"/>
</radialGradient>
<radialGradient id="paint23_radial_334_4" cx="0" cy="0" r="1" gradientUnits="userSpaceOnUse" gradientTransform="translate(-1.93155 118.9) scale(131.037 84.4)">
<stop stop-color="#9DA9AB"/>
<stop offset="1" stop-color="#555763"/>
</radialGradient>
<radialGradient id="paint24_radial_334_4" cx="0" cy="0" r="1" gradientUnits="userSpaceOnUse" gradientTransform="translate(-4.72614 19.2004) scale(167.678 108)">
<stop stop-color="#9DA9AB"/>
<stop offset="1" stop-color="#555763"/>
</radialGradient>
</defs>
</svg>
