<svg width="156" height="58" viewBox="0 0 156 58" fill="none" xmlns="http://www.w3.org/2000/svg">
<path d="M24.9937 1.05454L55.3232 0L69.3646 1.65715L111.91 0.451953L131.006 1.05454L135.921 1.80779L148.699 9.34025L152.209 14.613L156 29.226L154.034 37.5117L148.699 49.2623L136.342 56.9455L131.006 57.548L116.263 58L101.239 56.4935L58.9739 57.548L53.6382 56.1922L46.3366 57.548L25.8362 58L17.4114 56.4935L7.44193 49.2623L2.24659 39.1688L0 29.226L1.68499 21.0909L7.44193 9.18962L15.3052 3.16365L24.9937 1.05454Z" fill="#A1A1A1"/>
<path d="M25.5554 4.97178L16.9901 6.93022L10.3907 12.5042L4.21249 22.2965L2.94873 28.7744L5.33579 37.6627L9.82905 47.1536L18.3943 53.3302H26.1171L45.9155 54.5354L53.7786 53.1796L59.2548 54.0835L101.379 51.8237L116.403 53.3302L130.726 52.8783L135.078 52.2757L145.75 45.7978L151.226 35.8549L152.771 29.377L149.962 17.1744L145.609 11.4497L135.219 5.87568L130.866 4.51982L112.191 4.06787L69.0838 6.93022L55.0424 5.57436L25.5554 4.97178Z" fill="#A1A1A1"/>
<path d="M2.94866 28.7739L4.21242 22.296L1.68499 21.0908L0 29.2259L2.94866 28.7739Z" fill="url(#paint0_radial_323_336)"/>
<path d="M4.21249 22.2964L10.3907 12.5042L7.442 9.18994L1.68506 21.0912L4.21249 22.2964Z" fill="url(#paint1_radial_323_336)"/>
<path d="M7.44189 9.18955L10.3906 12.5038L16.99 6.92981L15.3051 3.16357L7.44189 9.18955Z" fill="url(#paint2_radial_323_336)"/>
<path d="M16.9901 6.93003L25.5554 4.97158L24.9937 1.05469L15.3052 3.16379L16.9901 6.93003Z" fill="url(#paint3_radial_323_336)"/>
<path d="M24.9937 1.05454L25.5553 4.97143L55.0423 5.57402L55.3231 0L24.9937 1.05454Z" fill="url(#paint4_radial_323_336)"/>
<path d="M55.3233 0L55.0425 5.57402L69.0839 6.92988L69.3647 1.65715L55.3233 0Z" fill="url(#paint5_radial_323_336)"/>
<path d="M69.3643 1.65686L69.0835 6.92959L112.191 4.06724L111.91 0.45166L69.3643 1.65686Z" fill="url(#paint6_radial_323_336)"/>
<path d="M111.91 0.45166L112.191 4.06724L130.866 4.51919L131.006 1.05425L111.91 0.45166Z" fill="url(#paint7_radial_323_336)"/>
<path d="M131.006 1.05469L130.866 4.51963L135.219 5.87548L135.921 1.80793L131.006 1.05469Z" fill="url(#paint8_radial_323_336)"/>
<path d="M135.921 1.80811L135.219 5.87566L145.609 11.4497L148.699 9.34057L135.921 1.80811Z" fill="url(#paint9_radial_323_336)"/>
<path d="M148.699 9.34033L145.609 11.4494L149.962 17.1741L152.209 14.6131L148.699 9.34033Z" fill="url(#paint10_radial_323_336)"/>
<path d="M152.209 14.6133L149.962 17.1743L152.771 29.3769L156 29.2263L152.209 14.6133Z" fill="url(#paint11_radial_323_336)"/>
<path d="M156 29.2256L152.771 29.3762L151.226 35.8541L154.034 37.5113L156 29.2256Z" fill="url(#paint12_radial_323_336)"/>
<path d="M154.034 37.5116L151.226 35.8545L145.75 45.7974L148.699 49.2623L154.034 37.5116Z" fill="url(#paint13_radial_323_336)"/>
<path d="M145.75 45.7974L135.078 52.2753L136.342 56.9454L148.698 49.2623L145.75 45.7974Z" fill="url(#paint14_radial_323_336)"/>
<path d="M135.078 52.2754L130.725 52.878L116.403 53.33L116.263 58.0001L131.006 57.5481L136.342 56.9455L135.078 52.2754Z" fill="url(#paint15_radial_323_336)"/>
<path d="M116.263 57.9999L116.403 53.3297L101.379 51.8232L101.238 56.4934L116.263 57.9999Z" fill="url(#paint16_radial_323_336)"/>
<path d="M101.239 56.4934L101.379 51.8232L59.255 54.083L58.9741 57.5479L101.239 56.4934Z" fill="url(#paint17_radial_323_336)"/>
<path d="M58.9739 57.5475L59.2547 54.0826L53.7786 53.1787L53.6382 56.1917L58.9739 57.5475Z" fill="url(#paint18_radial_323_336)"/>
<path d="M53.6383 56.1917L53.7787 53.1787L45.9155 54.5345L46.3368 57.5475L53.6383 56.1917Z" fill="url(#paint19_radial_323_336)"/>
<path d="M46.3368 57.5478L45.9156 54.5348L26.1172 53.3296L25.8364 57.9997L46.3368 57.5478Z" fill="url(#paint20_radial_323_336)"/>
<path d="M25.8365 57.9997L26.1172 53.3296H18.3945L17.4116 56.4932L25.8365 57.9997Z" fill="url(#paint21_radial_323_336)"/>
<path d="M17.4113 56.4931L18.3942 53.3295L9.82895 47.1528L7.44189 49.2619L17.4113 56.4931Z" fill="url(#paint22_radial_323_336)"/>
<path d="M9.82898 47.153L5.33571 37.6621L2.24658 39.1686L7.44192 49.2621L9.82898 47.153Z" fill="url(#paint23_radial_323_336)"/>
<path d="M5.33572 37.6627L2.94866 28.7744L0 29.2264L2.24659 39.1692L5.33572 37.6627Z" fill="url(#paint24_radial_323_336)"/>
<path fill-rule="evenodd" clip-rule="evenodd" d="M144.205 46.701C144.393 46.2993 144.439 45.998 144.346 45.7971C142.942 43.2361 123.705 34.7997 119.773 34.6491C111.489 34.7997 102.362 38.7166 94.6393 43.2361C94.0776 43.5374 95.6222 44.8932 96.0434 45.1945C98.1496 47.0023 99.975 48.8101 102.081 50.4672C103.205 51.5218 106.855 51.9737 111.208 52.8776C107.932 52.4759 104.655 52.1244 101.379 51.8231C97.822 52.024 94.3116 52.2248 90.8481 52.4257C92.8139 52.1244 100.115 51.5218 100.115 50.7685C100.115 50.4672 99.9282 50.0655 99.5538 49.5634C93.9372 43.0854 84.389 37.5114 77.2279 33.4439C66.5564 27.5685 53.7788 21.9945 47.7409 20.1867C46.6176 19.8854 45.7752 20.1867 44.7923 20.7893C42.2648 22.1452 39.8778 23.8023 37.7716 25.9114C30.6105 27.7192 23.5897 30.2802 16.569 33.1426C15.0245 33.7452 6.31876 37.2101 5.7571 38.114C5.66349 38.114 5.61672 38.1642 5.61672 38.2647L9.82915 47.153L18.3944 53.3296H26.1171C24.1513 53.3296 21.7644 53.3296 19.939 53.4802C18.6753 53.6309 18.254 54.9867 17.6923 56.0413C17.6923 55.5893 18.1135 53.6309 17.6923 53.3296C15.4457 51.5218 13.1991 49.8646 10.8121 48.2075C9.68875 47.4543 8.84621 48.3582 7.86332 48.8101C8.28456 48.3582 9.54832 47.3036 9.12708 46.2491C7.91015 43.7382 6.69327 41.2776 5.47634 38.8672C5.0551 37.8127 3.51051 38.7166 2.80844 39.0179C3.3701 38.566 4.91469 37.6621 4.77427 37.0595C4.49345 34.7997 3.65094 32.54 3.08929 30.4309C2.52763 28.6231 1.96594 29.2257 0.421387 29.2257C1.12346 28.9244 1.82556 28.7737 2.38722 28.6231C3.08929 28.1711 3.51051 23.8023 3.51051 23.0491C3.51051 22.7478 3.51055 22.5971 3.37013 22.2958C3.08931 21.9945 2.52761 21.6932 2.10637 21.2413C2.66803 21.3919 3.2297 21.5426 3.79136 21.6932C4.77426 21.6932 9.82911 12.9556 9.26746 11.901C8.7058 10.9971 8.14421 10.2439 7.58256 9.49062C8.42504 10.0932 9.26747 10.9971 10.2504 11.4491C11.0929 11.901 16.4286 7.08023 16.1478 5.72439C16.0074 4.97114 15.7265 4.21789 15.4457 3.46465C16.0074 4.36854 16.4286 5.1218 16.9902 5.87505C17.5519 6.62829 24.8534 5.42308 24.9938 3.76594C24.9938 3.01269 24.9939 2.10881 25.1343 1.35557C25.4151 2.25946 25.4151 3.314 25.8364 4.21789C26.2576 4.82049 50.9705 4.66983 53.6384 4.82048C53.9192 4.82048 54.6212 4.66985 54.7616 3.9166C55.0425 2.86205 55.0425 1.65685 55.1829 0.45166C55.3233 1.65685 55.3233 2.86205 55.4637 3.9166C55.4637 4.66985 55.885 4.97115 56.1658 5.1218C60.0974 5.57375 64.1694 5.87503 68.101 6.32698C68.3818 6.32698 68.803 6.17634 68.9434 5.87505C69.0839 4.66985 69.0839 3.31401 69.2243 2.10881C69.3647 3.31401 69.3647 4.66985 69.5051 5.87505C69.6455 6.32699 69.9264 6.47763 70.2072 6.47763C83.8274 4.97114 97.4475 3.91659 111.068 3.76594C111.489 3.76594 111.91 3.31401 111.91 2.86206C111.91 2.25946 111.91 1.5062 111.91 0.752954C112.051 1.5062 112.191 2.41011 112.472 3.16335C112.472 3.46465 112.753 3.76595 113.033 3.61531C118.931 3.31401 124.547 3.46465 130.024 4.21789C130.164 4.21789 130.585 4.21789 130.585 3.76594C130.866 3.01269 130.866 2.1088 131.006 1.20491C131.147 2.1088 131.147 3.0127 131.287 3.9166C131.287 4.06725 131.287 4.36854 131.568 4.51919C132.551 4.82049 133.394 5.12179 134.376 5.27243C135.5 5.57373 135.64 3.0127 135.781 1.95815C135.781 2.7114 135.219 5.7244 135.921 5.87505C139.291 7.08024 142.427 8.68716 145.329 10.6958C146.171 11.1478 147.575 9.94257 148.418 9.49062C147.856 9.94257 147.295 10.5452 146.733 10.9971C146.452 11.2984 146.452 11.901 146.733 12.0517C147.856 13.2568 148.792 14.5625 149.541 15.9685C149.682 16.2698 150.243 16.4205 150.384 16.2698C150.945 15.9685 151.366 15.5166 151.788 15.0646C151.366 15.8179 150.945 16.4205 150.524 17.0231C150.524 17.1737 150.384 17.475 150.524 17.7763C151.647 21.1911 152.443 24.6058 152.911 28.0205C153.052 29.3763 154.456 29.2257 155.439 29.3763C154.034 29.6776 152.911 29.3763 152.63 31.1841C152.49 32.3893 152.069 33.7452 151.788 34.9504C151.788 35.101 151.788 35.4023 151.788 35.553C151.928 35.7036 151.928 35.8543 152.069 36.0049C152.349 36.4569 152.911 36.7582 153.192 37.0595C152.771 36.9088 152.349 36.6075 151.928 36.6075C151.788 36.6075 151.507 36.6075 151.367 36.7582C149.541 39.4698 147.997 42.3322 146.592 45.3452C146.452 45.6465 146.452 46.2491 146.592 46.5504C147.154 47.3036 147.575 47.9062 148.137 48.6595C147.435 48.0569 146.733 47.3036 146.031 46.8517C145.89 46.701 145.188 46.5504 144.908 46.701C141.912 48.4084 139.01 50.2162 136.202 52.1244C135.219 52.5763 135.921 54.8361 136.061 55.74C135.359 53.9322 135.5 52.727 133.674 52.727C132.691 52.727 131.709 52.727 130.726 52.8776L135.079 52.275L144.205 46.701ZM56.3062 5.72439C55.6041 5.87504 54.902 6.32698 54.4808 7.23088C53.2171 9.94257 51.2513 14.3114 49.0047 17.475C47.4602 19.8854 47.4601 19.2828 49.1451 19.7348C53.0767 21.0906 66.6969 27.2672 77.5087 33.1426C80.5979 34.7997 86.7761 38.4153 91.9714 42.1815C92.6734 42.6335 93.6563 43.0854 94.4988 42.6335C101.379 38.7166 109.242 35.4023 116.965 34.3478C118.931 34.0465 119.352 33.5945 120.054 31.0335C121.599 24.8569 123.845 18.8309 126.513 13.1062C127.637 12.6542 133.815 8.28542 134.517 6.02568C134.517 5.57373 131.287 4.8205 130.866 4.66985L112.191 4.21789L68.9434 6.92959L56.3062 5.72439ZM121.318 34.3478C129.462 36.3062 143.363 43.8387 145.048 44.8932C145.329 45.0439 145.89 44.8932 146.592 44.4413L151.367 36.0049L152.911 29.527L150.103 17.3244L145.75 11.4491L136.764 6.77893C136.342 6.47763 135.5 6.47763 134.657 7.23088C134.096 7.68283 133.674 8.13478 133.253 8.43608C132.785 9.03868 132.27 9.59104 131.709 10.0932C130.211 11.3988 128.666 12.604 127.075 13.7088C123.845 19.5841 122.02 25.9114 120.475 32.2387C120.054 34.0465 119.773 33.8958 121.318 34.3478ZM5.1955 37.0595C5.38272 37.1599 5.52312 37.2603 5.61672 37.3607C6.31879 37.662 15.1649 33.4439 16.569 32.6906C23.1685 29.9789 29.9084 27.4179 36.7887 25.3088C39.8778 23.0491 43.1073 20.7893 46.758 19.1322C48.3026 18.3789 54.4808 8.43607 54.0596 7.08022C54.0596 6.62827 54.0596 6.17633 53.6384 5.57373L25.6959 4.97114L17.1307 7.08022L10.5312 12.6543L4.35296 22.4465L3.08929 28.7737L5.1955 37.0595Z" fill="url(#paint25_radial_323_336)"/>
<path d="M5.05494 36.9089C5.24216 37.1097 5.38264 37.2101 5.47625 37.2101C6.31874 37.5114 15.0244 33.2933 16.5689 32.6907C23.028 29.8283 29.7678 27.2673 36.6481 25.3089C39.7372 22.8985 42.9668 20.6387 46.7579 19.1322C48.1621 18.379 54.3403 8.28548 53.9191 6.92964C53.9191 6.47769 53.919 6.02574 53.4978 5.42314L25.5554 4.97119L16.9901 6.92964L10.3907 12.5037L4.21249 22.2959L2.94873 28.7738L5.05494 36.9089Z" fill="url(#paint26_radial_323_336)"/>
<path d="M16.569 33.1434C15.0244 33.746 6.31874 37.2109 5.75708 38.1148C5.66347 38.1148 5.6167 38.165 5.6167 38.2655L9.82912 47.1538L18.3943 53.3304H26.1171L45.9156 54.5356L53.7787 53.1797L59.2549 54.0836L90.8481 52.4265C92.8139 52.1252 100.115 51.5226 100.115 50.7693C100.115 50.468 99.9282 50.0663 99.5538 49.5642C93.9372 43.0862 84.389 37.5122 77.2279 33.4447C66.5564 27.5693 53.7787 21.9953 47.7409 20.1875C46.6176 19.8862 45.7752 20.1875 44.7923 20.7901C42.2648 22.146 39.8778 23.8031 37.7716 25.9122C30.6104 27.72 23.5897 30.281 16.569 33.1434Z" fill="url(#paint27_radial_323_336)"/>
<path d="M49.1451 19.7354C53.0767 21.0913 66.6969 27.2679 77.5088 33.1432C80.5979 34.8003 86.7761 38.4159 91.9714 42.1822C92.6735 42.6341 93.6564 42.9354 94.4988 42.4835C101.379 38.7172 109.242 35.4029 116.965 34.1977C118.931 33.8964 119.352 33.5952 120.054 31.0341C121.599 24.8575 123.845 18.6809 126.513 13.1068C127.637 12.5042 133.955 8.28606 134.517 6.02632C134.517 5.87567 134.096 5.57438 133.534 5.42373L130.866 4.51982L112.191 4.06787L69.0839 6.93022L56.3062 5.57436C55.6041 5.87566 55.0425 6.32762 54.4808 7.23152C53.2171 9.9432 51.2514 14.1614 49.0047 17.4757C47.4602 19.7354 47.4601 19.1328 49.1451 19.7354Z" fill="url(#paint28_radial_323_336)"/>
<path d="M119.773 34.6494C111.489 34.8001 102.362 38.7169 94.6391 43.2364C94.0774 43.5377 95.622 44.8936 96.0432 45.1949C98.1494 47.0027 99.9748 48.8105 102.081 50.4676C103.204 51.5221 106.855 51.9741 111.208 52.878L116.403 53.3299L130.725 52.878L135.078 52.2754L144.205 46.7014C144.392 46.2996 144.439 45.9983 144.346 45.7975C142.941 43.2364 123.705 34.8001 119.773 34.6494Z" fill="url(#paint29_radial_323_336)"/>
<path d="M120.335 32.0879C119.914 33.8957 119.633 33.8957 121.178 34.197C129.322 36.1554 143.223 43.6879 144.908 44.7425C145.188 45.0438 145.89 44.7425 146.452 44.4412L151.226 35.8542L152.771 29.3762L149.962 17.1736L145.61 11.449L136.623 6.62819H136.483C136.061 6.32689 135.359 6.47753 134.517 7.08012C133.955 7.53207 133.534 7.98403 133.113 8.43598C132.645 8.93815 132.13 9.44031 131.568 9.94247C130.164 11.2481 128.62 12.4533 126.935 13.558C123.845 19.4334 121.88 25.7607 120.335 32.0879Z" fill="url(#paint30_radial_323_336)"/>
<path d="M130.725 48.8102C121.598 48.3582 108.119 47.9063 98.5706 48.0569C83.8271 49.2621 68.9432 49.4128 53.6381 48.9608C50.549 48.9608 47.3194 49.1115 44.6515 49.8647C38.4733 49.1115 31.7334 47.7556 25.4148 47.9063C19.377 48.2076 12.6371 42.6335 9.96924 37.6621C12.3563 43.0855 19.377 49.2621 25.6956 48.9608C32.7163 48.0569 39.3158 50.166 44.9324 51.5218C47.7407 50.166 50.6894 50.0154 53.9189 50.166C69.0836 50.4673 83.6867 50.0154 98.2897 48.8102C107.697 48.5089 121.318 49.4128 130.445 49.8647C133.534 48.8102 137.887 47.0024 140.976 44.14C142.005 43.2361 142.941 42.1314 143.784 40.8258C144.252 40.1227 144.72 39.3193 145.188 38.4154C144.907 38.9175 144.58 39.4197 144.205 39.9218C143.363 41.127 142.427 42.2318 141.397 43.2361C138.167 45.9478 133.814 47.7556 130.725 48.8102Z" fill="url(#paint31_radial_323_336)"/>
<path d="M25.4151 9.03909C32.5762 9.34039 43.669 9.64168 53.2172 9.34038C71.7518 9.79233 94.2181 8.58715 112.893 7.38196C118.51 8.7378 132.972 9.49104 137.185 10.6962C139.993 11.9014 143.363 15.8183 145.61 20.0365C145.797 20.3378 145.937 20.6391 146.031 20.9404C145.844 20.4382 145.61 19.9361 145.329 19.4339C143.082 15.0651 139.712 11.1482 137.044 9.94299C132.691 8.7378 118.369 8.28585 112.753 6.17676C94.3584 8.4365 71.7518 9.03908 53.3575 8.58713C43.8094 8.73778 32.7167 8.58714 25.5556 8.28584C18.9561 8.58714 12.3566 12.956 9.54834 20.0365C12.497 13.5586 18.9561 9.34039 25.4151 9.03909Z" fill="url(#paint32_radial_323_336)"/>
<path opacity="0.5" d="M55.1829 1.50649C60.0974 2.10909 65.1523 3.31428 69.0839 4.82077C82.7041 3.31428 98.0092 2.71169 112.051 2.25974C118.369 2.10909 124.828 2.25974 131.006 2.71169C132.598 2.51083 134.142 2.71168 135.64 3.31428C139.572 5.12207 143.925 7.68313 147.154 10.3948C148.558 11.6 150.243 14.0104 151.086 15.9688C152.771 19.7351 154.315 25.3091 155.298 29.3766C155.298 30.5818 155.251 31.787 155.158 32.9922L156 29.226L152.209 14.613L148.699 9.34026L135.921 1.80779L131.006 1.05454L111.91 0.451953L69.3648 1.65715L55.3233 0L24.9939 1.05454L15.3053 3.16365L7.44209 9.18962L1.68515 21.0909L0.421387 27.2675C1.26387 25.3091 1.96592 23.5013 2.94882 21.6935C4.63379 17.9273 6.45919 14.3117 8.84623 10.8467C10.9524 8.58701 13.3395 6.32727 15.8669 4.51948C19.0965 3.61558 22.1856 3.16363 25.2747 3.31428C34.9633 1.95844 45.9155 1.50649 55.1829 1.50649Z" fill="#EDF5F7"/>
<path opacity="0.7" fill-rule="evenodd" clip-rule="evenodd" d="M127.215 10.5458C136.904 10.9977 146.312 18.3796 146.312 29.377C146.312 40.3744 136.904 47.7562 127.215 48.2081C89.4438 50.0159 66.6968 49.8653 28.785 48.2081C19.0964 47.7562 9.8291 40.3744 9.8291 29.377C9.8291 18.3796 19.0964 10.9977 28.785 10.5458C66.6968 8.73799 89.4438 8.73799 127.215 10.5458ZM28.9254 12.8055C20.3601 13.1068 11.9353 19.5847 11.9353 29.377C11.9353 39.1692 20.3601 45.4964 28.9254 45.9484C66.6968 47.6055 89.3035 47.7562 127.075 45.9484C135.64 45.4964 144.205 39.1692 144.205 29.377C144.205 19.5847 135.64 13.1068 127.075 12.8055C89.3035 10.9977 66.6968 10.9977 28.9254 12.8055Z" fill="url(#paint33_linear_323_336)"/>
<g style="mix-blend-mode:multiply" opacity="0.5">
<path d="M28.7849 10.5458C21.4834 10.8471 14.4626 15.0653 11.3735 21.8445C14.7435 15.6679 21.4834 11.9016 28.3637 11.4497C66.5563 9.79255 89.5842 9.79255 127.636 11.4497C134.517 11.9016 141.257 15.6679 144.627 21.8445C141.537 15.0653 134.517 10.8471 127.215 10.5458C89.4438 8.73799 66.6967 8.73799 28.7849 10.5458Z" fill="#878787"/>
</g>
<g style="mix-blend-mode:multiply" opacity="0.5">
<path d="M127.074 45.9484C89.3031 47.7562 66.6964 47.6055 28.925 45.9484C23.7297 45.6471 18.6748 43.3874 15.4453 39.3198C18.6748 43.8393 24.0106 46.551 29.3463 46.8523C66.8369 48.5094 89.1627 48.5094 126.653 46.8523C131.989 46.551 137.325 43.8393 140.554 39.3198C137.325 43.3874 132.27 45.6471 127.074 45.9484Z" fill="#9D9D9C"/>
</g>
<path d="M28.9251 12.8056C20.3599 13.1068 11.9351 19.5848 11.9351 29.377C11.9351 39.1692 20.3599 45.4965 28.9251 45.9484C66.6965 47.6055 89.3032 47.7562 127.075 45.9484C135.64 45.4965 144.205 39.1692 144.205 29.377C144.205 19.5848 135.64 13.1068 127.075 12.8056C89.3032 10.9978 66.6965 10.9978 28.9251 12.8056Z" fill="url(#paint34_linear_323_336)"/>
<path style="mix-blend-mode:screen" opacity="0.3" d="M30.6103 13.8596C22.3259 14.1609 14.0415 19.8855 14.0415 28.7739C14.0415 37.6622 22.3259 43.5375 30.6103 43.8388C67.2584 45.3453 88.8822 45.3453 125.53 43.8388C133.815 43.5375 141.959 37.6622 141.959 28.7739C141.959 19.8855 133.815 14.1609 125.53 13.8596C88.8822 12.2024 67.2584 12.2024 30.6103 13.8596Z" fill="url(#paint35_radial_323_336)"/>
<path style="mix-blend-mode:screen" opacity="0.7" d="M18.394 37.6622C20.5002 40.0726 23.3085 41.4285 26.1168 41.5791C37.9116 42.1817 53.9188 42.6337 77.6488 42.6337C77.6488 37.7125 77.6488 32.8415 77.6488 28.0207C54.34 28.0207 38.7541 27.7194 15.4454 28.322C15.305 31.9376 16.4282 35.4025 18.394 37.6622ZM15.4454 28.322C38.7541 27.7194 54.34 28.0207 77.6488 28.0207C77.6488 23.6519 77.6488 19.1324 77.6488 15.9688C53.9188 16.1194 37.9116 16.4207 26.1168 17.0233C23.3085 17.1739 20.5002 18.5298 18.394 20.9402C16.8495 22.748 15.7262 25.309 15.4454 28.322ZM77.6488 42.6337C101.66 42.6337 118.088 42.3324 129.883 41.5791C132.691 41.4285 135.499 40.0726 137.606 37.6622C139.571 35.4025 140.835 31.9376 140.554 28.322C117.105 27.7194 101.098 28.0207 77.6488 28.0207C77.6488 32.8415 77.6488 37.7125 77.6488 42.6337ZM77.6488 28.0207C101.098 28.0207 117.105 27.7194 140.554 28.322C140.414 25.309 139.291 22.748 137.606 20.9402C135.499 18.5298 132.691 17.1739 129.883 17.0233C118.088 16.4207 101.66 15.9688 77.6488 15.9688C77.6488 19.1324 77.6488 23.6519 77.6488 28.0207Z" fill="url(#paint36_linear_323_336)"/>
<path style="mix-blend-mode:screen" d="M15.1646 26.0624C14.8837 27.5689 14.7434 29.2261 15.0242 30.7326C15.1646 32.5404 16.5687 33.8962 20.5003 34.1975C46.4769 36.3066 108.4 30.13 134.797 24.104C141.818 22.5975 133.534 14.9144 125.109 14.3118C105.17 13.2572 69.0836 13.5585 49.1448 14.0105C42.1241 14.0105 37.0692 13.2572 28.0827 14.9144C22.0449 16.1196 16.4283 19.7352 15.1646 26.0624Z" fill="url(#paint37_radial_323_336)"/>
<path style="mix-blend-mode:screen" opacity="0.7" d="M25.8363 41.5793C24.4321 42.3325 25.415 42.6338 31.172 43.0858C44.9326 43.9897 93.3754 44.4416 106.574 44.1403C121.177 43.839 128.619 43.9897 134.798 40.5247C139.712 37.6624 139.993 33.8962 133.955 31.6364C125.811 28.7741 30.0487 39.0182 25.8363 41.5793Z" fill="url(#paint38_radial_323_336)"/>
<path style="mix-blend-mode:screen" d="M26.117 17.6264C11.5139 21.6939 26.117 25.4601 34.6823 25.9121C48.8641 26.5147 114.999 22.7484 127.636 17.6264C130.726 16.4212 131.428 15.3666 118.51 14.9147C106.013 14.6134 38.4734 14.3121 26.117 17.6264Z" fill="url(#paint39_linear_323_336)"/>
<path style="mix-blend-mode:screen" opacity="0.5" d="M133.533 40.5246C129.461 42.7844 123.002 43.0856 118.228 43.3869C105.591 43.9895 40.5794 43.8389 27.2401 42.6337C26.6784 42.4831 25.4146 42.3324 25.6954 41.8805C26.3975 41.1272 147.294 32.9922 133.533 40.5246Z" fill="url(#paint40_radial_323_336)"/>
<path style="mix-blend-mode:screen" d="M124.968 44.14C129.04 43.9893 133.253 42.6335 136.763 38.7166C138.869 36.4569 139.852 34.0465 136.342 35.2517C131.474 36.7582 126.7 38.9175 122.02 41.7296C117.526 44.4413 123.564 44.14 124.968 44.14Z" fill="url(#paint41_linear_323_336)"/>
<defs>
<radialGradient id="paint0_radial_323_336" cx="0" cy="0" r="1" gradientUnits="userSpaceOnUse" gradientTransform="translate(-7.30153 15.8181) scale(30.4699 32.691)">
<stop stop-color="#9DA9AB"/>
<stop offset="1" stop-color="#555763"/>
</radialGradient>
<radialGradient id="paint1_radial_323_336" cx="0" cy="0" r="1" gradientUnits="userSpaceOnUse" gradientTransform="translate(-7.02063 4.82111) scale(21.2026 22.748)">
<stop stop-color="#E4ECF0"/>
<stop offset="1" stop-color="#828D94"/>
</radialGradient>
<radialGradient id="paint2_radial_323_336" cx="0" cy="0" r="1" gradientUnits="userSpaceOnUse" gradientTransform="translate(5.75693 -4.67019) scale(17.2709 18.5299)">
<stop stop-color="#E4ECF0"/>
<stop offset="1" stop-color="#828D94"/>
</radialGradient>
<radialGradient id="paint3_radial_323_336" cx="0" cy="0" r="1" gradientUnits="userSpaceOnUse" gradientTransform="translate(11.3736 -28.4727) scale(31.7335 34.0468)">
<stop stop-color="#E4ECF0"/>
<stop offset="1" stop-color="#A6B4BD"/>
</radialGradient>
<radialGradient id="paint4_radial_323_336" cx="0" cy="0" r="1" gradientUnits="userSpaceOnUse" gradientTransform="translate(52.0936 -31.1844) scale(40.5797 43.5376)">
<stop stop-color="#E4ECF0"/>
<stop offset="1" stop-color="#A6B4BD"/>
</radialGradient>
<radialGradient id="paint5_radial_323_336" cx="0" cy="0" r="1" gradientUnits="userSpaceOnUse" gradientTransform="translate(65.9948 -18.2286) scale(22.045 23.652)">
<stop stop-color="#E4ECF0"/>
<stop offset="1" stop-color="#A6B4BD"/>
</radialGradient>
<radialGradient id="paint6_radial_323_336" cx="0" cy="0" r="1" gradientUnits="userSpaceOnUse" gradientTransform="translate(110.646 -53.6315) scale(53.217 57.0961)">
<stop stop-color="#E4ECF0"/>
<stop offset="1" stop-color="#929EA6"/>
</radialGradient>
<radialGradient id="paint7_radial_323_336" cx="0" cy="0" r="1" gradientUnits="userSpaceOnUse" gradientTransform="translate(121.88 -30.5821) scale(33.8397 36.3065)">
<stop stop-color="#BDCACF"/>
<stop offset="1" stop-color="#828599"/>
</radialGradient>
<radialGradient id="paint8_radial_323_336" cx="0" cy="0" r="1" gradientUnits="userSpaceOnUse" gradientTransform="translate(134.657 -8.43626) scale(17.1304 18.3793)">
<stop stop-color="#E4ECF0"/>
<stop offset="1" stop-color="#A6B4BD"/>
</radialGradient>
<radialGradient id="paint9_radial_323_336" cx="0" cy="0" r="1" gradientUnits="userSpaceOnUse" gradientTransform="translate(146.312 -24.7062) scale(31.3125 33.5949)">
<stop stop-color="#E4ECF0"/>
<stop offset="1" stop-color="#A6B4BD"/>
</radialGradient>
<radialGradient id="paint10_radial_323_336" cx="0" cy="0" r="1" gradientUnits="userSpaceOnUse" gradientTransform="translate(157.264 -14.7636) scale(28.3637 30.4312)">
<stop stop-color="#E4ECF0"/>
<stop offset="1" stop-color="#929EA6"/>
</radialGradient>
<radialGradient id="paint11_radial_323_336" cx="0" cy="0" r="1" gradientUnits="userSpaceOnUse" gradientTransform="translate(155.439 10.0938) scale(28.9252 31.0338)">
<stop stop-color="#9DA9AB"/>
<stop offset="1" stop-color="#555763"/>
</radialGradient>
<radialGradient id="paint12_radial_323_336" cx="0" cy="0" r="1" gradientUnits="userSpaceOnUse" gradientTransform="translate(159.089 25.61) scale(15.8666 17.0234)">
<stop stop-color="#9DA9AB"/>
<stop offset="1" stop-color="#555763"/>
</radialGradient>
<radialGradient id="paint13_radial_323_336" cx="0" cy="0" r="1" gradientUnits="userSpaceOnUse" gradientTransform="translate(142.661 26.2129) scale(27.2404 29.226)">
<stop stop-color="#9DA9AB"/>
<stop offset="1" stop-color="#555763"/>
</radialGradient>
<radialGradient id="paint14_radial_323_336" cx="0" cy="0" r="1" gradientUnits="userSpaceOnUse" gradientTransform="translate(127.917 28.4727) scale(30.4699 32.6909)">
<stop stop-color="#9DA9AB"/>
<stop offset="1" stop-color="#555763"/>
</radialGradient>
<radialGradient id="paint15_radial_323_336" cx="0" cy="0" r="1" gradientUnits="userSpaceOnUse" gradientTransform="translate(131.849 81.652) scale(38.6138 41.4286)">
<stop stop-color="#9DA9AB"/>
<stop offset="1" stop-color="#555763"/>
</radialGradient>
<radialGradient id="paint16_radial_323_336" cx="0" cy="0" r="1" gradientUnits="userSpaceOnUse" gradientTransform="translate(95.7621 70.5037) scale(25.8363 27.7194)">
<stop stop-color="#9DA9AB"/>
<stop offset="1" stop-color="#555763"/>
</radialGradient>
<radialGradient id="paint17_radial_323_336" cx="0" cy="0" r="1" gradientUnits="userSpaceOnUse" gradientTransform="translate(94.6393 83.1582) scale(57.1485 61.3141)">
<stop stop-color="#9DA9AB"/>
<stop offset="1" stop-color="#555763"/>
</radialGradient>
<radialGradient id="paint18_radial_323_336" cx="0" cy="0" r="1" gradientUnits="userSpaceOnUse" gradientTransform="translate(59.2547 36.1554) scale(25.9766 27.8701)">
<stop stop-color="#9DA9AB"/>
<stop offset="1" stop-color="#555763"/>
</radialGradient>
<radialGradient id="paint19_radial_323_336" cx="0" cy="0" r="1" gradientUnits="userSpaceOnUse" gradientTransform="translate(49.145 35.5528) scale(19.0962 20.4883)">
<stop stop-color="#9DA9AB"/>
<stop offset="1" stop-color="#555763"/>
</radialGradient>
<radialGradient id="paint20_radial_323_336" cx="0" cy="0" r="1" gradientUnits="userSpaceOnUse" gradientTransform="translate(38.3333 81.9529) scale(32.9972 35.4025)">
<stop stop-color="#9DA9AB"/>
<stop offset="1" stop-color="#555763"/>
</radialGradient>
<radialGradient id="paint21_radial_323_336" cx="0" cy="0" r="1" gradientUnits="userSpaceOnUse" gradientTransform="translate(15.4458 74.2698) scale(31.5929 33.896)">
<stop stop-color="#9DA9AB"/>
<stop offset="1" stop-color="#555763"/>
</radialGradient>
<radialGradient id="paint22_radial_323_336" cx="0" cy="0" r="1" gradientUnits="userSpaceOnUse" gradientTransform="translate(19.9387 31.3347) scale(22.4662 24.1039)">
<stop stop-color="#9DA9AB"/>
<stop offset="1" stop-color="#555763"/>
</radialGradient>
<radialGradient id="paint23_radial_323_336" cx="0" cy="0" r="1" gradientUnits="userSpaceOnUse" gradientTransform="translate(-9.9695 41.4283) scale(34.1208 36.6078)">
<stop stop-color="#9DA9AB"/>
<stop offset="1" stop-color="#555763"/>
</radialGradient>
<radialGradient id="paint24_radial_323_336" cx="0" cy="0" r="1" gradientUnits="userSpaceOnUse" gradientTransform="translate(-4.49324 29.377) scale(23.4491 25.1584)">
<stop stop-color="#9DA9AB"/>
<stop offset="1" stop-color="#555763"/>
</radialGradient>
<radialGradient id="paint25_radial_323_336" cx="0" cy="0" r="1" gradientUnits="userSpaceOnUse" gradientTransform="translate(26.5384 -49.8652) scale(170.463 182.888)">
<stop stop-color="#E2F1F7"/>
<stop offset="1" stop-color="#9A9DB5"/>
</radialGradient>
<radialGradient id="paint26_radial_323_336" cx="0" cy="0" r="1" gradientUnits="userSpaceOnUse" gradientTransform="translate(23.028 52.4257) scale(71.3304 76.5299)">
<stop stop-color="#AAB4B8"/>
<stop offset="1" stop-color="#828599"/>
</radialGradient>
<radialGradient id="paint27_radial_323_336" cx="0" cy="0" r="1" gradientUnits="userSpaceOnUse" gradientTransform="translate(42.9668 90.3901) scale(111.91 120.067)">
<stop stop-color="#717485"/>
<stop offset="1" stop-color="#9DA9AB"/>
</radialGradient>
<radialGradient id="paint28_radial_323_336" cx="0" cy="0" r="1" gradientUnits="userSpaceOnUse" gradientTransform="translate(69.786 74.2705) scale(109.102 117.055)">
<stop stop-color="#AAB4B8"/>
<stop offset="1" stop-color="#828599"/>
</radialGradient>
<radialGradient id="paint29_radial_323_336" cx="0" cy="0" r="1" gradientUnits="userSpaceOnUse" gradientTransform="translate(100.536 -5.42334) scale(66.837 71.7091)">
<stop stop-color="#9DA9AB"/>
<stop offset="1" stop-color="#717485"/>
</radialGradient>
<radialGradient id="paint30_radial_323_336" cx="0" cy="0" r="1" gradientUnits="userSpaceOnUse" gradientTransform="translate(106.013 35.8542) scale(55.4635 59.5065)">
<stop stop-color="#9DA9AB"/>
<stop offset="1" stop-color="#717485"/>
</radialGradient>
<radialGradient id="paint31_radial_323_336" cx="0" cy="0" r="1" gradientUnits="userSpaceOnUse" gradientTransform="translate(55.7443 4.36862) scale(105.732 113.439)">
<stop stop-color="#E2F1F7"/>
<stop offset="1" stop-color="#9A9DB5"/>
</radialGradient>
<radialGradient id="paint32_radial_323_336" cx="0" cy="0" r="1" gradientUnits="userSpaceOnUse" gradientTransform="translate(53.0767 3.01311) scale(93.937 100.784)">
<stop stop-color="#E2F1F7"/>
<stop offset="1" stop-color="#9A9DB5"/>
</radialGradient>
<linearGradient id="paint33_linear_323_336" x1="72.875" y1="49.564" x2="72.875" y2="9.18994" gradientUnits="userSpaceOnUse">
<stop stop-color="#5B666B"/>
<stop offset="1" stop-color="#4A555C"/>
</linearGradient>
<linearGradient id="paint34_linear_323_336" x1="73.8577" y1="47.3043" x2="73.8577" y2="11.4497" gradientUnits="userSpaceOnUse">
<stop stop-color="#2F8700"/>
<stop offset="1" stop-color="#7BCF00"/>
</linearGradient>
<radialGradient id="paint35_radial_323_336" cx="0" cy="0" r="1" gradientUnits="userSpaceOnUse" gradientTransform="translate(78.4915 -19.1327) scale(131.287 140.857)">
<stop stop-color="#73D439"/>
<stop offset="1" stop-color="#050F05"/>
</radialGradient>
<linearGradient id="paint36_linear_323_336" x1="18.6749" y1="37.6623" x2="77.825" y2="29.2613" gradientUnits="userSpaceOnUse">
<stop/>
<stop offset="1" stop-color="#8FE561"/>
</linearGradient>
<radialGradient id="paint37_radial_323_336" cx="0" cy="0" r="1" gradientUnits="userSpaceOnUse" gradientTransform="translate(41.0008 -99.5791) scale(152.068 163.153)">
<stop stop-color="#73D439"/>
<stop offset="1"/>
</radialGradient>
<radialGradient id="paint38_radial_323_336" cx="0" cy="0" r="1" gradientUnits="userSpaceOnUse" gradientTransform="translate(110.366 131.668) scale(137.887 147.938)">
<stop stop-color="#73D439"/>
<stop offset="1"/>
</radialGradient>
<linearGradient id="paint39_linear_323_336" x1="74.7003" y1="31.1848" x2="72.6017" y2="9.81944" gradientUnits="userSpaceOnUse">
<stop/>
<stop offset="1" stop-color="#B4FF87"/>
</linearGradient>
<radialGradient id="paint40_radial_323_336" cx="0" cy="0" r="1" gradientUnits="userSpaceOnUse" gradientTransform="translate(123.985 85.5687) scale(89.5842 96.1142)">
<stop stop-color="#B4FF87"/>
<stop offset="1"/>
</radialGradient>
<linearGradient id="paint41_linear_323_336" x1="129.04" y1="49.714" x2="187.031" y2="49.714" gradientUnits="userSpaceOnUse">
<stop stop-color="#B4FF87"/>
<stop offset="1"/>
</linearGradient>
</defs>
</svg>
