<svg width="64" height="64" viewBox="0 0 64 64" fill="none" xmlns="http://www.w3.org/2000/svg">
<path d="M31.8 0C49.3 0 63.6 14.2 63.6 31.8C63.6 49.3 49.3 63.6 31.8 63.6C14.2 63.6 0 49.3 0 31.8C0 14.2 14.2 0 31.8 0Z" fill="url(#paint0_linear_323_388)"/>
<path d="M31.8002 3.7002C47.3002 3.7002 59.9002 16.3002 59.9002 31.8002C59.9002 47.3002 47.3002 59.9002 31.8002 59.9002C16.3002 59.9002 3.7002 47.3002 3.7002 31.8002C3.7002 16.3002 16.3002 3.7002 31.8002 3.7002Z" fill="url(#paint1_radial_323_388)"/>
<path fill-rule="evenodd" clip-rule="evenodd" d="M31.8 0C49.3 0 63.6 14.2 63.6 31.8C63.6 49.3 49.3 63.6 31.8 63.6C14.2 63.6 0 49.3 0 31.8C0 14.2 14.2 0 31.8 0ZM0.799999 31.8C0.799999 48.9 14.7 62.7 31.8 62.7C48.9 62.7 62.7 48.9 62.7 31.8C62.7 14.7 48.9 0.800001 31.8 0.800001C14.7 0.800001 0.799999 14.7 0.799999 31.8Z" fill="url(#paint2_linear_323_388)"/>
<path d="M3.69981 31.7998C3.69981 16.2998 16.2998 3.6998 31.7998 3.6998C47.2998 3.6998 59.8998 16.2998 59.8998 31.7998C60.2998 30.6998 62.1998 30.3998 62.6998 31.7998C62.6998 14.6998 48.8998 0.799805 31.7998 0.799805C14.6998 0.799805 0.799805 14.6998 0.799805 31.7998C1.3998 30.3998 3.29981 30.6998 3.69981 31.7998Z" fill="url(#paint3_linear_323_388)"/>
<g style="mix-blend-mode:screen">
<path d="M1.6001 24.9998C5.8001 11.6998 17.7001 2.0998 31.8001 2.0998C45.9001 2.0998 57.8001 11.6998 62.0001 24.9998C58.9001 11.1998 46.5001 0.799805 31.8001 0.799805C17.0001 0.799805 4.7001 11.1998 1.6001 24.9998Z" fill="#F7E984"/>
</g>
<g style="mix-blend-mode:screen">
<path d="M3.69981 31.8002C3.69981 16.3002 16.2998 3.7002 31.7998 3.7002C38.7998 3.7002 45.1998 6.20019 50.0998 10.5002C45.0998 5.90019 38.4998 3.2002 31.2998 3.2002C15.7998 3.2002 3.2998 15.7002 3.2998 31.1002C3.2998 35.3002 4.2998 39.2002 5.8998 42.8002C4.4998 39.4002 3.69981 35.7002 3.69981 31.8002Z" fill="#F7E984"/>
</g>
<path style="mix-blend-mode:screen" d="M9.1002 48.5002L48.5002 9.2002C43.8002 5.7002 38.0002 3.7002 31.8002 3.7002C31.6002 3.7002 31.4002 3.7002 31.2002 3.7002L3.7002 31.2002C3.7002 31.4002 3.7002 31.6002 3.7002 31.8002C3.7002 38.0002 5.7002 43.8002 9.1002 48.5002Z" fill="url(#paint4_radial_323_388)"/>
<path style="mix-blend-mode:screen" d="M57.1 19.5L19.5 57.1C21.8 58.2 24.2 59 26.7 59.4L59.4 26.7C59 24.2 58.2 21.8 57.1 19.5Z" fill="url(#paint5_radial_323_388)"/>
<path d="M19.7002 10.4002C21.4002 9.60019 23.6002 8.90019 25.5002 8.40019C27.4002 7.90019 29.7002 7.4002 31.6002 7.3002L31.8002 7.2002L32.0002 7.3002C33.9002 7.4002 36.2002 7.90019 38.0002 8.40019C39.9002 8.90019 42.1002 9.60019 43.9002 10.4002L44.1002 10.5002L44.2002 10.6002C45.8002 11.7002 47.5002 13.3002 48.9002 14.7002C50.3002 16.1002 51.9002 17.7002 52.9002 19.4002L53.0002 19.5002L53.1002 19.7002C54.0002 21.4002 54.6002 23.7002 55.1002 25.5002C55.6002 27.4002 56.2002 29.7002 56.3002 31.6002V31.8002V32.0002C56.2002 33.9002 55.6002 36.2002 55.1002 38.0002C54.6002 39.9002 54.0002 42.2002 53.1002 43.9002L53.0002 44.1002L52.9002 44.2002C51.9002 45.8002 50.3002 47.5002 48.9002 48.9002C47.5002 50.3002 45.8002 51.9002 44.2002 52.9002L44.1002 53.0002L43.9002 53.1002C42.1002 54.0002 39.9002 54.6002 38.0002 55.1002C36.2002 55.7002 33.9002 56.2002 32.0002 56.3002H31.8002H31.6002C29.7002 56.2002 27.4002 55.7002 25.5002 55.1002C23.6002 54.6002 21.4002 54.0002 19.7002 53.1002L19.5002 53.0002L19.3002 52.9002C17.7002 51.9002 16.1002 50.3002 14.7002 48.9002C13.3002 47.5002 11.7002 45.8002 10.6002 44.2002L10.5002 44.1002L10.4002 43.9002C9.60019 42.2002 8.90019 39.9002 8.40019 38.0002C7.90019 36.2002 7.4002 33.9002 7.2002 32.0002V31.8002V31.6002C7.4002 29.7002 7.90019 27.4002 8.40019 25.5002C8.90019 23.7002 9.60019 21.4002 10.4002 19.7002L10.5002 19.5002L10.6002 19.4002C11.7002 17.7002 13.3002 16.1002 14.7002 14.7002C16.1002 13.3002 17.7002 11.7002 19.3002 10.6002L19.5002 10.5002L19.7002 10.4002Z" fill="url(#paint6_linear_323_388)"/>
<g style="mix-blend-mode:screen">
<path d="M31.6002 56.3C29.7002 56.2 27.4002 55.7 25.5002 55.1C23.6002 54.6 21.4002 54 19.7002 53.1L19.5002 53L19.3002 52.9C17.7002 51.9 16.1002 50.3 14.7002 48.9C13.3002 47.5 11.7002 45.8 10.6002 44.2L10.5002 44.1L10.4002 43.9C9.60019 42.2 8.90019 39.9 8.40019 38C7.90019 36.2 7.4002 34 7.2002 32C7.2002 32.0667 7.2002 32.1 7.2002 32.1V32.3V32.5C7.4002 34.4 7.90019 36.7 8.40019 38.6C8.90019 40.4 9.60019 42.7 10.4002 44.4L10.5002 44.6L10.6002 44.7C11.7002 46.4 13.3002 48 14.7002 49.4C16.1002 50.8 17.7002 52.4 19.3002 53.5L19.5002 53.6H19.7002C21.4002 54.5 23.6002 55.2 25.5002 55.7C27.4002 56.2 29.7002 56.7 31.6002 56.8L31.8002 56.9L32.0002 56.8C33.9002 56.7 36.2002 56.2 38.0002 55.7C39.9002 55.2 42.1002 54.5 43.9002 53.6H44.1002L44.2002 53.5C45.8002 52.4 47.5002 50.8 48.9002 49.4C50.3002 48 51.9002 46.4 52.9002 44.7L53.0002 44.6L53.1002 44.4C54.0002 42.7 54.6002 40.4 55.1002 38.6C55.6002 36.7 56.2002 34.4 56.3002 32.5V32.3V32.1C56.3002 32.1 56.3002 32.0667 56.3002 32C56.2002 34 55.6002 36.2 55.1002 38C54.6002 39.9 54.0002 42.2 53.1002 43.9L53.0002 44.1L52.9002 44.2C51.9002 45.8 50.3002 47.5 48.9002 48.9C47.5002 50.3 45.8002 51.9 44.2002 52.9L44.1002 53L43.9002 53.1C42.1002 54 39.9002 54.6 38.0002 55.1C36.2002 55.7 33.9002 56.2 32.0002 56.3H31.8002H31.6002Z" fill="#F7E984"/>
</g>
<path d="M32.0002 7.8002C33.9002 7.9002 36.2002 8.40019 38.0002 8.90019C39.9002 9.40019 42.1002 10.1002 43.9002 11.0002H44.1002L44.2002 11.2002C45.8002 12.2002 47.5002 13.8002 48.9002 15.2002C50.3002 16.6002 51.9002 18.3002 52.9002 19.9002L53.0002 20.0002L53.1002 20.2002C54.0002 21.9002 54.6002 24.2002 55.1002 26.0002C55.6002 27.9002 56.2002 30.1002 56.3002 32.0002V31.8002V31.6002C56.2002 29.7002 55.6002 27.4002 55.1002 25.5002C54.6002 23.7002 54.0002 21.4002 53.1002 19.7002L53.0002 19.5002L52.9002 19.4002C51.9002 17.7002 50.3002 16.1002 48.9002 14.7002C47.5002 13.3002 45.8002 11.7002 44.2002 10.6002L44.1002 10.5002L43.9002 10.4002C42.1002 9.60019 39.9002 8.90019 38.0002 8.40019C36.2002 7.90019 33.9002 7.4002 32.0002 7.3002L31.8002 7.2002L31.6002 7.3002C29.7002 7.4002 27.4002 7.90019 25.5002 8.40019C23.6002 8.90019 21.4002 9.60019 19.7002 10.4002L19.5002 10.5002L19.3002 10.6002C17.7002 11.7002 16.1002 13.3002 14.7002 14.7002C13.3002 16.1002 11.7002 17.7002 10.6002 19.4002L10.5002 19.5002L10.4002 19.7002C9.60019 21.4002 8.90019 23.7002 8.40019 25.5002C7.90019 27.4002 7.4002 29.7002 7.2002 31.6002V31.8002V32.0002C7.4002 30.1002 7.90019 27.9002 8.40019 26.0002C8.90019 24.2002 9.60019 21.9002 10.4002 20.2002L10.5002 20.0002L10.6002 19.9002C11.7002 18.3002 13.3002 16.6002 14.7002 15.2002C16.1002 13.8002 17.7002 12.2002 19.3002 11.2002L19.5002 11.0002H19.7002C21.4002 10.1002 23.6002 9.40019 25.5002 8.90019C27.4002 8.40019 29.7002 7.9002 31.6002 7.8002H31.8002H32.0002Z" fill="#753D29"/>
<path d="M31.7998 8.3999C30.4998 8.3999 28.2998 8.8999 25.7998 9.4999C23.2998 10.1999 21.1998 10.8999 20.0998 11.4999C18.9998 12.1999 17.2998 13.6999 15.4998 15.4999C13.6998 17.2999 12.1998 18.9999 11.4998 20.0999C10.8998 21.1999 10.1998 23.2999 9.49981 25.7999C8.79981 28.2999 8.3998 30.4999 8.2998 31.7999C8.3998 32.9999 8.79981 35.2999 9.49981 37.7999C10.1998 40.1999 10.8998 42.3999 11.4998 43.4999C12.1998 44.4999 13.6998 46.2999 15.4998 48.0999C17.2998 49.8999 18.9998 51.3999 20.0998 52.0999C21.1998 52.5999 23.2998 53.3999 25.7998 54.0999C28.2998 54.6999 30.4998 55.0999 31.7998 55.1999C32.9998 55.0999 35.2998 54.6999 37.6998 54.0999C40.1998 53.3999 42.3998 52.5999 43.4998 52.0999C44.4998 51.3999 46.2998 49.8999 48.0998 48.0999C49.8998 46.2999 51.3998 44.4999 52.0998 43.4999C52.5998 42.3999 53.3998 40.1999 53.9998 37.7999C54.6998 35.2999 55.0998 32.9999 55.1998 31.7999C55.0998 30.4999 54.6998 28.2999 53.9998 25.7999C53.3998 23.2999 52.5998 21.1999 52.0998 20.0999C51.3998 18.9999 49.8998 17.2999 48.0998 15.4999C46.2998 13.6999 44.4998 12.1999 43.4998 11.4999C42.3998 10.8999 40.1998 10.1999 37.6998 9.4999C35.2998 8.8999 32.9998 8.3999 31.7998 8.3999Z" fill="#F24D78"/>
<path d="M31.8 14C30.4 14.2 28.6 14.6 27.3 15C26 15.3 24.2 15.8 22.9 16.4C21.7 17.2 20.4 18.5 19.5 19.5C18.5 20.4 17.2 21.7 16.4 22.9C15.8 24.2 15.3 26 15 27.3C14.6 28.6 14.2 30.4 14 31.8C14.2 33.2 14.6 35 15 36.3C15.3 37.6 15.8 39.4 16.4 40.7C17.2 41.8 18.5 43.1 19.5 44.1C20.4 45 21.7 46.3 22.9 47.2C24.2 47.8 26 48.2 27.3 48.6C28.6 48.9 30.4 49.4 31.8 49.6C33.2 49.4 35 48.9 36.3 48.6C37.6 48.2 39.4 47.8 40.7 47.2C41.8 46.3 43.1 45 44.1 44.1C45 43.1 46.3 41.8 47.2 40.7C47.8 39.4 48.2 37.6 48.6 36.3C48.9 35 49.4 33.2 49.5 31.8C49.4 30.4 48.9 28.6 48.6 27.3C48.2 26 47.8 24.2 47.2 22.9C46.3 21.7 45 20.4 44.1 19.5C43.1 18.5 41.8 17.2 40.7 16.4C39.4 15.8 37.6 15.3 36.3 15C35 14.6 33.2 14.2 31.8 14Z" fill="url(#paint7_radial_323_388)"/>
<path d="M19.5 19.5C20.4 18.5 21.7 17.2 22.9 16.4L20.1 11.5C19 12.2 17.3 13.7 15.5 15.5C13.7 17.3 12.2 19 11.5 20.1L16.4 22.9C17.2 21.7 18.5 20.4 19.5 19.5Z" fill="url(#paint8_radial_323_388)"/>
<path d="M22.8996 16.3999C24.1996 15.7999 25.9996 15.2999 27.2996 14.9999C28.5996 14.5999 30.3996 14.1999 31.7996 13.9999V8.3999C30.4996 8.3999 28.2996 8.8999 25.7996 9.4999C23.2996 10.1999 21.1996 10.8999 20.0996 11.4999L22.8996 16.3999Z" fill="url(#paint9_radial_323_388)"/>
<path d="M31.7998 55.1997V49.5997C33.1998 49.3997 34.9998 48.8997 36.2998 48.5997C37.5998 48.1997 39.3998 47.7997 40.6998 47.1997L43.4998 52.0997C42.3998 52.5997 40.1998 53.3997 37.6998 54.0997C35.2998 54.6997 32.9998 55.0997 31.7998 55.1997Z" fill="url(#paint10_radial_323_388)"/>
<path d="M43.4997 52.0997L40.6997 47.1997C41.7997 46.2997 43.0997 44.9997 44.0997 44.0997C44.9997 43.0997 46.2997 41.7997 47.1997 40.6997L52.0997 43.4997C51.3997 44.4997 49.8997 46.2997 48.0997 48.0997C46.2997 49.8997 44.4997 51.3997 43.4997 52.0997Z" fill="url(#paint11_radial_323_388)"/>
<path d="M52.0997 43.4998L47.1997 40.6998C47.7997 39.3998 48.1997 37.5998 48.5997 36.2998C48.8997 34.9998 49.3997 33.1998 49.4997 31.7998H55.1997C55.0997 32.9998 54.6997 35.2998 53.9997 37.7998C53.3997 40.1998 52.5997 42.3998 52.0997 43.4998Z" fill="url(#paint12_radial_323_388)"/>
<path d="M55.1997 31.8001H49.4997C49.3997 30.4001 48.8997 28.6001 48.5997 27.3001C48.1997 26.0001 47.7997 24.2001 47.1997 22.9001L52.0997 20.1001C52.5997 21.2001 53.3997 23.3001 53.9997 25.8001C54.6997 28.3001 55.0997 30.5001 55.1997 31.8001Z" fill="url(#paint13_radial_323_388)"/>
<path d="M52.0997 20.1L47.1997 22.9C46.2997 21.7 44.9997 20.4 44.0997 19.5C43.0997 18.5 41.7997 17.2 40.6997 16.4L43.4997 11.5C44.4997 12.2 46.2997 13.7 48.0997 15.5C49.8997 17.3 51.3997 19 52.0997 20.1Z" fill="url(#paint14_radial_323_388)"/>
<path d="M43.4998 11.4999L40.6998 16.3999C39.3998 15.7999 37.5998 15.2999 36.2998 14.9999C34.9998 14.5999 33.1998 14.1999 31.7998 13.9999V8.3999C32.9998 8.3999 35.2998 8.8999 37.6998 9.4999C40.1998 10.1999 42.3998 10.8999 43.4998 11.4999Z" fill="url(#paint15_radial_323_388)"/>
<path d="M31.7996 55.1997V49.5997C30.3996 49.3997 28.5996 48.8997 27.2996 48.5997C25.9996 48.1997 24.1996 47.7997 22.8996 47.1997L20.0996 52.0997C21.1996 52.5997 23.2996 53.3997 25.7996 54.0997C28.2996 54.6997 30.4996 55.0997 31.7996 55.1997Z" fill="url(#paint16_radial_323_388)"/>
<path d="M20.1 52.0997L22.9 47.1997C21.7 46.2997 20.4 44.9997 19.5 44.0997C18.5 43.0997 17.2 41.7997 16.4 40.6997L11.5 43.4997C12.2 44.4997 13.7 46.2997 15.5 48.0997C17.3 49.8997 19 51.3997 20.1 52.0997Z" fill="url(#paint17_radial_323_388)"/>
<path d="M11.4998 43.4998L16.3998 40.6998C15.7998 39.3998 15.2998 37.5998 14.9998 36.2998C14.5998 34.9998 14.1998 33.1998 13.9998 31.7998H8.2998C8.3998 32.9998 8.79981 35.2998 9.49981 37.7998C10.1998 40.1998 10.8998 42.3998 11.4998 43.4998Z" fill="url(#paint18_radial_323_388)"/>
<path d="M8.2998 31.8001H13.9998C14.1998 30.4001 14.5998 28.6001 14.9998 27.3001C15.2998 26.0001 15.7998 24.2001 16.3998 22.9001L11.4998 20.1001C10.8998 21.2001 10.1998 23.3001 9.49981 25.8001C8.79981 28.3001 8.3998 30.5001 8.2998 31.8001Z" fill="url(#paint19_radial_323_388)"/>
<path style="mix-blend-mode:screen" d="M20.1 11.5C22.9 16.4 16.4 22.9 11.5 20.1L16.4 22.9C17.2 21.7 18.5 20.4 19.5 19.5C20.4 18.5 21.7 17.2 22.9 16.4L20.1 11.5Z" fill="url(#paint20_radial_323_388)"/>
<path style="mix-blend-mode:screen" opacity="0.7" d="M11.4998 20.1001C16.3998 22.9001 13.9998 31.8001 8.2998 31.8001H13.9998C14.1998 30.4001 14.5998 28.6001 14.9998 27.3001C15.2998 26.0001 15.7998 24.2001 16.3998 22.9001L11.4998 20.1001Z" fill="url(#paint21_radial_323_388)"/>
<path style="mix-blend-mode:screen" opacity="0.5" d="M8.2998 31.7998C13.9998 31.7998 17.5998 39.9998 12.8998 42.6998L16.3998 40.6998C15.7998 39.3998 15.2998 37.5998 14.9998 36.2998C14.5998 34.9998 14.1998 33.1998 13.9998 31.7998H8.2998Z" fill="url(#paint22_radial_323_388)"/>
<path style="mix-blend-mode:screen" opacity="0.5" d="M43.4997 52.0997C40.6997 47.1997 47.1997 40.6997 52.0997 43.4997L47.1997 40.6997C46.2997 41.7997 44.9997 43.0997 44.0997 44.0997C43.0997 44.9997 41.7997 46.2997 40.6997 47.1997L43.4997 52.0997Z" fill="url(#paint23_radial_323_388)"/>
<path style="mix-blend-mode:screen" opacity="0.5" d="M52.0997 43.4998C47.1997 40.6998 49.4997 31.7998 55.1997 31.7998H49.4997C49.3997 33.1998 48.8997 34.9998 48.5997 36.2998C48.1997 37.5998 47.7997 39.3998 47.1997 40.6998L52.0997 43.4998Z" fill="url(#paint24_radial_323_388)"/>
<path style="mix-blend-mode:screen" opacity="0.5" d="M55.1997 31.7999C49.4997 31.7999 45.8997 23.5999 50.5997 20.8999L47.1997 22.8999C47.7997 24.1999 48.1997 25.9999 48.5997 27.2999C48.8997 28.5999 49.3997 30.3999 49.4997 31.7999H55.1997Z" fill="url(#paint25_radial_323_388)"/>
<path style="mix-blend-mode:screen" d="M28.9996 14.5C24.6996 14.9 22.3996 14.9 20.0996 11.5L22.8996 16.4C24.1996 15.8 25.9996 15.3 27.2996 15C27.8329 14.8667 28.3996 14.7 28.9996 14.5Z" fill="url(#paint26_radial_323_388)"/>
<path style="mix-blend-mode:screen" d="M34.5996 48.9997C38.7996 48.6997 41.0996 48.6997 43.4996 52.0997L40.6996 47.1997C39.3996 47.7997 37.5996 48.1997 36.2996 48.5997C35.7663 48.733 35.1996 48.8664 34.5996 48.9997Z" fill="url(#paint27_radial_323_388)"/>
<path d="M13.7997 32.3C14.2997 35 14.9997 37.7 15.9997 40.3L15.8997 40.7C15.433 41.0333 14.9997 41.3667 14.5997 41.7C15.1997 41.3667 15.7997 41.0333 16.3997 40.7C15.7997 39.4 15.2997 37.6 14.9997 36.3C14.5997 35 14.1997 33.2 13.9997 31.8C14.1997 30.4 14.5997 28.6 14.9997 27.3C15.2997 26 15.7997 24.2 16.3997 22.9C17.1997 21.7 18.4997 20.4 19.4997 19.5C20.3997 18.5 21.6997 17.2 22.8997 16.4C24.1997 15.8 25.9997 15.3 27.2997 15C28.0997 14.8 28.9997 14.5 29.8997 14.3C27.6997 14.6 25.4997 15 23.2997 15.8L22.7997 15.6C21.933 14.2667 21.033 12.9 20.0997 11.5C20.7997 13 21.4997 14.4 22.1997 16L22.0997 16.4C19.8997 18.1 17.9997 20.1 16.4997 22.3L16.0997 22.4C14.5664 21.6667 13.0664 20.9 11.5997 20.1C12.9997 21.0333 14.3664 21.9667 15.6997 22.9L15.8997 23.3C14.7997 25.9 14.0997 28.6 13.7997 31.3L13.4997 31.6C12.033 31.6667 10.5997 31.7333 9.19971 31.8C10.5997 31.8667 12.033 31.9333 13.4997 32L13.7997 32.3Z" fill="#F6F6F6"/>
<g style="mix-blend-mode:screen">
<path d="M47.5998 41.1999C48.9998 41.9332 50.3998 42.6666 51.7998 43.3999C50.4665 42.5332 49.1331 41.6666 47.7998 40.7999L47.5998 40.3999C48.5331 37.7332 49.2665 35.0332 49.7998 32.2999L50.0998 31.9999C51.4331 31.9332 52.7998 31.8666 54.1998 31.7999C52.7998 31.7332 51.4331 31.6666 50.0998 31.5999L49.7998 31.2999C49.5998 30.6332 49.3665 29.9999 49.0998 29.3999C49.2998 30.1999 49.4998 31.0999 49.4998 31.7999C49.3998 33.1999 48.8998 34.9999 48.5998 36.2999C48.1998 37.5999 47.7998 39.3999 47.1998 40.6999C46.2998 41.7999 44.9998 43.0999 44.0998 44.0999C43.0998 44.9999 41.7998 46.2999 40.6998 47.1999C39.6998 47.5999 38.4998 47.9999 37.2998 48.2999C38.3998 48.0999 39.3998 47.8999 40.3998 47.5999L40.7998 47.7999C41.4665 48.8666 42.1665 49.9666 42.8998 51.0999C42.2998 49.8999 41.6998 48.6999 41.0998 47.4999L41.1998 47.0999C43.2998 45.3999 45.1998 43.4999 47.0998 41.2999L47.5998 41.1999Z" fill="#FFC7D7"/>
</g>
<path style="mix-blend-mode:screen" d="M16.4 40.6999L31.8 31.7999L16.4 22.8999C15.8 24.1999 15.3 25.9999 15 27.2999C14.6 28.5999 14.2 30.3999 14 31.7999C14.2 33.1999 14.6 34.9999 15 36.2999C15.3 37.5999 15.8 39.3999 16.4 40.6999Z" fill="url(#paint28_radial_323_388)"/>
<path style="mix-blend-mode:screen" d="M16.3999 22.9L31.7999 31.8V14C30.3999 14.2 28.5999 14.6 27.2999 15C25.9999 15.3 24.1999 15.8 22.8999 16.4C21.6999 17.2 20.3999 18.5 19.4999 19.5C18.4999 20.4 17.1999 21.7 16.3999 22.9Z" fill="url(#paint29_radial_323_388)"/>
<path style="mix-blend-mode:screen" d="M31.7998 14V31.8L47.1998 22.9C46.2998 21.7 44.9998 20.4 44.0998 19.5C43.0998 18.5 41.7998 17.2 40.6998 16.4C39.3998 15.8 37.5998 15.3 36.2998 15C34.9998 14.6 33.1998 14.2 31.7998 14Z" fill="url(#paint30_radial_323_388)"/>
<path style="mix-blend-mode:screen" d="M47.1998 22.8999L31.7998 31.7999L47.1998 40.6999C47.7998 39.3999 48.1998 37.5999 48.5998 36.2999C48.8998 34.9999 49.3998 33.1999 49.4998 31.7999C49.3998 30.3999 48.8998 28.5999 48.5998 27.2999C48.1998 25.9999 47.7998 24.1999 47.1998 22.8999Z" fill="url(#paint31_radial_323_388)"/>
<path style="mix-blend-mode:screen" d="M47.1998 40.6998L31.7998 31.7998V49.5998C33.1998 49.3998 34.9998 48.8998 36.2998 48.5998C37.5998 48.1998 39.3998 47.7998 40.6998 47.1998C41.7998 46.2998 43.0998 44.9998 44.0998 44.0998C44.9998 43.0998 46.2998 41.7998 47.1998 40.6998Z" fill="url(#paint32_radial_323_388)"/>
<path style="mix-blend-mode:screen" d="M31.7999 49.5998V31.7998L16.3999 40.6998C17.1999 41.7998 18.4999 43.0998 19.4999 44.0998C20.3999 44.9998 21.6999 46.2998 22.8999 47.1998C24.1999 47.7998 25.9999 48.1998 27.2999 48.5998C28.5999 48.8998 30.3999 49.3998 31.7999 49.5998Z" fill="url(#paint33_radial_323_388)"/>
<path style="mix-blend-mode:screen" d="M31.8 14C30.4 14.2 28.8 14.6 27.5 14.9L14.9 27.5C14.6 28.8 14.2 30.4 14 31.8C14.2 33.2 14.6 35 15 36.3C15.3 37.6 15.8 39.4 16.4 40.7C16.6667 41.0333 16.9667 41.4 17.3 41.8L41.8 17.3C41.4 16.9667 41.0333 16.6667 40.7 16.4C39.4 15.8 37.6 15.3 36.3 15C35 14.6 33.2 14.2 31.8 14Z" fill="url(#paint34_radial_323_388)"/>
<path style="mix-blend-mode:screen" d="M47.9997 25.1997L25.1997 47.9997C25.8997 48.1997 26.6997 48.3997 27.2997 48.5997C28.2997 48.8997 29.5997 49.1997 30.7997 49.3997L49.3997 30.7997C49.1997 29.5997 48.8997 28.2997 48.5997 27.2997C48.3997 26.6997 48.1997 25.8997 47.9997 25.1997Z" fill="url(#paint35_radial_323_388)"/>
<path style="mix-blend-mode:screen" d="M31.7998 8.3999C30.4998 8.3999 28.2998 8.8999 25.7998 9.4999C23.2998 10.1999 21.1998 10.8999 20.0998 11.4999C18.9998 12.1999 17.2998 13.6999 15.4998 15.4999C13.6998 17.2999 12.1998 18.9999 11.4998 20.0999C10.8998 21.1999 10.1998 23.2999 9.49981 25.7999C8.79981 28.2999 8.3998 30.4999 8.2998 31.7999C8.3998 32.9999 8.79981 35.2999 9.49981 37.7999C10.1998 40.1999 10.8998 42.3999 11.4998 43.4999C12.1998 44.4999 13.6998 46.2999 15.4998 48.0999C17.2998 49.8999 18.9998 51.3999 20.0998 52.0999C21.1998 52.5999 23.2998 53.3999 25.7998 54.0999C28.2998 54.6999 30.4998 55.0999 31.7998 55.1999C32.9998 55.0999 35.2998 54.6999 37.6998 54.0999C40.1998 53.3999 42.3998 52.5999 43.4998 52.0999C44.4998 51.3999 46.2998 49.8999 48.0998 48.0999C49.8998 46.2999 51.3998 44.4999 52.0998 43.4999C52.5998 42.3999 53.3998 40.1999 53.9998 37.7999C54.6998 35.2999 55.0998 32.9999 55.1998 31.7999C55.0998 30.4999 54.6998 28.2999 53.9998 25.7999C53.3998 23.2999 52.5998 21.1999 52.0998 20.0999C51.3998 18.9999 49.8998 17.2999 48.0998 15.4999C46.2998 13.6999 44.4998 12.1999 43.4998 11.4999C42.3998 10.8999 40.1998 10.1999 37.6998 9.4999C35.2998 8.8999 32.9998 8.3999 31.7998 8.3999Z" fill="url(#paint36_radial_323_388)"/>
<path style="mix-blend-mode:screen" d="M21.3997 22.6999C21.3997 25.6999 18.9997 28.0999 16.0997 28.0999C13.0997 28.0999 10.6997 25.6999 10.6997 22.6999C10.6997 19.7999 13.0997 17.3999 16.0997 17.3999C18.9997 17.3999 21.3997 19.7999 21.3997 22.6999Z" fill="url(#paint37_radial_323_388)"/>
<g style="mix-blend-mode:multiply">
<path d="M20.0996 39.6999L24.5996 44.1999L31.7996 37.0999L38.8996 44.1999L43.3996 39.6999L36.2996 32.5999L43.3996 25.3999L38.8996 20.8999L31.7996 28.0999L24.5996 20.8999L20.0996 25.3999L27.2996 32.5999L20.0996 39.6999Z" fill="#841E2A"/>
</g>
<path d="M20.0996 38.9001L24.5996 43.4001L31.7996 36.3001L38.8996 43.4001L43.3996 38.9001L36.2996 31.8001L43.3996 24.6001L38.8996 20.1001L31.7996 27.3001L24.5996 20.1001L20.0996 24.6001L27.2996 31.8001L20.0996 38.9001Z" fill="url(#paint38_linear_323_388)"/>
<defs>
<linearGradient id="paint0_linear_323_388" x1="0" y1="63.6" x2="0" y2="0" gradientUnits="userSpaceOnUse">
<stop stop-color="#DE8B00"/>
<stop offset="1" stop-color="#FFC75E"/>
</linearGradient>
<radialGradient id="paint1_radial_323_388" cx="0" cy="0" r="1" gradientUnits="userSpaceOnUse" gradientTransform="translate(18.4002 9.4002) scale(52.9 52.9)">
<stop stop-color="#FFEEB8"/>
<stop offset="1" stop-color="#FFBF00"/>
</radialGradient>
<linearGradient id="paint2_linear_323_388" x1="0" y1="63.6" x2="0" y2="0" gradientUnits="userSpaceOnUse">
<stop stop-color="#CF8000"/>
<stop offset="1" stop-color="#F5B133"/>
</linearGradient>
<linearGradient id="paint3_linear_323_388" x1="23.9998" y1="31.7998" x2="23.9998" y2="0.799805" gradientUnits="userSpaceOnUse">
<stop stop-color="#FFB805"/>
<stop offset="1" stop-color="#FFE89C"/>
</linearGradient>
<radialGradient id="paint4_radial_323_388" cx="0" cy="0" r="1" gradientUnits="userSpaceOnUse" gradientTransform="translate(20.4002 5.1002) scale(51.6)">
<stop stop-color="#FFFD9E"/>
<stop offset="1"/>
</radialGradient>
<radialGradient id="paint5_radial_323_388" cx="0" cy="0" r="1" gradientUnits="userSpaceOnUse" gradientTransform="translate(35.1 19.5) scale(39.9 39.9)">
<stop stop-color="#FFFD9E"/>
<stop offset="1"/>
</radialGradient>
<linearGradient id="paint6_linear_323_388" x1="7.2002" y1="56.3002" x2="7.2002" y2="7.2002" gradientUnits="userSpaceOnUse">
<stop stop-color="#D68329"/>
<stop offset="1" stop-color="#B86A43"/>
</linearGradient>
<radialGradient id="paint7_radial_323_388" cx="0" cy="0" r="1" gradientUnits="userSpaceOnUse" gradientTransform="translate(24.5 13.6) scale(36.1 36.1)">
<stop stop-color="#F2748C"/>
<stop offset="1" stop-color="#DE003D"/>
</radialGradient>
<radialGradient id="paint8_radial_323_388" cx="0" cy="0" r="1" gradientUnits="userSpaceOnUse" gradientTransform="translate(21 12.5) scale(36 36)">
<stop stop-color="#F29EA1"/>
<stop offset="1" stop-color="#F25B80"/>
</radialGradient>
<radialGradient id="paint9_radial_323_388" cx="0" cy="0" r="1" gradientUnits="userSpaceOnUse" gradientTransform="translate(22.3996 3.9999) scale(21.8 21.8)">
<stop stop-color="#F2909A"/>
<stop offset="1" stop-color="#F22062"/>
</radialGradient>
<radialGradient id="paint10_radial_323_388" cx="0" cy="0" r="1" gradientUnits="userSpaceOnUse" gradientTransform="translate(31.9998 23.0997) scale(32 32)">
<stop stop-color="#F29EA1"/>
<stop offset="1" stop-color="#F25B80"/>
</radialGradient>
<radialGradient id="paint11_radial_323_388" cx="0" cy="0" r="1" gradientUnits="userSpaceOnUse" gradientTransform="translate(51.9997 62.0997) scale(25.2)">
<stop stop-color="#F2909A"/>
<stop offset="1" stop-color="#F22062"/>
</radialGradient>
<radialGradient id="paint12_radial_323_388" cx="0" cy="0" r="1" gradientUnits="userSpaceOnUse" gradientTransform="translate(30.7997 30.3998) scale(27.7 27.7)">
<stop stop-color="#F2909A"/>
<stop offset="1" stop-color="#F22062"/>
</radialGradient>
<radialGradient id="paint13_radial_323_388" cx="0" cy="0" r="1" gradientUnits="userSpaceOnUse" gradientTransform="translate(14.8997 35.9001) scale(41.1 41.1)">
<stop stop-color="#F2909A"/>
<stop offset="1" stop-color="#F22062"/>
</radialGradient>
<radialGradient id="paint14_radial_323_388" cx="0" cy="0" r="1" gradientUnits="userSpaceOnUse" gradientTransform="translate(22.8997 34.9) scale(42.9 42.9)">
<stop stop-color="#F2748C"/>
<stop offset="1" stop-color="#DE003D"/>
</radialGradient>
<radialGradient id="paint15_radial_323_388" cx="0" cy="0" r="1" gradientUnits="userSpaceOnUse" gradientTransform="translate(31.9998 28.7999) scale(22.2 22.2)">
<stop stop-color="#F2748C"/>
<stop offset="1" stop-color="#DE003D"/>
</radialGradient>
<radialGradient id="paint16_radial_323_388" cx="0" cy="0" r="1" gradientUnits="userSpaceOnUse" gradientTransform="translate(35.4996 40.0997) scale(22.2 22.2)">
<stop stop-color="#F2748C"/>
<stop offset="1" stop-color="#D60027"/>
</radialGradient>
<radialGradient id="paint17_radial_323_388" cx="0" cy="0" r="1" gradientUnits="userSpaceOnUse" gradientTransform="translate(4.3 59.3997) scale(22.6 22.6)">
<stop stop-color="#F2748C"/>
<stop offset="1" stop-color="#DE003D"/>
</radialGradient>
<radialGradient id="paint18_radial_323_388" cx="0" cy="0" r="1" gradientUnits="userSpaceOnUse" gradientTransform="translate(-5.00019 42.6998) scale(27.4 27.4)">
<stop stop-color="#F2748C"/>
<stop offset="1" stop-color="#DE003D"/>
</radialGradient>
<radialGradient id="paint19_radial_323_388" cx="0" cy="0" r="1" gradientUnits="userSpaceOnUse" gradientTransform="translate(-0.500194 13.3001) scale(24.2 24.2)">
<stop stop-color="#F2909A"/>
<stop offset="1" stop-color="#F22062"/>
</radialGradient>
<radialGradient id="paint20_radial_323_388" cx="0" cy="0" r="1" gradientUnits="userSpaceOnUse" gradientTransform="translate(24.4 17.5) scale(15.4 15.4)">
<stop stop-color="#F24C7C"/>
<stop offset="1"/>
</radialGradient>
<radialGradient id="paint21_radial_323_388" cx="0" cy="0" r="1" gradientUnits="userSpaceOnUse" gradientTransform="translate(18.1998 22.9001) scale(16.7 16.7)">
<stop stop-color="#F24C7C"/>
<stop offset="1"/>
</radialGradient>
<radialGradient id="paint22_radial_323_388" cx="0" cy="0" r="1" gradientUnits="userSpaceOnUse" gradientTransform="translate(12.8998 30.4998) scale(14.1)">
<stop stop-color="#F24C7C"/>
<stop offset="1"/>
</radialGradient>
<radialGradient id="paint23_radial_323_388" cx="0" cy="0" r="1" gradientUnits="userSpaceOnUse" gradientTransform="translate(45.2997 40.0997) scale(10.1)">
<stop stop-color="#F24C7C"/>
<stop offset="1"/>
</radialGradient>
<radialGradient id="paint24_radial_323_388" cx="0" cy="0" r="1" gradientUnits="userSpaceOnUse" gradientTransform="translate(49.3997 31.8998) scale(10.7)">
<stop stop-color="#F24C7C"/>
<stop offset="1"/>
</radialGradient>
<radialGradient id="paint25_radial_323_388" cx="0" cy="0" r="1" gradientUnits="userSpaceOnUse" gradientTransform="translate(48.9997 32.8999) scale(14 14)">
<stop stop-color="#F24C7C"/>
<stop offset="1"/>
</radialGradient>
<radialGradient id="paint26_radial_323_388" cx="0" cy="0" r="1" gradientUnits="userSpaceOnUse" gradientTransform="translate(21.9996 18) scale(8.2 8.2)">
<stop stop-color="#F24C7C"/>
<stop offset="1"/>
</radialGradient>
<radialGradient id="paint27_radial_323_388" cx="0" cy="0" r="1" gradientUnits="userSpaceOnUse" gradientTransform="translate(41.1996 42.5997) scale(9.3 9.3)">
<stop stop-color="#F24C7C"/>
<stop offset="1"/>
</radialGradient>
<radialGradient id="paint28_radial_323_388" cx="0" cy="0" r="1" gradientUnits="userSpaceOnUse" gradientTransform="translate(9.6 27.2999) scale(34.6 34.6)">
<stop stop-color="#F24C7C"/>
<stop offset="1"/>
</radialGradient>
<radialGradient id="paint29_radial_323_388" cx="0" cy="0" r="1" gradientUnits="userSpaceOnUse" gradientTransform="translate(25.3999 11.6) scale(26.1 26.1)">
<stop stop-color="#F24C7C"/>
<stop offset="1"/>
</radialGradient>
<radialGradient id="paint30_radial_323_388" cx="0" cy="0" r="1" gradientUnits="userSpaceOnUse" gradientTransform="translate(55.8998 -7) scale(71.3 71.3)">
<stop stop-color="#F24C7C"/>
<stop offset="1"/>
</radialGradient>
<radialGradient id="paint31_radial_323_388" cx="0" cy="0" r="1" gradientUnits="userSpaceOnUse" gradientTransform="translate(49.4998 14.2999) scale(27.8 27.8)">
<stop stop-color="#F24C7C"/>
<stop offset="1"/>
</radialGradient>
<radialGradient id="paint32_radial_323_388" cx="0" cy="0" r="1" gradientUnits="userSpaceOnUse" gradientTransform="translate(52.2998 60.1998) scale(34.9 34.9)">
<stop stop-color="#F24C7C"/>
<stop offset="1"/>
</radialGradient>
<radialGradient id="paint33_radial_323_388" cx="0" cy="0" r="1" gradientUnits="userSpaceOnUse" gradientTransform="translate(20.6999 57.2998) scale(35.9 35.9)">
<stop stop-color="#F24C7C"/>
<stop offset="1"/>
</radialGradient>
<radialGradient id="paint34_radial_323_388" cx="0" cy="0" r="1" gradientUnits="userSpaceOnUse" gradientTransform="translate(27.4 -11.4) scale(59.9 59.9)">
<stop stop-color="#F24C7C"/>
<stop offset="1"/>
</radialGradient>
<radialGradient id="paint35_radial_323_388" cx="0" cy="0" r="1" gradientUnits="userSpaceOnUse" gradientTransform="translate(36.7997 -0.900298) scale(52.2 52.2)">
<stop stop-color="#F24C7C"/>
<stop offset="1"/>
</radialGradient>
<radialGradient id="paint36_radial_323_388" cx="0" cy="0" r="1" gradientUnits="userSpaceOnUse" gradientTransform="translate(14.2998 8.5999) scale(37.3 37.3)">
<stop stop-color="#FF80A5"/>
<stop offset="1"/>
</radialGradient>
<radialGradient id="paint37_radial_323_388" cx="0" cy="0" r="1" gradientUnits="userSpaceOnUse" gradientTransform="translate(16.0997 22.6999) scale(5.3 5.3)">
<stop stop-color="white"/>
<stop offset="0.271" stop-color="#FF99D6"/>
<stop offset="0.892"/>
</radialGradient>
<linearGradient id="paint38_linear_323_388" x1="20.0996" y1="43.4001" x2="20.0996" y2="20.1001" gradientUnits="userSpaceOnUse">
<stop stop-color="#FFECBA"/>
<stop offset="1" stop-color="white"/>
</linearGradient>
</defs>
</svg>
