<svg width="64" height="64" viewBox="0 0 64 64" fill="none" xmlns="http://www.w3.org/2000/svg">
    <path d="M31.8 0C49.3 0 63.6 14.2 63.6 31.8C63.6 49.3 49.3 63.6 31.8 63.6C14.2 63.6 0 49.3 0 31.8C0 14.2 14.2 0 31.8 0Z" fill="url(#paint0_linear_16_4650)"/>
    <path d="M31.7999 3.7002C47.2999 3.7002 59.8999 16.3002 59.8999 31.8002C59.8999 47.3002 47.2999 59.9002 31.7999 59.9002C16.2999 59.9002 3.69995 47.3002 3.69995 31.8002C3.69995 16.3002 16.2999 3.7002 31.7999 3.7002Z" fill="url(#paint1_radial_16_4650)"/>
    <path fill-rule="evenodd" clip-rule="evenodd" d="M31.8 0C49.3 0 63.6 14.2 63.6 31.8C63.6 49.3 49.3 63.6 31.8 63.6C14.2 63.6 0 49.3 0 31.8C0 14.2 14.2 0 31.8 0ZM0.799999 31.8C0.799999 48.9 14.7 62.7 31.8 62.7C48.9 62.7 62.7 48.9 62.7 31.8C62.7 14.7 48.9 0.800001 31.8 0.800001C14.7 0.800001 0.799999 14.7 0.799999 31.8Z" fill="url(#paint2_linear_16_4650)"/>
    <path d="M3.70005 31.7998C3.70005 16.2998 16.3 3.6998 31.8 3.6998C47.3 3.6998 59.9 16.2998 59.9 31.7998C60.3 30.6998 62.2001 30.3998 62.7001 31.7998C62.7001 14.6998 48.9 0.799805 31.8 0.799805C14.7 0.799805 0.800049 14.6998 0.800049 31.7998C1.40005 30.3998 3.30005 30.6998 3.70005 31.7998Z" fill="url(#paint3_linear_16_4650)"/>
    <g style="mix-blend-mode:screen">
        <path d="M1.59998 24.9998C5.79998 11.6998 17.7 2.0998 31.8 2.0998C45.9 2.0998 57.8 11.6998 62 24.9998C58.9 11.1998 46.5 0.799805 31.8 0.799805C17 0.799805 4.69998 11.1998 1.59998 24.9998Z" fill="#F7E984"/>
    </g>
    <g style="mix-blend-mode:screen">
        <path d="M3.70005 31.8002C3.70005 16.3002 16.3 3.7002 31.8 3.7002C38.8 3.7002 45.2001 6.20019 50.1001 10.5002C45.1001 5.90019 38.5 3.2002 31.3 3.2002C15.8 3.2002 3.30005 15.7002 3.30005 31.1002C3.30005 35.3002 4.30005 39.2002 5.90005 42.8002C4.50005 39.4002 3.70005 35.7002 3.70005 31.8002Z" fill="#F7E984"/>
    </g>
    <path style="mix-blend-mode:screen" d="M9.09995 48.5002L48.5 9.2002C43.8 5.7002 37.9999 3.7002 31.7999 3.7002C31.5999 3.7002 31.4 3.7002 31.2 3.7002L3.69995 31.2002C3.69995 31.4002 3.69995 31.6002 3.69995 31.8002C3.69995 38.0002 5.69995 43.8002 9.09995 48.5002Z" fill="url(#paint4_radial_16_4650)"/>
    <path style="mix-blend-mode:screen" d="M57.1 19.5L19.5 57.1C21.8 58.2 24.2 59 26.7 59.4L59.4 26.7C59 24.2 58.2 21.8 57.1 19.5Z" fill="url(#paint5_radial_16_4650)"/>
    <path d="M19.7 10.4002C21.4 9.60019 23.6 8.90019 25.5 8.40019C27.4 7.90019 29.7 7.4002 31.6 7.3002L31.7999 7.2002L32 7.3002C33.9 7.4002 36.2 7.90019 38 8.40019C39.9 8.90019 42.0999 9.60019 43.8999 10.4002L44.1 10.5002L44.2 10.6002C45.8 11.7002 47.4999 13.3002 48.8999 14.7002C50.2999 16.1002 51.8999 17.7002 52.8999 19.4002L53 19.5002L53.1 19.7002C54 21.4002 54.6 23.7002 55.1 25.5002C55.6 27.4002 56.1999 29.7002 56.2999 31.6002V31.8002V32.0002C56.1999 33.9002 55.6 36.2002 55.1 38.0002C54.6 39.9002 54 42.2002 53.1 43.9002L53 44.1002L52.8999 44.2002C51.8999 45.8002 50.2999 47.5002 48.8999 48.9002C47.4999 50.3002 45.8 51.9002 44.2 52.9002L44.1 53.0002L43.8999 53.1002C42.0999 54.0002 39.9 54.6002 38 55.1002C36.2 55.7002 33.9 56.2002 32 56.3002H31.7999H31.6C29.7 56.2002 27.4 55.7002 25.5 55.1002C23.6 54.6002 21.4 54.0002 19.7 53.1002L19.5 53.0002L19.2999 52.9002C17.6999 51.9002 16.1 50.3002 14.7 48.9002C13.3 47.5002 11.7 45.8002 10.6 44.2002L10.5 44.1002L10.3999 43.9002C9.59995 42.2002 8.89995 39.9002 8.39995 38.0002C7.89995 36.2002 7.39995 33.9002 7.19995 32.0002V31.8002V31.6002C7.39995 29.7002 7.89995 27.4002 8.39995 25.5002C8.89995 23.7002 9.59995 21.4002 10.3999 19.7002L10.5 19.5002L10.6 19.4002C11.7 17.7002 13.3 16.1002 14.7 14.7002C16.1 13.3002 17.6999 11.7002 19.2999 10.6002L19.5 10.5002L19.7 10.4002Z" fill="url(#paint6_linear_16_4650)"/>
    <g style="mix-blend-mode:screen">
        <path d="M31.6 56.3C29.7 56.2 27.4 55.7 25.5 55.1C23.6 54.6 21.4 54 19.7 53.1L19.5 53L19.2999 52.9C17.6999 51.9 16.1 50.3 14.7 48.9C13.3 47.5 11.7 45.8 10.6 44.2L10.5 44.1L10.3999 43.9C9.59995 42.2 8.89995 39.9 8.39995 38C7.89995 36.2 7.39995 34 7.19995 32C7.19995 32.0667 7.19995 32.1 7.19995 32.1V32.3V32.5C7.39995 34.4 7.89995 36.7 8.39995 38.6C8.89995 40.4 9.59995 42.7 10.3999 44.4L10.5 44.6L10.6 44.7C11.7 46.4 13.3 48 14.7 49.4C16.1 50.8 17.6999 52.4 19.2999 53.5L19.5 53.6H19.7C21.4 54.5 23.6 55.2 25.5 55.7C27.4 56.2 29.7 56.7 31.6 56.8L31.7999 56.9L32 56.8C33.9 56.7 36.2 56.2 38 55.7C39.9 55.2 42.0999 54.5 43.8999 53.6H44.1L44.2 53.5C45.8 52.4 47.4999 50.8 48.8999 49.4C50.2999 48 51.8999 46.4 52.8999 44.7L53 44.6L53.1 44.4C54 42.7 54.6 40.4 55.1 38.6C55.6 36.7 56.1999 34.4 56.2999 32.5V32.3V32.1C56.2999 32.1 56.2999 32.0667 56.2999 32C56.1999 34 55.6 36.2 55.1 38C54.6 39.9 54 42.2 53.1 43.9L53 44.1L52.8999 44.2C51.8999 45.8 50.2999 47.5 48.8999 48.9C47.4999 50.3 45.8 51.9 44.2 52.9L44.1 53L43.8999 53.1C42.0999 54 39.9 54.6 38 55.1C36.2 55.7 33.9 56.2 32 56.3H31.7999H31.6Z" fill="#F7E984"/>
    </g>
    <path d="M32 7.8002C33.9 7.9002 36.2 8.40019 38 8.90019C39.9 9.40019 42.0999 10.1002 43.8999 11.0002H44.1L44.2 11.2002C45.8 12.2002 47.4999 13.8002 48.8999 15.2002C50.2999 16.6002 51.8999 18.3002 52.8999 19.9002L53 20.0002L53.1 20.2002C54 21.9002 54.6 24.2002 55.1 26.0002C55.6 27.9002 56.1999 30.1002 56.2999 32.0002V31.8002V31.6002C56.1999 29.7002 55.6 27.4002 55.1 25.5002C54.6 23.7002 54 21.4002 53.1 19.7002L53 19.5002L52.8999 19.4002C51.8999 17.7002 50.2999 16.1002 48.8999 14.7002C47.4999 13.3002 45.8 11.7002 44.2 10.6002L44.1 10.5002L43.8999 10.4002C42.0999 9.60019 39.9 8.90019 38 8.40019C36.2 7.90019 33.9 7.4002 32 7.3002L31.7999 7.2002L31.6 7.3002C29.7 7.4002 27.4 7.90019 25.5 8.40019C23.6 8.90019 21.4 9.60019 19.7 10.4002L19.5 10.5002L19.2999 10.6002C17.6999 11.7002 16.1 13.3002 14.7 14.7002C13.3 16.1002 11.7 17.7002 10.6 19.4002L10.5 19.5002L10.3999 19.7002C9.59995 21.4002 8.89995 23.7002 8.39995 25.5002C7.89995 27.4002 7.39995 29.7002 7.19995 31.6002V31.8002V32.0002C7.39995 30.1002 7.89995 27.9002 8.39995 26.0002C8.89995 24.2002 9.59995 21.9002 10.3999 20.2002L10.5 20.0002L10.6 19.9002C11.7 18.3002 13.3 16.6002 14.7 15.2002C16.1 13.8002 17.6999 12.2002 19.2999 11.2002L19.5 11.0002H19.7C21.4 10.1002 23.6 9.40019 25.5 8.90019C27.4 8.40019 29.7 7.9002 31.6 7.8002H31.7999H32Z" fill="#753D29"/>
    <path d="M31.8 8.3999C30.5 8.3999 28.3 8.8999 25.8 9.4999C23.3 10.1999 21.2001 10.8999 20.1001 11.4999C19.0001 12.1999 17.3001 13.6999 15.5001 15.4999C13.7001 17.2999 12.2001 18.9999 11.5001 20.0999C10.9001 21.1999 10.2001 23.2999 9.50005 25.7999C8.80005 28.2999 8.40005 30.4999 8.30005 31.7999C8.40005 32.9999 8.80005 35.2999 9.50005 37.7999C10.2001 40.1999 10.9001 42.3999 11.5001 43.4999C12.2001 44.4999 13.7001 46.2999 15.5001 48.0999C17.3001 49.8999 19.0001 51.3999 20.1001 52.0999C21.2001 52.5999 23.3 53.3999 25.8 54.0999C28.3 54.6999 30.5 55.0999 31.8 55.1999C33 55.0999 35.3001 54.6999 37.7001 54.0999C40.2001 53.3999 42.4001 52.5999 43.5001 52.0999C44.5001 51.3999 46.3001 49.8999 48.1001 48.0999C49.9001 46.2999 51.4001 44.4999 52.1001 43.4999C52.6001 42.3999 53.4001 40.1999 54.0001 37.7999C54.7001 35.2999 55.1001 32.9999 55.2001 31.7999C55.1001 30.4999 54.7001 28.2999 54.0001 25.7999C53.4001 23.2999 52.6001 21.1999 52.1001 20.0999C51.4001 18.9999 49.9001 17.2999 48.1001 15.4999C46.3001 13.6999 44.5001 12.1999 43.5001 11.4999C42.4001 10.8999 40.2001 10.1999 37.7001 9.4999C35.3001 8.8999 33 8.3999 31.8 8.3999Z" fill="#F24D78"/>
    <path d="M31.8 14C30.4 14.2 28.6 14.6 27.3 15C26 15.3 24.2 15.8 22.9 16.4C21.7 17.2 20.4 18.5 19.5 19.5C18.5 20.4 17.2 21.7 16.4 22.9C15.8 24.2 15.3 26 15 27.3C14.6 28.6 14.2 30.4 14 31.8C14.2 33.2 14.6 35 15 36.3C15.3 37.6 15.8 39.4 16.4 40.7C17.2 41.8 18.5 43.1 19.5 44.1C20.4 45 21.7 46.3 22.9 47.2C24.2 47.8 26 48.2 27.3 48.6C28.6 48.9 30.4 49.4 31.8 49.6C33.2 49.4 35 48.9 36.3 48.6C37.6 48.2 39.4 47.8 40.7 47.2C41.8 46.3 43.1 45 44.1 44.1C45 43.1 46.3 41.8 47.2 40.7C47.8 39.4 48.2 37.6 48.6 36.3C48.9 35 49.4 33.2 49.5 31.8C49.4 30.4 48.9 28.6 48.6 27.3C48.2 26 47.8 24.2 47.2 22.9C46.3 21.7 45 20.4 44.1 19.5C43.1 18.5 41.8 17.2 40.7 16.4C39.4 15.8 37.6 15.3 36.3 15C35 14.6 33.2 14.2 31.8 14Z" fill="url(#paint7_radial_16_4650)"/>
    <path d="M19.5 19.5C20.4 18.5 21.7 17.2 22.9 16.4L20.1 11.5C19 12.2 17.3 13.7 15.5 15.5C13.7 17.3 12.2 19 11.5 20.1L16.4 22.9C17.2 21.7 18.5 20.4 19.5 19.5Z" fill="url(#paint8_radial_16_4650)"/>
    <path d="M22.9001 16.3999C24.2001 15.7999 26.0001 15.2999 27.3001 14.9999C28.6001 14.5999 30.4001 14.1999 31.8001 13.9999V8.3999C30.5001 8.3999 28.3001 8.8999 25.8001 9.4999C23.3001 10.1999 21.2001 10.8999 20.1001 11.4999L22.9001 16.3999Z" fill="url(#paint9_radial_16_4650)"/>
    <path d="M31.8 55.1997V49.5997C33.2 49.3997 35 48.8997 36.3 48.5997C37.6 48.1997 39.4001 47.7997 40.7001 47.1997L43.5001 52.0997C42.4001 52.5997 40.2001 53.3997 37.7001 54.0997C35.3001 54.6997 33 55.0997 31.8 55.1997Z" fill="url(#paint10_radial_16_4650)"/>
    <path d="M43.5001 52.0997L40.7001 47.1997C41.8001 46.2997 43.1001 44.9997 44.1001 44.0997C45.0001 43.0997 46.3001 41.7997 47.2001 40.6997L52.1001 43.4997C51.4001 44.4997 49.9001 46.2997 48.1001 48.0997C46.3001 49.8997 44.5001 51.3997 43.5001 52.0997Z" fill="url(#paint11_radial_16_4650)"/>
    <path d="M52.1001 43.4998L47.2001 40.6998C47.8001 39.3998 48.2001 37.5998 48.6001 36.2998C48.9001 34.9998 49.4001 33.1998 49.5001 31.7998H55.2001C55.1001 32.9998 54.7001 35.2998 54.0001 37.7998C53.4001 40.1998 52.6001 42.3998 52.1001 43.4998Z" fill="url(#paint12_radial_16_4650)"/>
    <path d="M55.2001 31.8001H49.5001C49.4001 30.4001 48.9001 28.6001 48.6001 27.3001C48.2001 26.0001 47.8001 24.2001 47.2001 22.9001L52.1001 20.1001C52.6001 21.2001 53.4001 23.3001 54.0001 25.8001C54.7001 28.3001 55.1001 30.5001 55.2001 31.8001Z" fill="url(#paint13_radial_16_4650)"/>
    <path d="M52.1001 20.1L47.2001 22.9C46.3001 21.7 45.0001 20.4 44.1001 19.5C43.1001 18.5 41.8001 17.2 40.7001 16.4L43.5001 11.5C44.5001 12.2 46.3001 13.7 48.1001 15.5C49.9001 17.3 51.4001 19 52.1001 20.1Z" fill="url(#paint14_radial_16_4650)"/>
    <path d="M43.5001 11.4999L40.7001 16.3999C39.4001 15.7999 37.6 15.2999 36.3 14.9999C35 14.5999 33.2 14.1999 31.8 13.9999V8.3999C33 8.3999 35.3001 8.8999 37.7001 9.4999C40.2001 10.1999 42.4001 10.8999 43.5001 11.4999Z" fill="url(#paint15_radial_16_4650)"/>
    <path d="M31.8001 55.1997V49.5997C30.4001 49.3997 28.6001 48.8997 27.3001 48.5997C26.0001 48.1997 24.2001 47.7997 22.9001 47.1997L20.1001 52.0997C21.2001 52.5997 23.3001 53.3997 25.8001 54.0997C28.3001 54.6997 30.5001 55.0997 31.8001 55.1997Z" fill="url(#paint16_radial_16_4650)"/>
    <path d="M20.1 52.0997L22.9 47.1997C21.7 46.2997 20.4 44.9997 19.5 44.0997C18.5 43.0997 17.2 41.7997 16.4 40.6997L11.5 43.4997C12.2 44.4997 13.7 46.2997 15.5 48.0997C17.3 49.8997 19 51.3997 20.1 52.0997Z" fill="url(#paint17_radial_16_4650)"/>
    <path d="M11.5001 43.4998L16.4 40.6998C15.8 39.3998 15.3001 37.5998 15.0001 36.2998C14.6001 34.9998 14.2001 33.1998 14.0001 31.7998H8.30005C8.40005 32.9998 8.80005 35.2998 9.50005 37.7998C10.2001 40.1998 10.9001 42.3998 11.5001 43.4998Z" fill="url(#paint18_radial_16_4650)"/>
    <path d="M8.30005 31.8001H14.0001C14.2001 30.4001 14.6001 28.6001 15.0001 27.3001C15.3001 26.0001 15.8 24.2001 16.4 22.9001L11.5001 20.1001C10.9001 21.2001 10.2001 23.3001 9.50005 25.8001C8.80005 28.3001 8.40005 30.5001 8.30005 31.8001Z" fill="url(#paint19_radial_16_4650)"/>
    <path style="mix-blend-mode:screen" d="M20.1 11.5C22.9 16.4 16.4 22.9 11.5 20.1L16.4 22.9C17.2 21.7 18.5 20.4 19.5 19.5C20.4 18.5 21.7 17.2 22.9 16.4L20.1 11.5Z" fill="url(#paint20_radial_16_4650)"/>
    <path style="mix-blend-mode:screen" opacity="0.7" d="M11.5001 20.1001C16.4001 22.9001 14 31.8001 8.30005 31.8001H14.0001C14.2001 30.4001 14.6001 28.6001 15.0001 27.3001C15.3001 26.0001 15.8 24.2001 16.4 22.9001L11.5001 20.1001Z" fill="url(#paint21_radial_16_4650)"/>
    <path style="mix-blend-mode:screen" opacity="0.5" d="M8.30005 31.7998C14 31.7998 17.6 39.9998 12.9 42.6998L16.4 40.6998C15.8 39.3998 15.3001 37.5998 15.0001 36.2998C14.6001 34.9998 14.2001 33.1998 14.0001 31.7998H8.30005Z" fill="url(#paint22_radial_16_4650)"/>
    <path style="mix-blend-mode:screen" opacity="0.5" d="M43.5001 52.0997C40.7001 47.1997 47.2001 40.6997 52.1001 43.4997L47.2001 40.6997C46.3001 41.7997 45.0001 43.0997 44.1001 44.0997C43.1001 44.9997 41.8001 46.2997 40.7001 47.1997L43.5001 52.0997Z" fill="url(#paint23_radial_16_4650)"/>
    <path style="mix-blend-mode:screen" opacity="0.5" d="M52.1001 43.4998C47.2001 40.6998 49.5001 31.7998 55.2001 31.7998H49.5001C49.4001 33.1998 48.9001 34.9998 48.6001 36.2998C48.2001 37.5998 47.8001 39.3998 47.2001 40.6998L52.1001 43.4998Z" fill="url(#paint24_radial_16_4650)"/>
    <path style="mix-blend-mode:screen" opacity="0.5" d="M55.2001 31.7999C49.5001 31.7999 45.9001 23.5999 50.6001 20.8999L47.2001 22.8999C47.8001 24.1999 48.2001 25.9999 48.6001 27.2999C48.9001 28.5999 49.4001 30.3999 49.5001 31.7999H55.2001Z" fill="url(#paint25_radial_16_4650)"/>
    <path style="mix-blend-mode:screen" d="M29.0001 14.5C24.7001 14.9 22.4001 14.9 20.1001 11.5L22.9001 16.4C24.2001 15.8 26.0001 15.3 27.3001 15C27.8334 14.8667 28.4001 14.7 29.0001 14.5Z" fill="url(#paint26_radial_16_4650)"/>
    <path style="mix-blend-mode:screen" d="M34.6001 48.9997C38.8001 48.6997 41.1001 48.6997 43.5001 52.0997L40.7001 47.1997C39.4001 47.7997 37.6001 48.1997 36.3001 48.5997C35.7668 48.733 35.2001 48.8664 34.6001 48.9997Z" fill="url(#paint27_radial_16_4650)"/>
    <path d="M13.8001 32.3C14.3001 35 15.0001 37.7 16.0001 40.3L15.9001 40.7C15.4334 41.0333 15.0001 41.3667 14.6001 41.7C15.2001 41.3667 15.8001 41.0333 16.4001 40.7C15.8001 39.4 15.3001 37.6 15.0001 36.3C14.6001 35 14.2001 33.2 14.0001 31.8C14.2001 30.4 14.6001 28.6 15.0001 27.3C15.3001 26 15.8001 24.2 16.4001 22.9C17.2001 21.7 18.5001 20.4 19.5001 19.5C20.4001 18.5 21.7001 17.2 22.9001 16.4C24.2001 15.8 26.0001 15.3 27.3001 15C28.1001 14.8 29.0001 14.5 29.9001 14.3C27.7001 14.6 25.5001 15 23.3001 15.8L22.8001 15.6C21.9334 14.2667 21.0334 12.9 20.1001 11.5C20.8001 13 21.5001 14.4 22.2001 16L22.1001 16.4C19.9001 18.1 18.0001 20.1 16.5001 22.3L16.1001 22.4C14.5667 21.6667 13.0667 20.9 11.6001 20.1C13.0001 21.0333 14.3667 21.9667 15.7001 22.9L15.9001 23.3C14.8001 25.9 14.1001 28.6 13.8001 31.3L13.5001 31.6C12.0334 31.6667 10.6001 31.7333 9.20007 31.8C10.6001 31.8667 12.0334 31.9333 13.5001 32L13.8001 32.3Z" fill="#F6F6F6"/>
    <g style="mix-blend-mode:screen">
        <path d="M47.6001 41.1999C49.0001 41.9332 50.4 42.6666 51.8 43.3999C50.4667 42.5332 49.1334 41.6666 47.8 40.7999L47.6001 40.3999C48.5334 37.7332 49.2667 35.0332 49.8 32.2999L50.1001 31.9999C51.4334 31.9332 52.8001 31.8666 54.2001 31.7999C52.8001 31.7332 51.4334 31.6666 50.1001 31.5999L49.8 31.2999C49.6 30.6332 49.3667 29.9999 49.1001 29.3999C49.3001 30.1999 49.5001 31.0999 49.5001 31.7999C49.4001 33.1999 48.9001 34.9999 48.6001 36.2999C48.2001 37.5999 47.8001 39.3999 47.2001 40.6999C46.3001 41.7999 45.0001 43.0999 44.1001 44.0999C43.1001 44.9999 41.8001 46.2999 40.7001 47.1999C39.7001 47.5999 38.5 47.9999 37.3 48.2999C38.4 48.0999 39.4 47.8999 40.4 47.5999L40.8 47.7999C41.4667 48.8666 42.1667 49.9666 42.9 51.0999C42.3 49.8999 41.7001 48.6999 41.1001 47.4999L41.2001 47.0999C43.3001 45.3999 45.2001 43.4999 47.1001 41.2999L47.6001 41.1999Z" fill="#FFC7D7"/>
    </g>
    <path style="mix-blend-mode:screen" d="M16.4 40.6999L31.8 31.7999L16.4 22.8999C15.8 24.1999 15.3 25.9999 15 27.2999C14.6 28.5999 14.2 30.3999 14 31.7999C14.2 33.1999 14.6 34.9999 15 36.2999C15.3 37.5999 15.8 39.3999 16.4 40.6999Z" fill="url(#paint28_radial_16_4650)"/>
    <path style="mix-blend-mode:screen" d="M16.4 22.9L31.8 31.8V14C30.4 14.2 28.6 14.6 27.3 15C26 15.3 24.2 15.8 22.9 16.4C21.7 17.2 20.4 18.5 19.5 19.5C18.5 20.4 17.2 21.7 16.4 22.9Z" fill="url(#paint29_radial_16_4650)"/>
    <path style="mix-blend-mode:screen" d="M31.8 14V31.8L47.2001 22.9C46.3001 21.7 45.0001 20.4 44.1001 19.5C43.1001 18.5 41.8001 17.2 40.7001 16.4C39.4001 15.8 37.6 15.3 36.3 15C35 14.6 33.2 14.2 31.8 14Z" fill="url(#paint30_radial_16_4650)"/>
    <path style="mix-blend-mode:screen" d="M47.2001 22.8999L31.8 31.7999L47.2001 40.6999C47.8001 39.3999 48.2001 37.5999 48.6001 36.2999C48.9001 34.9999 49.4001 33.1999 49.5001 31.7999C49.4001 30.3999 48.9001 28.5999 48.6001 27.2999C48.2001 25.9999 47.8001 24.1999 47.2001 22.8999Z" fill="url(#paint31_radial_16_4650)"/>
    <path style="mix-blend-mode:screen" d="M47.2001 40.6998L31.8 31.7998V49.5998C33.2 49.3998 35 48.8998 36.3 48.5998C37.6 48.1998 39.4001 47.7998 40.7001 47.1998C41.8001 46.2998 43.1001 44.9998 44.1001 44.0998C45.0001 43.0998 46.3001 41.7998 47.2001 40.6998Z" fill="url(#paint32_radial_16_4650)"/>
    <path style="mix-blend-mode:screen" d="M31.8 49.5998V31.7998L16.4 40.6998C17.2 41.7998 18.5 43.0998 19.5 44.0998C20.4 44.9998 21.7 46.2998 22.9 47.1998C24.2 47.7998 26 48.1998 27.3 48.5998C28.6 48.8998 30.4 49.3998 31.8 49.5998Z" fill="url(#paint33_radial_16_4650)"/>
    <path style="mix-blend-mode:screen" d="M31.8 14C30.4 14.2 28.8 14.6 27.5 14.9L14.9 27.5C14.6 28.8 14.2 30.4 14 31.8C14.2 33.2 14.6 35 15 36.3C15.3 37.6 15.8 39.4 16.4 40.7C16.6667 41.0333 16.9667 41.4 17.3 41.8L41.8 17.3C41.4 16.9667 41.0333 16.6667 40.7 16.4C39.4 15.8 37.6 15.3 36.3 15C35 14.6 33.2 14.2 31.8 14Z" fill="url(#paint34_radial_16_4650)"/>
    <path style="mix-blend-mode:screen" d="M48.0001 25.1997L25.2001 47.9997C25.9001 48.1997 26.7001 48.3997 27.3001 48.5997C28.3001 48.8997 29.6001 49.1997 30.8001 49.3997L49.4001 30.7997C49.2001 29.5997 48.9001 28.2997 48.6001 27.2997C48.4001 26.6997 48.2001 25.8997 48.0001 25.1997Z" fill="url(#paint35_radial_16_4650)"/>
    <path style="mix-blend-mode:screen" d="M31.8 8.3999C30.5 8.3999 28.3 8.8999 25.8 9.4999C23.3 10.1999 21.2001 10.8999 20.1001 11.4999C19.0001 12.1999 17.3001 13.6999 15.5001 15.4999C13.7001 17.2999 12.2001 18.9999 11.5001 20.0999C10.9001 21.1999 10.2001 23.2999 9.50005 25.7999C8.80005 28.2999 8.40005 30.4999 8.30005 31.7999C8.40005 32.9999 8.80005 35.2999 9.50005 37.7999C10.2001 40.1999 10.9001 42.3999 11.5001 43.4999C12.2001 44.4999 13.7001 46.2999 15.5001 48.0999C17.3001 49.8999 19.0001 51.3999 20.1001 52.0999C21.2001 52.5999 23.3 53.3999 25.8 54.0999C28.3 54.6999 30.5 55.0999 31.8 55.1999C33 55.0999 35.3001 54.6999 37.7001 54.0999C40.2001 53.3999 42.4001 52.5999 43.5001 52.0999C44.5001 51.3999 46.3001 49.8999 48.1001 48.0999C49.9001 46.2999 51.4001 44.4999 52.1001 43.4999C52.6001 42.3999 53.4001 40.1999 54.0001 37.7999C54.7001 35.2999 55.1001 32.9999 55.2001 31.7999C55.1001 30.4999 54.7001 28.2999 54.0001 25.7999C53.4001 23.2999 52.6001 21.1999 52.1001 20.0999C51.4001 18.9999 49.9001 17.2999 48.1001 15.4999C46.3001 13.6999 44.5001 12.1999 43.5001 11.4999C42.4001 10.8999 40.2001 10.1999 37.7001 9.4999C35.3001 8.8999 33 8.3999 31.8 8.3999Z" fill="url(#paint36_radial_16_4650)"/>
    <path style="mix-blend-mode:screen" d="M21.4001 22.6999C21.4001 25.6999 19.0001 28.0999 16.1001 28.0999C13.1001 28.0999 10.7001 25.6999 10.7001 22.6999C10.7001 19.7999 13.1001 17.3999 16.1001 17.3999C19.0001 17.3999 21.4001 19.7999 21.4001 22.6999Z" fill="url(#paint37_radial_16_4650)"/>
    <g style="mix-blend-mode:multiply">
        <path d="M20.1001 39.6999L24.6001 44.1999L31.8001 37.0999L38.9001 44.1999L43.4001 39.6999L36.3001 32.5999L43.4001 25.3999L38.9001 20.8999L31.8001 28.0999L24.6001 20.8999L20.1001 25.3999L27.3001 32.5999L20.1001 39.6999Z" fill="#841E2A"/>
    </g>
    <path d="M20.1001 38.9001L24.6001 43.4001L31.8001 36.3001L38.9001 43.4001L43.4001 38.9001L36.3001 31.8001L43.4001 24.6001L38.9001 20.1001L31.8001 27.3001L24.6001 20.1001L20.1001 24.6001L27.3001 31.8001L20.1001 38.9001Z" fill="url(#paint38_linear_16_4650)"/>
    <defs>
        <linearGradient id="paint0_linear_16_4650" x1="0" y1="63.6" x2="0" y2="0" gradientUnits="userSpaceOnUse">
            <stop stop-color="#DE8B00"/>
            <stop offset="1" stop-color="#FFC75E"/>
        </linearGradient>
        <radialGradient id="paint1_radial_16_4650" cx="0" cy="0" r="1" gradientUnits="userSpaceOnUse" gradientTransform="translate(18.4 9.4002) scale(52.9 52.9)">
            <stop stop-color="#FFEEB8"/>
            <stop offset="1" stop-color="#FFBF00"/>
        </radialGradient>
        <linearGradient id="paint2_linear_16_4650" x1="0" y1="63.6" x2="0" y2="0" gradientUnits="userSpaceOnUse">
            <stop stop-color="#CF8000"/>
            <stop offset="1" stop-color="#F5B133"/>
        </linearGradient>
        <linearGradient id="paint3_linear_16_4650" x1="24" y1="31.7998" x2="24" y2="0.799805" gradientUnits="userSpaceOnUse">
            <stop stop-color="#FFB805"/>
            <stop offset="1" stop-color="#FFE89C"/>
        </linearGradient>
        <radialGradient id="paint4_radial_16_4650" cx="0" cy="0" r="1" gradientUnits="userSpaceOnUse" gradientTransform="translate(20.4 5.1002) scale(51.6)">
            <stop stop-color="#FFFD9E"/>
            <stop offset="1"/>
        </radialGradient>
        <radialGradient id="paint5_radial_16_4650" cx="0" cy="0" r="1" gradientUnits="userSpaceOnUse" gradientTransform="translate(35.1 19.5) scale(39.9 39.9)">
            <stop stop-color="#FFFD9E"/>
            <stop offset="1"/>
        </radialGradient>
        <linearGradient id="paint6_linear_16_4650" x1="7.19995" y1="56.3002" x2="7.19995" y2="7.2002" gradientUnits="userSpaceOnUse">
            <stop stop-color="#D68329"/>
            <stop offset="1" stop-color="#B86A43"/>
        </linearGradient>
        <radialGradient id="paint7_radial_16_4650" cx="0" cy="0" r="1" gradientUnits="userSpaceOnUse" gradientTransform="translate(24.5 13.6) scale(36.1 36.1)">
            <stop stop-color="#F2748C"/>
            <stop offset="1" stop-color="#DE003D"/>
        </radialGradient>
        <radialGradient id="paint8_radial_16_4650" cx="0" cy="0" r="1" gradientUnits="userSpaceOnUse" gradientTransform="translate(21 12.5) scale(36 36)">
            <stop stop-color="#F29EA1"/>
            <stop offset="1" stop-color="#F25B80"/>
        </radialGradient>
        <radialGradient id="paint9_radial_16_4650" cx="0" cy="0" r="1" gradientUnits="userSpaceOnUse" gradientTransform="translate(22.4001 3.9999) scale(21.8 21.8)">
            <stop stop-color="#F2909A"/>
            <stop offset="1" stop-color="#F22062"/>
        </radialGradient>
        <radialGradient id="paint10_radial_16_4650" cx="0" cy="0" r="1" gradientUnits="userSpaceOnUse" gradientTransform="translate(32 23.0997) scale(32 32)">
            <stop stop-color="#F29EA1"/>
            <stop offset="1" stop-color="#F25B80"/>
        </radialGradient>
        <radialGradient id="paint11_radial_16_4650" cx="0" cy="0" r="1" gradientUnits="userSpaceOnUse" gradientTransform="translate(52.0001 62.0997) scale(25.2)">
            <stop stop-color="#F2909A"/>
            <stop offset="1" stop-color="#F22062"/>
        </radialGradient>
        <radialGradient id="paint12_radial_16_4650" cx="0" cy="0" r="1" gradientUnits="userSpaceOnUse" gradientTransform="translate(30.8001 30.3998) scale(27.7 27.7)">
            <stop stop-color="#F2909A"/>
            <stop offset="1" stop-color="#F22062"/>
        </radialGradient>
        <radialGradient id="paint13_radial_16_4650" cx="0" cy="0" r="1" gradientUnits="userSpaceOnUse" gradientTransform="translate(14.9001 35.9001) scale(41.1 41.1)">
            <stop stop-color="#F2909A"/>
            <stop offset="1" stop-color="#F22062"/>
        </radialGradient>
        <radialGradient id="paint14_radial_16_4650" cx="0" cy="0" r="1" gradientUnits="userSpaceOnUse" gradientTransform="translate(22.9001 34.9) scale(42.9 42.9)">
            <stop stop-color="#F2748C"/>
            <stop offset="1" stop-color="#DE003D"/>
        </radialGradient>
        <radialGradient id="paint15_radial_16_4650" cx="0" cy="0" r="1" gradientUnits="userSpaceOnUse" gradientTransform="translate(32 28.7999) scale(22.2 22.2)">
            <stop stop-color="#F2748C"/>
            <stop offset="1" stop-color="#DE003D"/>
        </radialGradient>
        <radialGradient id="paint16_radial_16_4650" cx="0" cy="0" r="1" gradientUnits="userSpaceOnUse" gradientTransform="translate(35.5001 40.0997) scale(22.2 22.2)">
            <stop stop-color="#F2748C"/>
            <stop offset="1" stop-color="#D60027"/>
        </radialGradient>
        <radialGradient id="paint17_radial_16_4650" cx="0" cy="0" r="1" gradientUnits="userSpaceOnUse" gradientTransform="translate(4.3 59.3997) scale(22.6 22.6)">
            <stop stop-color="#F2748C"/>
            <stop offset="1" stop-color="#DE003D"/>
        </radialGradient>
        <radialGradient id="paint18_radial_16_4650" cx="0" cy="0" r="1" gradientUnits="userSpaceOnUse" gradientTransform="translate(-4.99995 42.6998) scale(27.4 27.4)">
            <stop stop-color="#F2748C"/>
            <stop offset="1" stop-color="#DE003D"/>
        </radialGradient>
        <radialGradient id="paint19_radial_16_4650" cx="0" cy="0" r="1" gradientUnits="userSpaceOnUse" gradientTransform="translate(-0.49995 13.3001) scale(24.2 24.2)">
            <stop stop-color="#F2909A"/>
            <stop offset="1" stop-color="#F22062"/>
        </radialGradient>
        <radialGradient id="paint20_radial_16_4650" cx="0" cy="0" r="1" gradientUnits="userSpaceOnUse" gradientTransform="translate(24.4 17.5) scale(15.4 15.4)">
            <stop stop-color="#F24C7C"/>
            <stop offset="1"/>
        </radialGradient>
        <radialGradient id="paint21_radial_16_4650" cx="0" cy="0" r="1" gradientUnits="userSpaceOnUse" gradientTransform="translate(18.2 22.9001) scale(16.7 16.7)">
            <stop stop-color="#F24C7C"/>
            <stop offset="1"/>
        </radialGradient>
        <radialGradient id="paint22_radial_16_4650" cx="0" cy="0" r="1" gradientUnits="userSpaceOnUse" gradientTransform="translate(12.9 30.4998) scale(14.1)">
            <stop stop-color="#F24C7C"/>
            <stop offset="1"/>
        </radialGradient>
        <radialGradient id="paint23_radial_16_4650" cx="0" cy="0" r="1" gradientUnits="userSpaceOnUse" gradientTransform="translate(45.3001 40.0997) scale(10.1)">
            <stop stop-color="#F24C7C"/>
            <stop offset="1"/>
        </radialGradient>
        <radialGradient id="paint24_radial_16_4650" cx="0" cy="0" r="1" gradientUnits="userSpaceOnUse" gradientTransform="translate(49.4001 31.8998) scale(10.7)">
            <stop stop-color="#F24C7C"/>
            <stop offset="1"/>
        </radialGradient>
        <radialGradient id="paint25_radial_16_4650" cx="0" cy="0" r="1" gradientUnits="userSpaceOnUse" gradientTransform="translate(49.0001 32.8999) scale(14 14)">
            <stop stop-color="#F24C7C"/>
            <stop offset="1"/>
        </radialGradient>
        <radialGradient id="paint26_radial_16_4650" cx="0" cy="0" r="1" gradientUnits="userSpaceOnUse" gradientTransform="translate(22.0001 18) scale(8.2 8.2)">
            <stop stop-color="#F24C7C"/>
            <stop offset="1"/>
        </radialGradient>
        <radialGradient id="paint27_radial_16_4650" cx="0" cy="0" r="1" gradientUnits="userSpaceOnUse" gradientTransform="translate(41.2001 42.5997) scale(9.3 9.3)">
            <stop stop-color="#F24C7C"/>
            <stop offset="1"/>
        </radialGradient>
        <radialGradient id="paint28_radial_16_4650" cx="0" cy="0" r="1" gradientUnits="userSpaceOnUse" gradientTransform="translate(9.6 27.2999) scale(34.6 34.6)">
            <stop stop-color="#F24C7C"/>
            <stop offset="1"/>
        </radialGradient>
        <radialGradient id="paint29_radial_16_4650" cx="0" cy="0" r="1" gradientUnits="userSpaceOnUse" gradientTransform="translate(25.4 11.6) scale(26.1 26.1)">
            <stop stop-color="#F24C7C"/>
            <stop offset="1"/>
        </radialGradient>
        <radialGradient id="paint30_radial_16_4650" cx="0" cy="0" r="1" gradientUnits="userSpaceOnUse" gradientTransform="translate(55.9 -7) scale(71.3 71.3)">
            <stop stop-color="#F24C7C"/>
            <stop offset="1"/>
        </radialGradient>
        <radialGradient id="paint31_radial_16_4650" cx="0" cy="0" r="1" gradientUnits="userSpaceOnUse" gradientTransform="translate(49.5001 14.2999) scale(27.8 27.8)">
            <stop stop-color="#F24C7C"/>
            <stop offset="1"/>
        </radialGradient>
        <radialGradient id="paint32_radial_16_4650" cx="0" cy="0" r="1" gradientUnits="userSpaceOnUse" gradientTransform="translate(52.3 60.1998) scale(34.9 34.9)">
            <stop stop-color="#F24C7C"/>
            <stop offset="1"/>
        </radialGradient>
        <radialGradient id="paint33_radial_16_4650" cx="0" cy="0" r="1" gradientUnits="userSpaceOnUse" gradientTransform="translate(20.7 57.2998) scale(35.9 35.9)">
            <stop stop-color="#F24C7C"/>
            <stop offset="1"/>
        </radialGradient>
        <radialGradient id="paint34_radial_16_4650" cx="0" cy="0" r="1" gradientUnits="userSpaceOnUse" gradientTransform="translate(27.4 -11.4) scale(59.9 59.9)">
            <stop stop-color="#F24C7C"/>
            <stop offset="1"/>
        </radialGradient>
        <radialGradient id="paint35_radial_16_4650" cx="0" cy="0" r="1" gradientUnits="userSpaceOnUse" gradientTransform="translate(36.8001 -0.900298) scale(52.2 52.2)">
            <stop stop-color="#F24C7C"/>
            <stop offset="1"/>
        </radialGradient>
        <radialGradient id="paint36_radial_16_4650" cx="0" cy="0" r="1" gradientUnits="userSpaceOnUse" gradientTransform="translate(14.3 8.5999) scale(37.3 37.3)">
            <stop stop-color="#FF80A5"/>
            <stop offset="1"/>
        </radialGradient>
        <radialGradient id="paint37_radial_16_4650" cx="0" cy="0" r="1" gradientUnits="userSpaceOnUse" gradientTransform="translate(16.1001 22.6999) scale(5.3 5.3)">
            <stop stop-color="white"/>
            <stop offset="0.271" stop-color="#FF99D6"/>
            <stop offset="0.892"/>
        </radialGradient>
        <linearGradient id="paint38_linear_16_4650" x1="20.1001" y1="43.4001" x2="20.1001" y2="20.1001" gradientUnits="userSpaceOnUse">
            <stop stop-color="#FFECBA"/>
            <stop offset="1" stop-color="white"/>
        </linearGradient>
    </defs>
</svg>
