<svg width="346" height="239" viewBox="0 0 346 239" fill="none" xmlns="http://www.w3.org/2000/svg">
<path d="M7.69434 114.7C10.3337 122.9 13.4389 133.7 14.6809 139.3C12.8178 158.3 9.40217 177.6 9.24691 196.7C10.0232 201.8 12.6626 208.5 13.5941 210.4C13.1283 216.1 12.8178 225.4 13.1283 229.1C13.5941 229.6 14.3704 230.5 15.1467 231.2C42.0062 231 62.5001 229.8 89.2044 230.9C99.9171 229.8 122.119 228.4 132.987 228.3C162.486 230.7 182.98 232.3 214.342 232.1C236.854 230.8 263.714 228.6 285.915 227.3C302.683 228.7 317.588 229.3 333.89 229C334.356 228.5 334.977 227.9 335.442 227.4C331.406 208.5 334.977 188.9 336.84 169.9C333.579 153.1 334.356 127.6 335.753 110.6C337.15 104.9 337.461 102.9 337.616 97.2999C335.753 84.5999 333.735 68.6999 331.561 55.9999C333.114 44.8999 334.821 36.6999 334.821 25.5999C333.424 24.3999 331.716 23.1999 330.164 22.1999C318.985 18.3999 307.03 15.1999 293.523 12.5999C268.371 11.0999 234.836 10.3999 209.529 11.1999C196.021 9.19989 184.843 8.2999 169.472 7.8999C148.668 9.6999 132.676 10.1999 109.077 10.8999C80.6653 16.3999 44.6455 18.1999 14.2151 20.5999C12.559 21.8666 11.0582 23.1999 9.71266 24.5999C10.1784 36.2999 12.1968 49.8999 14.0599 59.9999C11.4205 78.1999 9.55742 96.6999 7.69434 114.7Z" fill="#959595"/>
<path opacity="0.5" d="M9.71289 24.5998C11.0585 23.1998 12.5593 21.8665 14.2153 20.5998L10.0234 14.7998C5.98674 17.3998 2.7263 20.2998 0.242188 23.3998L9.71289 24.5998Z" fill="url(#paint0_radial_323_288)"/>
<path d="M14.2154 20.6C44.6458 18.2 80.6655 16.4 109.078 10.9L100.538 3C70.7291 7.5 40.4539 11.4 10.0234 14.8L14.2154 20.6Z" fill="url(#paint1_radial_323_288)"/>
<path d="M109.077 10.9C132.676 10.2 148.668 9.69999 169.472 7.89999L173.354 0C149.237 1.26667 124.965 2.26667 100.538 3L109.077 10.9Z" fill="url(#paint2_radial_323_288)"/>
<path d="M169.473 7.89999C184.843 8.29999 196.022 9.19998 209.529 11.2L215.429 4.79999C201.145 3.49999 187.017 1.9 173.354 0L169.473 7.89999Z" fill="url(#paint3_radial_323_288)"/>
<path d="M215.429 4.7998L209.529 11.1998C234.836 10.3998 268.371 11.0998 293.523 12.5998L292.747 7.1998C267.129 5.5998 241.357 4.8998 215.429 4.7998Z" fill="url(#paint4_radial_323_288)"/>
<path d="M293.523 12.6002C307.031 15.2002 318.986 18.4002 330.164 22.2002L335.598 16.0002C321.314 13.2669 307.031 10.3335 292.747 7.2002L293.523 12.6002Z" fill="url(#paint5_radial_323_288)"/>
<path d="M335.598 16L330.164 22.2C331.717 23.2 333.424 24.4 334.822 25.6L345.535 23.3C343.05 20.9 339.324 18.2 335.598 16Z" fill="url(#paint6_radial_323_288)"/>
<path d="M345.534 23.2998L334.821 25.5998C334.821 36.6998 333.114 44.8998 331.561 55.9998L342.74 59.1998C344.447 47.1998 345.689 34.9998 345.534 23.2998Z" fill="url(#paint7_radial_323_288)"/>
<path d="M342.74 59.2L331.561 56C333.735 68.7 335.753 84.6 337.616 97.3L345.689 96.9C343.826 83.7 342.74 72.4 342.74 59.2Z" fill="url(#paint8_radial_323_288)"/>
<path d="M345.689 96.8999L337.616 97.2999C337.461 102.9 337.15 104.9 335.753 110.6L343.516 114.6C344.913 109 345.689 103.5 345.689 96.8999Z" fill="url(#paint9_radial_323_288)"/>
<path d="M343.516 114.6L335.753 110.6C334.356 127.6 333.579 153.1 336.84 169.9L346 163.9C343.982 147.5 342.895 131 343.516 114.6Z" fill="url(#paint10_radial_323_288)"/>
<path d="M346 163.9L336.84 169.9C334.977 188.9 331.406 208.5 335.443 227.4L345.534 229.2C344.137 223.7 343.516 218.1 343.826 212.6C343.671 195.7 344.292 180.8 346 163.9Z" fill="url(#paint11_radial_323_288)"/>
<path d="M345.534 229.2L335.443 227.4C334.977 227.9 334.356 228.5 333.89 229L337.306 236.9C339.945 236.5 345.224 230.8 345.534 229.2Z" fill="url(#paint12_radial_323_288)"/>
<path d="M337.306 236.9L333.89 229C317.588 229.3 302.683 228.7 285.916 227.3L290.263 235.8C306.254 236.7 326.438 237.3 337.306 236.9Z" fill="url(#paint13_radial_323_288)"/>
<path d="M290.263 235.8L285.915 227.3C263.714 228.6 236.854 230.8 214.342 232.1L222.726 238C244.927 236.6 267.129 235.6 289.176 235.7C289.59 235.7 289.952 235.733 290.263 235.8Z" fill="url(#paint14_radial_323_288)"/>
<path d="M222.726 238L214.342 232.1C182.98 232.3 162.486 230.7 132.987 228.3L127.864 236C158.915 237.4 190.432 238.2 222.726 238Z" fill="url(#paint15_radial_323_288)"/>
<path d="M127.863 236L132.987 228.3C122.119 228.4 99.9169 229.8 89.2041 230.9L96.8117 238.3C107.214 237.2 117.461 236 127.863 236Z" fill="url(#paint16_radial_323_288)"/>
<path d="M96.8119 238.3L89.2043 230.9C62.5 229.8 42.0061 231 15.1466 231.2L11.731 236.9C40.9193 236.7 69.3314 237.1 96.8119 238.3Z" fill="url(#paint17_radial_323_288)"/>
<path d="M11.7311 236.9L15.1467 231.2C14.3705 230.5 13.5942 229.6 13.1284 229.1L3.50244 229.3C3.81296 231.1 8.93647 236.1 11.7311 236.9Z" fill="url(#paint18_radial_323_288)"/>
<path d="M3.50222 229.3L13.1282 229.1C12.8177 225.4 13.1282 216.1 13.5939 210.4L2.26018 210.2C1.79441 216.5 2.26016 224.6 3.50222 229.3Z" fill="url(#paint19_radial_323_288)"/>
<path d="M2.26056 210.2L13.5943 210.4C12.6628 208.5 10.0234 201.8 9.24714 196.7L0.242188 197C1.32899 201.3 2.26056 205.7 2.26056 210.2Z" fill="url(#paint20_radial_323_288)"/>
<path d="M0.242188 197L9.24714 196.7C9.4024 177.6 12.8181 158.3 14.6811 139.3L3.03685 139.2C1.0185 159.4 0.242188 177.3 0.242188 197Z" fill="url(#paint21_radial_323_288)"/>
<path d="M3.03679 139.2L14.6811 139.3C13.439 133.7 10.3339 122.9 7.69451 114.7L0.0869141 117.3C1.79474 124.6 2.57102 131.9 3.03679 139.2Z" fill="url(#paint22_radial_323_288)"/>
<path d="M0.0867907 117.3L7.69439 114.7C9.55748 96.7 11.4206 78.2 14.0599 60L2.41565 60.1C0.242048 79.8 -0.223724 97.6 0.0867907 117.3Z" fill="url(#paint23_radial_323_288)"/>
<path d="M2.41574 60.0999L14.06 59.9999C12.197 49.8999 10.1786 36.2999 9.71281 24.5999L0.242103 23.3999C0.0868455 35.5999 0.552655 47.8999 2.41574 60.0999Z" fill="url(#paint24_radial_323_288)"/>
<path d="M109.078 10.9002C80.6655 16.4002 44.6458 18.2002 14.2153 20.6002C12.5593 21.8668 11.0585 23.2002 9.71289 24.6002C10.1787 35.6002 12.0418 48.3002 13.7496 58.2002C13.8531 58.6002 14.1636 58.9002 14.6811 59.1002C15.1987 59.3668 15.768 59.4669 16.389 59.4002C17.01 59.3002 17.7863 59.1002 18.5626 58.9002C32.8462 56.0002 46.9746 52.8002 60.7925 48.8002C75.3867 47.6002 89.6704 45.2669 103.644 41.8002C114.046 37.1002 124.914 33.5002 136.092 30.8002C143.7 25.6002 152.705 20.7002 162.331 16.1002C164.039 14.3002 166.523 12.3002 166.523 10.6002C166.523 10.0002 166.161 9.46687 165.436 9.0002C164.711 8.53353 163.832 8.33353 162.797 8.4002C145.097 9.9002 130.037 10.3002 109.078 10.9002Z" fill="url(#paint25_radial_323_288)"/>
<path d="M131.745 34.1001C122.585 36.1001 114.356 38.8001 106.593 41.9001C106.128 42.5001 105.972 42.9001 106.128 43.2001C106.438 43.9001 122.895 50.9001 125.069 51.9001C127.708 54.7001 131.59 56.9001 136.713 59.2001C138.887 60.2001 138.732 59.7001 138.576 58.1001C138.421 56.7001 137.334 50.1001 136.868 44.3001C136.558 41.1001 136.403 37.9001 136.403 35.9001C136.247 34.4001 135.937 33.4001 131.745 34.1001Z" fill="url(#paint26_radial_323_288)"/>
<path d="M166.678 16.8001C171.18 17.3001 194.935 15.2001 204.56 13.1001C207.821 12.3001 209.373 11.1001 205.026 10.7001C195.556 9.7001 186.861 8.7001 176.925 8.1001C176.511 8.1001 176.148 8.1001 175.838 8.1001C174.285 8.1001 173.198 8.2001 172.267 8.7001C169.472 9.9001 168.385 12.3001 166.367 14.7001C165.746 15.5001 164.504 16.5001 166.678 16.8001Z" fill="url(#paint27_radial_323_288)"/>
<path d="M210.461 12.1002C200.214 15.3002 188.414 16.4002 176.925 17.4002C172.888 17.7002 169.007 17.7002 164.815 18.1002C161.71 18.5002 159.381 19.2002 156.741 20.4002C150.065 23.6002 144.321 27.2002 139.197 31.0002C137.179 32.6002 137.334 33.3002 137.334 35.3002C137.49 42.4002 138.732 50.4002 139.663 57.4002C139.818 59.4002 140.129 60.2002 140.905 62.2002C139.974 66.1002 139.508 69.8002 139.042 73.8002C138.576 77.1002 138.732 80.6002 139.042 83.2002C139.353 85.0002 139.818 86.2002 140.284 86.6002C141.526 87.5002 142.147 88.3002 145.097 88.8002C166.057 92.6002 202.232 94.4002 231.731 94.9002C235.923 94.9002 237.631 94.5002 241.512 93.5002C255.796 89.7002 281.879 80.2002 291.505 76.0002C307.341 64.4002 323.333 58.3002 329.543 55.5002C330.785 55.0002 331.251 53.9002 332.027 52.5002C332.648 48.7002 333.114 45.2002 333.58 41.8002C333.58 41.6669 333.631 41.5335 333.735 41.4002C334.045 39.2002 333.89 38.9002 330.63 37.8002C326.282 36.4002 322.246 34.8002 318.209 33.2002C309.98 27.4002 302.373 21.3002 295.231 15.1002C292.436 12.8002 292.126 12.5002 287.313 12.3002C264.335 11.1002 235.923 10.6002 213.255 11.1002C212.324 11.4335 211.392 11.7669 210.461 12.1002Z" fill="url(#paint28_radial_323_288)"/>
<path d="M296.939 15.2999C303.615 21.2999 310.601 27.1999 318.675 32.6999C320.538 33.4999 331.251 37.4 333.114 37C333.735 36.9 334.201 36.4999 334.356 35.3999C334.666 32.2999 334.822 29.0999 334.822 25.5999C333.424 24.3999 331.716 23.1999 330.164 22.1999C320.383 18.8999 309.98 15.9999 298.491 13.5999C294.765 12.7999 294.61 13.2999 296.939 15.2999Z" fill="url(#paint29_radial_323_288)"/>
<path d="M138.887 64.1998C139.042 62.5998 138.11 61.0998 136.092 59.9998C131.434 57.4998 127.398 54.9998 123.982 52.5998C119.48 50.2998 111.096 46.1998 103.954 44.4998C101.78 43.8998 99.6067 43.8998 97.4331 44.2998C85.6336 46.5998 73.6787 48.3998 61.5686 49.6998C48.0613 53.8998 33.6223 56.9998 18.8729 59.6998C17.6308 59.9998 16.6993 60.1998 15.7677 60.5998C14.5257 60.9998 13.9047 61.7998 13.7494 62.5998C11.4205 78.6998 9.71271 95.0998 8.16014 111.1C8.16014 111.166 8.16014 111.266 8.16014 111.4C8.00488 112.3 7.84963 114.1 8.3154 114.3C9.4022 115 11.8863 114.2 14.681 113.6C37.038 109.3 59.2398 105.9 81.5969 104.1C97.1226 98.2998 113.58 93.6998 130.503 89.6998C135.316 88.5998 135.937 87.9998 136.558 84.5998C137.024 81.9998 137.334 77.8998 137.8 73.6998C138.111 70.2998 138.576 66.8998 138.887 64.1998Z" fill="url(#paint30_radial_323_288)"/>
<path d="M78.4916 105.8C57.3766 107.8 36.2616 111 14.8361 114.5C12.6625 114.9 11.1099 115 10.0231 115.3C8.16002 115.8 8.31528 116.5 8.6258 117.6C10.7994 124.2 12.8177 131.9 14.0598 137C14.1633 137.066 14.215 137.133 14.215 137.2C14.3703 138.1 14.5255 138.7 15.7676 139.3C16.3886 139.7 17.3202 140 18.7175 140.6C26.0664 143.466 33.4152 146.333 40.7641 149.2C42.7824 150 44.335 150.2 45.4218 149.4C57.0661 140.9 80.0441 109 79.7336 107C79.5784 106.6 79.2679 106.2 78.4916 105.8Z" fill="url(#paint31_radial_323_288)"/>
<path d="M87.0306 103.9C76.0074 114.4 73.5233 120.3 64.8289 130.2C58.1528 137.9 53.495 144 47.2847 149.9C45.7321 151.3 48.8373 154.3 50.0794 155.4C57.687 161.3 66.5366 166.7 76.6284 171.5C120.514 179.967 163.003 189.5 204.095 200.1C217.033 200.233 230.023 200.367 243.064 200.5C249.74 200.5 251.138 199.7 257.348 197.7C276.134 191.8 309.825 179.5 320.072 175.9C325.661 173.9 331.561 171 332.648 170.3C335.753 168 334.045 166 332.803 163.3C327.524 151.7 317.898 137.3 307.962 129.1C306.72 126 305.012 118.1 303.149 114.3C301.907 111.9 300.975 111.5 297.404 110.8C277.221 107 257.503 101.9 238.406 95.9C205.492 95.6 171.18 93.7 139.042 90C118.548 94.1 102.556 98.8 86.7201 104C86.8236 104 86.9271 103.967 87.0306 103.9Z" fill="url(#paint32_radial_323_288)"/>
<path d="M244.928 93.1C239.183 94.7 240.27 95.4 244.462 96.6C263.093 102.1 282.344 107 302.683 110.8C308.583 111.2 331.406 111.7 334.511 110.6C335.132 110.4 335.598 110.3 335.908 110.1C337.15 104.8 337.461 102.8 337.616 97.3C335.908 85.8 334.2 71.6 332.182 59.6C330.94 58.5 330.008 58.1 329.077 58C325.817 57.5 301.286 69.1 292.281 76.7C278.153 82.7 261.851 88.6 244.928 93.1Z" fill="url(#paint33_radial_323_288)"/>
<path d="M304.546 113.3C304.391 114.6 309.359 126.1 310.135 128.2C318.83 137.4 326.127 146.9 331.095 157.2C331.716 158.5 334.2 165.1 335.753 165.4C335.908 165.5 336.063 164.9 336.063 164.6C333.89 149.1 334.511 128.8 335.598 113.7C335.598 113.3 335.598 112.2 335.442 112C335.287 111.7 333.579 111.7 332.958 111.7C330.474 111.6 325.661 111.9 321.78 112C317.122 112 312.154 111.9 307.962 111.8C306.099 111.8 304.857 111.6 304.546 113.3Z" fill="url(#paint34_radial_323_288)"/>
<path d="M69.0211 169.3C58.9294 163.5 50.3903 157.7 43.8695 151.6C40.6091 150.4 22.7545 142 16.2336 140.7C15.7679 140.7 15.1469 140.5 14.8363 140.7C14.6293 140.767 14.5258 140.9 14.5258 141.1C14.4223 141.234 14.3705 141.4 14.3705 141.6C12.5075 159.8 9.40233 178.4 9.24707 196.7C9.8681 200.4 11.4207 204.9 12.5075 207.9C13.5943 210.9 16.3889 208.4 18.0967 207.3C20.8913 205.3 30.3621 198.2 41.2301 191.6C52.5639 184.8 64.8292 178.2 70.4184 175.2C75.0762 172.6 73.5235 171.9 69.0211 169.3Z" fill="url(#paint35_radial_323_288)"/>
<path d="M92.4647 176.1C81.4415 173.9 78.0258 174.2 71.9708 176.8C63.4316 180.2 52.2531 185.9 42.0061 192C30.3618 199 19.649 206.2 14.9913 210.7C14.3703 211.4 13.4388 211.9 13.2835 213.9C12.973 219.3 12.8177 226.1 13.1282 229.1C13.594 229.6 14.3703 230.5 15.1466 231.2C39.3667 231 58.4633 230 81.7519 230.6C84.2361 230.667 86.7202 230.767 89.2043 230.9C99.917 229.8 122.119 228.4 132.987 228.3C162.486 230.7 182.98 232.3 214.342 232.1C236.854 230.8 263.713 228.6 285.915 227.3C283.121 225.9 282.034 225.3 278.773 222.8C273.961 219 265.266 212.3 257.348 206.8C249.43 201.3 247.411 201.5 239.804 201.4C227.849 201.2 215.584 201.4 203.629 202.3C169.317 192.4 130.503 183.6 92.4647 176.1Z" fill="url(#paint36_radial_323_288)"/>
<path d="M254.398 199.7C251.449 200.9 253.156 202.2 254.864 203.4C265.215 211.4 275.565 219.367 285.916 227.3C290.056 227.633 294.092 227.933 298.026 228.2C310.136 229 321.625 229.3 333.89 229C334.356 228.5 334.977 227.9 335.443 227.4C331.717 210 334.356 192.2 336.374 174.7C336.064 174 335.598 173.6 334.511 173.3C331.872 172.5 322.867 176.1 318.054 177.8C298.026 185 277.998 191.3 257.969 198.4C256.417 199 255.33 199.3 254.398 199.7Z" fill="url(#paint37_radial_323_288)"/>
<path opacity="0.3" fill-rule="evenodd" clip-rule="evenodd" d="M92.6203 227C88.5836 227.5 89.3599 228.7 89.2046 230.5C88.5836 228.8 88.5836 227.3 84.8574 227.2C63.1214 226.5 38.125 227.7 19.3389 227.1C42.6275 226.9 65.6056 225.9 88.8942 226.8C103.488 225.4 119.014 223.4 133.608 223.4C146.184 224.4 158.294 226.3 170.87 227C185.309 227.9 199.593 228.2 214.032 228.1C237.941 226.7 254.554 223.8 278.308 222.4C273.34 218.5 264.956 212.1 257.348 206.8C249.43 201.3 247.412 201.5 239.804 201.4C227.849 201.2 215.584 201.4 203.629 202.3C169.317 192.4 130.503 183.6 92.4651 176.1C81.4418 173.9 78.0261 174.2 71.9711 176.8C63.4319 180.2 52.2534 185.9 42.1617 192C30.3621 199 19.6494 206.2 14.9917 210.7C14.3706 211.4 13.4391 211.9 13.2839 213.9C12.9733 219.3 12.8181 226.1 13.1286 229.1C13.5944 229.6 14.3706 230.5 15.1469 231.2C39.3671 231 58.4637 230 81.7523 230.6C60.6373 231 39.5741 231.433 18.5626 231.9C17.6311 231.9 16.8548 232 16.2337 232.2C14.8364 232.8 13.5944 234.8 12.0418 236.6C12.6628 234.9 13.5944 233.3 13.9049 231.6C13.9049 231 12.3523 229.7 11.7313 229.6C9.40243 229.4 6.9183 229.4 4.43418 229.2C6.29727 229.1 8.16035 229.1 9.86818 228.8C12.0418 228.5 11.8865 227.8 11.8865 226.6C12.0935 222.267 12.3523 217.967 12.6628 213.7C12.8181 210.7 11.2655 210.8 7.07357 210.5C5.83151 210.367 4.64118 210.267 3.50263 210.2C8.78137 210.1 12.197 210.5 11.2655 207.6C10.541 204.867 9.76467 202.1 8.93663 199.3C8.16035 196.5 5.67624 197.2 1.32903 197C6.14201 196.6 8.16035 197 8.16035 193.5C8.00509 176.3 9.71295 159.2 13.2839 142.2C13.4391 141.1 13.2838 140.5 12.8181 140.1C11.8865 139.5 6.45251 139.4 4.89993 139.2C6.29725 139.2 12.197 139 12.8181 138.6C13.4391 138.3 13.2838 137.6 12.8181 136.1C11.0585 130.033 9.29891 124 7.53933 118C7.22881 117 6.91832 116.5 6.29729 116.2C5.21049 115.8 3.50266 116.3 0.863281 117.1C3.50266 116 5.21047 115.2 5.98675 114.3C6.45252 113.7 6.76304 112.9 6.76304 111.5C7.22881 95.2999 9.86819 79.5999 12.3523 63.4999C12.5076 62.0999 12.3523 61.3999 11.7313 60.9999C10.6445 60.2999 5.98673 60.1999 4.12365 60.0999C5.83148 59.9999 10.4892 59.8999 11.2655 59.3999C11.7313 58.9999 11.7313 58.2999 11.4208 56.7999C9.40241 46.9999 9.4024 39.0999 8.93663 29.2999C8.78137 27.5999 9.09192 25.8999 8.62615 25.3999C7.84986 24.5999 2.72633 23.7999 1.0185 23.4999C3.03685 23.5999 5.83149 24.0999 8.16035 23.7999C9.71292 23.5999 12.197 21.5999 12.0418 20.1999C11.9383 18.6666 11.369 16.9999 10.3339 15.1999C12.0418 17.2999 13.2838 19.5999 17.4758 19.3999C44.8011 18.1999 72.4369 14.5999 98.9859 10.5999C102.557 10.0999 104.73 9.0999 104.73 8.7999C104.575 7.8999 104.109 6.69991 102.712 4.99991C108.612 9.29991 109.543 9.59991 119.635 9.49991C134.074 9.39991 148.202 8.59989 162.176 7.19989C170.559 6.39989 169.938 5.1999 172.888 0.899902C172.423 3.5999 170.87 6.39988 176.304 7.09988C186.396 8.49988 196.487 9.1999 206.424 9.7999C207.666 9.7999 208.598 9.89989 209.374 9.69989C211.703 9.09989 212.789 7.3999 214.963 5.3999C212.634 8.3999 209.995 10.5999 216.516 10.3999C241.667 9.6999 262.782 9.7999 287.468 11.3999C289.797 11.5999 291.35 11.6999 291.971 11.3999C292.902 10.9999 292.902 10.2999 292.902 8.3999C293.834 11.1999 293.679 11.3999 298.181 12.3999C308.428 14.7999 316.657 17.0999 326.283 20.1999C329.232 21.0999 329.388 21.4999 331.406 19.7999C332.545 18.8666 333.683 17.9332 334.822 16.9999C334.045 18.0999 333.58 19.1999 332.803 20.2999C331.561 21.8999 335.443 24.0999 336.064 24.1999C338.703 24.4999 341.343 23.9999 344.292 23.5999C341.498 24.2999 337.772 25.2999 336.84 25.8999C336.064 26.4999 336.374 27.2999 336.219 28.5999C335.909 31.2999 335.598 37.1999 334.822 42.9999C333.89 49.2999 332.959 55.2999 336.374 56.8999C337.772 57.4999 339.169 58.0999 341.498 58.7999C337.772 57.9999 334.977 57.1999 333.89 57.5999C333.114 57.8999 332.803 58.6999 333.114 60.3999C335.598 71.5999 337.461 82.8999 338.703 94.1999C339.014 96.8999 340.566 96.7999 344.603 96.9999C337.616 97.7999 339.324 97.9999 338.237 103.2C337.927 104.8 337.616 106.4 337.306 108C336.53 111.4 338.393 111.5 342.429 114C341.498 113.667 340.566 113.3 339.635 112.9C338.393 112.4 337.151 112 336.995 112C336.53 112 336.219 113.6 336.219 115C335.287 131.7 335.908 148.3 337.151 164.9C337.461 169.1 339.479 167.5 344.137 165.1C340.256 168.1 338.858 169.1 338.237 172.5C336.53 181.4 334.666 207 336.064 223.1C336.064 224.4 336.374 225.2 336.995 225.8C338.082 227.1 340.1 227.9 343.827 228.9C341.963 228.7 340.256 228.5 338.393 228.4C336.374 228.3 335.132 229.4 335.132 230.1C335.443 232.1 336.374 234.1 336.995 236.1C333.58 230.4 335.443 230.2 326.748 229.9C316.346 229.5 307.496 229.2 298.026 228.2C310.136 229 321.625 229.3 333.89 229C334.356 228.5 334.977 227.9 335.443 227.4C331.717 210 334.356 192.2 336.374 174.7C336.064 174 335.598 173.6 334.511 173.3C331.872 172.5 322.867 176.1 318.054 177.8C298.026 185 277.997 191.3 257.969 198.4C256.417 199 255.33 199.3 254.398 199.7C251.449 200.9 253.156 202.2 254.864 203.4C265.215 211.4 275.565 219.367 285.916 227.3C283.121 225.9 282.034 225.3 278.774 222.8L278.308 222.4C259.211 224.1 238.252 226.3 216.516 228.7C212.945 229.1 213.721 230.1 214.342 232.1C212.945 230.3 212.168 229.2 207.821 229.2C183.291 229.2 160.313 227.3 138.266 224.5C134.54 224 134.229 225.2 133.143 227.8C133.453 225.3 133.608 224 130.658 224.1C118.238 224.3 105.507 225.5 92.6203 227ZM166.368 14.6999C165.746 15.4999 164.504 16.4999 166.678 16.7999C170.559 17.2999 189.346 15.6999 200.369 13.8999C188.259 12.5999 181.583 11.9999 169.783 11.8999C169.369 11.9666 168.903 11.9999 168.386 11.9999C167.765 12.8999 167.144 13.7999 166.368 14.6999ZM176.925 17.3999C172.888 17.6999 169.007 17.6999 164.815 18.0999C161.71 18.4999 159.381 19.1999 156.742 20.3999C150.065 23.5999 144.321 27.1999 139.197 30.9999C137.179 32.5999 137.334 33.2999 137.334 35.2999C137.49 42.3999 138.732 50.3999 139.663 57.3999C139.818 59.3999 140.129 60.1999 140.905 62.1999C139.974 66.0999 139.508 69.7999 139.042 73.7999C138.576 77.0999 138.732 80.5999 139.042 83.1999C139.353 84.9999 139.819 86.1999 140.284 86.5999C141.526 87.4999 142.147 88.2999 145.097 88.7999C166.057 92.5999 202.232 94.3999 231.731 94.8999C235.923 94.8999 237.631 94.4999 241.512 93.4999C255.796 89.6999 281.879 80.1999 291.505 75.9999C307.341 64.3999 323.333 58.2999 329.543 55.4999C330.785 54.9999 331.251 53.8999 332.027 52.4999C332.648 48.6999 333.114 45.1999 333.58 41.7999C334.045 39.1999 334.045 38.9999 330.63 37.7999C326.282 36.3999 322.246 34.7999 318.209 33.1999C311.223 28.2999 304.702 23.1999 298.492 17.8999C284.829 17.0999 264.956 15.2999 251.448 15.0999C238.252 14.8999 217.913 13.6999 203.785 13.8999C195.245 15.7999 186.085 16.5999 176.925 17.3999ZM318.675 32.6999C320.538 33.4999 331.251 37.3999 333.114 36.9999C333.735 36.8999 334.201 36.4999 334.356 35.3999C334.666 32.2999 334.822 29.0999 334.822 25.5999C333.424 24.3999 331.717 23.1999 330.164 22.1999C320.383 18.8999 309.981 15.9999 298.492 13.5999C294.765 12.7999 294.61 13.2999 296.939 15.2999C297.663 15.9666 298.388 16.6332 299.112 17.2999C308.894 19.1999 317.899 21.9999 326.438 25.4999C316.036 21.9999 310.912 20.3999 300.199 18.2999C305.944 23.1999 311.999 28.0999 318.675 32.6999ZM295.231 15.0999C292.436 12.7999 292.126 12.4999 287.313 12.2999C264.335 11.0999 235.923 10.5999 213.255 11.0999C212.324 11.4332 211.392 11.7666 210.461 12.0999C209.115 12.4999 207.718 12.8999 206.269 13.2999C217.758 12.9999 228.781 13.5999 239.804 13.8999C245.238 14.0999 250.362 13.9999 255.796 14.1999C269.458 14.8999 283.121 16.0999 297.405 17.0999C296.68 16.4332 295.956 15.7666 295.231 15.0999ZM204.561 13.0999C207.821 12.2999 209.374 11.0999 205.027 10.6999C195.556 9.69989 186.861 8.69988 176.925 8.09988C174.596 7.99988 173.509 8.09989 172.267 8.69989C171.336 9.09989 169.473 10.2999 169.938 11.0999C170.094 11.2999 171.025 11.2999 171.802 11.2999C181.893 11.3999 191.83 12.0999 201.145 13.3999C201.87 13.3999 202.646 13.3666 203.474 13.2999C203.785 13.2332 204.147 13.1666 204.561 13.0999ZM9.71292 24.5999C10.1787 35.5999 12.0418 48.2999 13.7496 58.1999C13.8531 58.5999 14.1636 58.8999 14.6812 59.0999C15.1987 59.3666 15.768 59.4666 16.389 59.3999C17.01 59.2999 17.7863 59.0999 18.5626 58.8999C32.8463 55.9999 46.9747 52.7999 60.7926 48.7999C75.3867 47.5999 89.6705 45.2666 103.644 41.7999C114.046 37.0999 124.914 33.4999 136.092 30.7999C143.7 25.5999 152.705 20.6999 162.331 16.0999C163.573 14.7999 165.125 13.4999 165.902 12.2999C147.271 13.7999 128.95 14.3999 110.164 14.8999C85.1679 19.6999 45.5773 23.3999 18.8731 25.4999C18.9766 25.4332 19.0801 25.3666 19.1836 25.2999C19.3906 25.2332 19.5459 25.1999 19.6494 25.1999C49.3035 22.2999 79.4235 19.1999 107.991 14.4999C108.767 13.6999 108.922 12.8999 108.457 11.6999C109.388 12.7999 110.164 13.4999 111.251 13.8999C127.553 13.7999 145.253 13.4999 164.815 11.7999C166.057 11.6999 166.523 11.5999 166.523 10.5999C166.523 9.99988 166.161 9.46658 165.436 8.99991C164.711 8.53324 163.832 8.36658 162.797 8.49991C144.942 9.89991 130.037 10.2999 109.078 10.8999C80.6655 16.3999 44.6458 18.1999 14.2154 20.5999C12.5593 21.8666 11.0585 23.1999 9.71292 24.5999ZM329.077 57.9999C325.817 57.4999 301.286 69.0999 292.281 76.6999C278.153 82.6999 261.851 88.5999 244.928 93.0999C239.183 94.6999 240.27 95.3999 244.462 96.5999C263.093 102.1 282.345 107 302.683 110.8C308.583 111.2 331.406 111.7 334.511 110.6C335.132 110.4 335.598 110.3 335.908 110.1C337.151 104.8 337.461 102.8 337.616 97.2999C336.064 86.3999 334.356 73.0999 332.493 61.4999C332.182 59.8999 332.027 58.3999 329.077 57.9999ZM335.443 112C335.287 111.7 333.58 111.7 332.959 111.7C330.474 111.6 325.662 111.9 321.78 112C317.122 112 312.154 111.9 307.962 111.8C306.099 111.8 304.857 111.6 304.546 113.3C304.391 114.6 309.36 126.1 310.136 128.2C318.83 137.4 326.127 146.9 331.096 157.2C331.717 158.5 334.201 165.1 335.753 165.4C335.909 165.5 336.064 164.8 336.064 164.5C333.89 149.1 334.511 128.7 335.598 113.7C335.598 113.4 335.598 112.2 335.443 112ZM18.0968 207.3C20.8914 205.3 30.3622 198.2 41.2302 191.6C52.564 184.8 64.8293 178.2 70.4185 175.2C75.0762 172.6 73.5236 171.9 69.0212 169.3C58.9294 163.5 50.3904 157.7 43.8696 151.6C40.6092 150.4 22.7545 142 16.2337 140.7C15.768 140.7 15.147 140.5 14.8364 140.7C14.3707 140.9 14.3706 141.3 14.3706 141.6C12.5075 159.8 9.40242 178.4 9.24717 196.7C9.86819 200.4 11.4208 204.9 12.5076 207.9C13.5944 210.9 16.389 208.4 18.0968 207.3ZM15.7679 139.3C16.389 139.7 17.3206 140 18.7179 140.6C26.0667 143.467 33.4156 146.333 40.7644 149.2C42.7828 150 44.3353 150.2 45.4221 149.4C57.0664 140.9 80.0445 109 79.734 107C79.5787 106.6 79.2682 106.2 78.4919 105.8C57.3769 107.8 36.2619 111 14.8364 114.5C12.6628 114.9 11.1103 115 10.0235 115.3C8.16036 115.8 8.31559 116.6 8.78136 117.7C10.7997 124.4 12.8181 131.9 14.0602 137C14.3707 138.1 14.5259 138.6 15.7679 139.3ZM8.31561 114.3C9.40241 115 11.8865 114.2 14.6812 113.6C37.0382 109.3 59.24 105.9 81.5971 104.1C97.1228 98.2999 113.58 93.6999 130.503 89.6999C135.316 88.5999 135.937 87.9999 136.558 84.5999C137.024 81.9999 137.334 77.8999 137.8 73.6999C138.111 70.2999 138.576 66.8999 138.887 64.1999C139.042 62.5999 138.111 61.0999 136.092 59.9999C131.435 57.4999 127.398 54.9999 123.982 52.5999C119.48 50.2999 111.096 46.1999 103.954 44.4999C101.78 43.8999 99.6069 43.8999 97.4333 44.2999C85.6338 46.5999 73.6789 48.3999 61.5688 49.6999C48.0615 53.8999 33.6225 56.9999 18.8731 59.6999C17.631 59.9999 16.6995 60.1999 15.7679 60.5999C14.5259 60.9999 13.9049 61.7999 13.7496 62.5999C11.4208 78.6999 9.71292 95.0999 8.16035 111.1C8.00509 111.6 7.84984 114.1 8.31561 114.3ZM131.745 34.0999C122.585 36.0999 114.356 38.7999 106.593 41.8999C106.128 42.4999 105.972 42.8999 106.128 43.1999C106.438 43.8999 122.896 50.8999 125.069 51.8999C127.708 54.6999 131.59 56.8999 136.713 59.1999C138.887 60.1999 138.732 59.6999 138.577 58.0999C138.421 56.6999 137.334 50.0999 136.869 44.2999C136.558 41.0999 136.403 37.8999 136.403 35.8999C136.248 34.3999 135.937 33.3999 131.745 34.0999ZM297.405 110.8C277.221 107 257.504 101.9 238.407 95.8999C205.492 95.5999 171.181 93.6999 139.042 89.9999C118.548 94.0999 102.557 98.7999 86.7205 104C86.824 104 86.9276 103.967 87.0311 103.9C76.0078 114.4 73.5237 120.3 64.8293 130.2C58.1532 137.9 53.4954 144 47.2852 149.9C45.7326 151.3 48.8378 154.3 50.0799 155.4C57.6875 161.3 66.5371 166.7 76.6288 171.5C120.515 179.967 163.004 189.5 204.095 200.1C217.033 200.233 230.023 200.367 243.065 200.5C249.741 200.5 251.138 199.7 257.348 197.7C276.134 191.8 309.825 179.5 320.072 175.9C325.661 173.9 331.561 171 332.648 170.3C335.753 168 334.045 166 332.803 163.3C327.525 151.7 317.899 137.3 307.962 129.1C306.72 126 305.012 118.1 303.149 114.3C301.907 111.9 300.976 111.5 297.405 110.8Z" fill="url(#paint38_radial_323_288)"/>
<path fill-rule="evenodd" clip-rule="evenodd" d="M21.2019 141.9C19.8045 133.6 17.1652 122.6 14.0601 114.4C14.6811 96.1999 16.8547 77.1999 20.4256 59.0999C18.4072 47.9999 17.9415 37.8999 17.4757 26.7999C17.8897 26.3332 18.3555 25.8999 18.873 25.4999C45.5773 23.3999 85.1678 19.6999 110.164 14.8999C130.192 14.2999 149.91 13.6999 169.783 11.8999C181.738 11.9999 188.414 12.5999 200.835 13.8999C214.963 13.4999 237.165 14.7999 251.448 15.0999C265.111 15.2999 284.984 17.1999 298.647 17.8999C310.446 20.1999 315.414 21.7999 326.438 25.4999C327.162 25.9666 327.887 26.4666 328.611 26.9999C328.301 36.6999 326.748 48.1999 325.506 57.8999C327.835 71.6999 329.388 83.5999 331.406 97.3999C331.251 101.8 331.095 107 330.009 111.2C329.232 121.2 328.301 130 328.301 140C328.301 149.9 329.388 162.5 331.251 172.4C329.232 190.7 325.351 206.8 328.611 225.1C314.328 225.2 293.057 223.6 278.774 222.4C254.709 223.8 238.096 226.7 214.031 228.1C199.592 228.2 185.309 227.9 170.87 227C158.294 226.3 146.184 224.4 133.608 223.4C119.014 223.4 103.488 225.4 88.8941 226.8C65.6055 225.9 42.6274 226.9 19.3388 227.1C19.0283 221.5 18.4072 212.8 18.873 207.5C17.4757 204.3 17.3205 203.6 16.3889 200.3C16.0784 199.033 15.7679 197.767 15.4574 196.5C15.6126 177.3 19.3388 161 21.2019 141.9ZM21.8229 225.4C44.18 225.1 66.537 224.2 88.8941 225.1C103.644 223.6 118.703 221.7 133.608 221.7H133.763H133.919C146.339 222.7 158.605 224.6 171.18 225.3C185.361 226.1 199.593 226.467 213.876 226.4C224.744 225.7 235.302 224.7 246.014 223.5C256.882 222.4 267.595 221.3 278.618 220.7L278.929 220.6L279.239 220.7C287.416 221.433 295.593 222.033 303.77 222.5C311.067 222.9 318.364 223.3 325.661 223.3C324.419 215.5 324.575 207.6 325.196 199.7C325.972 190.6 327.525 181.5 328.456 172.4C327.525 167.1 326.904 161.7 326.438 156.3C325.92 150.833 325.661 145.4 325.661 140C325.661 130.3 326.593 120.8 327.369 111.1C328.456 106.6 328.456 101.9 328.611 97.4999C326.748 84.3999 325.04 71.1999 322.867 58.0999V57.8999V57.6999C324.109 47.7999 325.661 37.6999 325.817 27.5999C325.506 27.3999 325.144 27.1666 324.73 26.8999C320.538 25.3999 316.191 23.9999 311.688 22.7999C307.341 21.4999 302.839 20.5999 298.181 19.5999C290.418 19.1999 282.655 18.5999 274.892 17.9999C267.129 17.4999 259.211 16.9999 251.293 16.7999C233.128 16.4999 211.547 14.7999 194.159 15.2999C188.725 14.6999 189.19 14.6999 183.601 14.2999C179.099 13.8999 174.596 13.6999 169.938 13.6999C150.221 15.3999 130.503 16.0999 110.63 16.5999C103.333 17.9999 96.0359 19.0999 88.7388 20.0999C80.5101 21.1999 72.1263 22.1999 63.7424 23.0999C49.3035 24.6999 34.8645 25.9999 20.2703 27.0999C20.2703 27.1666 20.2186 27.2332 20.1151 27.2999C20.7361 37.8999 21.2019 48.2999 23.065 58.7999V59.0999V59.2999C19.494 77.4999 17.4757 95.8999 16.6994 114.2C18.4072 118.6 19.6493 123.1 20.8914 127.6C22.1334 132.267 23.1684 136.967 23.9965 141.7V141.9V142C23.0649 151.2 21.6676 160.4 20.4256 169.5C19.1835 178.5 18.252 187.4 18.252 196.4C18.459 197.6 18.7177 198.8 19.0283 200C19.3388 201.2 19.6493 202.4 20.1151 203.6C20.4256 204.7 20.8914 205.8 21.3571 207L21.5124 207.3V207.5C21.3571 210.9 21.3571 214.3 21.5124 217.6C21.6159 220.2 21.7194 222.8 21.8229 225.4Z" fill="url(#paint39_linear_323_288)"/>
<path fill-rule="evenodd" clip-rule="evenodd" d="M21.2019 141.9C19.8045 133.6 17.1652 122.6 14.0601 114.4C14.6811 96.1999 16.8547 77.1999 20.4256 59.0999C18.4072 47.9999 17.9415 37.8999 17.4757 26.7999C17.8897 26.3332 18.3555 25.8999 18.873 25.4999C45.5773 23.3999 85.1678 19.6999 110.164 14.8999C130.192 14.2999 149.91 13.6999 169.783 11.8999C181.738 11.9999 188.414 12.5999 200.835 13.8999C214.963 13.4999 237.165 14.7999 251.448 15.0999C265.111 15.2999 284.984 17.1999 298.647 17.8999C310.446 20.1999 315.414 21.7999 326.438 25.4999C327.162 25.9666 327.887 26.4666 328.611 26.9999C328.301 36.6999 326.748 48.1999 325.506 57.8999C327.835 71.6999 329.388 83.5999 331.406 97.3999C331.251 101.8 331.095 107 330.009 111.2C329.232 121.2 328.301 130 328.301 140C328.301 149.9 329.388 162.5 331.251 172.4C329.232 190.7 325.351 206.8 328.611 225.1C314.328 225.2 293.057 223.6 278.774 222.4C254.709 223.8 238.096 226.7 214.031 228.1C199.592 228.2 185.309 227.9 170.87 227C158.294 226.3 146.184 224.4 133.608 223.4C119.014 223.4 103.488 225.4 88.8941 226.8C65.6055 225.9 42.6274 226.9 19.3388 227.1C19.0283 221.5 18.4072 212.8 18.873 207.5C17.4757 204.3 17.3205 203.6 16.3889 200.3C16.0784 199.033 15.7679 197.767 15.4574 196.5C15.6126 177.3 19.3388 161 21.2019 141.9ZM21.8229 225.4C44.18 225.1 66.537 224.2 88.8941 225.1C103.644 223.6 118.703 221.7 133.608 221.7H133.763H133.919C146.339 222.7 158.605 224.6 171.18 225.3C185.361 226.1 199.593 226.467 213.876 226.4C224.744 225.7 235.302 224.7 246.014 223.5C246.326 223.468 246.638 223.437 246.949 223.405C257.497 222.337 267.911 221.283 278.618 220.7L278.929 220.6L279.239 220.7C287.416 221.433 295.593 222.033 303.77 222.5C311.067 222.9 318.364 223.3 325.661 223.3C324.419 215.5 324.575 207.6 325.196 199.7C325.972 190.6 327.525 181.5 328.456 172.4C327.525 167.1 326.904 161.7 326.438 156.3C325.92 150.833 325.661 145.4 325.661 140C325.661 130.3 326.593 120.8 327.369 111.1C328.456 106.6 328.456 101.9 328.611 97.4999C326.748 84.3999 325.04 71.1999 322.867 58.0999V57.8999V57.6999C324.109 47.7999 325.661 37.6999 325.817 27.5999C325.506 27.3999 325.144 27.1666 324.73 26.8999C320.538 25.3999 316.191 23.9999 311.688 22.7999C307.341 21.4999 302.839 20.5999 298.181 19.5999C290.418 19.1999 282.655 18.5999 274.892 17.9999C267.129 17.4999 259.211 16.9999 251.293 16.7999C233.128 16.4999 211.547 14.7999 194.159 15.2999C188.725 14.6999 189.19 14.6999 183.601 14.2999C179.099 13.8999 174.596 13.6999 169.938 13.6999C150.221 15.3999 130.503 16.0999 110.63 16.5999C103.333 17.9999 96.0359 19.0999 88.7388 20.0999C80.5101 21.1999 72.1263 22.1999 63.7424 23.0999C49.3035 24.6999 34.8645 25.9999 20.2703 27.0999C20.2703 27.1666 20.2186 27.2332 20.1151 27.2999C20.7361 37.8999 21.2019 48.2999 23.065 58.7999V59.0999V59.2999C19.494 77.4999 17.4757 95.8999 16.6994 114.2C18.4072 118.6 19.6493 123.1 20.8914 127.6C22.1334 132.267 23.1684 136.967 23.9965 141.7V141.9V142C23.0649 151.2 21.6676 160.4 20.4256 169.5C19.1835 178.5 18.252 187.4 18.252 196.4C18.459 197.6 18.7177 198.8 19.0283 200C19.3388 201.2 19.6493 202.4 20.1151 203.6C20.4256 204.7 20.8914 205.8 21.3571 207L21.5124 207.3V207.5C21.3571 210.9 21.3571 214.3 21.5124 217.6C21.6159 220.2 21.7194 222.8 21.8229 225.4Z" fill="#D9D9D9"/>
<path d="M21.8229 225.4C44.18 225.1 66.537 224.2 88.8941 225.1C103.644 223.6 118.703 221.7 133.608 221.7H133.763H133.919C146.339 222.7 158.605 224.6 171.18 225.3C185.361 226.1 199.593 226.467 213.876 226.4C224.744 225.7 235.302 224.7 246.014 223.5L246.949 223.405C257.497 222.337 267.911 221.283 278.618 220.7L278.929 220.6L279.239 220.7C287.416 221.433 295.593 222.033 303.77 222.5C311.067 222.9 318.364 223.3 325.661 223.3C324.419 215.5 324.575 207.6 325.196 199.7C325.972 190.6 327.525 181.5 328.456 172.4C327.525 167.1 326.904 161.7 326.438 156.3C325.92 150.833 325.661 145.4 325.661 140C325.661 130.3 326.593 120.8 327.369 111.1C328.456 106.6 328.456 101.9 328.611 97.4999C326.748 84.3999 325.04 71.1999 322.867 58.0999V57.8999V57.6999C324.109 47.7999 325.661 37.6999 325.817 27.5999L324.73 26.8999C320.538 25.3999 316.191 23.9999 311.688 22.7999C307.341 21.4999 302.839 20.5999 298.181 19.5999C290.418 19.1999 282.655 18.5999 274.892 17.9999C267.129 17.4999 259.211 16.9999 251.293 16.7999C233.128 16.4999 211.547 14.7999 194.159 15.2999C188.725 14.6999 189.19 14.6999 183.601 14.2999C179.099 13.8999 174.596 13.6999 169.938 13.6999C150.221 15.3999 130.503 16.0999 110.63 16.5999C103.333 17.9999 96.0359 19.0999 88.7388 20.0999C80.5101 21.1999 72.1263 22.1999 63.7424 23.0999C49.3035 24.6999 34.8645 25.9999 20.2703 27.0999C20.2703 27.1666 20.2186 27.2332 20.1151 27.2999C20.7361 37.8999 21.2019 48.2999 23.065 58.7999V59.0999V59.2999C19.494 77.4999 17.4757 95.8999 16.6994 114.2C18.4072 118.6 19.6493 123.1 20.8914 127.6C22.1334 132.267 23.1684 136.967 23.9965 141.7V141.9V142C23.0649 151.2 21.6676 160.4 20.4256 169.5C19.1835 178.5 18.252 187.4 18.252 196.4C18.459 197.6 18.7177 198.8 19.0283 200C19.3388 201.2 19.6493 202.4 20.1151 203.6C20.4256 204.7 20.8914 205.8 21.3571 207L21.5124 207.3V207.5C21.3571 210.9 21.3571 214.3 21.5124 217.6L21.8229 225.4Z" fill="#D9D9D9"/>
<path opacity="0.5" d="M171.646 3.39999C175.527 4.99999 203.784 8.5 213.1 7.5C239.649 6.7 266.353 6.79999 292.902 8.39999C298.491 11.4 320.227 15.8 333.114 18.9C336.84 18.8 341.187 22.2 339.479 24.6C342.584 31.9 343.516 43.4 343.671 52.8C344.758 42.9 345.689 32.9 345.534 23.3C343.05 20.9 339.324 18.2 335.598 16C321.314 13.2667 307.03 10.3333 292.747 7.19998C267.129 5.59998 241.357 4.89999 215.429 4.79999C201.145 3.49999 187.016 1.9 173.354 0C149.237 1.26667 124.965 2.26667 100.538 3C70.7288 7.5 40.4536 11.4 10.0231 14.8C5.98646 17.4 2.72603 20.3 0.24191 23.4C0.0866523 34.3 0.552434 45.2 1.94975 56.2C1.94975 45.4 2.41551 34.7 4.12334 23.9C5.21014 21.3 8.00477 19.1 11.8862 17.4C42.3166 14.1 72.5919 10.1 102.091 4.39999C124.914 5.09999 147.892 4.89999 171.646 3.39999Z" fill="#EDF5F7"/>
<defs>
<radialGradient id="paint0_radial_323_288" cx="0" cy="0" r="1" gradientUnits="userSpaceOnUse" gradientTransform="translate(3.8131 7.19981) scale(41.9195 27)">
<stop stop-color="#E4ECF0"/>
<stop offset="1" stop-color="#A6B4BD"/>
</radialGradient>
<radialGradient id="paint1_radial_323_288" cx="0" cy="0" r="1" gradientUnits="userSpaceOnUse" gradientTransform="translate(89.0494 -54.1999) scale(142.681 91.8999)">
<stop stop-color="#E4ECF0"/>
<stop offset="1" stop-color="#A6B4BD"/>
</radialGradient>
<radialGradient id="paint2_radial_323_288" cx="0" cy="0" r="1" gradientUnits="userSpaceOnUse" gradientTransform="translate(157.207 -58) scale(112.561 72.5)">
<stop stop-color="#E4ECF0"/>
<stop offset="1" stop-color="#A6B4BD"/>
</radialGradient>
<radialGradient id="paint3_radial_323_288" cx="0" cy="0" r="1" gradientUnits="userSpaceOnUse" gradientTransform="translate(188.259 -19) scale(60.5504 38.9999)">
<stop stop-color="#BDCACF"/>
<stop offset="1" stop-color="#828599"/>
</radialGradient>
<radialGradient id="paint4_radial_323_288" cx="0" cy="0" r="1" gradientUnits="userSpaceOnUse" gradientTransform="translate(250.983 -30.1001) scale(79.026 50.8999)">
<stop stop-color="#BDCACF"/>
<stop offset="1" stop-color="#828599"/>
</radialGradient>
<radialGradient id="paint5_radial_323_288" cx="0" cy="0" r="1" gradientUnits="userSpaceOnUse" gradientTransform="translate(335.909 -20.8998) scale(66.1395 42.6)">
<stop stop-color="#BDCACF"/>
<stop offset="1" stop-color="#6E7082"/>
</radialGradient>
<radialGradient id="paint6_radial_323_288" cx="0" cy="0" r="1" gradientUnits="userSpaceOnUse" gradientTransform="translate(342.119 4.90003) scale(36.3303 23.3999)">
<stop stop-color="#BDCACF"/>
<stop offset="1" stop-color="#828599"/>
</radialGradient>
<radialGradient id="paint7_radial_323_288" cx="0" cy="0" r="1" gradientUnits="userSpaceOnUse" gradientTransform="translate(342.584 14.9998) scale(145.942 94)">
<stop stop-color="#9DA9AB"/>
<stop offset="1" stop-color="#5B5E6B"/>
</radialGradient>
<radialGradient id="paint8_radial_323_288" cx="0" cy="0" r="1" gradientUnits="userSpaceOnUse" gradientTransform="translate(370.375 110.6) scale(117.685 75.8)">
<stop stop-color="#9DA9AB"/>
<stop offset="1" stop-color="#5B5E6B"/>
</radialGradient>
<radialGradient id="paint9_radial_323_288" cx="0" cy="0" r="1" gradientUnits="userSpaceOnUse" gradientTransform="translate(344.758 87.8999) scale(43.9376 28.3)">
<stop stop-color="#9DA9AB"/>
<stop offset="1" stop-color="#5B5E6B"/>
</radialGradient>
<radialGradient id="paint10_radial_323_288" cx="0" cy="0" r="1" gradientUnits="userSpaceOnUse" gradientTransform="translate(366.339 195.6) scale(135.85 87.5)">
<stop stop-color="#9DA9AB"/>
<stop offset="1" stop-color="#5B5E6B"/>
</radialGradient>
<radialGradient id="paint11_radial_323_288" cx="0" cy="0" r="1" gradientUnits="userSpaceOnUse" gradientTransform="translate(239.028 165.2) scale(134.142 86.4)">
<stop stop-color="#9DA9AB"/>
<stop offset="1" stop-color="#5B5E6B"/>
</radialGradient>
<radialGradient id="paint12_radial_323_288" cx="0" cy="0" r="1" gradientUnits="userSpaceOnUse" gradientTransform="translate(349.882 238) scale(40.6774 26.2)">
<stop stop-color="#9DA9AB"/>
<stop offset="1" stop-color="#555763"/>
</radialGradient>
<radialGradient id="paint13_radial_323_288" cx="0" cy="0" r="1" gradientUnits="userSpaceOnUse" gradientTransform="translate(299.112 185.5) scale(87.7205 56.4999)">
<stop stop-color="#9DA9AB"/>
<stop offset="1" stop-color="#555763"/>
</radialGradient>
<radialGradient id="paint14_radial_323_288" cx="0" cy="0" r="1" gradientUnits="userSpaceOnUse" gradientTransform="translate(265.421 274.9) scale(95.7937 61.7001)">
<stop stop-color="#9DA9AB"/>
<stop offset="1" stop-color="#555763"/>
</radialGradient>
<radialGradient id="paint15_radial_323_288" cx="0" cy="0" r="1" gradientUnits="userSpaceOnUse" gradientTransform="translate(196.487 191.4) scale(110.388 71.1001)">
<stop stop-color="#9DA9AB"/>
<stop offset="1" stop-color="#555763"/>
</radialGradient>
<radialGradient id="paint16_radial_323_288" cx="0" cy="0" r="1" gradientUnits="userSpaceOnUse" gradientTransform="translate(123.982 291.1) scale(113.338 73)">
<stop stop-color="#9DA9AB"/>
<stop offset="1" stop-color="#555763"/>
</radialGradient>
<radialGradient id="paint17_radial_323_288" cx="0" cy="0" r="1" gradientUnits="userSpaceOnUse" gradientTransform="translate(56.9108 270.2) scale(96.8805 62.4001)">
<stop stop-color="#9DA9AB"/>
<stop offset="1" stop-color="#555763"/>
</radialGradient>
<radialGradient id="paint18_radial_323_288" cx="0" cy="0" r="1" gradientUnits="userSpaceOnUse" gradientTransform="translate(-0.844762 223.7) scale(33.5356 21.6)">
<stop stop-color="#9DA9AB"/>
<stop offset="1" stop-color="#555763"/>
</radialGradient>
<radialGradient id="paint19_radial_323_288" cx="0" cy="0" r="1" gradientUnits="userSpaceOnUse" gradientTransform="translate(-0.68971 234.3) scale(56.2031 36.2)">
<stop stop-color="#9DA9AB"/>
<stop offset="1" stop-color="#555763"/>
</radialGradient>
<radialGradient id="paint20_radial_323_288" cx="0" cy="0" r="1" gradientUnits="userSpaceOnUse" gradientTransform="translate(-10.9363 197) scale(30.8962 19.8999)">
<stop stop-color="#9DA9AB"/>
<stop offset="1" stop-color="#555763"/>
</radialGradient>
<radialGradient id="paint21_radial_323_288" cx="0" cy="0" r="1" gradientUnits="userSpaceOnUse" gradientTransform="translate(-6.7444 194.4) scale(187.396 120.7)">
<stop stop-color="#9DA9AB"/>
<stop offset="1" stop-color="#555763"/>
</radialGradient>
<radialGradient id="paint22_radial_323_288" cx="0" cy="0" r="1" gradientUnits="userSpaceOnUse" gradientTransform="translate(-19.786 127) scale(48.1297 31)">
<stop stop-color="#9DA9AB"/>
<stop offset="1" stop-color="#555763"/>
</radialGradient>
<radialGradient id="paint23_radial_323_288" cx="0" cy="0" r="1" gradientUnits="userSpaceOnUse" gradientTransform="translate(-1.93155 118.9) scale(131.037 84.4)">
<stop stop-color="#9DA9AB"/>
<stop offset="1" stop-color="#555763"/>
</radialGradient>
<radialGradient id="paint24_radial_323_288" cx="0" cy="0" r="1" gradientUnits="userSpaceOnUse" gradientTransform="translate(-4.72614 19.1999) scale(167.678 108)">
<stop stop-color="#9DA9AB"/>
<stop offset="1" stop-color="#555763"/>
</radialGradient>
<radialGradient id="paint25_radial_323_288" cx="0" cy="0" r="1" gradientUnits="userSpaceOnUse" gradientTransform="translate(130.658 48.1002) scale(202.766 130.6)">
<stop stop-color="#AAB4B8"/>
<stop offset="1" stop-color="#828599"/>
</radialGradient>
<radialGradient id="paint26_radial_323_288" cx="0" cy="0" r="1" gradientUnits="userSpaceOnUse" gradientTransform="translate(152.86 77.4001) scale(88.4968 57)">
<stop stop-color="#AAB4B8"/>
<stop offset="1" stop-color="#828599"/>
</radialGradient>
<radialGradient id="paint27_radial_323_288" cx="0" cy="0" r="1" gradientUnits="userSpaceOnUse" gradientTransform="translate(164.038 4.50009) scale(64.1213 41.3001)">
<stop stop-color="#AAB4B8"/>
<stop offset="1" stop-color="#828599"/>
</radialGradient>
<radialGradient id="paint28_radial_323_288" cx="0" cy="0" r="1" gradientUnits="userSpaceOnUse" gradientTransform="translate(111.406 190.3) scale(342.342 220.5)">
<stop stop-color="#A3AAB0"/>
<stop offset="1" stop-color="#828599"/>
</radialGradient>
<radialGradient id="paint29_radial_323_288" cx="0" cy="0" r="1" gradientUnits="userSpaceOnUse" gradientTransform="translate(356.402 21.8999) scale(103.401 66.6001)">
<stop stop-color="#717485"/>
<stop offset="1" stop-color="#9DA9AB"/>
</radialGradient>
<radialGradient id="paint30_radial_323_288" cx="0" cy="0" r="1" gradientUnits="userSpaceOnUse" gradientTransform="translate(19.9597 -16.9002) scale(295.144 190.1)">
<stop stop-color="#717485"/>
<stop offset="1" stop-color="#9DA9AB"/>
</radialGradient>
<radialGradient id="paint31_radial_323_288" cx="0" cy="0" r="1" gradientUnits="userSpaceOnUse" gradientTransform="translate(38.901 97.5998) scale(113.338 73)">
<stop stop-color="#717485"/>
<stop offset="1" stop-color="#9DA9AB"/>
</radialGradient>
<radialGradient id="paint32_radial_323_288" cx="0" cy="0" r="1" gradientUnits="userSpaceOnUse" gradientTransform="translate(128.95 64.3) scale(493.563 317.9)">
<stop stop-color="#717485"/>
<stop offset="1" stop-color="#9DA9AB"/>
</radialGradient>
<radialGradient id="paint33_radial_323_288" cx="0" cy="0" r="1" gradientUnits="userSpaceOnUse" gradientTransform="translate(407.792 176.3) scale(238.475 153.6)">
<stop stop-color="#9DA9AB"/>
<stop offset="1" stop-color="#717485"/>
</radialGradient>
<radialGradient id="paint34_radial_323_288" cx="0" cy="0" r="1" gradientUnits="userSpaceOnUse" gradientTransform="translate(305.012 95.4998) scale(230.402 148.4)">
<stop stop-color="#717485"/>
<stop offset="1" stop-color="#9DA9AB"/>
</radialGradient>
<radialGradient id="paint35_radial_323_288" cx="0" cy="0" r="1" gradientUnits="userSpaceOnUse" gradientTransform="translate(-61.2397 237.3) scale(186.464 120.1)">
<stop stop-color="#AAB4B8"/>
<stop offset="1" stop-color="#828599"/>
</radialGradient>
<radialGradient id="paint36_radial_323_288" cx="0" cy="0" r="1" gradientUnits="userSpaceOnUse" gradientTransform="translate(140.439 246) scale(310.98 200.3)">
<stop stop-color="#717485"/>
<stop offset="1" stop-color="#9DA9AB"/>
</radialGradient>
<radialGradient id="paint37_radial_323_288" cx="0" cy="0" r="1" gradientUnits="userSpaceOnUse" gradientTransform="translate(281.568 177.5) scale(225.899 145.5)">
<stop stop-color="#717485"/>
<stop offset="1" stop-color="#9DA9AB"/>
</radialGradient>
<radialGradient id="paint38_radial_323_288" cx="0" cy="0" r="1" gradientUnits="userSpaceOnUse" gradientTransform="translate(-167.125 -294.1) scale(963.682 620.7)">
<stop stop-color="#E2F1F7"/>
<stop offset="1" stop-color="#9A9DB5"/>
</radialGradient>
<linearGradient id="paint39_linear_323_288" x1="-4.88133" y1="226.4" x2="-4.88133" y2="13.6999" gradientUnits="userSpaceOnUse">
<stop stop-color="#5B666B"/>
<stop offset="1" stop-color="#4A555C"/>
</linearGradient>
</defs>
</svg>
