<svg width="558" height="163" viewBox="0 0 558 163" fill="none" xmlns="http://www.w3.org/2000/svg">
    <path d="M32.9597 157.275C47.9948 168.589 86.5499 160.253 95.3328 147.302C96.9702 144.92 98.0123 142.091 97.5657 138.37C97.7145 137.179 79.1068 85.2263 77.6182 72.1265C76.4273 87.3104 32.9597 90.4364 22.2417 87.4592C18.669 102.941 19.4133 148.195 32.9597 157.275Z" fill="url(#paint0_linear_11_4)"/>
    <path d="M63.923 119.464C60.9458 106.067 72.8547 98.4748 86.6988 97.8794C91.0158 117.38 94.2908 127.056 97.5657 138.37C93.3976 124.526 67.0491 133.904 63.923 119.464Z" fill="url(#paint1_linear_11_4)"/>
    <path d="M34.4484 63.1946C38.6165 80.4625 52.6095 120.06 60.3503 134.946C53.0561 125.27 36.979 128.694 30.8757 137.923C27.6007 142.984 26.8564 152.363 32.9597 157.275C30.8757 156.233 25.2189 151.618 22.5394 140.9C18.8179 125.865 8.99302 98.4748 1.40107 82.9932C-6.19087 67.2138 18.8179 52.7743 34.4484 63.1946Z" fill="url(#paint2_linear_11_4)"/>
    <path style="mix-blend-mode:screen" d="M16.7339 60.3657C12.8635 61.2589 9.14197 63.0452 6.3136 65.427C10.6306 71.0838 32.5133 127.8 31.9178 136.583C34.4485 133.457 38.0211 131.224 42.0404 130.033C35.9371 119.762 18.2225 67.0645 16.7339 60.3657Z" fill="url(#paint3_radial_11_4)"/>
    <path d="M36.5324 71.0839C36.1355 69.6945 35.7881 68.3547 35.4904 67.0646C26.1121 60.9613 13.1611 63.9385 6.31352 70.7861C2.74084 74.5077 0.805636 79.4201 2.14539 84.4814C2.6416 85.5731 3.1378 86.6647 3.63401 87.7564C2.74084 83.1417 4.52718 78.5269 7.951 74.9543C14.5009 68.1066 27.303 65.1294 36.5324 71.0839ZM55.7356 124.823C50.6743 120.655 42.9335 120.506 36.3836 123.185C25.9633 127.502 20.0088 138.369 25.3678 148.492C23.5815 139.56 30.1314 131.075 38.1699 127.651C45.0175 124.823 52.7583 124.674 57.6708 129.438C57.0753 128.048 56.4303 126.51 55.7356 124.823Z" fill="url(#paint4_linear_11_4)"/>
    <path d="M524.948 157.275C509.912 168.589 471.357 160.253 462.574 147.302C460.937 144.92 459.895 142.091 460.49 138.37C460.193 137.179 478.8 85.2263 480.289 72.1265C481.48 87.3104 524.948 90.4364 535.666 87.4592C539.238 102.941 538.494 148.195 524.948 157.275Z" fill="url(#paint5_linear_11_4)"/>
    <path d="M493.984 119.464C496.962 106.067 485.053 98.4748 471.208 97.8794C466.892 117.38 463.617 127.056 460.49 138.37C464.51 124.526 490.858 133.904 493.984 119.464Z" fill="url(#paint6_linear_11_4)"/>
    <path d="M523.459 63.1946C519.291 80.4625 505.298 120.06 497.557 134.946C504.851 125.27 520.928 128.694 527.031 137.923C530.306 142.984 531.051 152.363 524.947 157.275C527.031 156.233 532.688 151.618 535.368 140.9C539.089 125.865 548.914 98.4748 556.506 82.9932C564.098 67.2138 539.089 52.7743 523.459 63.1946Z" fill="url(#paint7_linear_11_4)"/>
    <path style="mix-blend-mode:screen" d="M541.173 60.3657C545.044 61.2589 548.765 63.0452 551.594 65.427C547.277 71.0838 525.394 127.8 525.99 136.583C523.459 133.457 519.886 131.224 515.867 130.033C521.97 119.762 539.685 67.0645 541.173 60.3657Z" fill="url(#paint8_radial_11_4)"/>
    <path d="M551.594 70.7861C544.746 63.9385 531.795 60.9613 522.417 67.0646C522.119 68.3547 521.772 69.6945 521.375 71.0839C530.604 65.1294 543.406 68.1066 549.956 74.9543C553.38 78.5269 555.166 83.1417 554.273 87.7564C554.769 86.6647 555.266 85.5731 555.762 84.4814C557.102 79.4201 555.166 74.5077 551.594 70.7861ZM521.524 123.185C514.974 120.506 507.233 120.655 502.172 124.823C501.477 126.51 500.832 128.048 500.236 129.438C505.149 124.674 513.039 124.823 519.737 127.651C527.776 131.075 534.326 139.56 532.539 148.492C537.898 138.369 531.944 127.502 521.524 123.185Z" fill="url(#paint9_linear_11_4)"/>
    <path d="M39.063 29.1054C36.2347 32.2315 36.0858 37.2928 38.7653 42.3541C51.2697 65.8743 60.9457 103.387 63.9229 119.464C62.8809 113.51 67.6445 108.598 77.1716 104.876C105.009 93.7114 150.56 88.0546 279.028 88.0546V0.672852C126.296 0.672852 56.4799 10.2 39.063 29.1054Z" fill="url(#paint10_radial_11_4)"/>
    <path d="M518.844 29.1054C521.821 32.2315 521.821 37.2928 519.142 42.3541C506.637 65.8743 496.961 103.387 493.984 119.464C495.026 113.51 490.263 108.598 480.735 104.876C452.898 93.7114 407.347 88.0546 279.028 88.0546V0.672852C431.611 0.672852 501.427 10.2 518.844 29.1054Z" fill="url(#paint11_radial_11_4)"/>
    <path d="M279.028 77.783C147.732 77.783 99.352 83.8863 72.7058 95.9441C66.1558 98.7725 62.1366 102.196 61.0946 106.216C61.5908 108.2 62.0373 110.086 62.4343 111.872C63.0298 107.258 67.4956 103.387 74.9387 100.41C102.18 88.7987 149.221 82.9931 279.028 82.9931H279.177V77.783H279.028ZM43.6777 38.0369C62.2854 20.0247 129.273 10.9441 279.028 10.9441H279.326V5.88281H279.028C127.785 5.88281 59.4571 15.1122 41.4448 33.5711C39.063 35.804 38.1699 38.9301 38.7653 42.205C38.7653 42.3043 38.7653 42.3539 38.7653 42.3539C39.2615 43.3463 39.7577 44.2891 40.2539 45.1823C40.4028 42.5028 41.4448 39.9721 43.6777 38.0369Z" fill="url(#paint12_linear_11_4)"/>
    <path d="M279.474 77.783C410.622 77.783 459.002 83.8863 485.648 95.9441C492.198 98.7725 495.77 101.899 496.961 105.769C496.465 107.853 496.019 109.739 495.622 111.426C494.877 106.96 490.858 103.387 483.415 100.41C456.173 88.7987 409.133 82.9931 279.474 82.9931H279.177V77.783H279.474ZM514.974 38.0369C496.217 20.0247 429.229 10.9441 279.474 10.9441H279.326V5.88281H279.474C430.718 5.88281 499.045 15.1122 517.207 33.5711C519.439 35.804 520.481 37.7392 519.886 41.0142C519.886 41.163 518.695 43.5448 518.249 44.438C518.1 41.6096 517.058 39.9721 514.974 38.0369Z" fill="url(#paint13_linear_11_4)"/>
    <path style="mix-blend-mode:screen" opacity="0.3" d="M518.844 29.1054C501.427 10.2 431.611 0.672852 279.028 0.672852C126.296 0.672852 56.4799 10.2 39.063 29.1054C36.2347 32.2315 36.0858 37.2928 38.7653 42.3541C51.2697 65.8743 60.9457 103.387 63.9229 119.464C62.8809 113.51 67.6445 108.598 77.1716 104.876C105.009 93.7114 150.56 88.0546 279.028 88.0546C407.347 88.0546 452.898 93.7114 480.735 104.876C490.263 108.598 495.026 113.51 493.984 119.464C496.961 103.387 506.637 65.8743 519.142 42.3541C521.821 37.2928 521.821 32.2315 518.844 29.1054Z" fill="url(#paint14_radial_11_4)"/>
    <defs>
        <linearGradient id="paint0_linear_11_4" x1="-13.0385" y1="79.8673" x2="84.7636" y2="40.4189" gradientUnits="userSpaceOnUse">
            <stop stop-color="#064203"/>
            <stop offset="0.42" stop-color="#50C22D"/>
            <stop offset="1" stop-color="#1F6B00"/>
        </linearGradient>
        <linearGradient id="paint1_linear_11_4" x1="63.4764" y1="97.8794" x2="97.5657" y2="97.8794" gradientUnits="userSpaceOnUse">
            <stop stop-color="#006633"/>
            <stop offset="1" stop-color="#009933"/>
        </linearGradient>
        <linearGradient id="paint2_linear_11_4" x1="-40.7268" y1="56.4958" x2="45.1664" y2="21.811" gradientUnits="userSpaceOnUse">
            <stop stop-color="#0D8C07"/>
            <stop offset="0.164" stop-color="#219C1B"/>
            <stop offset="0.503" stop-color="#5CDE33"/>
            <stop offset="1" stop-color="#298D00"/>
        </linearGradient>
        <radialGradient id="paint3_radial_11_4" cx="0" cy="0" r="1" gradientUnits="userSpaceOnUse" gradientTransform="translate(13.7567 50.6897) scale(100.333 100.333)">
            <stop offset="0.004" stop-color="#3AAA35"/>
            <stop offset="1" stop-color="#0D010D"/>
        </radialGradient>
        <linearGradient id="paint4_linear_11_4" x1="-3090.01" y1="-14219.5" x2="-2047.98" y2="-14640.5" gradientUnits="userSpaceOnUse">
            <stop stop-color="#D7F0B9"/>
            <stop offset="0.394" stop-color="white"/>
            <stop offset="1" stop-color="#E5FF9C"/>
        </linearGradient>
        <linearGradient id="paint5_linear_11_4" x1="473.144" y1="40.4189" x2="570.946" y2="79.8673" gradientUnits="userSpaceOnUse">
            <stop stop-color="#1F6B00"/>
            <stop offset="0.58" stop-color="#50C22D"/>
            <stop offset="1" stop-color="#064203"/>
        </linearGradient>
        <linearGradient id="paint6_linear_11_4" x1="460.49" y1="97.8794" x2="494.431" y2="97.8794" gradientUnits="userSpaceOnUse">
            <stop stop-color="#009933"/>
            <stop offset="1" stop-color="#006633"/>
        </linearGradient>
        <linearGradient id="paint7_linear_11_4" x1="512.89" y1="21.811" x2="598.634" y2="56.4958" gradientUnits="userSpaceOnUse">
            <stop stop-color="#0D8C07"/>
            <stop offset="0.164" stop-color="#219C1B"/>
            <stop offset="0.503" stop-color="#5CDE33"/>
            <stop offset="1" stop-color="#298D00"/>
        </linearGradient>
        <radialGradient id="paint8_radial_11_4" cx="0" cy="0" r="1" gradientUnits="userSpaceOnUse" gradientTransform="translate(557.995 48.0102) scale(99.5884 99.5884)">
            <stop offset="0.004" stop-color="#3AAA35"/>
            <stop offset="1" stop-color="#0D010D"/>
        </radialGradient>
        <linearGradient id="paint9_linear_11_4" x1="21047.6" y1="-6502.94" x2="22089.6" y2="-6081.96" gradientUnits="userSpaceOnUse">
            <stop stop-color="#E5FF9C"/>
            <stop offset="0.606" stop-color="white"/>
            <stop offset="1" stop-color="#D7F0B9"/>
        </linearGradient>
        <radialGradient id="paint10_radial_11_4" cx="0" cy="0" r="1" gradientUnits="userSpaceOnUse" gradientTransform="translate(-61.4186 115.147) scale(347.443 347.443)">
            <stop offset="0.328" stop-color="#3AAA35"/>
            <stop offset="0.37" stop-color="#5CDE33"/>
            <stop offset="0.457" stop-color="#298D00"/>
            <stop offset="1" stop-color="#47B308"/>
        </radialGradient>
        <radialGradient id="paint11_radial_11_4" cx="0" cy="0" r="1" gradientUnits="userSpaceOnUse" gradientTransform="translate(619.326 115.147) scale(347.443 347.443)">
            <stop offset="0.328" stop-color="#3AAA35"/>
            <stop offset="0.37" stop-color="#5CDE33"/>
            <stop offset="0.457" stop-color="#298D00"/>
            <stop offset="1" stop-color="#47B308"/>
        </radialGradient>
        <linearGradient id="paint12_linear_11_4" x1="38.4676" y1="5.88281" x2="279.177" y2="5.88281" gradientUnits="userSpaceOnUse">
            <stop stop-color="#D7F0B9"/>
            <stop offset="0.067" stop-color="white"/>
            <stop offset="0.177" stop-color="#E5FF9C"/>
            <stop offset="1" stop-color="#F8FFE6"/>
        </linearGradient>
        <linearGradient id="paint13_linear_11_4" x1="279.177" y1="5.88281" x2="520.035" y2="5.88281" gradientUnits="userSpaceOnUse">
            <stop stop-color="#F8FFE6"/>
            <stop offset="0.823" stop-color="#E5FF9C"/>
            <stop offset="0.933" stop-color="white"/>
            <stop offset="1" stop-color="#D7F0B9"/>
        </linearGradient>
        <radialGradient id="paint14_radial_11_4" cx="0" cy="0" r="1" gradientUnits="userSpaceOnUse" gradientTransform="translate(279.028 172.906) scale(302.189 302.189)">
            <stop stop-color="#7AD119"/>
            <stop offset="0.874" stop-color="#0D010D"/>
        </radialGradient>
    </defs>
</svg>
