<svg width="156" height="58" viewBox="0 0 156 58" fill="none" xmlns="http://www.w3.org/2000/svg">
    <path d="M24.9937 1.05454L55.3232 0L69.3646 1.65715L111.91 0.451953L131.006 1.05454L135.921 1.80779L148.699 9.34025L152.209 14.613L156 29.226L154.034 37.5117L148.699 49.2623L136.342 56.9455L131.006 57.548L116.263 58L101.239 56.4935L58.9739 57.548L53.6382 56.1922L46.3366 57.548L25.8362 58L17.4114 56.4935L7.44193 49.2623L2.24659 39.1688L0 29.226L1.68499 21.0909L7.44193 9.18962L15.3052 3.16365L24.9937 1.05454Z" fill="#A1A1A1"/>
    <path d="M25.5553 4.97178L16.99 6.93022L10.3906 12.5042L4.21237 22.2965L2.94861 28.7744L5.33566 37.6627L9.82893 47.1536L18.3942 53.3302H26.1169L45.9154 54.5354L53.7785 53.1796L59.2547 54.0835L101.379 51.8237L116.403 53.3302L130.725 52.8783L135.078 52.2757L145.75 45.7978L151.226 35.8549L152.77 29.377L149.962 17.1744L145.609 11.4497L135.219 5.87568L130.866 4.51982L112.191 4.06787L69.0837 6.93022L55.0423 5.57436L25.5553 4.97178Z" fill="#A1A1A1"/>
    <path d="M2.94866 28.7739L4.21242 22.296L1.68499 21.0908L0 29.2259L2.94866 28.7739Z" fill="url(#paint0_radial_15_3944)"/>
    <path d="M4.21237 22.2964L10.3906 12.5042L7.44188 9.18994L1.68494 21.0912L4.21237 22.2964Z" fill="url(#paint1_radial_15_3944)"/>
    <path d="M7.44202 9.18955L10.3908 12.5038L16.9902 6.92981L15.3053 3.16357L7.44202 9.18955Z" fill="url(#paint2_radial_15_3944)"/>
    <path d="M16.9901 6.93003L25.5554 4.97158L24.9937 1.05469L15.3052 3.16379L16.9901 6.93003Z" fill="url(#paint3_radial_15_3944)"/>
    <path d="M24.9938 1.05454L25.5555 4.97143L55.0424 5.57402L55.3233 0L24.9938 1.05454Z" fill="url(#paint4_radial_15_3944)"/>
    <path d="M55.3231 0L55.0422 5.57402L69.0836 6.92988L69.3645 1.65715L55.3231 0Z" fill="url(#paint5_radial_15_3944)"/>
    <path d="M69.3645 1.65686L69.0836 6.92959L112.191 4.06724L111.91 0.45166L69.3645 1.65686Z" fill="url(#paint6_radial_15_3944)"/>
    <path d="M111.91 0.45166L112.191 4.06724L130.866 4.51919L131.006 1.05425L111.91 0.45166Z" fill="url(#paint7_radial_15_3944)"/>
    <path d="M131.006 1.05469L130.866 4.51963L135.219 5.87548L135.921 1.80793L131.006 1.05469Z" fill="url(#paint8_radial_15_3944)"/>
    <path d="M135.921 1.80811L135.219 5.87566L145.61 11.4497L148.699 9.34057L135.921 1.80811Z" fill="url(#paint9_radial_15_3944)"/>
    <path d="M148.699 9.34033L145.609 11.4494L149.962 17.1741L152.209 14.6131L148.699 9.34033Z" fill="url(#paint10_radial_15_3944)"/>
    <path d="M152.209 14.6133L149.962 17.1743L152.771 29.3769L156 29.2263L152.209 14.6133Z" fill="url(#paint11_radial_15_3944)"/>
    <path d="M156 29.2256L152.77 29.3762L151.226 35.8541L154.034 37.5113L156 29.2256Z" fill="url(#paint12_radial_15_3944)"/>
    <path d="M154.034 37.5116L151.226 35.8545L145.75 45.7974L148.699 49.2623L154.034 37.5116Z" fill="url(#paint13_radial_15_3944)"/>
    <path d="M145.75 45.7974L135.078 52.2753L136.342 56.9454L148.698 49.2623L145.75 45.7974Z" fill="url(#paint14_radial_15_3944)"/>
    <path d="M135.078 52.2754L130.726 52.878L116.403 53.33L116.263 58.0001L131.006 57.5481L136.342 56.9455L135.078 52.2754Z" fill="url(#paint15_radial_15_3944)"/>
    <path d="M116.263 57.9999L116.403 53.3297L101.379 51.8232L101.239 56.4934L116.263 57.9999Z" fill="url(#paint16_radial_15_3944)"/>
    <path d="M101.238 56.4934L101.379 51.8232L59.2547 54.083L58.9739 57.5479L101.238 56.4934Z" fill="url(#paint17_radial_15_3944)"/>
    <path d="M58.9738 57.5475L59.2546 54.0826L53.7784 53.1787L53.6381 56.1917L58.9738 57.5475Z" fill="url(#paint18_radial_15_3944)"/>
    <path d="M53.6381 56.1917L53.7784 53.1787L45.9153 54.5345L46.3365 57.5475L53.6381 56.1917Z" fill="url(#paint19_radial_15_3944)"/>
    <path d="M46.3366 57.5478L45.9154 54.5348L26.1169 53.3296L25.8362 57.9997L46.3366 57.5478Z" fill="url(#paint20_radial_15_3944)"/>
    <path d="M25.8362 57.9997L26.117 53.3296H18.3942L17.4114 56.4932L25.8362 57.9997Z" fill="url(#paint21_radial_15_3944)"/>
    <path d="M17.4115 56.4931L18.3943 53.3295L9.82907 47.1528L7.44202 49.2619L17.4115 56.4931Z" fill="url(#paint22_radial_15_3944)"/>
    <path d="M9.82898 47.153L5.33571 37.6621L2.24658 39.1686L7.44192 49.2621L9.82898 47.153Z" fill="url(#paint23_radial_15_3944)"/>
    <path d="M5.33572 37.6627L2.94866 28.7744L0 29.2264L2.24659 39.1692L5.33572 37.6627Z" fill="url(#paint24_radial_15_3944)"/>
    <path fill-rule="evenodd" clip-rule="evenodd" d="M144.205 46.701C144.393 46.2993 144.439 45.998 144.346 45.7971C142.942 43.2361 123.705 34.7997 119.773 34.6491C111.489 34.7997 102.362 38.7166 94.6392 43.2361C94.0775 43.5374 95.6221 44.8932 96.0433 45.1945C98.1495 47.0023 99.9749 48.8101 102.081 50.4672C103.204 51.5218 106.855 51.9737 111.208 52.8776C107.932 52.4759 104.655 52.1244 101.379 51.8231C97.8219 52.024 94.3115 52.2248 90.848 52.4257C92.8138 52.1244 100.115 51.5218 100.115 50.7685C100.115 50.4672 99.9281 50.0655 99.5536 49.5634C93.9371 43.0854 84.3889 37.5114 77.2278 33.4439C66.5563 27.5685 53.7786 21.9945 47.7408 20.1867C46.6175 19.8854 45.7751 20.1867 44.7922 20.7893C42.2647 22.1452 39.8777 23.8023 37.7715 25.9114C30.6103 27.7192 23.5896 30.2802 16.5689 33.1426C15.0243 33.7452 6.31864 37.2101 5.75698 38.114C5.66337 38.114 5.6166 38.1642 5.6166 38.2647L9.82902 47.153L18.3942 53.3296H26.117C24.1512 53.3296 21.7642 53.3296 19.9389 53.4802C18.6751 53.6309 18.2538 54.9867 17.6922 56.0413C17.6922 55.5893 18.1134 53.6309 17.6922 53.3296C15.4456 51.5218 13.199 49.8646 10.8119 48.2075C9.68863 47.4543 8.84609 48.3582 7.86319 48.8101C8.28444 48.3582 9.5482 47.3036 9.12695 46.2491C7.91003 43.7382 6.69314 41.2776 5.47622 38.8672C5.05498 37.8127 3.51039 38.7166 2.80832 39.0179C3.36998 38.566 4.91457 37.6621 4.77415 37.0595C4.49332 34.7997 3.65082 32.54 3.08917 30.4309C2.52751 28.6231 1.96582 29.2257 0.421265 29.2257C1.12334 28.9244 1.82544 28.7737 2.3871 28.6231C3.08917 28.1711 3.51039 23.8023 3.51039 23.0491C3.51039 22.7478 3.51043 22.5971 3.37001 22.2958C3.08918 21.9945 2.52749 21.6932 2.10625 21.2413C2.66791 21.3919 3.22958 21.5426 3.79124 21.6932C4.77414 21.6932 9.82899 12.9556 9.26733 11.901C8.70568 10.9971 8.14409 10.2439 7.58243 9.49062C8.42492 10.0932 9.26735 10.9971 10.2502 11.4491C11.0927 11.901 16.4285 7.08023 16.1477 5.72439C16.0072 4.97114 15.7264 4.21789 15.4456 3.46465C16.0072 4.36854 16.4285 5.1218 16.9901 5.87505C17.5518 6.62829 24.8533 5.42308 24.9937 3.76594C24.9937 3.01269 24.9938 2.10881 25.1342 1.35557C25.415 2.25946 25.415 3.314 25.8363 4.21789C26.2575 4.82049 50.9704 4.66983 53.6382 4.82048C53.9191 4.82048 54.6211 4.66985 54.7615 3.9166C55.0424 2.86205 55.0423 1.65685 55.1828 0.45166C55.3232 1.65685 55.3232 2.86205 55.4636 3.9166C55.4636 4.66985 55.8848 4.97115 56.1657 5.1218C60.0973 5.57375 64.1693 5.87503 68.1009 6.32698C68.3817 6.32698 68.8029 6.17634 68.9433 5.87505C69.0837 4.66985 69.0837 3.31401 69.2242 2.10881C69.3646 3.31401 69.3646 4.66985 69.505 5.87505C69.6454 6.32699 69.9262 6.47763 70.2071 6.47763C83.8272 4.97114 97.4474 3.91659 111.068 3.76594C111.489 3.76594 111.91 3.31401 111.91 2.86206C111.91 2.25946 111.91 1.5062 111.91 0.752954C112.05 1.5062 112.191 2.41011 112.472 3.16335C112.472 3.46465 112.753 3.76595 113.033 3.61531C118.931 3.31401 124.547 3.46465 130.023 4.21789C130.164 4.21789 130.585 4.21789 130.585 3.76594C130.866 3.01269 130.866 2.1088 131.006 1.20491C131.147 2.1088 131.147 3.0127 131.287 3.9166C131.287 4.06725 131.287 4.36854 131.568 4.51919C132.551 4.82049 133.393 5.12179 134.376 5.27243C135.5 5.57373 135.64 3.0127 135.78 1.95815C135.78 2.7114 135.219 5.7244 135.921 5.87505C139.291 7.08024 142.427 8.68716 145.329 10.6958C146.171 11.1478 147.575 9.94257 148.418 9.49062C147.856 9.94257 147.294 10.5452 146.733 10.9971C146.452 11.2984 146.452 11.901 146.733 12.0517C147.856 13.2569 148.792 14.5625 149.541 15.9685C149.681 16.2698 150.243 16.4205 150.383 16.2698C150.945 15.9685 151.366 15.5166 151.788 15.0646C151.366 15.8179 150.945 16.4205 150.524 17.0231C150.524 17.1737 150.384 17.475 150.524 17.7763C151.647 21.1911 152.443 24.6058 152.911 28.0205C153.051 29.3763 154.456 29.2257 155.438 29.3763C154.034 29.6776 152.911 29.3763 152.63 31.1841C152.49 32.3893 152.068 33.7452 151.788 34.9504C151.788 35.101 151.788 35.4023 151.788 35.553C151.928 35.7036 151.928 35.8543 152.068 36.0049C152.349 36.4569 152.911 36.7582 153.192 37.0595C152.771 36.9088 152.349 36.6075 151.928 36.6075C151.788 36.6075 151.507 36.6075 151.366 36.7582C149.541 39.4698 147.997 42.3322 146.592 45.3452C146.452 45.6465 146.452 46.2491 146.592 46.5504C147.154 47.3036 147.575 47.9062 148.137 48.6595C147.435 48.0569 146.733 47.3036 146.031 46.8517C145.89 46.701 145.188 46.5504 144.907 46.701C141.912 48.4084 139.01 50.2162 136.202 52.1244C135.219 52.5763 135.921 54.8361 136.061 55.74C135.359 53.9322 135.5 52.727 133.674 52.727C132.691 52.727 131.708 52.727 130.726 52.8776L135.078 52.275L144.205 46.701ZM56.306 5.72439C55.604 5.87504 54.9019 6.32698 54.4807 7.23088C53.217 9.94257 51.2512 14.3114 49.0046 17.475C47.46 19.8854 47.46 19.2828 49.145 19.7348C53.0766 21.0906 66.6967 27.2672 77.5086 33.1426C80.5977 34.7997 86.7759 38.4153 91.9713 42.1815C92.6733 42.6335 93.6562 43.0854 94.4987 42.6335C101.379 38.7166 109.242 35.4023 116.965 34.3478C118.931 34.0465 119.352 33.5945 120.054 31.0335C121.599 24.8569 123.845 18.8309 126.513 13.1062C127.636 12.6542 133.815 8.28542 134.517 6.02568C134.517 5.57373 131.287 4.8205 130.866 4.66985L112.191 4.21789L68.9433 6.92959L56.306 5.72439ZM121.318 34.3478C129.462 36.3062 143.363 43.8387 145.048 44.8932C145.329 45.0439 145.89 44.8932 146.592 44.4413L151.366 36.0049L152.911 29.527L150.103 17.3244L145.75 11.4491L136.763 6.77893C136.342 6.47763 135.5 6.47763 134.657 7.23088C134.096 7.68283 133.674 8.13478 133.253 8.43608C132.785 9.03868 132.27 9.59104 131.708 10.0932C130.211 11.3988 128.666 12.604 127.075 13.7088C123.845 19.5841 122.02 25.9114 120.475 32.2387C120.054 34.0465 119.773 33.8958 121.318 34.3478ZM5.19538 37.0595C5.3826 37.1599 5.52299 37.2603 5.6166 37.3607C6.31867 37.662 15.1647 33.4439 16.5689 32.6906C23.1683 29.9789 29.9083 27.4179 36.7885 25.3088C39.8777 23.0491 43.1071 20.7893 46.7579 19.1322C48.3025 18.3789 54.4807 8.43607 54.0595 7.08022C54.0595 6.62827 54.0595 6.17633 53.6382 5.57373L25.6958 4.97114L17.1306 7.08022L10.5311 12.6543L4.35284 22.4465L3.08917 28.7737L5.19538 37.0595Z" fill="url(#paint25_radial_15_3944)"/>
    <path d="M5.05482 36.9088C5.24204 37.1097 5.38252 37.2101 5.47613 37.2101C6.31861 37.5114 15.0242 33.2933 16.5688 32.6907C23.0278 29.8283 29.7677 27.2673 36.648 25.3089C39.7371 22.8985 42.9666 20.6387 46.7578 19.1322C48.162 18.379 54.3402 8.28548 53.919 6.92964C53.919 6.47769 53.9189 6.02574 53.4977 5.42314L25.5553 4.97119L16.99 6.92964L10.3906 12.5037L4.21237 22.2959L2.94861 28.7738L5.05482 36.9088Z" fill="url(#paint26_radial_15_3944)"/>
    <path d="M16.5689 33.1434C15.0243 33.746 6.31861 37.2109 5.75696 38.1148C5.66335 38.1148 5.61658 38.165 5.61658 38.2655L9.829 47.1538L18.3942 53.3304H26.117L45.9154 54.5356L53.7786 53.1797L59.2548 54.0836L90.8479 52.4265C92.8137 52.1252 100.115 51.5226 100.115 50.7693C100.115 50.468 99.9281 50.0663 99.5536 49.5642C93.9371 43.0862 84.3889 37.5122 77.2278 33.4447C66.5563 27.5693 53.7786 21.9953 47.7408 20.1875C46.6175 19.8862 45.775 20.1875 44.7921 20.7901C42.2647 22.146 39.8776 23.8031 37.7714 25.9122C30.6103 27.72 23.5896 30.281 16.5689 33.1434Z" fill="url(#paint27_radial_15_3944)"/>
    <path d="M49.145 19.7354C53.0766 21.0913 66.6968 27.2679 77.5087 33.1432C80.5978 34.8003 86.776 38.4159 91.9713 42.1822C92.6734 42.6341 93.6562 42.9354 94.4987 42.4835C101.379 38.7172 109.242 35.4029 116.965 34.1977C118.931 33.8964 119.352 33.5952 120.054 31.0341C121.599 24.8575 123.845 18.6809 126.513 13.1068C127.636 12.5042 133.955 8.28606 134.517 6.02632C134.517 5.87567 134.095 5.57438 133.534 5.42373L130.866 4.51982L112.191 4.06787L69.0838 6.93022L56.3061 5.57436C55.604 5.87566 55.0424 6.32762 54.4807 7.23152C53.217 9.9432 51.2512 14.1614 49.0046 17.4757C47.4601 19.7354 47.46 19.1328 49.145 19.7354Z" fill="url(#paint28_radial_15_3944)"/>
    <path d="M119.773 34.6494C111.489 34.8001 102.362 38.7169 94.6391 43.2364C94.0774 43.5377 95.622 44.8936 96.0432 45.1949C98.1494 47.0027 99.9748 48.8105 102.081 50.4676C103.204 51.5221 106.855 51.9741 111.208 52.878L116.403 53.3299L130.725 52.878L135.078 52.2754L144.205 46.7014C144.392 46.2996 144.439 45.9983 144.346 45.7975C142.941 43.2364 123.705 34.8001 119.773 34.6494Z" fill="url(#paint29_radial_15_3944)"/>
    <path d="M120.335 32.0879C119.914 33.8957 119.633 33.8957 121.177 34.197C129.321 36.1554 143.222 43.6879 144.907 44.7425C145.188 45.0438 145.89 44.7425 146.452 44.4412L151.226 35.8542L152.771 29.3762L149.962 17.1736L145.609 11.449L136.623 6.62819H136.483C136.061 6.32689 135.359 6.47753 134.517 7.08012C133.955 7.53207 133.534 7.98403 133.113 8.43598C132.645 8.93815 132.13 9.44031 131.568 9.94247C130.164 11.2481 128.619 12.4533 126.934 13.5581C123.845 19.4334 121.88 25.7607 120.335 32.0879Z" fill="url(#paint30_radial_15_3944)"/>
    <path d="M130.725 48.8102C121.599 48.3582 108.119 47.9063 98.5707 48.0569C83.8272 49.2621 68.9433 49.4128 53.6382 48.9608C50.5491 48.9608 47.3195 49.1115 44.6517 49.8647C38.4734 49.1115 31.7335 47.7556 25.4149 47.9063C19.3771 48.2076 12.6372 42.6335 9.96936 37.6621C12.3564 43.0855 19.3771 49.2621 25.6958 48.9608C32.7165 48.0569 39.3159 50.166 44.9325 51.5218C47.7408 50.166 50.6895 50.0154 53.919 50.166C69.0838 50.4673 83.6868 50.0154 98.2899 48.8102C107.698 48.5089 121.318 49.4128 130.445 49.8647C133.534 48.8102 137.887 47.0024 140.976 44.14C142.005 43.2361 142.942 42.1314 143.784 40.8258C144.252 40.1227 144.72 39.3193 145.188 38.4154C144.907 38.9175 144.58 39.4197 144.205 39.9218C143.363 41.127 142.427 42.2318 141.397 43.2361C138.167 45.9478 133.815 47.7556 130.725 48.8102Z" fill="url(#paint31_radial_15_3944)"/>
    <path d="M25.415 9.03909C32.5761 9.34039 43.6689 9.64168 53.217 9.34038C71.7517 9.79233 94.218 8.58715 112.893 7.38196C118.51 8.7378 132.972 9.49104 137.185 10.6962C139.993 11.9014 143.363 15.8183 145.609 20.0365C145.797 20.3378 145.937 20.6391 146.031 20.9404C145.843 20.4382 145.609 19.9361 145.329 19.4339C143.082 15.0651 139.712 11.1482 137.044 9.94299C132.691 8.7378 118.369 8.28585 112.753 6.17676C94.3583 8.4365 71.7517 9.03908 53.3574 8.58713C43.8093 8.73778 32.7166 8.58714 25.5555 8.28584C18.956 8.58714 12.3565 12.956 9.54822 20.0365C12.4969 13.5586 18.9559 9.34039 25.415 9.03909Z" fill="url(#paint32_radial_15_3944)"/>
    <path opacity="0.5" d="M55.1828 1.50649C60.0972 2.10909 65.1522 3.31428 69.0838 4.82078C82.7039 3.31428 98.0091 2.71169 112.05 2.25974C118.369 2.10909 124.828 2.25974 131.006 2.71169C132.598 2.51083 134.142 2.71168 135.64 3.31428C139.572 5.12207 143.924 7.68313 147.154 10.3948C148.558 11.6 150.243 14.0104 151.086 15.9688C152.771 19.7351 154.315 25.3091 155.298 29.3766C155.298 30.5818 155.251 31.787 155.158 32.9922L156 29.226L152.209 14.613L148.699 9.34026L135.921 1.80779L131.006 1.05454L111.91 0.451953L69.3646 1.65715L55.3232 0L24.9937 1.05454L15.3052 3.16365L7.44197 9.18962L1.68503 21.0909L0.421265 27.2675C1.26375 25.3091 1.9658 23.5013 2.9487 21.6935C4.63367 17.9273 6.45907 14.3117 8.84611 10.8467C10.9523 8.58701 13.3394 6.32727 15.8668 4.51948C19.0963 3.61558 22.1855 3.16363 25.2746 3.31428C34.9631 1.95844 45.9154 1.50649 55.1828 1.50649Z" fill="#EDF5F7"/>
    <path opacity="0.7" fill-rule="evenodd" clip-rule="evenodd" d="M127.215 10.5458C136.904 10.9977 146.311 18.3796 146.311 29.377C146.311 40.3744 136.904 47.7562 127.215 48.2081C89.4437 50.0159 66.6967 49.8653 28.7849 48.2081C19.0963 47.7562 9.82898 40.3744 9.82898 29.377C9.82898 18.3796 19.0963 10.9977 28.7849 10.5458C66.6967 8.73799 89.4437 8.73799 127.215 10.5458ZM28.9253 12.8055C20.36 13.1068 11.9352 19.5847 11.9352 29.377C11.9352 39.1692 20.36 45.4964 28.9253 45.9484C66.6966 47.6055 89.3033 47.7562 127.075 45.9484C135.64 45.4964 144.205 39.1692 144.205 29.377C144.205 19.5847 135.64 13.1068 127.075 12.8055C89.3033 10.9977 66.6966 10.9977 28.9253 12.8055Z" fill="url(#paint33_linear_15_3944)"/>
    <g style="mix-blend-mode:multiply" opacity="0.5">
        <path d="M28.7849 10.5458C21.4834 10.8471 14.4626 15.0653 11.3735 21.8445C14.7435 15.6679 21.4834 11.9016 28.3637 11.4497C66.5563 9.79255 89.5842 9.79255 127.636 11.4497C134.517 11.9016 141.257 15.6679 144.627 21.8445C141.537 15.0653 134.517 10.8471 127.215 10.5458C89.4438 8.73799 66.6967 8.73799 28.7849 10.5458Z" fill="#878787"/>
    </g>
    <g style="mix-blend-mode:multiply" opacity="0.5">
        <path d="M127.075 45.9484C89.3034 47.7562 66.6967 47.6055 28.9253 45.9484C23.73 45.6471 18.6751 43.3874 15.4456 39.3198C18.6751 43.8393 24.0108 46.551 29.3466 46.8523C66.8371 48.5094 89.163 48.5094 126.654 46.8523C131.989 46.551 137.325 43.8393 140.554 39.3198C137.325 43.3874 132.27 45.6471 127.075 45.9484Z" fill="#9D9D9C"/>
    </g>
    <path d="M28.9253 12.8056C20.36 13.1068 11.9352 19.5848 11.9352 29.377C11.9352 39.1692 20.36 45.4965 28.9253 45.9484C66.6966 47.6055 89.3033 47.7562 127.075 45.9484C135.64 45.4965 144.205 39.1692 144.205 29.377C144.205 19.5848 135.64 13.1068 127.075 12.8056C89.3033 10.9978 66.6966 10.9978 28.9253 12.8056Z" fill="url(#paint34_linear_15_3944)"/>
    <path style="mix-blend-mode:screen" opacity="0.3" d="M30.6102 13.8596C22.3258 14.1609 14.0414 19.8855 14.0414 28.7739C14.0414 37.6622 22.3258 43.5375 30.6102 43.8388C67.2583 45.3453 88.8821 45.3453 125.53 43.8388C133.815 43.5375 141.959 37.6622 141.959 28.7739C141.959 19.8855 133.815 14.1609 125.53 13.8596C88.8821 12.2024 67.2583 12.2024 30.6102 13.8596Z" fill="url(#paint35_radial_15_3944)"/>
    <path style="mix-blend-mode:screen" opacity="0.7" d="M18.3943 37.6622C20.5005 40.0726 23.3088 41.4285 26.117 41.5791C37.9118 42.1817 53.919 42.6337 77.649 42.6337C77.649 37.7125 77.649 32.8415 77.649 28.0207C54.3403 28.0207 38.7543 27.7194 15.4456 28.322C15.3052 31.9376 16.4285 35.4025 18.3943 37.6622ZM15.4456 28.322C38.7543 27.7194 54.3403 28.0207 77.649 28.0207C77.649 23.6519 77.649 19.1324 77.649 15.9688C53.919 16.1194 37.9118 16.4207 26.117 17.0233C23.3088 17.1739 20.5005 18.5298 18.3943 20.9402C16.8497 22.748 15.7264 25.309 15.4456 28.322ZM77.649 42.6337C101.66 42.6337 118.088 42.3324 129.883 41.5791C132.691 41.4285 135.5 40.0726 137.606 37.6622C139.572 35.4025 140.835 31.9376 140.555 28.322C117.105 27.7194 101.098 28.0207 77.649 28.0207C77.649 32.8415 77.649 37.7125 77.649 42.6337ZM77.649 28.0207C101.098 28.0207 117.105 27.7194 140.555 28.322C140.414 25.309 139.291 22.748 137.606 20.9402C135.5 18.5298 132.691 17.1739 129.883 17.0233C118.088 16.4207 101.66 15.9688 77.649 15.9688C77.649 19.1324 77.649 23.6519 77.649 28.0207Z" fill="url(#paint36_linear_15_3944)"/>
    <path style="mix-blend-mode:screen" d="M15.1648 26.0624C14.884 27.5689 14.7436 29.2261 15.0244 30.7326C15.1648 32.5404 16.5689 33.8962 20.5005 34.1975C46.4771 36.3066 108.4 30.13 134.798 24.104C141.818 22.5975 133.534 14.9144 125.109 14.3118C105.17 13.2572 69.0838 13.5585 49.145 14.0105C42.1243 14.0105 37.0694 13.2572 28.0829 14.9144C22.0451 16.1196 16.4285 19.7352 15.1648 26.0624Z" fill="url(#paint37_radial_15_3944)"/>
    <path style="mix-blend-mode:screen" opacity="0.7" d="M25.8362 41.5793C24.432 42.3325 25.4149 42.6338 31.1719 43.0858C44.9325 43.9897 93.3753 44.4416 106.574 44.1403C121.177 43.839 128.619 43.9897 134.797 40.5247C139.712 37.6624 139.993 33.8962 133.955 31.6364C125.811 28.7741 30.0486 39.0182 25.8362 41.5793Z" fill="url(#paint38_radial_15_3944)"/>
    <path style="mix-blend-mode:screen" d="M26.117 17.6264C11.5139 21.6939 26.117 25.4601 34.6823 25.9121C48.8641 26.5147 114.999 22.7484 127.636 17.6264C130.726 16.4212 131.428 15.3666 118.51 14.9147C106.013 14.6134 38.4734 14.3121 26.117 17.6264Z" fill="url(#paint39_linear_15_3944)"/>
    <path style="mix-blend-mode:screen" opacity="0.5" d="M133.534 40.5246C129.462 42.7844 123.003 43.0856 118.229 43.3869C105.591 43.9895 40.5796 43.8389 27.2403 42.6337C26.6786 42.4831 25.4149 42.3324 25.6957 41.8805C26.3978 41.1272 147.294 32.9922 133.534 40.5246Z" fill="url(#paint40_radial_15_3944)"/>
    <path style="mix-blend-mode:screen" d="M124.969 44.14C129.041 43.9893 133.253 42.6335 136.763 38.7166C138.87 36.4569 139.852 34.0465 136.342 35.2517C131.474 36.7582 126.7 38.9175 122.02 41.7296C117.527 44.4413 123.564 44.14 124.969 44.14Z" fill="url(#paint41_linear_15_3944)"/>
    <path d="M44.3672 26.75H44V29.7734H44.4922C45.1745 29.7734 45.6953 29.6432 46.0547 29.3828C46.4141 29.1172 46.5938 28.737 46.5938 28.2422C46.5938 27.7266 46.4167 27.349 46.0625 27.1094C45.7083 26.8698 45.1432 26.75 44.3672 26.75ZM41.2969 36V24.6719H44.2109C45.1068 24.6719 45.8177 24.737 46.3438 24.8672C46.8698 24.9974 47.3359 25.2161 47.7422 25.5234C48.1641 25.8307 48.4896 26.2161 48.7188 26.6797C48.9531 27.138 49.0703 27.625 49.0703 28.1406C49.0703 29.2865 48.6615 30.1953 47.8438 30.8672C47.0312 31.5391 45.9271 31.875 44.5312 31.875C44.3854 31.875 44.276 31.875 44.2031 31.875C44.1302 31.8698 44.0625 31.8646 44 31.8594V36H41.2969ZM53.4681 36H50.9916V24.8516L53.4681 24.5156V36ZM60.4831 30.75C60.3373 30.6667 60.1967 30.6068 60.0612 30.5703C59.931 30.5339 59.8008 30.5156 59.6706 30.5156C59.2071 30.5156 58.8165 30.7109 58.4987 31.1016C58.181 31.487 58.0222 31.974 58.0222 32.5625C58.0222 33.1146 58.1602 33.5755 58.4362 33.9453C58.7175 34.3099 59.0586 34.4922 59.4597 34.4922C59.6211 34.4922 59.7852 34.4505 59.9519 34.3672C60.1237 34.2786 60.3008 34.1458 60.4831 33.9688V30.75ZM62.9362 28.9609V33.3594C62.9362 33.9115 62.9467 34.375 62.9675 34.75C62.9883 35.125 63.0196 35.4453 63.0612 35.7109L60.7878 36.3359L60.5691 35.6641C60.2618 35.8932 59.9597 36.0625 59.6628 36.1719C59.3711 36.2812 59.0639 36.3359 58.7409 36.3359C57.8347 36.3359 57.0717 35.974 56.4519 35.25C55.8373 34.526 55.53 33.625 55.53 32.5469C55.53 31.4115 55.8764 30.474 56.5691 29.7344C57.2618 28.9948 58.1368 28.625 59.1941 28.625C59.4389 28.625 59.6941 28.6589 59.9597 28.7266C60.2253 28.7943 60.5196 28.8984 60.8425 29.0391L62.9362 28.9609ZM67.0294 36L64.4981 28.9609H67.1388L68.2716 32.5938L69.67 28.9609H71.8419L67.4278 39.4062H64.7872C65.183 39.0312 65.5476 38.6068 65.8809 38.1328C66.2195 37.6641 66.5111 37.1615 66.7559 36.625L67.0294 36ZM82.7391 36.4297H82.5516L77.2078 24.6719H80.0672L82.7391 30.8672L85.4344 24.6719H88.0828L82.7391 36.4297ZM89.1213 26.3359C89.1213 25.9609 89.2515 25.6432 89.5119 25.3828C89.7723 25.1224 90.09 24.9922 90.465 24.9922C90.8452 24.9922 91.1629 25.1224 91.4181 25.3828C91.6785 25.638 91.8088 25.9557 91.8088 26.3359C91.8088 26.7109 91.6785 27.0312 91.4181 27.2969C91.1577 27.5625 90.84 27.6953 90.465 27.6953C90.1004 27.6953 89.7853 27.5625 89.5197 27.2969C89.2541 27.026 89.1213 26.7057 89.1213 26.3359ZM91.715 36H89.2384V28.9609L91.715 28.625V36ZM98.73 30.75C98.5842 30.6667 98.4435 30.6068 98.3081 30.5703C98.1779 30.5339 98.0477 30.5156 97.9175 30.5156C97.454 30.5156 97.0633 30.7109 96.7456 31.1016C96.4279 31.487 96.2691 31.974 96.2691 32.5625C96.2691 33.1146 96.4071 33.5755 96.6831 33.9453C96.9644 34.3099 97.3055 34.4922 97.7066 34.4922C97.8628 34.4922 98.0243 34.4609 98.1909 34.3984C98.3628 34.3307 98.5425 34.2292 98.73 34.0938V30.75ZM101.183 24.5156V36L99.0347 36.3359L98.9409 35.7891C98.5972 35.9766 98.2586 36.1146 97.9253 36.2031C97.592 36.2917 97.2534 36.3359 96.9097 36.3359C95.9253 36.3359 95.1571 36.0104 94.605 35.3594C94.0529 34.7083 93.7769 33.8073 93.7769 32.6562C93.7769 31.4479 94.0998 30.4792 94.7456 29.75C95.3967 29.0208 96.256 28.6562 97.3237 28.6562C97.5737 28.6562 97.8133 28.6823 98.0425 28.7344C98.2717 28.7812 98.5008 28.8568 98.73 28.9609V24.8516L101.183 24.5156ZM105.597 31.8203L108.651 31.7266V31.6172C108.651 31.2474 108.521 30.9453 108.261 30.7109C108 30.4714 107.672 30.3516 107.276 30.3516C106.834 30.3516 106.464 30.4818 106.167 30.7422C105.87 30.9974 105.68 31.3568 105.597 31.8203ZM110.268 33.4844L109.995 35.6484C109.516 35.8776 109.044 36.0469 108.581 36.1562C108.117 36.2656 107.649 36.3203 107.175 36.3203C106.003 36.3203 105.057 35.9844 104.339 35.3125C103.62 34.6354 103.261 33.7552 103.261 32.6719C103.261 31.5417 103.654 30.5885 104.44 29.8125C105.227 29.0312 106.182 28.6406 107.307 28.6406C108.271 28.6406 109.06 28.9271 109.675 29.5C110.294 30.0677 110.604 30.8047 110.604 31.7109C110.604 31.8516 110.594 32.0755 110.573 32.3828L110.565 32.4297L110.347 32.75L105.542 32.8828C105.578 33.3568 105.776 33.7422 106.136 34.0391C106.495 34.3307 106.948 34.4766 107.495 34.4766C107.88 34.4766 108.307 34.3932 108.776 34.2266C109.25 34.0599 109.748 33.8125 110.268 33.4844ZM114.69 32.4766C114.69 33.0755 114.817 33.5599 115.073 33.9297C115.333 34.2943 115.664 34.4766 116.065 34.4766C116.466 34.4766 116.794 34.2917 117.049 33.9219C117.309 33.5521 117.44 33.0703 117.44 32.4766C117.44 31.888 117.309 31.4089 117.049 31.0391C116.794 30.6641 116.466 30.4766 116.065 30.4766C115.664 30.4766 115.333 30.6615 115.073 31.0312C114.817 31.401 114.69 31.8828 114.69 32.4766ZM112.19 32.4766C112.19 31.3568 112.554 30.4349 113.283 29.7109C114.018 28.987 114.945 28.625 116.065 28.625C117.19 28.625 118.119 28.987 118.854 29.7109C119.588 30.4349 119.955 31.3568 119.955 32.4766C119.955 33.5964 119.588 34.5208 118.854 35.25C118.119 35.974 117.19 36.3359 116.065 36.3359C114.95 36.3359 114.026 35.974 113.291 35.25C112.557 34.5208 112.19 33.5964 112.19 32.4766Z" fill="#205100"/>
    <path d="M43.3672 25.75H43V28.7734H43.4922C44.1745 28.7734 44.6953 28.6432 45.0547 28.3828C45.4141 28.1172 45.5938 27.737 45.5938 27.2422C45.5938 26.7266 45.4167 26.349 45.0625 26.1094C44.7083 25.8698 44.1432 25.75 43.3672 25.75ZM40.2969 35V23.6719H43.2109C44.1068 23.6719 44.8177 23.737 45.3438 23.8672C45.8698 23.9974 46.3359 24.2161 46.7422 24.5234C47.1641 24.8307 47.4896 25.2161 47.7188 25.6797C47.9531 26.138 48.0703 26.625 48.0703 27.1406C48.0703 28.2865 47.6615 29.1953 46.8438 29.8672C46.0312 30.5391 44.9271 30.875 43.5312 30.875C43.3854 30.875 43.276 30.875 43.2031 30.875C43.1302 30.8698 43.0625 30.8646 43 30.8594V35H40.2969ZM52.4681 35H49.9916V23.8516L52.4681 23.5156V35ZM59.4831 29.75C59.3373 29.6667 59.1967 29.6068 59.0612 29.5703C58.931 29.5339 58.8008 29.5156 58.6706 29.5156C58.2071 29.5156 57.8165 29.7109 57.4987 30.1016C57.181 30.487 57.0222 30.974 57.0222 31.5625C57.0222 32.1146 57.1602 32.5755 57.4362 32.9453C57.7175 33.3099 58.0586 33.4922 58.4597 33.4922C58.6211 33.4922 58.7852 33.4505 58.9519 33.3672C59.1237 33.2786 59.3008 33.1458 59.4831 32.9688V29.75ZM61.9362 27.9609V32.3594C61.9362 32.9115 61.9467 33.375 61.9675 33.75C61.9883 34.125 62.0196 34.4453 62.0612 34.7109L59.7878 35.3359L59.5691 34.6641C59.2618 34.8932 58.9597 35.0625 58.6628 35.1719C58.3711 35.2812 58.0639 35.3359 57.7409 35.3359C56.8347 35.3359 56.0717 34.974 55.4519 34.25C54.8373 33.526 54.53 32.625 54.53 31.5469C54.53 30.4115 54.8764 29.474 55.5691 28.7344C56.2618 27.9948 57.1368 27.625 58.1941 27.625C58.4389 27.625 58.6941 27.6589 58.9597 27.7266C59.2253 27.7943 59.5196 27.8984 59.8425 28.0391L61.9362 27.9609ZM66.0294 35L63.4981 27.9609H66.1388L67.2716 31.5938L68.67 27.9609H70.8419L66.4278 38.4062H63.7872C64.183 38.0312 64.5476 37.6068 64.8809 37.1328C65.2195 36.6641 65.5111 36.1615 65.7559 35.625L66.0294 35ZM81.7391 35.4297H81.5516L76.2078 23.6719H79.0672L81.7391 29.8672L84.4344 23.6719H87.0828L81.7391 35.4297ZM88.1213 25.3359C88.1213 24.9609 88.2515 24.6432 88.5119 24.3828C88.7723 24.1224 89.09 23.9922 89.465 23.9922C89.8452 23.9922 90.1629 24.1224 90.4181 24.3828C90.6785 24.638 90.8088 24.9557 90.8088 25.3359C90.8088 25.7109 90.6785 26.0312 90.4181 26.2969C90.1577 26.5625 89.84 26.6953 89.465 26.6953C89.1004 26.6953 88.7853 26.5625 88.5197 26.2969C88.2541 26.026 88.1213 25.7057 88.1213 25.3359ZM90.715 35H88.2384V27.9609L90.715 27.625V35ZM97.73 29.75C97.5842 29.6667 97.4435 29.6068 97.3081 29.5703C97.1779 29.5339 97.0477 29.5156 96.9175 29.5156C96.454 29.5156 96.0633 29.7109 95.7456 30.1016C95.4279 30.487 95.2691 30.974 95.2691 31.5625C95.2691 32.1146 95.4071 32.5755 95.6831 32.9453C95.9644 33.3099 96.3055 33.4922 96.7066 33.4922C96.8628 33.4922 97.0243 33.4609 97.1909 33.3984C97.3628 33.3307 97.5425 33.2292 97.73 33.0938V29.75ZM100.183 23.5156V35L98.0347 35.3359L97.9409 34.7891C97.5972 34.9766 97.2586 35.1146 96.9253 35.2031C96.592 35.2917 96.2534 35.3359 95.9097 35.3359C94.9253 35.3359 94.1571 35.0104 93.605 34.3594C93.0529 33.7083 92.7769 32.8073 92.7769 31.6562C92.7769 30.4479 93.0998 29.4792 93.7456 28.75C94.3967 28.0208 95.256 27.6562 96.3237 27.6562C96.5737 27.6562 96.8133 27.6823 97.0425 27.7344C97.2717 27.7812 97.5008 27.8568 97.73 27.9609V23.8516L100.183 23.5156ZM104.597 30.8203L107.651 30.7266V30.6172C107.651 30.2474 107.521 29.9453 107.261 29.7109C107 29.4714 106.672 29.3516 106.276 29.3516C105.834 29.3516 105.464 29.4818 105.167 29.7422C104.87 29.9974 104.68 30.3568 104.597 30.8203ZM109.268 32.4844L108.995 34.6484C108.516 34.8776 108.044 35.0469 107.581 35.1562C107.117 35.2656 106.649 35.3203 106.175 35.3203C105.003 35.3203 104.057 34.9844 103.339 34.3125C102.62 33.6354 102.261 32.7552 102.261 31.6719C102.261 30.5417 102.654 29.5885 103.44 28.8125C104.227 28.0312 105.182 27.6406 106.307 27.6406C107.271 27.6406 108.06 27.9271 108.675 28.5C109.294 29.0677 109.604 29.8047 109.604 30.7109C109.604 30.8516 109.594 31.0755 109.573 31.3828L109.565 31.4297L109.347 31.75L104.542 31.8828C104.578 32.3568 104.776 32.7422 105.136 33.0391C105.495 33.3307 105.948 33.4766 106.495 33.4766C106.88 33.4766 107.307 33.3932 107.776 33.2266C108.25 33.0599 108.748 32.8125 109.268 32.4844ZM113.69 31.4766C113.69 32.0755 113.817 32.5599 114.073 32.9297C114.333 33.2943 114.664 33.4766 115.065 33.4766C115.466 33.4766 115.794 33.2917 116.049 32.9219C116.309 32.5521 116.44 32.0703 116.44 31.4766C116.44 30.888 116.309 30.4089 116.049 30.0391C115.794 29.6641 115.466 29.4766 115.065 29.4766C114.664 29.4766 114.333 29.6615 114.073 30.0312C113.817 30.401 113.69 30.8828 113.69 31.4766ZM111.19 31.4766C111.19 30.3568 111.554 29.4349 112.283 28.7109C113.018 27.987 113.945 27.625 115.065 27.625C116.19 27.625 117.119 27.987 117.854 28.7109C118.588 29.4349 118.955 30.3568 118.955 31.4766C118.955 32.5964 118.588 33.5208 117.854 34.25C117.119 34.974 116.19 35.3359 115.065 35.3359C113.95 35.3359 113.026 34.974 112.291 34.25C111.557 33.5208 111.19 32.5964 111.19 31.4766Z" fill="white"/>
    <defs>
        <radialGradient id="paint0_radial_15_3944" cx="0" cy="0" r="1" gradientUnits="userSpaceOnUse" gradientTransform="translate(-7.30153 15.8181) scale(30.4699 32.691)">
            <stop stop-color="#9DA9AB"/>
            <stop offset="1" stop-color="#555763"/>
        </radialGradient>
        <radialGradient id="paint1_radial_15_3944" cx="0" cy="0" r="1" gradientUnits="userSpaceOnUse" gradientTransform="translate(-7.02075 4.82111) scale(21.2026 22.748)">
            <stop stop-color="#E4ECF0"/>
            <stop offset="1" stop-color="#828D94"/>
        </radialGradient>
        <radialGradient id="paint2_radial_15_3944" cx="0" cy="0" r="1" gradientUnits="userSpaceOnUse" gradientTransform="translate(5.75705 -4.67019) scale(17.2709 18.5299)">
            <stop stop-color="#E4ECF0"/>
            <stop offset="1" stop-color="#828D94"/>
        </radialGradient>
        <radialGradient id="paint3_radial_15_3944" cx="0" cy="0" r="1" gradientUnits="userSpaceOnUse" gradientTransform="translate(11.3736 -28.4727) scale(31.7335 34.0468)">
            <stop stop-color="#E4ECF0"/>
            <stop offset="1" stop-color="#A6B4BD"/>
        </radialGradient>
        <radialGradient id="paint4_radial_15_3944" cx="0" cy="0" r="1" gradientUnits="userSpaceOnUse" gradientTransform="translate(52.0937 -31.1844) scale(40.5797 43.5376)">
            <stop stop-color="#E4ECF0"/>
            <stop offset="1" stop-color="#A6B4BD"/>
        </radialGradient>
        <radialGradient id="paint5_radial_15_3944" cx="0" cy="0" r="1" gradientUnits="userSpaceOnUse" gradientTransform="translate(65.9945 -18.2286) scale(22.045 23.652)">
            <stop stop-color="#E4ECF0"/>
            <stop offset="1" stop-color="#A6B4BD"/>
        </radialGradient>
        <radialGradient id="paint6_radial_15_3944" cx="0" cy="0" r="1" gradientUnits="userSpaceOnUse" gradientTransform="translate(110.646 -53.6315) scale(53.217 57.0961)">
            <stop stop-color="#E4ECF0"/>
            <stop offset="1" stop-color="#929EA6"/>
        </radialGradient>
        <radialGradient id="paint7_radial_15_3944" cx="0" cy="0" r="1" gradientUnits="userSpaceOnUse" gradientTransform="translate(121.879 -30.5821) scale(33.8397 36.3065)">
            <stop stop-color="#BDCACF"/>
            <stop offset="1" stop-color="#828599"/>
        </radialGradient>
        <radialGradient id="paint8_radial_15_3944" cx="0" cy="0" r="1" gradientUnits="userSpaceOnUse" gradientTransform="translate(134.657 -8.43626) scale(17.1304 18.3793)">
            <stop stop-color="#E4ECF0"/>
            <stop offset="1" stop-color="#A6B4BD"/>
        </radialGradient>
        <radialGradient id="paint9_radial_15_3944" cx="0" cy="0" r="1" gradientUnits="userSpaceOnUse" gradientTransform="translate(146.312 -24.7062) scale(31.3125 33.5949)">
            <stop stop-color="#E4ECF0"/>
            <stop offset="1" stop-color="#A6B4BD"/>
        </radialGradient>
        <radialGradient id="paint10_radial_15_3944" cx="0" cy="0" r="1" gradientUnits="userSpaceOnUse" gradientTransform="translate(157.264 -14.7636) scale(28.3637 30.4312)">
            <stop stop-color="#E4ECF0"/>
            <stop offset="1" stop-color="#929EA6"/>
        </radialGradient>
        <radialGradient id="paint11_radial_15_3944" cx="0" cy="0" r="1" gradientUnits="userSpaceOnUse" gradientTransform="translate(155.438 10.0938) scale(28.9252 31.0338)">
            <stop stop-color="#9DA9AB"/>
            <stop offset="1" stop-color="#555763"/>
        </radialGradient>
        <radialGradient id="paint12_radial_15_3944" cx="0" cy="0" r="1" gradientUnits="userSpaceOnUse" gradientTransform="translate(159.089 25.61) scale(15.8666 17.0234)">
            <stop stop-color="#9DA9AB"/>
            <stop offset="1" stop-color="#555763"/>
        </radialGradient>
        <radialGradient id="paint13_radial_15_3944" cx="0" cy="0" r="1" gradientUnits="userSpaceOnUse" gradientTransform="translate(142.661 26.2129) scale(27.2404 29.226)">
            <stop stop-color="#9DA9AB"/>
            <stop offset="1" stop-color="#555763"/>
        </radialGradient>
        <radialGradient id="paint14_radial_15_3944" cx="0" cy="0" r="1" gradientUnits="userSpaceOnUse" gradientTransform="translate(127.917 28.4727) scale(30.4699 32.6909)">
            <stop stop-color="#9DA9AB"/>
            <stop offset="1" stop-color="#555763"/>
        </radialGradient>
        <radialGradient id="paint15_radial_15_3944" cx="0" cy="0" r="1" gradientUnits="userSpaceOnUse" gradientTransform="translate(131.849 81.652) scale(38.6138 41.4286)">
            <stop stop-color="#9DA9AB"/>
            <stop offset="1" stop-color="#555763"/>
        </radialGradient>
        <radialGradient id="paint16_radial_15_3944" cx="0" cy="0" r="1" gradientUnits="userSpaceOnUse" gradientTransform="translate(95.7624 70.5037) scale(25.8363 27.7194)">
            <stop stop-color="#9DA9AB"/>
            <stop offset="1" stop-color="#555763"/>
        </radialGradient>
        <radialGradient id="paint17_radial_15_3944" cx="0" cy="0" r="1" gradientUnits="userSpaceOnUse" gradientTransform="translate(94.6391 83.1582) scale(57.1485 61.3141)">
            <stop stop-color="#9DA9AB"/>
            <stop offset="1" stop-color="#555763"/>
        </radialGradient>
        <radialGradient id="paint18_radial_15_3944" cx="0" cy="0" r="1" gradientUnits="userSpaceOnUse" gradientTransform="translate(59.2546 36.1554) scale(25.9766 27.8701)">
            <stop stop-color="#9DA9AB"/>
            <stop offset="1" stop-color="#555763"/>
        </radialGradient>
        <radialGradient id="paint19_radial_15_3944" cx="0" cy="0" r="1" gradientUnits="userSpaceOnUse" gradientTransform="translate(49.1448 35.5528) scale(19.0962 20.4883)">
            <stop stop-color="#9DA9AB"/>
            <stop offset="1" stop-color="#555763"/>
        </radialGradient>
        <radialGradient id="paint20_radial_15_3944" cx="0" cy="0" r="1" gradientUnits="userSpaceOnUse" gradientTransform="translate(38.333 81.9529) scale(32.9972 35.4025)">
            <stop stop-color="#9DA9AB"/>
            <stop offset="1" stop-color="#555763"/>
        </radialGradient>
        <radialGradient id="paint21_radial_15_3944" cx="0" cy="0" r="1" gradientUnits="userSpaceOnUse" gradientTransform="translate(15.4456 74.2698) scale(31.5929 33.896)">
            <stop stop-color="#9DA9AB"/>
            <stop offset="1" stop-color="#555763"/>
        </radialGradient>
        <radialGradient id="paint22_radial_15_3944" cx="0" cy="0" r="1" gradientUnits="userSpaceOnUse" gradientTransform="translate(19.9388 31.3347) scale(22.4662 24.1039)">
            <stop stop-color="#9DA9AB"/>
            <stop offset="1" stop-color="#555763"/>
        </radialGradient>
        <radialGradient id="paint23_radial_15_3944" cx="0" cy="0" r="1" gradientUnits="userSpaceOnUse" gradientTransform="translate(-9.9695 41.4283) scale(34.1208 36.6078)">
            <stop stop-color="#9DA9AB"/>
            <stop offset="1" stop-color="#555763"/>
        </radialGradient>
        <radialGradient id="paint24_radial_15_3944" cx="0" cy="0" r="1" gradientUnits="userSpaceOnUse" gradientTransform="translate(-4.49324 29.377) scale(23.4491 25.1584)">
            <stop stop-color="#9DA9AB"/>
            <stop offset="1" stop-color="#555763"/>
        </radialGradient>
        <radialGradient id="paint25_radial_15_3944" cx="0" cy="0" r="1" gradientUnits="userSpaceOnUse" gradientTransform="translate(26.5383 -49.8652) scale(170.463 182.888)">
            <stop stop-color="#E2F1F7"/>
            <stop offset="1" stop-color="#9A9DB5"/>
        </radialGradient>
        <radialGradient id="paint26_radial_15_3944" cx="0" cy="0" r="1" gradientUnits="userSpaceOnUse" gradientTransform="translate(23.0278 52.4257) scale(71.3304 76.5299)">
            <stop stop-color="#AAB4B8"/>
            <stop offset="1" stop-color="#828599"/>
        </radialGradient>
        <radialGradient id="paint27_radial_15_3944" cx="0" cy="0" r="1" gradientUnits="userSpaceOnUse" gradientTransform="translate(42.9667 90.3901) scale(111.91 120.067)">
            <stop stop-color="#717485"/>
            <stop offset="1" stop-color="#9DA9AB"/>
        </radialGradient>
        <radialGradient id="paint28_radial_15_3944" cx="0" cy="0" r="1" gradientUnits="userSpaceOnUse" gradientTransform="translate(69.7859 74.2705) scale(109.102 117.055)">
            <stop stop-color="#AAB4B8"/>
            <stop offset="1" stop-color="#828599"/>
        </radialGradient>
        <radialGradient id="paint29_radial_15_3944" cx="0" cy="0" r="1" gradientUnits="userSpaceOnUse" gradientTransform="translate(100.536 -5.42334) scale(66.837 71.7091)">
            <stop stop-color="#9DA9AB"/>
            <stop offset="1" stop-color="#717485"/>
        </radialGradient>
        <radialGradient id="paint30_radial_15_3944" cx="0" cy="0" r="1" gradientUnits="userSpaceOnUse" gradientTransform="translate(106.013 35.8542) scale(55.4635 59.5065)">
            <stop stop-color="#9DA9AB"/>
            <stop offset="1" stop-color="#717485"/>
        </radialGradient>
        <radialGradient id="paint31_radial_15_3944" cx="0" cy="0" r="1" gradientUnits="userSpaceOnUse" gradientTransform="translate(55.7444 4.36862) scale(105.732 113.439)">
            <stop stop-color="#E2F1F7"/>
            <stop offset="1" stop-color="#9A9DB5"/>
        </radialGradient>
        <radialGradient id="paint32_radial_15_3944" cx="0" cy="0" r="1" gradientUnits="userSpaceOnUse" gradientTransform="translate(53.0766 3.01311) scale(93.937 100.784)">
            <stop stop-color="#E2F1F7"/>
            <stop offset="1" stop-color="#9A9DB5"/>
        </radialGradient>
        <linearGradient id="paint33_linear_15_3944" x1="72.8749" y1="49.564" x2="72.8749" y2="9.18994" gradientUnits="userSpaceOnUse">
            <stop stop-color="#5B666B"/>
            <stop offset="1" stop-color="#4A555C"/>
        </linearGradient>
        <linearGradient id="paint34_linear_15_3944" x1="73.8578" y1="47.3043" x2="73.8578" y2="11.4497" gradientUnits="userSpaceOnUse">
            <stop stop-color="#2F8700"/>
            <stop offset="1" stop-color="#7BCF00"/>
        </linearGradient>
        <radialGradient id="paint35_radial_15_3944" cx="0" cy="0" r="1" gradientUnits="userSpaceOnUse" gradientTransform="translate(78.4914 -19.1327) scale(131.287 140.857)">
            <stop stop-color="#73D439"/>
            <stop offset="1" stop-color="#050F05"/>
        </radialGradient>
        <linearGradient id="paint36_linear_15_3944" x1="18.6751" y1="37.6623" x2="77.8252" y2="29.2613" gradientUnits="userSpaceOnUse">
            <stop/>
            <stop offset="1" stop-color="#8FE561"/>
        </linearGradient>
        <radialGradient id="paint37_radial_15_3944" cx="0" cy="0" r="1" gradientUnits="userSpaceOnUse" gradientTransform="translate(41.001 -99.5791) scale(152.068 163.153)">
            <stop stop-color="#73D439"/>
            <stop offset="1"/>
        </radialGradient>
        <radialGradient id="paint38_radial_15_3944" cx="0" cy="0" r="1" gradientUnits="userSpaceOnUse" gradientTransform="translate(110.365 131.668) scale(137.887 147.938)">
            <stop stop-color="#73D439"/>
            <stop offset="1"/>
        </radialGradient>
        <linearGradient id="paint39_linear_15_3944" x1="74.7003" y1="31.1848" x2="72.6017" y2="9.81944" gradientUnits="userSpaceOnUse">
            <stop/>
            <stop offset="1" stop-color="#B4FF87"/>
        </linearGradient>
        <radialGradient id="paint40_radial_15_3944" cx="0" cy="0" r="1" gradientUnits="userSpaceOnUse" gradientTransform="translate(123.986 85.5687) scale(89.5842 96.1142)">
            <stop stop-color="#B4FF87"/>
            <stop offset="1"/>
        </radialGradient>
        <linearGradient id="paint41_linear_15_3944" x1="129.041" y1="49.714" x2="187.032" y2="49.714" gradientUnits="userSpaceOnUse">
            <stop stop-color="#B4FF87"/>
            <stop offset="1"/>
        </linearGradient>
    </defs>
</svg>
