<svg width="558" height="173" viewBox="0 0 558 173" fill="none" xmlns="http://www.w3.org/2000/svg">
<path opacity="0.5" d="M460.639 140.228C474.185 139.93 486.839 139.781 500.683 139.483C503.065 131.296 501.576 91.2521 498.599 100.184C494.431 99.7372 490.114 99.1418 485.946 98.3975C490.114 84.4045 495.473 69.2206 501.576 57.7582C504.107 53.1435 503.958 48.3799 501.278 45.5516C485.052 27.837 420.446 19.0542 279.028 19.0542C137.46 19.0542 72.8545 27.837 56.6286 45.5516C53.9491 48.3799 53.8002 53.1435 56.3308 57.7582C62.4342 69.2206 67.7932 84.4045 71.9613 98.3975C67.7932 99.1418 63.4762 99.7372 59.3081 100.184C57.5217 95.1225 56.0331 90.3589 54.8422 86.0419C56.4797 108.818 58.5638 127.574 60.6478 132.189L64.6671 135.762C59.9035 135.762 59.4569 135.315 54.6934 135.315C54.9911 140.674 53.6513 154.965 52.4604 171.34C67.7932 176.103 88.1872 170.446 97.7144 153.923C99.9473 150.201 99.3519 143.8 98.6076 141.567C96.2258 133.231 93.5463 124.895 90.4202 111.2C117.364 103.012 173.485 91.1032 279.028 91.1032C384.422 91.1032 440.543 103.012 467.487 111.2C464.509 124.299 462.872 132.338 460.639 140.228Z" fill="#1D1D1B"/>
<path opacity="0.5" d="M489.518 141.27C475.823 141.121 474.185 138.442 460.341 138.293C460.341 138.591 459.448 141.27 459.299 141.568C458.555 143.801 457.959 150.202 460.192 153.923C467.487 166.577 482.373 172.531 495.77 172.531C494.728 166.726 492.346 143.057 489.518 141.27Z" fill="#1D1D1B"/>
<path d="M32.96 156.602C47.995 167.916 86.5502 159.58 95.333 146.629C96.9705 144.247 98.0125 141.419 97.5659 137.697C97.7148 136.506 79.1071 84.5534 77.6185 71.4536C76.4276 86.6375 32.96 89.7636 22.2419 86.7864C18.6693 102.268 19.4136 147.522 32.96 156.602Z" fill="url(#paint0_linear_323_255)"/>
<path d="M63.9229 118.791C60.9456 105.394 72.8546 97.802 86.6987 97.2065C91.0157 116.707 94.2906 126.383 97.5656 137.697C93.3975 123.853 67.049 133.231 63.9229 118.791Z" fill="url(#paint1_linear_323_255)"/>
<path d="M34.4484 62.5217C38.6165 79.7897 52.6095 119.387 60.3503 134.273C53.0561 124.597 36.979 128.021 30.8757 137.25C27.6007 142.312 26.8564 151.69 32.9597 156.602C30.8757 155.56 25.2189 150.946 22.5394 140.227C18.8179 125.192 8.99302 97.8019 1.40107 82.3203C-6.19087 66.541 18.8179 52.1014 34.4484 62.5217Z" fill="url(#paint2_linear_323_255)"/>
<path style="mix-blend-mode:screen" d="M16.7338 59.6929C12.8634 60.586 9.14185 62.3724 6.31348 64.7542C10.6305 70.4109 32.5131 127.127 31.9177 135.91C34.4483 132.784 38.021 130.551 42.0403 129.36C35.9369 119.089 18.2224 66.3916 16.7338 59.6929Z" fill="url(#paint3_radial_323_255)"/>
<path d="M36.5326 70.411C36.1356 69.0216 35.7882 67.6819 35.4905 66.3917C26.1122 60.2884 13.1613 63.2657 6.31364 70.1133C2.74096 73.8348 0.805758 78.7473 2.14551 83.8086C2.64172 84.9002 3.13792 85.9919 3.63413 87.0835C2.74096 82.4688 4.5273 77.8541 7.95112 74.2814C14.501 67.4338 27.3031 64.4565 36.5326 70.411ZM55.7357 124.15C50.6744 119.982 42.9336 119.833 36.3837 122.513C25.9634 126.83 20.0089 137.696 25.3679 147.819C23.5816 138.887 30.1315 130.402 38.17 126.978C45.0177 124.15 52.7585 124.001 57.6709 128.765C57.0755 127.375 56.4304 125.837 55.7357 124.15Z" fill="url(#paint4_linear_323_255)"/>
<path d="M524.948 156.602C509.913 167.916 471.357 159.58 462.575 146.629C460.937 144.247 459.895 141.419 460.491 137.697C460.193 136.506 478.801 84.5534 480.289 71.4536C481.48 86.6375 524.948 89.7636 535.666 86.7864C539.238 102.268 538.494 147.522 524.948 156.602Z" fill="url(#paint5_linear_323_255)"/>
<path d="M493.985 118.791C496.962 105.394 485.053 97.802 471.209 97.2065C466.892 116.707 463.617 126.383 460.491 137.697C464.51 123.853 490.858 133.231 493.985 118.791Z" fill="url(#paint6_linear_323_255)"/>
<path d="M523.459 62.5217C519.291 79.7897 505.298 119.387 497.557 134.273C504.851 124.597 520.928 128.021 527.032 137.25C530.307 142.312 531.051 151.69 524.948 156.602C527.032 155.56 532.688 150.946 535.368 140.227C539.09 125.192 548.914 97.8019 556.506 82.3203C564.098 66.541 539.09 52.1014 523.459 62.5217Z" fill="url(#paint7_linear_323_255)"/>
<path style="mix-blend-mode:screen" d="M541.174 59.6929C545.044 60.586 548.766 62.3724 551.594 64.7542C547.277 70.4109 525.394 127.127 525.99 135.91C523.459 132.784 519.886 130.551 515.867 129.36C521.971 119.089 539.685 66.3916 541.174 59.6929Z" fill="url(#paint8_radial_323_255)"/>
<path d="M551.594 70.1133C544.746 63.2657 531.795 60.2884 522.417 66.3917C522.119 67.6819 521.772 69.0216 521.375 70.411C530.605 64.4565 543.407 67.4338 549.957 74.2814C553.38 77.8541 555.167 82.4688 554.274 87.0835C554.77 85.9919 555.266 84.9002 555.762 83.8086C557.102 78.7473 555.167 73.8348 551.594 70.1133ZM521.524 122.513C514.974 119.833 507.233 119.982 502.172 124.15C501.477 125.837 500.832 127.375 500.237 128.765C505.149 124.001 513.039 124.15 519.738 126.978C527.776 130.402 534.326 138.887 532.54 147.819C537.899 137.696 531.944 126.83 521.524 122.513Z" fill="url(#paint9_linear_323_255)"/>
<path d="M39.0629 28.4326C36.2346 31.5587 36.0857 36.62 38.7652 41.6813C51.2696 65.2014 60.9456 102.715 63.9228 118.792C62.8808 112.837 67.6444 107.925 77.1715 104.203C105.009 93.0385 150.56 87.3818 279.028 87.3818V0C126.296 0 56.4797 9.52715 39.0629 28.4326Z" fill="url(#paint10_radial_323_255)"/>
<path d="M518.844 28.4326C521.821 31.5587 521.821 36.62 519.142 41.6813C506.637 65.2014 496.961 102.715 493.984 118.792C495.026 112.837 490.262 107.925 480.735 104.203C452.898 93.0385 407.347 87.3818 279.028 87.3818V0C431.611 0 501.427 9.52715 518.844 28.4326Z" fill="url(#paint11_radial_323_255)"/>
<path d="M279.028 77.1101C147.732 77.1101 99.3517 83.2135 72.7055 95.2713C66.1556 98.0996 62.1363 101.523 61.0943 105.543C61.5905 107.528 62.0371 109.413 62.4341 111.199C63.0295 106.585 67.4953 102.714 74.9384 99.7371C102.18 88.1259 149.22 82.3203 279.028 82.3203H279.177V77.1101H279.028ZM43.6775 37.3641C62.2852 19.3518 129.273 10.2713 279.028 10.2713H279.325V5.20996H279.028C127.784 5.20996 59.4568 14.4394 41.4446 32.8982C39.0628 35.1312 38.1696 38.2572 38.7651 41.5322C38.7651 41.6314 38.7651 41.6811 38.7651 41.6811C39.2613 42.6735 39.7575 43.6163 40.2537 44.5094C40.4025 41.8299 41.4446 39.2993 43.6775 37.3641Z" fill="url(#paint12_linear_323_255)"/>
<path d="M279.474 77.1101C410.622 77.1101 459.002 83.2135 485.648 95.2713C492.198 98.0996 495.77 101.226 496.961 105.096C496.465 107.18 496.019 109.066 495.622 110.753C494.877 106.287 490.858 102.714 483.415 99.7371C456.173 88.1259 409.133 82.3203 279.474 82.3203H279.177V77.1101H279.474ZM514.974 37.3641C496.217 19.3518 429.229 10.2713 279.474 10.2713H279.326V5.20996H279.474C430.718 5.20996 499.045 14.4394 517.207 32.8982C519.439 35.1312 520.481 37.0664 519.886 40.3413C519.886 40.4902 518.695 42.872 518.249 43.7651C518.1 40.9367 517.058 39.2993 514.974 37.3641Z" fill="url(#paint13_linear_323_255)"/>
<path style="mix-blend-mode:screen" opacity="0.3" d="M518.844 28.4326C501.427 9.52715 431.611 0 279.028 0C126.296 0 56.4797 9.52715 39.0629 28.4326C36.2346 31.5587 36.0857 36.62 38.7652 41.6813C51.2696 65.2014 60.9456 102.715 63.9228 118.792C62.8808 112.837 67.6444 107.925 77.1715 104.203C105.009 93.0385 150.56 87.3818 279.028 87.3818C407.347 87.3818 452.898 93.0385 480.735 104.203C490.263 107.925 495.026 112.837 493.984 118.792C496.961 102.715 506.637 65.2014 519.142 41.6813C521.821 36.62 521.821 31.5587 518.844 28.4326Z" fill="url(#paint14_radial_323_255)"/>
<defs>
<linearGradient id="paint0_linear_323_255" x1="-13.0383" y1="79.1944" x2="84.7638" y2="39.7461" gradientUnits="userSpaceOnUse">
<stop stop-color="#064203"/>
<stop offset="0.42" stop-color="#50C22D"/>
<stop offset="1" stop-color="#1F6B00"/>
</linearGradient>
<linearGradient id="paint1_linear_323_255" x1="63.4763" y1="97.2065" x2="97.5656" y2="97.2065" gradientUnits="userSpaceOnUse">
<stop stop-color="#006633"/>
<stop offset="1" stop-color="#009933"/>
</linearGradient>
<linearGradient id="paint2_linear_323_255" x1="-40.7268" y1="55.8229" x2="45.1664" y2="21.1382" gradientUnits="userSpaceOnUse">
<stop stop-color="#0D8C07"/>
<stop offset="0.164" stop-color="#219C1B"/>
<stop offset="0.503" stop-color="#5CDE33"/>
<stop offset="1" stop-color="#298D00"/>
</linearGradient>
<radialGradient id="paint3_radial_323_255" cx="0" cy="0" r="1" gradientUnits="userSpaceOnUse" gradientTransform="translate(13.7566 50.0169) scale(100.333 100.333)">
<stop offset="0.004" stop-color="#3AAA35"/>
<stop offset="1" stop-color="#0D010D"/>
</radialGradient>
<linearGradient id="paint4_linear_323_255" x1="-3090.01" y1="-14220.2" x2="-2047.98" y2="-14641.1" gradientUnits="userSpaceOnUse">
<stop stop-color="#D7F0B9"/>
<stop offset="0.394" stop-color="white"/>
<stop offset="1" stop-color="#E5FF9C"/>
</linearGradient>
<linearGradient id="paint5_linear_323_255" x1="473.144" y1="39.7461" x2="570.946" y2="79.1944" gradientUnits="userSpaceOnUse">
<stop stop-color="#1F6B00"/>
<stop offset="0.58" stop-color="#50C22D"/>
<stop offset="1" stop-color="#064203"/>
</linearGradient>
<linearGradient id="paint6_linear_323_255" x1="460.491" y1="97.2065" x2="494.431" y2="97.2065" gradientUnits="userSpaceOnUse">
<stop stop-color="#009933"/>
<stop offset="1" stop-color="#006633"/>
</linearGradient>
<linearGradient id="paint7_linear_323_255" x1="512.89" y1="21.1382" x2="598.634" y2="55.823" gradientUnits="userSpaceOnUse">
<stop stop-color="#0D8C07"/>
<stop offset="0.164" stop-color="#219C1B"/>
<stop offset="0.503" stop-color="#5CDE33"/>
<stop offset="1" stop-color="#298D00"/>
</linearGradient>
<radialGradient id="paint8_radial_323_255" cx="0" cy="0" r="1" gradientUnits="userSpaceOnUse" gradientTransform="translate(557.995 47.3374) scale(99.5884 99.5884)">
<stop offset="0.004" stop-color="#3AAA35"/>
<stop offset="1" stop-color="#0D010D"/>
</radialGradient>
<linearGradient id="paint9_linear_323_255" x1="21047.6" y1="-6503.62" x2="22089.7" y2="-6082.64" gradientUnits="userSpaceOnUse">
<stop stop-color="#E5FF9C"/>
<stop offset="0.606" stop-color="white"/>
<stop offset="1" stop-color="#D7F0B9"/>
</linearGradient>
<radialGradient id="paint10_radial_323_255" cx="0" cy="0" r="1" gradientUnits="userSpaceOnUse" gradientTransform="translate(-61.4187 114.475) scale(347.443 347.443)">
<stop offset="0.328" stop-color="#3AAA35"/>
<stop offset="0.37" stop-color="#5CDE33"/>
<stop offset="0.457" stop-color="#298D00"/>
<stop offset="1" stop-color="#47B308"/>
</radialGradient>
<radialGradient id="paint11_radial_323_255" cx="0" cy="0" r="1" gradientUnits="userSpaceOnUse" gradientTransform="translate(619.326 114.475) scale(347.443 347.443)">
<stop offset="0.328" stop-color="#3AAA35"/>
<stop offset="0.37" stop-color="#5CDE33"/>
<stop offset="0.457" stop-color="#298D00"/>
<stop offset="1" stop-color="#47B308"/>
</radialGradient>
<linearGradient id="paint12_linear_323_255" x1="38.4673" y1="5.20996" x2="279.177" y2="5.20996" gradientUnits="userSpaceOnUse">
<stop stop-color="#D7F0B9"/>
<stop offset="0.067" stop-color="white"/>
<stop offset="0.177" stop-color="#E5FF9C"/>
<stop offset="1" stop-color="#F8FFE6"/>
</linearGradient>
<linearGradient id="paint13_linear_323_255" x1="279.177" y1="5.20996" x2="520.035" y2="5.20996" gradientUnits="userSpaceOnUse">
<stop stop-color="#F8FFE6"/>
<stop offset="0.823" stop-color="#E5FF9C"/>
<stop offset="0.933" stop-color="white"/>
<stop offset="1" stop-color="#D7F0B9"/>
</linearGradient>
<radialGradient id="paint14_radial_323_255" cx="0" cy="0" r="1" gradientUnits="userSpaceOnUse" gradientTransform="translate(279.028 172.233) scale(302.189 302.189)">
<stop stop-color="#7AD119"/>
<stop offset="0.874" stop-color="#0D010D"/>
</radialGradient>
</defs>
</svg>
