<svg width="201" height="150" viewBox="0 0 201 150" fill="none" xmlns="http://www.w3.org/2000/svg">
    <path d="M9.07664 12.9671C26.6665 11.4564 47.4871 10.3234 63.9103 6.86138L58.9744 1.88867C41.7435 4.72123 24.2434 7.1761 6.65356 9.31626L9.07664 12.9671Z" fill="url(#paint0_radial_11_4)"/>
    <path d="M63.9098 6.86108C77.5509 6.42046 86.7945 6.10573 98.8202 4.97271L101.064 0C87.1236 0.797312 73.0936 1.42677 58.9739 1.88837L63.9098 6.86108Z" fill="url(#paint1_radial_11_4)"/>
    <path d="M98.8201 4.97271C107.705 5.22449 114.166 5.79099 121.974 7.04991L125.384 3.02139C117.128 2.20309 108.961 1.19597 101.064 0L98.8201 4.97271Z" fill="url(#paint2_radial_11_4)"/>
    <path d="M125.384 3.02148L121.974 7.05001C136.602 6.54644 155.987 6.98706 170.526 7.93124L170.077 4.53218C155.269 3.52505 140.372 3.08443 125.384 3.02148Z" fill="url(#paint3_radial_11_4)"/>
    <path d="M170.526 7.93129C178.334 9.56788 185.244 11.5821 191.705 13.9741L194.846 10.0715C186.59 8.35094 178.334 6.50453 170.077 4.53223L170.526 7.93129Z" fill="url(#paint4_radial_11_4)"/>
    <path d="M194.847 10.0718L191.706 13.9744C192.603 14.6039 193.59 15.3592 194.398 16.1145L200.59 14.6668C199.154 13.1561 197 11.4566 194.847 10.0718Z" fill="url(#paint5_radial_11_4)"/>
    <path d="M200.59 14.6665L194.398 16.1142C194.398 23.1012 193.41 28.2628 192.513 35.2498L198.975 37.264C199.962 29.7105 200.68 22.0312 200.59 14.6665Z" fill="url(#paint6_radial_11_4)"/>
    <path d="M198.975 37.2638L192.513 35.2495C193.769 43.2436 194.936 53.252 196.013 61.2461L200.68 60.9943C199.603 52.6855 198.975 45.5726 198.975 37.2638Z" fill="url(#paint7_radial_11_4)"/>
    <path d="M200.68 60.9941L196.013 61.2459C195.923 64.7709 195.744 66.0298 194.936 69.6177L199.423 72.1355C200.231 68.6106 200.68 65.1486 200.68 60.9941Z" fill="url(#paint8_radial_11_4)"/>
    <path d="M199.423 72.1355L194.936 69.6177C194.128 80.3184 193.68 96.3696 195.564 106.944L200.859 103.168C199.693 92.8447 199.064 82.4586 199.423 72.1355Z" fill="url(#paint9_radial_11_4)"/>
    <path d="M200.859 103.168L195.564 106.945C194.487 118.904 192.423 131.242 194.757 143.138L200.59 144.272C199.782 140.81 199.423 137.285 199.603 133.823C199.513 123.185 199.872 113.806 200.859 103.168Z" fill="url(#paint10_radial_11_4)"/>
    <path d="M200.59 144.272L194.757 143.139C194.487 143.453 194.128 143.831 193.859 144.146L195.834 149.119C197.359 148.867 200.41 145.279 200.59 144.272Z" fill="url(#paint11_radial_11_4)"/>
    <path d="M195.834 149.118L193.859 144.145C184.436 144.334 175.821 143.956 166.128 143.075L168.641 148.426C177.885 148.992 189.552 149.37 195.834 149.118Z" fill="url(#paint12_radial_11_4)"/>
    <path d="M168.641 148.426L166.128 143.075C153.295 143.893 137.769 145.278 124.756 146.097L129.602 149.81C142.436 148.929 155.269 148.3 168.013 148.363C168.252 148.363 168.462 148.384 168.641 148.426Z" fill="url(#paint13_radial_11_4)"/>
    <path d="M129.603 149.811L124.757 146.097C106.628 146.223 94.7822 145.216 77.7308 143.705L74.7693 148.552C92.7181 149.433 110.936 149.937 129.603 149.811Z" fill="url(#paint14_radial_11_4)"/>
    <path d="M74.7689 148.552L77.7304 143.705C71.4484 143.768 58.6149 144.649 52.4226 145.342L56.8201 150C62.8329 149.307 68.756 148.552 74.7689 148.552Z" fill="url(#paint15_radial_11_4)"/>
    <path d="M56.8201 150L52.4226 145.342C36.9866 144.65 25.1405 145.405 9.61473 145.531L7.64038 149.119C24.5123 148.993 40.9354 149.245 56.8201 150Z" fill="url(#paint16_radial_11_4)"/>
    <path d="M7.64024 149.118L9.61459 145.53C9.16587 145.09 8.71716 144.523 8.44793 144.208L2.88379 144.334C3.06328 145.467 6.02485 148.615 7.64024 149.118Z" fill="url(#paint17_radial_11_4)"/>
    <path d="M2.88383 144.335L8.44797 144.209C8.26848 141.88 8.44796 136.026 8.71719 132.438L2.16589 132.312C1.89666 136.278 2.16588 141.376 2.88383 144.335Z" fill="url(#paint18_radial_11_4)"/>
    <path d="M2.1662 132.312L8.71751 132.438C8.17904 131.242 6.6534 127.025 6.20468 123.814L0.999512 124.003C1.62772 126.71 2.1662 129.48 2.1662 132.312Z" fill="url(#paint19_radial_11_4)"/>
    <path d="M0.999512 124.003L6.20468 123.814C6.29443 111.792 8.2688 99.6432 9.34573 87.6836L2.61492 87.6206C1.44825 100.336 0.999512 111.603 0.999512 124.003Z" fill="url(#paint20_radial_11_4)"/>
    <path d="M2.6148 87.6204L9.3456 87.6834C8.62765 84.1584 6.83277 77.3603 5.30712 72.1987L0.909668 73.8353C1.89685 78.4304 2.34557 83.0254 2.6148 87.6204Z" fill="url(#paint21_radial_11_4)"/>
    <path d="M0.909543 73.835L5.307 72.1984C6.38392 60.8682 7.46086 49.2232 8.98651 37.7671L2.2557 37.83C0.999287 50.2303 0.730055 61.4347 0.909543 73.835Z" fill="url(#paint22_radial_11_4)"/>
    <path d="M2.25563 37.8306L8.98643 37.7676C7.90951 31.4101 6.74282 22.8495 6.47359 15.4848L0.999193 14.7295C0.909449 22.4089 1.1787 30.1512 2.25563 37.8306Z" fill="url(#paint23_radial_11_4)"/>
    <path d="M172.5 9.63099C176.359 13.4077 180.398 17.1215 185.064 20.5835C186.141 21.0871 192.334 23.542 193.411 23.2902C193.77 23.2273 194.039 22.9755 194.129 22.2831C194.308 20.3318 194.398 18.3175 194.398 16.1144C193.59 15.359 192.603 14.6037 191.705 13.9742C186.052 11.897 180.039 10.0716 173.398 8.5609C171.244 8.05734 171.154 8.37207 172.5 9.63099Z" fill="url(#paint24_radial_11_4)"/>
    <path fill-rule="evenodd" clip-rule="evenodd" d="M13.1148 89.3196C12.3071 84.0952 10.7815 77.1711 8.98657 72.0096C9.34555 60.5535 10.6019 48.5938 12.6661 37.2006C11.4994 30.2136 11.2302 23.8561 10.9609 16.8691C11.2002 16.5754 11.4695 16.3026 11.7686 16.0509C27.2046 14.729 50.0893 12.4 64.5381 9.37861C76.1151 9.00093 87.5126 8.62326 98.9998 7.49023C105.91 7.55318 109.769 7.93085 116.949 8.74915C125.115 8.49737 137.949 9.31565 146.205 9.50449C154.103 9.63038 165.59 10.8264 173.487 11.267C180.308 12.7147 183.18 13.7219 189.552 16.0509C189.97 16.3446 190.389 16.6593 190.808 16.995C190.628 23.1008 189.731 30.3395 189.013 36.4453C190.359 45.1318 191.257 52.6223 192.423 61.3088C192.334 64.0784 192.244 67.3516 191.616 69.9953C191.167 76.2899 190.628 81.8291 190.628 88.1237C190.628 94.3553 191.257 102.286 192.334 108.518C191.167 120.037 188.923 130.171 190.808 141.69C182.552 141.753 170.257 140.746 162 139.991C148.09 140.872 138.487 142.698 124.577 143.579C116.231 143.642 107.974 143.453 99.6281 142.886C92.3588 142.446 85.3587 141.25 78.0895 140.62C69.6535 140.62 60.6791 141.879 52.2432 142.761C38.7816 142.194 25.4995 142.823 12.0379 142.949C11.8584 139.424 11.4994 133.948 11.7686 130.612C10.9609 128.598 10.8712 128.157 10.3327 126.08C10.1532 125.283 9.97375 124.485 9.79426 123.688C9.88401 111.602 12.0378 101.342 13.1148 89.3196ZM13.4738 141.879C26.3969 141.69 39.3201 141.124 52.2432 141.69C60.7689 140.746 69.4741 139.55 78.0895 139.55H78.1792H78.269C85.4485 140.18 92.5383 141.376 99.8075 141.816C108.004 142.32 116.231 142.551 124.487 142.509C130.769 142.068 136.872 141.439 143.064 140.683C149.346 139.991 155.539 139.299 161.91 138.921L162.09 138.858L162.269 138.921C166.996 139.382 171.722 139.76 176.449 140.054C180.667 140.306 184.885 140.557 189.103 140.557C188.385 135.648 188.475 130.675 188.834 125.702C189.282 119.974 190.18 114.246 190.718 108.518C190.18 105.182 189.821 101.783 189.552 98.3838C189.252 94.9428 189.103 91.5227 189.103 88.1237C189.103 82.0179 189.641 76.0381 190.09 69.9324C190.718 67.0998 190.718 64.1414 190.808 61.3718C189.731 53.1259 188.744 44.817 187.487 36.5711V36.4453V36.3194C188.205 30.0877 189.103 23.7302 189.193 17.3727C189.013 17.2468 188.804 17.0999 188.564 16.9321C186.141 15.9879 183.628 15.1067 181.026 14.3513C178.513 13.533 175.91 12.9665 173.218 12.337C168.731 12.0853 164.244 11.7076 159.757 11.3299C155.269 11.0152 150.692 10.7005 146.115 10.5746C135.615 10.3857 123.141 9.31566 113.09 9.63038C109.949 9.25271 110.218 9.25271 106.987 9.00093C104.384 8.74914 101.782 8.62325 99.0896 8.62325C87.6921 9.69333 76.2946 10.1339 64.8074 10.4487C60.5894 11.3299 56.3714 12.0223 52.1534 12.6518C47.397 13.3442 42.5508 13.9736 37.7047 14.5401C29.3585 15.5473 21.0123 16.3656 12.5763 17.058C12.5763 17.0999 12.5464 17.1419 12.4866 17.1839C12.8456 23.8561 13.1148 30.4025 14.1917 37.0118V37.2006V37.3265C12.1276 48.7826 10.9609 60.3646 10.5122 71.8837C11.4994 74.6533 12.2174 77.4858 12.9353 80.3184C13.6533 83.2559 14.2515 86.2143 14.7302 89.1937V89.3196V89.3826C14.1917 95.1736 13.384 100.965 12.6661 106.693C11.9481 112.358 11.4096 117.96 11.4096 123.625C11.5293 124.38 11.6789 125.136 11.8584 125.891C12.0379 126.646 12.2174 127.402 12.4866 128.157C12.6661 128.85 12.9353 129.542 13.2045 130.297L13.2943 130.486V130.612C13.2045 132.752 13.2045 134.892 13.2943 136.97C13.3541 138.606 13.4139 140.243 13.4738 141.879Z" fill="url(#paint25_linear_11_4)"/>
    <defs>
        <radialGradient id="paint0_radial_11_4" cx="0" cy="0" r="1" gradientUnits="userSpaceOnUse" gradientTransform="translate(52.3333 -34.1162) scale(82.4748 57.847)">
            <stop stop-color="#E4ECF0"/>
            <stop offset="1" stop-color="#A6B4BD"/>
        </radialGradient>
        <radialGradient id="paint1_radial_11_4" cx="0" cy="0" r="1" gradientUnits="userSpaceOnUse" gradientTransform="translate(91.7304 -36.5085) scale(65.0644 45.6356)">
            <stop stop-color="#E4ECF0"/>
            <stop offset="1" stop-color="#A6B4BD"/>
        </radialGradient>
        <radialGradient id="paint2_radial_11_4" cx="0" cy="0" r="1" gradientUnits="userSpaceOnUse" gradientTransform="translate(109.679 -11.9597) scale(35.0002 24.5488)">
            <stop stop-color="#BDCACF"/>
            <stop offset="1" stop-color="#828599"/>
        </radialGradient>
        <radialGradient id="paint3_radial_11_4" cx="0" cy="0" r="1" gradientUnits="userSpaceOnUse" gradientTransform="translate(145.936 -18.9465) scale(45.6798 32.0393)">
            <stop stop-color="#BDCACF"/>
            <stop offset="1" stop-color="#828599"/>
        </radialGradient>
        <radialGradient id="paint4_radial_11_4" cx="0" cy="0" r="1" gradientUnits="userSpaceOnUse" gradientTransform="translate(195.026 -13.1555) scale(38.2309 26.8149)">
            <stop stop-color="#BDCACF"/>
            <stop offset="1" stop-color="#6E7082"/>
        </radialGradient>
        <radialGradient id="paint5_radial_11_4" cx="0" cy="0" r="1" gradientUnits="userSpaceOnUse" gradientTransform="translate(198.616 3.08482) scale(21.0002 14.7293)">
            <stop stop-color="#BDCACF"/>
            <stop offset="1" stop-color="#828599"/>
        </radialGradient>
        <radialGradient id="paint6_radial_11_4" cx="0" cy="0" r="1" gradientUnits="userSpaceOnUse" gradientTransform="translate(198.885 9.44201) scale(84.3594 59.169)">
            <stop stop-color="#9DA9AB"/>
            <stop offset="1" stop-color="#5B5E6B"/>
        </radialGradient>
        <radialGradient id="paint7_radial_11_4" cx="0" cy="0" r="1" gradientUnits="userSpaceOnUse" gradientTransform="translate(214.949 69.6179) scale(68.0258 47.7128)">
            <stop stop-color="#9DA9AB"/>
            <stop offset="1" stop-color="#5B5E6B"/>
        </radialGradient>
        <radialGradient id="paint8_radial_11_4" cx="0" cy="0" r="1" gradientUnits="userSpaceOnUse" gradientTransform="translate(200.141 55.329) scale(25.3974 17.8136)">
            <stop stop-color="#9DA9AB"/>
            <stop offset="1" stop-color="#5B5E6B"/>
        </radialGradient>
        <radialGradient id="paint9_radial_11_4" cx="0" cy="0" r="1" gradientUnits="userSpaceOnUse" gradientTransform="translate(212.616 123.122) scale(78.526 55.0775)">
            <stop stop-color="#9DA9AB"/>
            <stop offset="1" stop-color="#5B5E6B"/>
        </radialGradient>
        <radialGradient id="paint10_radial_11_4" cx="0" cy="0" r="1" gradientUnits="userSpaceOnUse" gradientTransform="translate(139.026 103.986) scale(77.5388 54.3851)">
            <stop stop-color="#9DA9AB"/>
            <stop offset="1" stop-color="#5B5E6B"/>
        </radialGradient>
        <radialGradient id="paint11_radial_11_4" cx="0" cy="0" r="1" gradientUnits="userSpaceOnUse" gradientTransform="translate(203.103 149.811) scale(23.5129 16.4918)">
            <stop stop-color="#9DA9AB"/>
            <stop offset="1" stop-color="#555763"/>
        </radialGradient>
        <radialGradient id="paint12_radial_11_4" cx="0" cy="0" r="1" gradientUnits="userSpaceOnUse" gradientTransform="translate(173.757 116.764) scale(50.7054 35.5642)">
            <stop stop-color="#9DA9AB"/>
            <stop offset="1" stop-color="#555763"/>
        </radialGradient>
        <radialGradient id="paint13_radial_11_4" cx="0" cy="0" r="1" gradientUnits="userSpaceOnUse" gradientTransform="translate(154.282 173.037) scale(55.372 38.8375)">
            <stop stop-color="#9DA9AB"/>
            <stop offset="1" stop-color="#555763"/>
        </radialGradient>
        <radialGradient id="paint14_radial_11_4" cx="0" cy="0" r="1" gradientUnits="userSpaceOnUse" gradientTransform="translate(114.436 120.478) scale(63.808 44.7545)">
            <stop stop-color="#9DA9AB"/>
            <stop offset="1" stop-color="#555763"/>
        </radialGradient>
        <radialGradient id="paint15_radial_11_4" cx="0" cy="0" r="1" gradientUnits="userSpaceOnUse" gradientTransform="translate(72.5253 183.235) scale(65.5132 45.9504)">
            <stop stop-color="#9DA9AB"/>
            <stop offset="1" stop-color="#555763"/>
        </radialGradient>
        <radialGradient id="paint16_radial_11_4" cx="0" cy="0" r="1" gradientUnits="userSpaceOnUse" gradientTransform="translate(33.7559 170.08) scale(56.0003 39.2782)">
            <stop stop-color="#9DA9AB"/>
            <stop offset="1" stop-color="#555763"/>
        </radialGradient>
        <radialGradient id="paint17_radial_11_4" cx="0" cy="0" r="1" gradientUnits="userSpaceOnUse" gradientTransform="translate(0.370956 140.809) scale(19.3847 13.5962)">
            <stop stop-color="#9DA9AB"/>
            <stop offset="1" stop-color="#555763"/>
        </radialGradient>
        <radialGradient id="paint18_radial_11_4" cx="0" cy="0" r="1" gradientUnits="userSpaceOnUse" gradientTransform="translate(0.460751 147.482) scale(32.4873 22.7863)">
            <stop stop-color="#9DA9AB"/>
            <stop offset="1" stop-color="#555763"/>
        </radialGradient>
        <radialGradient id="paint19_radial_11_4" cx="0" cy="0" r="1" gradientUnits="userSpaceOnUse" gradientTransform="translate(-5.46206 124.003) scale(17.8591 12.5261)">
            <stop stop-color="#9DA9AB"/>
            <stop offset="1" stop-color="#555763"/>
        </radialGradient>
        <radialGradient id="paint20_radial_11_4" cx="0" cy="0" r="1" gradientUnits="userSpaceOnUse" gradientTransform="translate(-3.03897 122.367) scale(108.321 75.9755)">
            <stop stop-color="#9DA9AB"/>
            <stop offset="1" stop-color="#555763"/>
        </radialGradient>
        <radialGradient id="paint21_radial_11_4" cx="0" cy="0" r="1" gradientUnits="userSpaceOnUse" gradientTransform="translate(-10.5776 79.9411) scale(27.8206 19.5132)">
            <stop stop-color="#9DA9AB"/>
            <stop offset="1" stop-color="#555763"/>
        </radialGradient>
        <radialGradient id="paint22_radial_11_4" cx="0" cy="0" r="1" gradientUnits="userSpaceOnUse" gradientTransform="translate(-0.257126 74.8421) scale(75.744 53.1262)">
            <stop stop-color="#9DA9AB"/>
            <stop offset="1" stop-color="#555763"/>
        </radialGradient>
        <radialGradient id="paint23_radial_11_4" cx="0" cy="0" r="1" gradientUnits="userSpaceOnUse" gradientTransform="translate(-1.87262 12.0858) scale(96.9238 67.9813)">
            <stop stop-color="#9DA9AB"/>
            <stop offset="1" stop-color="#555763"/>
        </radialGradient>
        <radialGradient id="paint24_radial_11_4" cx="0" cy="0" r="1" gradientUnits="userSpaceOnUse" gradientTransform="translate(206.872 13.7854) scale(59.7694 41.9219)">
            <stop stop-color="#717485"/>
            <stop offset="1" stop-color="#9DA9AB"/>
        </radialGradient>
        <linearGradient id="paint25_linear_11_4" x1="-1.9622" y1="142.509" x2="-1.9622" y2="8.62326" gradientUnits="userSpaceOnUse">
            <stop stop-color="#5B666B"/>
            <stop offset="1" stop-color="#4A555C"/>
        </linearGradient>
    </defs>
</svg>
