<svg width="426" height="731" viewBox="0 0 426 731" fill="none" xmlns="http://www.w3.org/2000/svg">
    <path style="mix-blend-mode:multiply" d="M314.105 5.73421C290.734 -2.0066 120.287 -0.369123 25.1646 6.32965C18.6147 6.9251 13.5534 12.2841 13.7023 18.6852C13.8511 25.2351 14 30.8918 14.1488 39.3769L48.2382 43.3962L14.4466 50.095C15.6375 112.617 15.7863 175.436 15.042 238.554L33.0543 245.253L14.8931 250.612C13.5534 340.375 9.98071 572.748 4.02625 662.065C9.08754 685.139 16.9772 703.002 30.3748 720.27C33.0543 723.843 37.0735 725.48 41.5394 725.034C82.7741 720.717 289.841 722.801 385.559 730.542C387.345 730.69 388.982 730.244 390.322 729.053C391.513 727.862 392.257 726.225 392.257 724.438C391.563 697.742 391.116 671.047 390.918 644.351L377.967 635.866L384.219 628.274L383.326 622.319L390.918 617.407C390.918 524.07 394.193 288.571 400.445 195.979L390.62 190.62L395.979 181.838L381.986 174.394L402.231 169.929C405.208 131.522 408.483 96.6887 412.354 58.4312C392.704 44.4382 326.163 9.75347 314.105 5.73421Z" fill="url(#paint0_radial_15_3852)"/>
    <path d="M322.739 16.4524C297.135 9.75363 108.527 7.22298 8.78962 10.9445C9.18658 23.2504 9.53393 35.6059 9.83166 48.0111L45.4096 51.8815L10.1294 58.2825C11.618 118.125 11.9157 178.414 11.3203 238.852L30.0768 245.253L11.1714 250.463C9.98051 336.356 6.5567 565.008 0.453369 650.752C14.9426 671.592 29.3821 692.433 43.7721 713.274C50.0243 716.102 304.131 718.633 406.101 717.888C405.208 690.101 404.662 662.363 404.464 634.675L390.917 626.487L397.319 619.193L396.425 613.536L404.315 608.922C404.166 519.307 407.143 287.678 413.544 199.106L403.273 193.895L408.781 185.41L394.192 178.265L415.331 174.097C418.209 137.278 421.633 100.559 425.602 63.9393C391.364 48.0607 357.076 32.2317 322.739 16.4524Z" fill="url(#paint1_linear_15_3852)"/>
    <path style="mix-blend-mode:multiply" d="M0.453613 650.752C10.7251 655.813 59.9983 673.974 61.9335 678.44C63.5709 681.864 45.4098 706.575 43.7723 713.274C29.3824 692.433 14.9428 671.593 0.453613 650.752Z" fill="url(#paint2_radial_15_3852)"/>
    <path d="M0.453548 650.752C18.0192 658.939 35.7338 667.127 52.5551 676.654C48.8336 688.712 46.3029 700.918 43.7723 713.274C39.4553 713.274 0.304687 655.218 0.453548 650.752Z" fill="url(#paint3_linear_15_3852)"/>
    <path style="mix-blend-mode:screen" opacity="0.5" d="M347.897 76.146C358.317 86.2685 366.951 97.8798 366.653 108.151C365.76 139.114 404.017 121.846 391.215 165.165C383.921 190.174 401.933 194.193 399.552 213.694C397.914 227.687 385.707 231.26 383.326 255.078C380.795 279.64 381.539 314.027 389.429 325.489C407.441 351.689 380.497 395.008 386.601 420.463C391.066 438.624 394.193 605.349 394.341 622.468L390.918 626.487L394.341 628.572C394.193 633.931 393.597 638.099 392.555 640.778C383.921 662.214 378.264 646.882 368.142 675.314C361.443 693.624 339.263 696.75 316.636 693.475C280.016 688.265 255.454 665.192 224.341 665.192C196.951 665.043 185.042 687.818 156.312 690.945C139.639 692.731 122.52 687.967 105.103 693.177C65.3572 704.789 85.4535 653.729 37.5201 644.946C2.98418 638.545 31.7145 425.822 32.3099 406.619C33.9474 354.22 17.7215 353.475 22.0385 289.167C22.9316 276.514 31.8633 269.666 23.2294 247.188L30.077 245.253L21.443 242.276C11.0227 207.889 48.2381 166.356 31.8633 107.705C26.3555 88.2037 23.5271 70.0426 25.6112 55.4542L45.4097 51.8815L26.802 49.7974C31.5656 30.892 46.6006 19.5785 78.457 21.9603C140.383 26.2773 158.247 32.3806 217.792 44.1407C238.781 48.3088 263.343 52.3281 282.546 54.1144C318.869 57.3894 330.182 58.7291 347.897 76.146Z" fill="url(#paint4_radial_15_3852)"/>
    <path style="mix-blend-mode:screen" opacity="0.5" d="M285.226 75.9971C326.163 76.5926 356.977 101.601 359.061 143.431C360.55 172.906 392.257 184.22 352.214 237.363C331.224 265.2 380.497 316.409 364.867 349.605C352.214 376.4 372.31 393.817 368.737 417.783C352.214 530.621 415.629 581.531 363.974 640.481C339.709 668.318 329.289 681.715 284.482 668.02C275.401 665.192 242.354 653.58 209.158 661.768C203.65 663.107 193.081 665.192 183.256 667.573C107.336 686.776 146.636 653.283 90.366 649.71C75.7776 648.817 76.5219 635.717 64.613 634.526C26.951 630.358 20.9965 549.079 42.4326 470.48C58.6585 411.68 62.0823 375.953 46.303 345.139C16.6795 287.232 44.8144 252.696 70.1208 222.179C86.1979 202.976 69.2277 148.79 63.4221 131.969C49.7268 92.5208 68.7811 87.9061 83.5184 57.5383C93.0455 38.1863 138.597 41.0146 155.419 53.9656C188.615 79.7187 272.573 75.6994 285.226 75.9971Z" fill="url(#paint5_radial_15_3852)"/>
    <path style="mix-blend-mode:screen" d="M45.4098 680.524C40.4974 668.764 17.8704 659.833 4.17515 656.111C3.67895 655.912 3.18274 655.764 2.68654 655.664C1.19792 653.134 0.453613 651.347 0.453613 650.752C0.850578 650.95 1.34678 651.149 1.94223 651.347C19.0613 659.386 36.1804 667.276 52.5552 676.654C48.8336 688.712 46.303 700.918 43.7723 713.274C43.5739 713.274 43.1769 713.075 42.5815 712.678C42.6807 712.48 42.7799 712.232 42.8792 711.934C46.0053 703.747 48.6848 688.712 45.4098 680.524Z" fill="url(#paint6_radial_15_3852)"/>
    <path style="mix-blend-mode:multiply" opacity="0.4" d="M346.259 714.465C388.982 714.167 401.487 691.093 404.762 664.447C405.059 682.211 405.506 700.025 406.101 717.889C328.545 718.335 163.159 717.144 85.4535 715.209C146.487 712.678 167.327 705.98 220.024 696.899C255.9 690.647 262.301 695.708 296.539 706.575C310.681 711.041 325.567 714.614 346.259 714.465Z" fill="url(#paint7_radial_15_3852)"/>
    <path style="mix-blend-mode:multiply" opacity="0.3" d="M315.743 15.2612C302.047 16.1543 284.333 20.4713 268.702 23.5974C248.457 27.6167 234.315 26.1281 219.28 23.2997C179.683 15.7077 147.678 12.1351 110.313 9.3067C194.569 9.00897 285.821 11.2419 315.743 15.2612Z" fill="url(#paint8_radial_15_3852)"/>
    <defs>
        <radialGradient id="paint0_radial_15_3852" cx="0" cy="0" r="1" gradientUnits="userSpaceOnUse" gradientTransform="translate(202.31 509.482) scale(712.601 712.601)">
            <stop stop-color="#A48A7B"/>
            <stop offset="1" stop-color="white"/>
        </radialGradient>
        <linearGradient id="paint1_linear_15_3852" x1="-236" y1="9" x2="-238" y2="718" gradientUnits="userSpaceOnUse">
            <stop stop-color="#FFF1DE"/>
            <stop offset="1" stop-color="#FBDAB7"/>
        </linearGradient>
        <radialGradient id="paint2_radial_15_3852" cx="0" cy="0" r="1" gradientUnits="userSpaceOnUse" gradientTransform="translate(25.3135 704.789) scale(71.4536 71.4536)">
            <stop stop-color="#A48A7B"/>
            <stop offset="1" stop-color="white"/>
        </radialGradient>
        <linearGradient id="paint3_linear_15_3852" x1="92.7478" y1="692.582" x2="30.2259" y2="737.985" gradientUnits="userSpaceOnUse">
            <stop stop-color="#EDD6B9"/>
            <stop offset="1" stop-color="#BF9F7E"/>
        </linearGradient>
        <radialGradient id="paint4_radial_15_3852" cx="0" cy="0" r="1" gradientUnits="userSpaceOnUse" gradientTransform="translate(209.604 358.239) scale(514.168 514.168)">
            <stop stop-color="#CA9E67"/>
            <stop offset="1"/>
        </radialGradient>
        <radialGradient id="paint5_radial_15_3852" cx="0" cy="0" r="1" gradientUnits="userSpaceOnUse" gradientTransform="translate(207.371 358.537) scale(449.562 449.562)">
            <stop stop-color="#CA9E67"/>
            <stop offset="1"/>
        </radialGradient>
        <radialGradient id="paint6_radial_15_3852" cx="0" cy="0" r="1" gradientUnits="userSpaceOnUse" gradientTransform="translate(9.53417 684.99) scale(64.3082 64.3082)">
            <stop/>
            <stop offset="1" stop-color="#A3805F"/>
        </radialGradient>
        <radialGradient id="paint7_radial_15_3852" cx="0" cy="0" r="1" gradientUnits="userSpaceOnUse" gradientTransform="translate(279.718 566.348) scale(380.193 380.192)">
            <stop stop-color="white"/>
            <stop offset="1" stop-color="#A48A7B"/>
        </radialGradient>
        <radialGradient id="paint8_radial_15_3852" cx="0" cy="0" r="1" gradientUnits="userSpaceOnUse" gradientTransform="translate(225.086 -162.033) scale(332.408 332.408)">
            <stop stop-color="#A48A7B"/>
            <stop offset="1" stop-color="white"/>
        </radialGradient>
    </defs>
</svg>
