<svg width="1025" height="695" viewBox="0 0 1025 695" fill="none" xmlns="http://www.w3.org/2000/svg">
    <path d="M929.301 634.727C812.5 631.341 675.192 632.357 553.041 630.551C513.81 630.664 481.415 634.388 444.859 638C339.649 634.953 218.092 634.05 106.938 634.727C95.9415 632.583 76.6233 619.603 75.4345 614.863C73.0568 609.446 71.5708 592.629 70.6792 584.955L957.239 595.338L960.211 605.157V614.75C959.616 618.926 939.109 633.598 929.301 634.727Z" fill="url(#paint0_radial_11_4)"/>
    <g opacity="0.7" filter="url(#filter0_d_11_4)">
        <path d="M929.301 625.021C806.259 625.585 667.465 626.375 549.178 622.651C509.947 622.763 470.418 625.811 431.188 628.632C325.977 625.585 218.092 624.344 106.938 625.021C95.9414 622.876 76.6232 609.897 75.4344 605.157C70.3819 592.968 68.5987 572.201 70.3819 555.61C70.6791 543.986 67.1127 532.699 62.6546 521.526C62.9518 470.399 65.6266 381.238 73.354 328.983C71.5707 310.022 68.5987 291.061 62.3574 271.987C61.1686 220.973 62.6546 241.74 71.2735 190.613C64.1406 158.786 65.0322 118.381 65.3294 86.5541C75.1372 78.5409 87.3225 71.092 103.074 64.4331C196.396 60.7086 373.53 62.063 465.069 58.1128C561.957 60.8215 666.276 61.4987 764.353 60.37C812.203 65.1103 873.13 65.9003 921.277 69.1733C935.543 74.7036 949.808 81.8139 959.319 88.0213C959.913 118.494 956.05 157.206 950.106 188.243C951.592 197.498 958.13 206.865 961.399 219.055C959.022 235.533 954.266 250.43 952.78 264.877C950.7 307.652 954.564 392.863 962.291 435.638C955.455 479.315 953.375 518.14 953.672 561.931C952.781 576.264 955.158 590.711 960.211 605.157C959.616 609.22 939.109 624.005 929.301 625.021Z" fill="#959595"/>
    </g>
    <path d="M100.102 471.077C87.6197 465.772 75.7315 460.242 64.1406 454.26C63.2489 479.316 62.6545 502.904 62.6545 521.526C67.1126 532.7 70.679 543.986 70.3818 555.611C68.5986 572.201 70.3818 592.968 75.4343 605.157C76.6231 609.898 95.9414 622.877 106.938 625.021C149.141 624.795 190.948 624.833 232.358 625.134C229.98 622.312 227.306 619.265 224.631 616.105C208.284 597.144 186.886 573.894 181.536 568.59C176.186 549.704 165.586 531.195 149.735 513.062C136.856 504.71 125.662 496.207 116.151 487.555C110.009 482.137 104.659 476.645 100.102 471.077Z" fill="url(#paint1_radial_11_4)"/>
    <path d="M198.774 486.764C188.372 492.633 169.945 503.467 161.921 512.722C159.246 515.544 159.246 518.252 161.029 521.187C171.728 536.536 179.753 551.998 185.697 567.799C201.151 581.907 215.12 599.739 226.414 616.104C228.593 619.189 230.674 622.199 232.655 625.133C299.823 625.584 366.001 626.751 431.187 628.632C430.593 626.036 430.296 622.65 430.296 618.7C429.701 597.707 433.268 560.914 432.673 541.615C406.817 521.525 385.715 500.307 367.586 478.186C362.236 471.866 359.561 471.189 344.107 470.286C332.516 469.609 313.792 469.27 294.771 468.706C279.613 468.254 264.159 467.69 251.676 467.238C244.246 467.013 237.41 468.254 232.655 470.85C221.064 476.945 209.77 482.362 198.774 486.764Z" fill="url(#paint2_radial_11_4)"/>
    <path d="M156.274 509.901C159.246 509.562 191.344 488.118 195.802 485.41C208.582 481.798 218.389 476.832 228.792 470.286C233.547 467.352 231.169 467.578 224.036 467.803C217.498 467.916 187.777 469.27 161.326 469.948C146.466 470.399 132.2 470.625 122.987 470.625C120.312 470.625 117.934 470.738 116.448 471.189C113.774 471.866 112.882 473.334 114.962 476.719C115.359 477.246 115.755 477.81 116.151 478.412C125.067 489.586 136.658 499.63 150.032 509.224C153.005 509.901 154.788 510.127 156.274 509.901Z" fill="url(#paint3_radial_11_4)"/>
    <path d="M120.312 469.271C152.707 469.271 188.966 467.465 220.767 466.336C229.683 466.11 233.547 465.772 242.463 464.643C260.295 465.998 276.939 466.449 295.068 467.126C310.523 467.69 326.275 467.578 337.865 467.013C345.89 466.675 351.834 466.11 353.32 465.546C357.481 463.966 361.047 463.063 363.425 459.339C380.366 432.026 388.687 385.075 391.065 346.702C391.362 341.397 388.985 339.253 384.527 334.174C367.586 315.552 322.708 282.145 303.687 269.73C268.914 250.995 229.683 229.099 213.634 220.973C190.452 212.057 168.162 203.254 144.98 194.451C140.225 194.225 132.498 193.773 123.581 193.322C106.344 192.419 84.9449 191.29 71.2735 190.613C62.6546 241.74 61.1686 220.973 62.3574 272.1C68.5987 291.061 71.5707 310.022 73.354 328.983C68.3015 362.051 65.6267 410.131 64.1406 453.808C71.2735 456.291 87.3225 463.966 100.697 467.465C107.83 469.271 110.207 469.271 116.449 469.271C117.637 469.271 118.925 469.271 120.312 469.271Z" fill="url(#paint4_radial_11_4)"/>
    <path d="M122.987 190.614C129.922 190.689 136.857 190.877 143.791 191.178C163.407 154.836 188.075 119.059 216.904 83.9588C214.922 79.8957 213.337 75.7574 212.148 71.5439C212.148 71.1677 212.148 70.8291 212.148 70.5282C211.356 67.7442 210.86 64.9227 210.662 62.0635C169.945 62.6278 132.498 63.305 103.074 64.4336C87.3227 71.0925 75.1373 78.5414 65.3295 86.5546C65.0323 118.382 64.1407 158.787 71.2736 190.614C88.5115 190.727 105.749 190.388 122.987 190.614Z" fill="url(#paint5_radial_11_4)"/>
    <path d="M218.687 90.6168C188.075 123.46 165.19 157.431 150.33 192.419C176.484 202.351 191.047 210.702 213.635 220.973C228.792 226.165 289.422 256.637 310.226 266.795C337.271 285.304 362.534 307.764 383.041 329.772C390.174 337.221 393.146 335.641 398.793 330.224C424.055 306.071 446.048 281.016 463.286 254.832C466.555 249.189 467.149 225.6 469.824 213.524C471.31 188.469 476.363 158.899 487.062 128.764C487.657 126.959 489.143 124.814 487.062 123.46C477.254 116.914 289.422 93.2127 234.142 87.1181C230.872 86.7795 224.928 86.1023 223.739 86.4409C221.956 86.8924 219.876 89.2625 218.687 90.6168Z" fill="url(#paint6_radial_11_4)"/>
    <path d="M229.683 83.5066C317.061 93.4385 402.656 105.628 486.765 119.735C490.926 120.526 495.086 120.413 498.95 119.51C514.207 116.124 528.968 112.437 543.233 108.449C558.49 104.311 573.35 99.7964 587.814 94.9057C570.873 89.4883 547.989 82.9423 528.076 77.2992C517.079 74.2519 503.705 70.866 490.331 67.4802C478.74 64.5457 467.149 61.4985 457.639 58.4512C395.523 60.8213 299.823 61.047 215.715 62.0628C215.418 64.6586 215.715 67.4802 216.606 70.076C216.606 70.5274 216.705 70.9789 216.904 71.4304C217.498 74.2519 218.39 77.0735 220.767 79.7822C222.253 81.7008 225.522 83.0552 229.683 83.5066Z" fill="url(#paint7_radial_11_4)"/>
    <path d="M529.859 75.8321C550.267 81.6257 571.071 87.1935 592.272 92.5357C594.352 92.9871 596.433 93.3257 598.81 93.5514C664.492 99.4203 728.986 107.208 791.993 116.914C793.479 117.14 795.262 117.591 796.748 117.478C798.531 117.253 800.017 116.575 801.206 115.898C821.713 106.305 887.395 76.6221 921.277 69.1732C873.13 65.9002 812.203 65.1101 764.353 60.3699C668.653 61.3857 566.712 60.9342 471.607 58.3384C480.919 61.348 490.43 64.2825 500.139 67.1416C509.847 70.0761 519.754 72.9729 529.859 75.8321Z" fill="url(#paint8_radial_11_4)"/>
    <path d="M588.408 98.0664C575.926 101.339 558.391 106.305 544.719 110.03C530.751 113.867 512.621 118.382 501.625 121.88C498.058 122.934 495.978 124.401 495.383 126.282C484.387 155.175 478.443 181.472 469.824 213.525C470.121 219.958 469.527 240.16 470.121 247.835C470.418 250.318 469.23 251.898 476.957 252.236C483.198 252.462 532.831 246.142 542.639 245.126C572.954 236.887 645.769 220.748 683.216 218.152C701.94 214.653 739.091 209.123 761.381 205.963C764.353 205.624 766.136 204.496 766.136 203.141C767.028 185.309 760.787 176.054 749.493 158.674C749.691 158.448 749.988 158.26 750.385 158.109C767.92 148.064 780.996 136.101 791.101 123.912C791.696 122.896 792.885 121.542 791.696 120.526C790.804 119.849 788.129 119.51 786.049 119.172C727.203 108.45 665.979 101.001 602.377 96.9378C597.324 96.5992 592.866 96.9378 588.408 98.0664Z" fill="url(#paint9_radial_11_4)"/>
    <path d="M683.216 218.152C634.475 225.375 579.789 236.436 546.502 247.948C532.237 249.528 496.572 251.672 479.334 254.155C468.338 255.735 466.852 256.977 463.582 261.604C445.75 287.901 422.866 313.295 395.523 338.125C394.334 380.787 385.418 425.367 368.774 467.239C387.498 493.649 408.897 514.416 432.376 534.957C432.376 534.882 432.376 534.806 432.376 534.731C479.929 548.952 506.38 552.225 551.555 563.511C586.328 572.201 613.968 578.183 641.31 586.309C647.552 588.228 661.223 584.278 665.978 582.472C692.727 572.653 717.395 561.254 739.388 548.275C777.628 491.242 820.921 436.052 869.266 382.705C869.86 365.851 870.455 349.035 871.049 332.256C871.346 323.453 862.727 318.035 856.189 314.085C844.004 303.025 786.049 244.788 778.619 218.716C775.845 216.008 772.972 213.299 770 210.59C768.514 209.349 765.245 208.672 761.975 209.01C739.091 211.38 706.398 215.895 683.216 218.152Z" fill="url(#paint10_radial_11_4)"/>
    <path d="M638.636 588.566C600.297 573.443 454.964 543.647 446.048 544.212C444.264 544.324 442.481 544.776 440.698 545.792C438.618 554.821 435.943 596.58 432.971 618.701C432.376 622.764 431.782 626.263 431.188 628.633C470.418 625.811 509.947 622.764 549.177 622.651C565.028 623.178 581.176 623.591 597.622 623.892L610.104 614.751L638.041 594.661C641.608 592.178 642.202 590.034 638.636 588.566Z" fill="url(#paint11_radial_11_4)"/>
    <path d="M729.283 558.094C703.129 571.186 676.381 582.133 649.038 590.711C645.174 593.419 626.748 605.834 612.482 614.863C606.241 619.039 600.594 622.538 597.919 623.892C704.318 626.15 822.605 625.472 929.301 625.021C927.221 624.908 920.385 622.764 916.224 621.184C876.102 605.157 783.671 570.621 756.031 556.288C744.441 550.193 740.874 552.112 729.283 558.094Z" fill="url(#paint12_radial_11_4)"/>
    <path d="M759.895 527.507C750.087 541.841 751.573 546.243 763.164 554.256C773.269 561.366 903.147 615.427 929.301 625.021C929.896 624.945 930.688 624.795 931.679 624.569C942.081 621.748 959.616 608.881 960.21 605.157C955.158 590.71 952.78 576.264 953.672 561.931C953.375 518.14 955.455 479.315 962.291 435.637C956.05 400.989 952.186 338.463 952.186 293.205C934.354 299.864 916.819 306.523 899.878 313.52C874.616 323.791 875.805 326.5 875.21 336.319C874.021 351.781 874.913 367.807 879.074 383.382C834.493 427.85 794.073 478.187 759.895 527.507Z" fill="url(#paint13_radial_11_4)"/>
    <path d="M778.619 218.716C800.612 244.223 830.332 287.562 861.539 312.73C864.214 314.762 865.7 316.229 867.186 317.358C872.833 321.308 878.777 318.938 884.424 316.906L952.186 291.625C952.186 281.693 952.186 272.664 952.78 264.877C954.266 250.43 959.022 235.533 961.399 219.055C958.13 206.865 951.592 197.498 950.106 188.243C956.05 157.206 959.913 118.494 959.319 88.0214C949.808 81.8139 935.543 74.7036 921.277 69.1733C877.885 84.5226 838.951 102.355 801.504 120.413C789.616 132.715 776.539 145.355 760.49 156.755C758.31 158.335 757.716 160.028 758.706 161.833C769.703 181.02 768.514 205.85 778.619 218.716Z" fill="url(#paint14_radial_11_4)"/>
    <path style="mix-blend-mode:multiply" opacity="0.5" d="M232.358 625.133C190.947 624.832 149.141 624.795 106.938 625.021V634.727C218.092 634.05 339.648 634.953 444.859 638L431.187 628.632C366.001 626.751 299.823 625.585 232.655 625.133C232.358 625.133 232.358 625.133 232.358 625.133Z" fill="url(#paint15_radial_11_4)"/>
    <path style="mix-blend-mode:multiply" d="M431.188 628.632L444.859 638C481.415 634.388 513.81 630.664 553.041 630.551L549.177 622.65C509.947 622.763 470.418 625.811 431.188 628.632Z" fill="url(#paint16_radial_11_4)"/>
    <path style="mix-blend-mode:multiply" opacity="0.5" d="M549.177 622.65L553.041 630.551C675.192 632.357 812.5 631.341 929.301 634.727V625.02C822.605 625.472 704.318 626.149 597.919 623.892C597.721 623.892 597.622 623.892 597.622 623.892C581.176 623.591 565.028 623.177 549.177 622.65Z" fill="url(#paint17_radial_11_4)"/>
    <defs>
        <filter id="filter0_d_11_4" x="0" y="0.112793" width="1024.29" height="694.52" filterUnits="userSpaceOnUse" color-interpolation-filters="sRGB">
            <feFlood flood-opacity="0" result="BackgroundImageFix"/>
            <feColorMatrix in="SourceAlpha" type="matrix" values="0 0 0 0 0 0 0 0 0 0 0 0 0 0 0 0 0 0 127 0" result="hardAlpha"/>
            <feOffset dy="4"/>
            <feGaussianBlur stdDeviation="31"/>
            <feComposite in2="hardAlpha" operator="out"/>
            <feColorMatrix type="matrix" values="0 0 0 0 0.271719 0 0 0 0 0.341191 0 0 0 0 0.5875 0 0 0 0.25 0"/>
            <feBlend mode="normal" in2="BackgroundImageFix" result="effect1_dropShadow_11_4"/>
            <feBlend mode="normal" in="SourceGraphic" in2="effect1_dropShadow_11_4" result="shape"/>
        </filter>
        <radialGradient id="paint0_radial_11_4" cx="0" cy="0" r="1" gradientUnits="userSpaceOnUse" gradientTransform="translate(562.255 354.715) scale(886.262 336.556)">
            <stop stop-color="#9DA9AB"/>
            <stop offset="1" stop-color="#555763"/>
        </radialGradient>
        <radialGradient id="paint1_radial_11_4" cx="0" cy="0" r="1" gradientUnits="userSpaceOnUse" gradientTransform="translate(7.3746 421.869) scale(814.636 309.356)">
            <stop stop-color="#717485"/>
            <stop offset="1" stop-color="#9DA9AB"/>
        </radialGradient>
        <radialGradient id="paint2_radial_11_4" cx="0" cy="0" r="1" gradientUnits="userSpaceOnUse" gradientTransform="translate(306.362 421.191) scale(619.373 235.205)">
            <stop stop-color="#717485"/>
            <stop offset="1" stop-color="#9DA9AB"/>
        </radialGradient>
        <radialGradient id="paint3_radial_11_4" cx="0" cy="0" r="1" gradientUnits="userSpaceOnUse" gradientTransform="translate(175.889 437.556) scale(271.942 103.269)">
            <stop stop-color="#717485"/>
            <stop offset="1" stop-color="#9DA9AB"/>
        </radialGradient>
        <radialGradient id="paint4_radial_11_4" cx="0" cy="0" r="1" gradientUnits="userSpaceOnUse" gradientTransform="translate(-263.973 232.598) scale(1183.17 449.305)">
            <stop stop-color="#717485"/>
            <stop offset="1" stop-color="#9DA9AB"/>
        </radialGradient>
        <radialGradient id="paint5_radial_11_4" cx="0" cy="0" r="1" gradientUnits="userSpaceOnUse" gradientTransform="translate(-25.9121 56.1946) scale(429.162 162.973)">
            <stop stop-color="#717485"/>
            <stop offset="1" stop-color="#9DA9AB"/>
        </radialGradient>
        <radialGradient id="paint6_radial_11_4" cx="0" cy="0" r="1" gradientUnits="userSpaceOnUse" gradientTransform="translate(152.41 67.1414) scale(899.339 341.522)">
            <stop stop-color="#717485"/>
            <stop offset="1" stop-color="#9DA9AB"/>
        </radialGradient>
        <radialGradient id="paint7_radial_11_4" cx="0" cy="0" r="1" gradientUnits="userSpaceOnUse" gradientTransform="translate(441.887 -37.369) scale(485.334 184.304)">
            <stop stop-color="#717485"/>
            <stop offset="1" stop-color="#9DA9AB"/>
        </radialGradient>
        <radialGradient id="paint8_radial_11_4" cx="0" cy="0" r="1" gradientUnits="userSpaceOnUse" gradientTransform="translate(993.497 -10.7334) scale(669.601 254.279)">
            <stop stop-color="#AAB4B8"/>
            <stop offset="1" stop-color="#828599"/>
        </radialGradient>
        <radialGradient id="paint9_radial_11_4" cx="0" cy="0" r="1" gradientUnits="userSpaceOnUse" gradientTransform="translate(604.457 54.1629) scale(706.454 268.274)">
            <stop stop-color="#717485"/>
            <stop offset="1" stop-color="#9DA9AB"/>
        </radialGradient>
        <radialGradient id="paint10_radial_11_4" cx="0" cy="0" r="1" gradientUnits="userSpaceOnUse" gradientTransform="translate(509.649 182.826) scale(1486.32 564.425)">
            <stop stop-color="#717485"/>
            <stop offset="1" stop-color="#9DA9AB"/>
        </radialGradient>
        <radialGradient id="paint11_radial_11_4" cx="0" cy="0" r="1" gradientUnits="userSpaceOnUse" gradientTransform="translate(542.639 486.539) scale(536.156 203.604)">
            <stop stop-color="#717485"/>
            <stop offset="1" stop-color="#9DA9AB"/>
        </radialGradient>
        <radialGradient id="paint12_radial_11_4" cx="0" cy="0" r="1" gradientUnits="userSpaceOnUse" gradientTransform="translate(763.462 492.972) scale(692.485 262.969)">
            <stop stop-color="#717485"/>
            <stop offset="1" stop-color="#9DA9AB"/>
        </radialGradient>
        <radialGradient id="paint13_radial_11_4" cx="0" cy="0" r="1" gradientUnits="userSpaceOnUse" gradientTransform="translate(1218.18 599.965) scale(1215.27 461.494)">
            <stop stop-color="#717485"/>
            <stop offset="1" stop-color="#9DA9AB"/>
        </radialGradient>
        <radialGradient id="paint14_radial_11_4" cx="0" cy="0" r="1" gradientUnits="userSpaceOnUse" gradientTransform="translate(1186.98 254.493) scale(695.457 264.098)">
            <stop stop-color="#9DA9AB"/>
            <stop offset="1" stop-color="#717485"/>
        </radialGradient>
        <radialGradient id="paint15_radial_11_4" cx="0" cy="0" r="1" gradientUnits="userSpaceOnUse" gradientTransform="translate(302.498 641.047) scale(454.425 172.567)">
            <stop stop-color="#E2F1F7"/>
            <stop offset="1" stop-color="#9A9DB5"/>
        </radialGradient>
        <radialGradient id="paint16_radial_11_4" cx="0" cy="0" r="1" gradientUnits="userSpaceOnUse" gradientTransform="translate(520.349 598.385) scale(226.172 85.8881)">
            <stop stop-color="#E2F1F7"/>
            <stop offset="1" stop-color="#9A9DB5"/>
        </radialGradient>
        <radialGradient id="paint17_radial_11_4" cx="0" cy="0" r="1" gradientUnits="userSpaceOnUse" gradientTransform="translate(774.161 549.967) scale(429.162 162.973)">
            <stop stop-color="#E2F1F7"/>
            <stop offset="1" stop-color="#9A9DB5"/>
        </radialGradient>
    </defs>
</svg>
