<svg id="SvgjsSvg1268" width="256" height="256" xmlns="http://www.w3.org/2000/svg" version="1.1" xmlns:xlink="http://www.w3.org/1999/xlink" xmlns:svgjs="http://svgjs.com/svgjs"><defs id="SvgjsDefs1269"></defs><g id="SvgjsG1270"><svg xmlns="http://www.w3.org/2000/svg" viewBox="0 0 8.467 8.467" width="256" height="256"><defs><clipPath id="a"><path d="M 0,32 H 32 V 0 H 0 Z" fill="#FFFFFF" class="color000 svgShape"></path></clipPath></defs><g stroke-width="1.333" clip-path="url(#a)" transform="matrix(.26459 0 0 -.26459 0 8.467)" fill="#FFFFFF" class="color000 svgShape"><path d="m 0,0 c -0.552,0 -1,-0.447 -1,-1 v -25.764 c -0.008,-0.551 0.434,-1.006 0.986,-1.013 0.552,-0.008 1.006,0.433 1.014,0.985 V -26.764 -2 h 24.475 c 0.552,-0.008 1.005,0.434 1.013,0.986 0.008,0.552 -0.433,1.006 -0.985,1.014 -0.01,0.001 -0.019,0.001 -0.028,0 z m 21.299,-8.365 c -2.054,0 -3.74,-1.687 -3.74,-3.74 0,-2.054 1.686,-3.741 3.74,-3.741 2.054,0 3.74,1.687 3.74,3.741 0,2.053 -1.686,3.74 -3.74,3.74 M 6.614,-6.614 h 21.385 c 0.555,0 1,-0.447 1,-1 v -9.02 l -8.488,-2.939 c -0.389,0.324 -0.789,0.667 -1.096,0.918 l -6.656,5.435 c -0.626,0.51 -1.384,0.797 -2.158,0.85 -0.774,0.052 -1.564,-0.13 -2.252,-0.551 l -2.735,-1.672 v 6.979 c 0,0.553 0.446,1 1,1 m 0,2 c -1.645,0 -3,-1.356 -3,-3 v -8.74 -12.645 c 0,-1.647 1.355,-3 3,-3 h 21.385 c 1.646,0 3,1.353 3,3 v 11.496 c 0.017,0.106 0.017,0.213 0,0.318 v 9.571 c 0,1.644 -1.354,3 -3,3 z" transform="translate(.994 31.999)" fill="#FFFFFF" class="color000 svgShape"></path></g></svg></g></svg>
